<svg width="24" height="24" viewBox="0 0 24 24" fill="none" xmlns="http://www.w3.org/2000/svg">
<path d="M10.129 1.2073C9.69031 1.1137 8.84263 1.24762 8.27191 1.29226C7.95727 1.31674 7.55359 1.38994 7.28503 1.5673C6.6003 2.01889 5.66107 1.57681 5.10629 2.18097C5.03313 2.26064 4.98386 2.32684 4.97479 2.36602C4.90807 2.65234 4.71199 3.09946 4.51711 3.2965C4.18711 3.62986 3.80191 3.47194 3.57607 3.85234C3.48511 4.00474 3.03415 4.57834 2.88343 4.67002C2.05279 5.1769 2.49583 6.02506 2.30455 6.74962C2.29443 6.78795 2.28313 6.82488 2.27099 6.86061C2.03902 7.54339 2.47423 8.2413 2.47423 8.96242C2.47423 9.00247 2.49256 9.04041 2.52365 9.06567C2.65643 9.17352 2.74542 9.2531 2.80141 9.34717C2.94414 9.587 2.99966 9.88078 3.20208 10.0729C3.46109 10.3188 3.71861 10.5694 3.98359 10.7977C4.25911 11.0353 4.55311 11.0622 4.88431 10.9698C5.38999 10.8289 5.80207 11.0396 6.22783 10.9859C6.47047 10.9859 6.99703 10.6765 7.21975 10.5543C7.5614 10.3667 7.81991 10.4539 8.02837 10.6122C8.42807 10.9157 8.83916 10.9043 9.33103 11.0041C9.49519 11.0478 9.66031 12.1832 9.65431 12.2276C9.61183 12.4914 9.38983 12.7028 9.53743 12.9409C9.80791 13.377 10.3016 13.6902 10.4585 14.1896C10.5963 14.6279 10.6918 15.1307 10.8423 15.5514C11.0773 16.208 10.7077 16.3064 10.5265 16.9299C10.4144 17.3179 10.4525 17.6406 10.5553 17.9378C10.99 19.1938 11.6187 20.7217 12.0269 21.9865C12.1558 22.3857 12.2042 22.5733 12.5752 22.7689C12.6529 22.8098 12.7181 22.8331 12.7465 22.8277C14.0765 22.5455 14.9557 22.7039 15.89 21.4139C16.0396 21.2077 16.2285 21.0255 16.2903 20.7784C16.3634 20.4863 16.4444 20.1495 16.5377 20.1111C17.0501 19.9016 17.3842 19.8865 17.2942 19.251C17.293 19.2423 17.0374 18.4119 17.221 18.435C17.2489 18.4393 18.3423 17.6648 18.4925 17.5895C19.0309 17.3178 19.0762 16.5339 18.9764 15.9572C18.9113 15.4575 18.7988 15.4098 18.6857 14.8815C18.6082 14.5227 18.5924 13.8527 18.6514 13.7641C18.6751 13.73 19.1856 13.1169 19.5792 12.6414C19.8574 12.3053 20.162 11.9924 20.4823 11.6961C20.8811 11.3271 21.1977 10.9817 21.4913 10.4087C21.6155 10.1661 22.1866 9.19474 22.1269 8.69842C22.1089 8.54892 21.9669 8.46016 21.8205 8.49571C21.6346 8.54089 21.3652 8.6458 21.1414 8.74705C20.8801 8.86528 20.5749 8.95614 20.2881 8.95038C19.8975 8.94255 19.7772 8.51731 19.519 8.22406C19.4381 8.13218 19.3062 8.02714 19.0913 7.85146C18.6668 7.50658 18.0332 6.95986 17.7992 6.4513C17.5536 5.91738 17.3504 5.38882 17.0681 4.87335C17.0307 4.80499 16.9857 4.72942 16.9268 4.64362C16.6985 4.31098 16.4852 3.4465 16.1609 3.32722C15.919 3.21754 15.926 3.17386 15.709 3.0865C15.6395 3.0585 15.4983 3.03595 15.3215 3.01274C14.5038 2.90537 13.5459 2.16077 12.8631 2.6233C12.8091 2.65978 12.4906 3.57442 12.2813 3.25738C12.1525 3.0853 11.918 3.0145 11.7241 2.99674C11.4248 2.96938 11.4925 2.6953 11.2205 2.61178C11.0774 2.5678 10.9348 2.53118 10.7972 2.49472C10.3854 2.3856 10.3072 1.85821 10.4103 1.44486C10.4267 1.37892 10.4297 1.3407 10.3715 1.30562C10.2837 1.25272 10.1353 1.20878 10.129 1.2073Z" fill="white"/>
</svg>
