<svg width="84" height="44" viewBox="0 0 84 44" fill="none" xmlns="http://www.w3.org/2000/svg">
<path d="M13.3295 11.1943C15.052 11.1943 16.6821 11.5307 18.1965 12.1223C21.8035 4.94173 29.2023 0 37.7688 0C45.6301 0 52.5087 4.16452 56.3699 10.4055C57.8382 9.91827 59.4104 9.63986 61.0405 9.63986C67.6647 9.63986 73.2717 13.99 75.1908 20.0105C75.6185 19.9293 76.0578 19.8945 76.4971 19.8945C80.6474 19.8945 84 23.2702 84 27.4231C84 31.5877 80.6358 34.9518 76.4971 34.9518C75.0867 34.9518 73.7572 34.5457 72.6358 33.8729C69.9075 37.2834 65.7341 39.4759 61.0405 39.4759C58.2543 39.4759 55.6647 38.6987 53.4451 37.3646C49.4682 41.4479 43.9191 44 37.7688 44C30.8439 44 24.6821 40.7635 20.659 35.7406C18.5549 37.1326 16.0347 37.9446 13.3295 37.9446C5.96532 37.9446 0 31.9589 0 24.5695C0 17.1801 5.97688 11.1943 13.3295 11.1943Z" fill="#E1FAFF"/>
<path d="M13.3295 11.1943C15.052 11.1943 16.6821 11.5307 18.1965 12.1223C21.8035 4.94173 29.2023 0 37.7688 0C45.6301 0 52.5087 4.16452 56.3699 10.4055C57.8382 9.91827 59.4104 9.63986 61.0405 9.63986C67.6647 9.63986 73.2717 13.99 75.1908 20.0105C75.6185 19.9293 76.0578 19.8945 76.4971 19.8945C80.6474 19.8945 84 23.2702 84 27.4231C84 31.5877 80.6358 34.9518 76.4971 34.9518C75.0867 34.9518 73.7572 34.5457 72.6358 33.8729C69.9075 37.2834 65.7341 39.4759 61.0405 39.4759C58.2543 39.4759 55.6647 38.6987 53.4451 37.3646C49.4682 41.4479 43.9191 44 37.7688 44C30.8439 44 24.6821 40.7635 20.659 35.7406C18.5549 37.1326 16.0347 37.9446 13.3295 37.9446C5.96532 37.9446 0 31.9589 0 24.5695C0 17.1801 5.97688 11.1943 13.3295 11.1943Z" fill="url(#paint0_linear)"/>
<defs>
<linearGradient id="paint0_linear" x1="39.1388" y1="6.40055e-07" x2="48.6989" y2="53.0827" gradientUnits="userSpaceOnUse">
<stop stop-color="white"/>
<stop offset="1" stop-color="white" stop-opacity="0"/>
</linearGradient>
</defs>
</svg>
