<svg width="24" height="24" viewBox="0 0 24 24" fill="none" xmlns="http://www.w3.org/2000/svg">
<mask id="mask0" mask-type="alpha" maskUnits="userSpaceOnUse" x="-5" y="-5" width="34" height="34">
<path fill-rule="evenodd" clip-rule="evenodd" d="M-4 12C-4 3.16344 3.16344 -4 12 -4C20.8366 -4 28 3.16344 28 12C28 20.8366 20.8366 28 12 28C3.16344 28 -4 20.8366 -4 12Z" fill="white" stroke="white"/>
</mask>
<g mask="url(#mask0)">
<path fill-rule="evenodd" clip-rule="evenodd" d="M12.0009 3.4668C9.68339 3.4668 9.39255 3.47693 8.48232 3.51835C7.57386 3.55995 6.95377 3.70378 6.41118 3.9148C5.84993 4.13276 5.37384 4.42432 4.89952 4.89881C4.42485 5.37313 4.13329 5.84922 3.91462 6.41029C3.70307 6.95306 3.55906 7.57333 3.51818 8.48143C3.47746 9.39166 3.4668 9.68268 3.4668 12.0002C3.4668 14.3178 3.47711 14.6077 3.51835 15.5179C3.56013 16.4264 3.70395 17.0465 3.9148 17.5891C4.13294 18.1503 4.4245 18.6264 4.89899 19.1007C5.37313 19.5754 5.84922 19.8677 6.41012 20.0856C6.95306 20.2967 7.57333 20.4405 8.4816 20.4821C9.39184 20.5235 9.68251 20.5336 11.9999 20.5336C14.3176 20.5336 14.6075 20.5235 15.5178 20.4821C16.4262 20.4405 17.047 20.2967 17.59 20.0856C18.151 19.8677 18.6264 19.5754 19.1006 19.1007C19.5752 18.6264 19.8668 18.1503 20.0855 17.5893C20.2952 17.0465 20.4392 16.4262 20.4819 15.5181C20.5228 14.6079 20.5335 14.3178 20.5335 12.0002C20.5335 9.68268 20.5228 9.39184 20.4819 8.4816C20.4392 7.57315 20.2952 6.95306 20.0855 6.41047C19.8668 5.84922 19.5752 5.37313 19.1006 4.89881C18.6259 4.42414 18.1512 4.13258 17.5894 3.9148C17.0454 3.70378 16.425 3.55995 15.5165 3.51835C14.6063 3.47693 14.3165 3.4668 11.9983 3.4668H12.0009ZM11.7161 5.00449H11.7162L12.0007 5.00457C14.2791 5.00457 14.5491 5.01275 15.4489 5.05364C16.2809 5.09169 16.7324 5.23071 17.0332 5.34751C17.4315 5.50218 17.7154 5.68707 18.0139 5.98574C18.3125 6.28441 18.4974 6.56886 18.6525 6.96708C18.7693 7.26753 18.9085 7.71909 18.9463 8.5511C18.9872 9.45066 18.9961 9.72089 18.9961 11.9982C18.9961 14.2756 18.9872 14.5458 18.9463 15.4454C18.9083 16.2774 18.7693 16.729 18.6525 17.0294C18.4978 17.4276 18.3125 17.7112 18.0139 18.0097C17.7152 18.3084 17.4316 18.4932 17.0332 18.6479C16.7328 18.7653 16.2809 18.9039 15.4489 18.942C14.5493 18.9829 14.2791 18.9917 12.0007 18.9917C9.72205 18.9917 9.452 18.9829 8.55244 18.942C7.72043 18.9036 7.26887 18.7645 6.96789 18.6477C6.56966 18.4931 6.28521 18.3082 5.98654 18.0095C5.68787 17.7108 5.50298 17.4271 5.34796 17.0287C5.23116 16.7283 5.09196 16.2767 5.05409 15.4447C5.0132 14.5451 5.00502 14.2749 5.00502 11.9961C5.00502 9.71733 5.0132 9.44853 5.05409 8.54897C5.09213 7.71696 5.23116 7.2654 5.34796 6.96459C5.50263 6.56637 5.68787 6.28192 5.98654 5.98325C6.28521 5.68458 6.56966 5.49969 6.96789 5.34467C7.26869 5.22733 7.72043 5.08866 8.55244 5.05044C9.33965 5.01489 9.64472 5.00422 11.2351 5.00244V5.00457C11.3837 5.00434 11.5436 5.00441 11.7161 5.00449ZM15.5319 7.44518C15.5319 6.87966 15.9906 6.42152 16.5559 6.42152V6.42117C17.1213 6.42117 17.5799 6.87984 17.5799 7.44518C17.5799 8.01052 17.1213 8.46919 16.5559 8.46919C15.9906 8.46919 15.5319 8.01052 15.5319 7.44518ZM12.0007 7.61793C9.58067 7.61803 7.61862 9.58015 7.61862 12.0002C7.61862 14.4203 9.58077 16.3816 12.0009 16.3816C14.421 16.3816 16.3824 14.4203 16.3824 12.0002C16.3824 9.58009 14.4208 7.61793 12.0007 7.61793ZM14.8454 12.0002C14.8454 10.4292 13.5718 9.15576 12.001 9.15576C10.4299 9.15576 9.15649 10.4292 9.15649 12.0002C9.15649 13.5711 10.4299 14.8447 12.001 14.8447C13.5718 14.8447 14.8454 13.5711 14.8454 12.0002Z" fill="#CB38A6"/>
</g>
</svg>
