<svg width="138" height="40" viewBox="0 0 138 40" fill="none" xmlns="http://www.w3.org/2000/svg">
<path d="M91.1277 33.2531V8.07938C91.1277 7.56127 90.7094 7.14185 90.1926 7.14185H83.2501C82.843 7.14185 82.4831 7.40502 82.359 7.7936L76.5638 25.9604L70.7502 7.7936C70.6261 7.40605 70.2662 7.14288 69.8602 7.14288H62.9361C62.4193 7.14288 62.001 7.5623 62.001 8.08041V33.2531C62.001 33.7712 62.4193 34.1906 62.9361 34.1906H67.5696C68.0863 34.1906 68.5047 33.7712 68.5047 33.2531V27.8746L67.8751 14.9269L74.2845 33.8041C74.3635 34.0354 74.5798 34.1906 74.8238 34.1906H78.3069C78.5509 34.1906 78.7673 34.0354 78.8462 33.803L85.2372 14.9444L84.6076 27.8735V33.252C84.6076 33.7701 85.0259 34.1896 85.5427 34.1896H90.1947C90.7094 34.1896 91.1277 33.7701 91.1277 33.2531Z" fill="white"/>
<path d="M100.671 33.253V15.0276C100.671 14.5095 100.253 14.0901 99.7359 14.0901H95.3433C94.8265 14.0901 94.4082 14.5095 94.4082 15.0276V33.253C94.4082 33.7711 94.8265 34.1906 95.3433 34.1906H99.7359C100.253 34.1895 100.671 33.7701 100.671 33.253Z" fill="white"/>
<path d="M98.3941 12.2547C100.241 11.763 101.34 9.86347 100.85 8.01206C100.359 6.16064 98.4646 5.0584 96.618 5.55013C94.7714 6.04186 93.672 7.94136 94.1625 9.79277C94.6529 11.6442 96.5475 12.7464 98.3941 12.2547Z" fill="white"/>
<path d="M104.811 18.4365H106.433V28.4122C106.433 30.4805 106.946 32.0225 107.971 33.0382C108.997 34.0539 110.584 34.5617 112.733 34.5617C113.701 34.5617 114.638 34.4497 115.543 34.2245C115.961 34.1207 116.253 33.7445 116.253 33.3137V30.5844C116.253 30.0519 115.812 29.6211 115.281 29.6448C115.097 29.653 114.902 29.6571 114.696 29.6571C113.894 29.6571 113.356 29.5081 113.085 29.211C112.813 28.9139 112.676 28.3875 112.676 27.632V18.4365H115.04C115.557 18.4365 115.975 18.0171 115.975 17.499V15.0266C115.975 14.5085 115.557 14.0891 115.04 14.0891H112.676V10.0295C112.676 9.51141 112.258 9.09199 111.741 9.09199H107.367C106.851 9.09199 106.432 9.51141 106.432 10.0295V14.0891H104.81C104.293 14.0891 103.875 14.5085 103.875 15.0266V17.499C103.876 18.0171 104.294 18.4365 104.811 18.4365Z" fill="white"/>
<path d="M134.134 16.3476C132.504 14.5948 130.28 13.719 127.464 13.719C125.463 13.719 123.734 14.1497 122.276 15.0102C120.818 15.8706 119.709 17.0877 118.95 18.6606C118.19 20.2334 117.811 22.0478 117.811 24.1038V24.624C117.811 27.5713 118.762 29.9645 120.664 31.8036C122.566 33.6426 125.056 34.5627 128.132 34.5627C129.774 34.5627 131.309 34.244 132.736 33.6056C133.862 33.1019 134.787 32.4615 135.509 31.6843C135.833 31.3358 135.847 30.8002 135.541 30.4363L133.861 28.4471C133.523 28.0462 132.921 28.002 132.529 28.3505C131.493 29.2716 130.169 29.7332 128.558 29.7332C127.36 29.7332 126.384 29.4114 125.631 28.7669C124.877 28.1233 124.389 27.2372 124.167 26.1105H135.645C136.162 26.1105 136.58 25.6911 136.58 25.173V23.6772C136.579 20.5429 135.764 18.0993 134.134 16.3476ZM130.465 22.1897H124.166C124.511 19.7626 125.598 18.5485 127.426 18.5485C128.415 18.5485 129.174 18.824 129.705 19.375C130.237 19.926 130.49 20.7032 130.465 21.7065V22.1897Z" fill="white"/>
<path d="M50.3447 2.70346C44.0861 -2.63083 33.8368 1.29201 27.0306 6.7034C20.2244 1.29098 9.97515 -2.63083 3.7165 2.70346C-2.54216 8.03775 0.117567 17.8428 5.67284 25.451C9.44095 30.6126 13.4316 35.0526 18.6587 39.5788C19.0043 39.878 19.5282 39.5182 19.3652 39.0905C18.5511 36.9502 17.5873 35.0628 16.6091 33.1775C14.3738 28.8671 11.8618 24.7376 11.2702 23.6973C10.6775 22.6569 9.61936 20.6657 10.4437 19.684C11.3378 18.621 13.245 19.9543 14.6609 21.4213C16.078 22.8882 22.8349 30.0184 27.3505 30.4543C31.8661 30.8902 36.1602 26.6867 37.9679 22.0175C39.3264 18.5079 40.1067 14.1605 40.2636 13.1346C40.4195 12.1086 41.2561 11.206 41.9995 11.278C42.7429 11.35 43.4821 12.0572 43.761 13.3566C44.0399 14.656 44.1671 21.1458 42.2866 25.708C40.7445 29.4489 36.6965 35.5799 34.574 39.1594C34.3187 39.5891 34.8621 40.0486 35.2415 39.7217C40.5497 35.1461 44.5823 30.6671 48.3904 25.451C53.9436 17.8428 56.6044 8.03775 50.3447 2.70346ZM27.0306 25.9445C23.8972 25.9445 21.3564 23.3971 21.3564 20.2555C21.3564 17.114 23.8962 14.5666 27.0306 14.5666C30.164 14.5666 32.7048 17.114 32.7048 20.2555C32.7048 23.3971 30.164 25.9445 27.0306 25.9445Z" fill="#F94144"/>
</svg>
