<svg width="16" height="16" viewBox="0 0 16 16" fill="none" xmlns="http://www.w3.org/2000/svg">
<path fill-rule="evenodd" clip-rule="evenodd" d="M14.033 5.09575C14.413 5.32909 14.6597 5.74908 14.6597 6.22908L14.6663 12.8958C14.6663 13.6291 14.0663 14.2291 13.333 14.2291H2.66634C1.93301 14.2291 1.33301 13.6291 1.33301 12.8958V6.22908C1.33301 5.74908 1.58634 5.32909 1.96634 5.09575L7.32634 1.95575C7.73968 1.70909 8.25968 1.70909 8.67301 1.95575L14.033 5.09575ZM2.49276 6.1225L7.29276 9.1225C7.72609 9.38916 8.27276 9.38916 8.70609 9.1225L13.5061 6.1225L8.67276 3.28916C8.25942 3.0425 7.73942 3.0425 7.32609 3.28916L2.49276 6.1225Z" fill="#F94144"/>
</svg>
