<svg width="16" height="16" viewBox="0 0 16 16" fill="none" xmlns="http://www.w3.org/2000/svg">
<path fill-rule="evenodd" clip-rule="evenodd" d="M3.33301 6.17643C3.33301 3.59643 5.41968 1.50977 7.99968 1.50977C10.5797 1.50977 12.6663 3.59643 12.6663 6.17643C12.6663 8.95643 9.71968 12.7898 8.51301 14.2498C8.24634 14.5698 7.75968 14.5698 7.49301 14.2498C6.27968 12.7898 3.33301 8.95643 3.33301 6.17643ZM6.33301 6.17643C6.33301 7.09643 7.07968 7.8431 7.99968 7.8431C8.91968 7.8431 9.66634 7.09643 9.66634 6.17643C9.66634 5.25643 8.91968 4.50977 7.99968 4.50977C7.07968 4.50977 6.33301 5.25643 6.33301 6.17643Z" fill="#12AF85"/>
</svg>
