<svg width="24" height="24" viewBox="0 0 24 24" fill="none" xmlns="http://www.w3.org/2000/svg">
<g clip-path="url(#clip0)">
<path d="M11.9987 14.4421C11.317 14.4421 10.6353 14.3411 9.97894 14.1644L4.32373 12.4729V16.3356C4.32373 17.0425 4.77817 17.6484 5.45982 17.8504L7.93398 18.5825C10.6606 19.3904 13.5387 19.3904 16.2653 18.5825L18.7395 17.8504C19.4211 17.6484 19.8756 17.0425 19.8756 16.3356V12.4224L14.0184 14.1644C13.362 14.3663 12.6803 14.4421 11.9987 14.4421Z" fill="white"/>
<path d="M23.4855 8.18106L13.5132 5.22722C12.5286 4.92426 11.4682 4.92426 10.4584 5.22722L0.511241 8.18106C-0.170414 8.38303 -0.170414 9.36764 0.511241 9.56961L10.4836 12.5235C11.4682 12.8264 12.5286 12.8264 13.5384 12.5235L22.0717 9.9988V12.2457C21.895 12.3467 21.7688 12.5235 21.7688 12.7254V13.3313C21.7688 13.5586 21.895 13.7605 22.097 13.8363L21.5668 15.0733C21.4911 15.2501 21.592 15.4268 21.794 15.452L22.3494 15.5025C22.4504 15.5025 22.5767 15.5025 22.6776 15.5025L23.2331 15.452C23.4098 15.4268 23.5108 15.2501 23.4603 15.0733L22.9301 13.8363C23.1321 13.7353 23.2583 13.5586 23.2583 13.3313V12.7254C23.2583 12.5235 23.1321 12.3467 22.9554 12.2457V9.74634L23.5108 9.56961C24.1672 9.34239 24.1672 8.38303 23.4855 8.18106Z" fill="white"/>
</g>
<defs>
<clipPath id="clip0">
<rect width="24" height="24" fill="white"/>
</clipPath>
</defs>
</svg>
