<svg width="24" height="24" viewBox="0 0 24 24" fill="none" xmlns="http://www.w3.org/2000/svg">
<path fill-rule="evenodd" clip-rule="evenodd" d="M18.6659 6.49952C19.4003 6.70103 19.9786 7.29478 20.1749 8.04878C20.5315 9.41533 20.5315 12.2666 20.5315 12.2666C20.5315 12.2666 20.5315 15.1178 20.1749 16.4845C19.9786 17.2385 19.4003 17.8322 18.6659 18.0338C17.3351 18.4 11.9982 18.4 11.9982 18.4C11.9982 18.4 6.66126 18.4 5.33035 18.0338C4.596 17.8322 4.01767 17.2385 3.8214 16.4845C3.46484 15.1178 3.46484 12.2666 3.46484 12.2666C3.46484 12.2666 3.46484 9.41533 3.8214 8.04878C4.01767 7.29478 4.596 6.70103 5.33035 6.49952C6.66126 6.1333 11.9982 6.1333 11.9982 6.1333C11.9982 6.1333 17.3351 6.1333 18.6659 6.49952ZM10.4004 9.8667V15.2L14.6671 12.5335L10.4004 9.8667Z" fill="#FF0000"/>
</svg>
