<svg width="126" height="66" viewBox="0 0 126 66" fill="none" xmlns="http://www.w3.org/2000/svg">
<path d="M106.006 16.7915C103.422 16.7915 100.977 17.2961 98.7052 18.1835C93.2948 7.4126 82.1965 0 69.3468 0C57.5549 0 47.237 6.24677 41.4451 15.6082C39.2428 14.8774 36.8844 14.4598 34.4393 14.4598C24.5029 14.4598 16.0925 20.985 13.2139 30.0158C12.5723 29.894 11.9133 29.8418 11.2543 29.8418C5.0289 29.8418 0 34.9053 0 41.1347C0 47.3815 5.04624 52.4276 11.2543 52.4276C13.3699 52.4276 15.3642 51.8186 17.0462 50.8094C21.1387 55.9251 27.3988 59.2138 34.4393 59.2138C38.6185 59.2138 42.5029 58.048 45.8324 56.0469C51.7977 62.1719 60.1214 66 69.3468 66C79.7341 66 88.9769 61.1453 95.0116 53.6109C98.1676 55.6989 101.948 56.917 106.006 56.917C117.052 56.917 126 47.9383 126 36.8542C126 25.7701 117.035 16.7915 106.006 16.7915Z" fill="#E1F4FF"/>
<path d="M106.006 16.7915C103.422 16.7915 100.977 17.2961 98.7052 18.1835C93.2948 7.4126 82.1965 0 69.3468 0C57.5549 0 47.237 6.24677 41.4451 15.6082C39.2428 14.8774 36.8844 14.4598 34.4393 14.4598C24.5029 14.4598 16.0925 20.985 13.2139 30.0158C12.5723 29.894 11.9133 29.8418 11.2543 29.8418C5.0289 29.8418 0 34.9053 0 41.1347C0 47.3815 5.04624 52.4276 11.2543 52.4276C13.3699 52.4276 15.3642 51.8186 17.0462 50.8094C21.1387 55.9251 27.3988 59.2138 34.4393 59.2138C38.6185 59.2138 42.5029 58.048 45.8324 56.0469C51.7977 62.1719 60.1214 66 69.3468 66C79.7341 66 88.9769 61.1453 95.0116 53.6109C98.1676 55.6989 101.948 56.917 106.006 56.917C117.052 56.917 126 47.9383 126 36.8542C126 25.7701 117.035 16.7915 106.006 16.7915Z" fill="url(#paint0_linear)"/>
<defs>
<linearGradient id="paint0_linear" x1="67.2919" y1="9.60083e-07" x2="52.9517" y2="79.624" gradientUnits="userSpaceOnUse">
<stop stop-color="white"/>
<stop offset="1" stop-color="white" stop-opacity="0"/>
</linearGradient>
</defs>
</svg>
