<svg width="130" height="77" viewBox="0 0 130 77" fill="none" xmlns="http://www.w3.org/2000/svg">
<path d="M106.006 16.7915C103.422 16.7915 100.977 17.2961 98.7052 18.1835C93.2948 7.4126 82.1965 0 69.3468 0C57.5549 0 47.237 6.24677 41.4451 15.6082C39.2428 14.8774 36.8844 14.4598 34.4393 14.4598C24.5029 14.4598 16.0925 20.985 13.2139 30.0158C12.5723 29.894 11.9133 29.8418 11.2543 29.8418C5.0289 29.8418 0 34.9053 0 41.1347C0 47.3815 5.04624 52.4276 11.2543 52.4276C13.3699 52.4276 15.3642 51.8186 17.0462 50.8094C21.1387 55.9251 27.3988 59.2138 34.4393 59.2138C38.6185 59.2138 42.5029 58.048 45.8324 56.0469C51.7977 62.1719 60.1214 66 69.3468 66C79.7341 66 88.9769 61.1453 95.0116 53.6109C98.1676 55.6989 101.948 56.917 106.006 56.917C117.052 56.917 126 47.9383 126 36.8542C126 25.7701 117.035 16.7915 106.006 16.7915Z" fill="#E1F4FF"/>
<path d="M106.006 16.7915C103.422 16.7915 100.977 17.2961 98.7052 18.1835C93.2948 7.4126 82.1965 0 69.3468 0C57.5549 0 47.237 6.24677 41.4451 15.6082C39.2428 14.8774 36.8844 14.4598 34.4393 14.4598C24.5029 14.4598 16.0925 20.985 13.2139 30.0158C12.5723 29.894 11.9133 29.8418 11.2543 29.8418C5.0289 29.8418 0 34.9053 0 41.1347C0 47.3815 5.04624 52.4276 11.2543 52.4276C13.3699 52.4276 15.3642 51.8186 17.0462 50.8094C21.1387 55.9251 27.3988 59.2138 34.4393 59.2138C38.6185 59.2138 42.5029 58.048 45.8324 56.0469C51.7977 62.1719 60.1214 66 69.3468 66C79.7341 66 88.9769 61.1453 95.0116 53.6109C98.1676 55.6989 101.948 56.917 106.006 56.917C117.052 56.917 126 47.9383 126 36.8542C126 25.7701 117.035 16.7915 106.006 16.7915Z" fill="url(#paint0_linear)"/>
<path d="M59.3295 44.1943C61.052 44.1943 62.6821 44.5307 64.1965 45.1223C67.8035 37.9417 75.2023 33 83.7688 33C91.6301 33 98.5087 37.1645 102.37 43.4055C103.838 42.9183 105.41 42.6399 107.04 42.6399C113.665 42.6399 119.272 46.99 121.191 53.0105C121.618 52.9293 122.058 52.8945 122.497 52.8945C126.647 52.8945 130 56.2702 130 60.4231C130 64.5877 126.636 67.9518 122.497 67.9518C121.087 67.9518 119.757 67.5457 118.636 66.8729C115.908 70.2834 111.734 72.4759 107.04 72.4759C104.254 72.4759 101.665 71.6987 99.4451 70.3646C95.4682 74.4479 89.9191 77 83.7688 77C76.8439 77 70.6821 73.7635 66.659 68.7406C64.5549 70.1326 62.0347 70.9446 59.3295 70.9446C51.9653 70.9446 46 64.9589 46 57.5695C46 50.1801 51.9769 44.1943 59.3295 44.1943Z" fill="#E1FAFF"/>
<path d="M59.3295 44.1943C61.052 44.1943 62.6821 44.5307 64.1965 45.1223C67.8035 37.9417 75.2023 33 83.7688 33C91.6301 33 98.5087 37.1645 102.37 43.4055C103.838 42.9183 105.41 42.6399 107.04 42.6399C113.665 42.6399 119.272 46.99 121.191 53.0105C121.618 52.9293 122.058 52.8945 122.497 52.8945C126.647 52.8945 130 56.2702 130 60.4231C130 64.5877 126.636 67.9518 122.497 67.9518C121.087 67.9518 119.757 67.5457 118.636 66.8729C115.908 70.2834 111.734 72.4759 107.04 72.4759C104.254 72.4759 101.665 71.6987 99.4451 70.3646C95.4682 74.4479 89.9191 77 83.7688 77C76.8439 77 70.6821 73.7635 66.659 68.7406C64.5549 70.1326 62.0347 70.9446 59.3295 70.9446C51.9653 70.9446 46 64.9589 46 57.5695C46 50.1801 51.9769 44.1943 59.3295 44.1943Z" fill="url(#paint1_linear)"/>
<defs>
<linearGradient id="paint0_linear" x1="67.2919" y1="9.60083e-07" x2="52.9517" y2="79.624" gradientUnits="userSpaceOnUse">
<stop stop-color="white"/>
<stop offset="1" stop-color="white" stop-opacity="0"/>
</linearGradient>
<linearGradient id="paint1_linear" x1="85.1388" y1="33" x2="94.6989" y2="86.0827" gradientUnits="userSpaceOnUse">
<stop stop-color="white"/>
<stop offset="1" stop-color="white" stop-opacity="0"/>
</linearGradient>
</defs>
</svg>
