<svg width="24" height="24" viewBox="0 0 24 24" fill="none" xmlns="http://www.w3.org/2000/svg">
<path fill-rule="evenodd" clip-rule="evenodd" d="M4.00098 4H20.001C21.101 4 22.001 4.9 22.001 6V18C22.001 19.1 21.101 20 20.001 20H4.00098C2.90098 20 2.00098 19.1 2.00098 18L2.01098 6C2.01098 4.9 2.90098 4 4.00098 4ZM12.531 12.67L19.601 8.25C19.851 8.09 20.001 7.82 20.001 7.53C20.001 6.86 19.271 6.46 18.701 6.81L12.001 11L5.30098 6.81C4.73098 6.46 4.00098 6.86 4.00098 7.53C4.00098 7.82 4.15098 8.09 4.40098 8.25L11.471 12.67C11.791 12.87 12.211 12.87 12.531 12.67Z" fill="#4B4A5B"/>
</svg>
