<svg width="24" height="24" viewBox="0 0 24 24" fill="none" xmlns="http://www.w3.org/2000/svg">
<path d="M11.9997 5.62143C13.9525 5.62143 15.2699 6.46499 16.021 7.16988L18.9561 4.3041C17.1534 2.62854 14.8077 1.6001 11.9997 1.6001C7.9321 1.6001 4.41921 3.93432 2.70898 7.33165L6.07165 9.94321C6.91521 7.43565 9.24943 5.62143 11.9997 5.62143Z" fill="#EA4335"/>
<path d="M21.984 12.2312C21.984 11.3761 21.9147 10.7521 21.7644 10.105H12V13.9645H17.7316C17.616 14.9236 16.992 16.3681 15.6053 17.3388L18.8871 19.881C20.8516 18.0668 21.984 15.3974 21.984 12.2312Z" fill="#4285F4"/>
<path d="M6.08316 14.0569C5.86361 13.4098 5.7365 12.7164 5.7365 12C5.7365 11.2835 5.86361 10.5902 6.07161 9.9431L2.70894 7.33154C2.00405 8.74132 1.59961 10.3244 1.59961 12C1.59961 13.6755 2.00405 15.2587 2.70894 16.6684L6.08316 14.0569Z" fill="#FBBC05"/>
<path d="M11.9998 22.4002C14.8078 22.4002 17.1651 21.4758 18.8869 19.8811L15.6051 17.3389C14.7269 17.9514 13.5483 18.3789 11.9998 18.3789C9.24959 18.3789 6.91537 16.5647 6.08337 14.0571L2.7207 16.6687C4.43093 20.066 7.93226 22.4002 11.9998 22.4002Z" fill="#34A853"/>
</svg>
