<svg width="24" height="24" viewBox="0 0 24 24" fill="none" xmlns="http://www.w3.org/2000/svg">
<g opacity="0.8">
<path fill-rule="evenodd" clip-rule="evenodd" d="M5 9.26465C5 5.39465 8.13 2.26465 12 2.26465C15.87 2.26465 19 5.39465 19 9.26465C19 13.4346 14.58 19.1846 12.77 21.3746C12.37 21.8546 11.64 21.8546 11.24 21.3746C9.42 19.1846 5 13.4346 5 9.26465ZM9.5 9.26465C9.5 10.6447 10.62 11.7647 12 11.7647C13.38 11.7647 14.5 10.6447 14.5 9.26465C14.5 7.88465 13.38 6.76465 12 6.76465C10.62 6.76465 9.5 7.88465 9.5 9.26465Z" fill="#4B4A5B"/>
</g>
</svg>
