<svg width="24" height="24" viewBox="0 0 24 24" fill="none" xmlns="http://www.w3.org/2000/svg">
<path d="M3 4H20V18H13L9.5 21L7.25 18H3V4Z" fill="#F94144"/>
<path d="M4 3C3.46957 3 2.96086 3.21071 2.58579 3.58579C2.21071 3.96086 2 4.46957 2 5V17C2 17.5304 2.21071 18.0391 2.58579 18.4142C2.96086 18.7893 3.46957 19 4 19H8V22C8 22.2652 8.10536 22.5196 8.29289 22.7071C8.48043 22.8946 8.73478 23 9 23H9.5C9.75 23 10 22.9 10.2 22.71L13.9 19H20C20.5304 19 21.0391 18.7893 21.4142 18.4142C21.7893 18.0391 22 17.5304 22 17V5C22 3.89 21.1 3 20 3H4ZM4 5H20V17H13.08L10 20.08V17H4V5ZM12.19 6.5C11.3 6.5 10.59 6.68 10.05 7.04C9.5 7.4 9.22 8 9.27 8.69C0.21 8.69 6.57 8.69 11.24 8.69C11.24 8.41 11.34 8.2 11.5 8.06C11.7 7.92 11.92 7.85 12.19 7.85C12.5 7.85 12.77 7.93 12.95 8.11C13.13 8.28 13.22 8.5 13.22 8.8C13.22 9.08 13.14 9.33 13 9.54C12.83 9.76 12.62 9.94 12.36 10.08C11.84 10.4 11.5 10.68 11.29 10.92C11.1 11.16 11 11.5 11 12H13C13 11.72 13.05 11.5 13.14 11.32C13.23 11.15 13.4 11 13.66 10.85C14.12 10.64 14.5 10.36 14.79 10C15.08 9.63 15.23 9.24 15.23 8.8C15.23 8.1 14.96 7.54 14.42 7.12C13.88 6.71 13.13 6.5 12.19 6.5ZM11 13V15H13V13H11Z" fill="#F94144"/>
<path d="M12.1899 6.5C11.2999 6.5 10.5899 6.68 10.0499 7.04C9.49987 7.4 9.21987 8 9.26987 8.69C9.26987 8.69 9.26909 8.69 11.2399 8.69C11.2399 8.41 11.3399 8.2 11.4999 8.06C11.6999 7.92 11.9199 7.85 12.1899 7.85C12.4999 7.85 12.7699 7.93 12.9499 8.11C13.1299 8.28 13.2199 8.5 13.2199 8.8C13.2199 9.08 13.1399 9.33 12.9999 9.54C12.8299 9.76 12.6199 9.94 12.3599 10.08C11.8399 10.4 11.4999 10.68 11.2899 10.92C11.0999 11.16 10.9999 11.5 10.9999 12H12.9999C12.9999 11.72 13.0499 11.5 13.1399 11.32C13.2299 11.15 13.3999 11 13.6599 10.85C14.1199 10.64 14.4999 10.36 14.7899 10C15.0799 9.63 15.2299 9.24 15.2299 8.8C15.2299 8.1 14.9599 7.54 14.4199 7.12C13.8799 6.71 13.1299 6.5 12.1899 6.5ZM10.9999 13V15H12.9999V13H10.9999Z" fill="white"/>
</svg>
