<svg width="50" height="38" viewBox="0 0 50 38" fill="none" xmlns="http://www.w3.org/2000/svg">
<path fill-rule="evenodd" clip-rule="evenodd" d="M3.62606 37.2006C4.24306 37.8857 5.29779 37.6354 5.71794 37.351C17.5285 29.3579 23.4334 21.0787 23.4331 12.5126C23.4331 9.58984 22.3312 6.87133 20.1258 4.35954C17.87 1.69277 15.28 0.359863 12.3572 0.359863C9.07631 0.359863 6.34553 1.38499 4.16558 3.43644C1.98658 5.48669 0.896484 8.1537 0.896484 11.4358C0.896484 17.0064 4.26255 20.8949 10.9925 23.1006C11.2628 23.1891 11.783 23.4673 11.5792 23.9055C10.6879 25.8222 9.33789 27.7447 7.51167 29.6652C6.5804 30.5967 5.08795 31.9137 3.03553 33.6163C2.60382 33.9743 1.93701 34.8378 2.48759 35.7688L3.62606 37.2006ZM29.2395 37.2006C29.8565 37.8857 30.9112 37.6354 31.3314 37.351C43.142 29.3579 49.0468 21.0787 49.0468 12.5126C49.0468 9.58984 47.9447 6.87133 45.7395 4.35954C43.4837 1.69277 40.8937 0.359863 37.9709 0.359863C34.69 0.359863 31.9595 1.38499 29.7793 3.43644C27.6003 5.48669 26.5102 8.1537 26.5102 11.4358C26.5102 17.0064 29.8763 20.8949 36.6062 23.1006C36.8765 23.1891 37.3967 23.4673 37.1929 23.9055C36.3013 25.8222 34.9513 27.7447 33.1251 29.6652C32.1939 30.5967 30.7012 31.9137 28.649 33.6163C28.2173 33.9743 27.5505 34.8378 28.1011 35.7688L29.2395 37.2006Z" fill="#F94144"/>
</svg>
