<svg width="50" height="38" viewBox="0 0 50 38" fill="none" xmlns="http://www.w3.org/2000/svg">
<path fill-rule="evenodd" clip-rule="evenodd" d="M46.3739 0.7994C45.7569 0.114299 44.7022 0.364566 44.2821 0.649002C32.4715 8.64209 26.5666 16.9213 26.5669 25.4873C26.5669 28.4102 27.6688 31.1287 29.8742 33.6405C32.13 36.3072 34.72 37.6401 37.6428 37.6401C40.9237 37.6401 43.6545 36.615 45.8344 34.5636C48.0134 32.5133 49.1035 29.8463 49.1035 26.5642C49.1035 20.9936 45.7374 17.1051 39.0075 14.8994C38.7372 14.8109 38.217 14.5327 38.4208 14.0945C39.3121 12.1778 40.6621 10.2553 42.4883 8.33479C43.4196 7.40327 44.9121 6.08626 46.9645 4.38373C47.3962 4.02566 48.063 3.16224 47.5124 2.2312L46.3739 0.7994ZM20.7605 0.799398C20.1435 0.114297 19.0888 0.364564 18.6686 0.648999C6.858 8.64209 0.953184 16.9213 0.953183 25.4873C0.953183 28.4102 2.05531 31.1287 4.26054 33.6405C6.51629 36.3072 9.1063 37.6401 12.0291 37.6401C15.31 37.6401 18.0405 36.615 20.2207 34.5636C22.3997 32.5133 23.4898 29.8463 23.4898 26.5642C23.4898 20.9936 20.1238 17.1051 13.3938 14.8994C13.1235 14.8109 12.6033 14.5327 12.8071 14.0945C13.6987 12.1778 15.0487 10.2553 16.8749 8.33479C17.8062 7.40327 19.2988 6.08625 21.351 4.38373C21.7827 4.02566 22.4495 3.16224 21.8989 2.2312L20.7605 0.799398Z" fill="#F94144"/>
</svg>
