<svg width="344" height="224" viewBox="0 0 344 224" fill="none" xmlns="http://www.w3.org/2000/svg">
<path fill-rule="evenodd" clip-rule="evenodd" d="M0 20C0 8.95432 8.9543 0 20 0H324C335.046 0 344 8.9543 344 20V188C344 199.046 335.046 208 324 208H190.913C189.976 208.152 186.057 208.898 184.878 210.899C184.41 211.693 184.129 212.402 183.96 212.989C183.915 213.54 183.833 214.081 183.716 214.608C183.718 214.709 183.724 214.762 183.724 214.762L183.693 214.709C182.465 220.032 177.696 224 172 224C165.552 224 160.292 218.914 160.012 212.536C159.839 212.049 159.592 211.498 159.239 210.899C158.06 208.898 154.142 208.152 153.204 208H20C8.95432 208 0 199.046 0 188V20Z" fill="white" fill-opacity="0.85"/>
</svg>
