<svg width="242" height="96" viewBox="0 0 242 96" fill="none" xmlns="http://www.w3.org/2000/svg">
<path d="M85.1663 8.88847C85.162 7.82823 86.0214 7 87.0817 7H155.002C156.106 7 157.002 7.89543 157.002 9V88C157.002 89.1046 156.106 90 155.002 90H87.0769C86.0199 90 85.1668 89.1766 85.1679 88.1197C85.168 88.098 85.168 88.0763 85.168 88.0547C85.1647 61.8481 85.1713 35.6382 85.1663 9.43164C85.1674 9.25085 85.1671 9.06974 85.1663 8.88847Z" fill="#002C8D"/>
<path d="M91.9871 12.0464C92.913 12.0804 93.9625 11.9491 94.783 12.4549C95.274 12.7435 95.5409 13.2492 95.3976 13.8134C95.2872 14.3273 94.7418 14.6077 94.3431 14.8882C94.9297 15.6841 95.5953 16.4006 96.3021 17.0929C95.8968 17.0377 95.4289 17.1204 95.1109 16.8383C94.465 16.3585 93.9131 15.7084 93.3612 15.1232C93.1947 14.9449 93.2244 14.8298 93.292 14.6207C93.7121 14.4488 94.1438 14.3581 94.3794 13.9382C94.5062 13.5751 94.4337 13.1828 94.1372 12.9218C93.8554 12.6883 93.4386 12.5895 93.0975 12.463C93.0728 13.2898 93.1058 14.1133 93.114 14.9384C93.0596 15.6647 93.0761 16.3585 93.2755 17.0637C92.8438 17.0621 92.4121 17.0604 91.9805 17.0604C92.1123 16.4639 92.1848 15.877 92.1699 15.2675C92.1419 14.1571 92.2672 13.1358 91.9871 12.0464Z" fill="white"/>
<path d="M129.483 12.0742C129.443 12.3239 129.4 12.5735 129.357 12.8232C128.97 12.6692 128.743 12.4033 128.321 12.6756C128.191 12.9853 128.173 13.3273 128.127 13.658C128.453 13.6564 128.779 13.6548 129.104 13.6532C129.105 13.812 129.105 13.9709 129.107 14.1298C128.796 14.1281 128.484 14.1249 128.173 14.1233C128.194 15.117 128.112 16.0767 128.323 17.0591C127.955 17.0607 127.588 17.0623 127.221 17.0656C127.433 16.0735 127.342 15.1348 127.357 14.1281C127.209 14.1281 127.062 14.1298 126.914 14.1298C127.052 13.966 127.189 13.8023 127.326 13.6386C127.389 13.1782 127.377 12.6059 127.782 12.2898C128.221 11.9202 128.949 12.0613 129.483 12.0742Z" fill="white"/>
<path d="M143.624 12.0127C143.484 12.7454 143.448 13.4701 143.449 14.2125C143.813 13.9321 144.136 13.5025 144.645 13.5236C145.128 13.5138 145.552 13.7959 145.614 14.2871C145.741 15.2095 145.613 16.1384 145.777 17.0624C145.423 17.0624 145.07 17.0624 144.716 17.064C144.876 16.2308 144.924 15.3262 144.784 14.4881C144.515 14.0131 143.901 14.2466 143.471 14.2822C143.464 15.2241 143.406 16.1319 143.594 17.064C143.232 17.0624 142.868 17.0608 142.505 17.0592C142.691 15.9698 142.619 14.9063 142.632 13.8089C142.637 13.2707 142.573 12.7389 142.48 12.2105C142.695 12.1732 142.907 12.1375 143.121 12.1002C143.288 12.0711 143.456 12.0419 143.624 12.0127Z" fill="white"/>
<path d="M140.841 12.8247C140.836 13.0727 140.831 13.3224 140.826 13.5704C141.173 13.5688 141.521 13.5688 141.869 13.5672C141.865 13.726 141.862 13.8849 141.859 14.0438C141.516 14.0421 141.175 14.0405 140.832 14.0389C140.847 14.8057 140.766 15.6033 140.887 16.3636C141.195 16.6813 141.551 16.5224 141.951 16.537C141.79 16.7088 141.63 16.8823 141.472 17.0558C141.07 17.046 140.363 17.2049 140.107 16.8175C139.895 15.9404 140.042 14.9516 140.012 14.0503L139.434 14.0308C139.902 13.6271 140.371 13.2251 140.841 12.8247Z" fill="white"/>
<path d="M99.3509 13.958C99.6887 14.3292 99.6409 14.9728 99.6936 15.4397C98.9456 15.4089 98.1993 15.4137 97.4447 15.4186L97.4925 15.5483C97.616 15.8417 97.7066 16.26 98.0296 16.4026C98.4975 16.6198 99.1466 16.3686 99.6244 16.2551C99.4201 16.5258 99.2488 17.0608 98.8484 17.0494C98.135 17.1435 97.3788 17.1337 96.9158 16.508C96.4775 15.8595 96.5237 14.8577 96.9273 14.2044C97.4298 13.423 98.7034 13.2804 99.3509 13.958Z" fill="white"/>
<path d="M102.401 13.6479C102.411 13.836 102.419 14.0256 102.429 14.2153C102.094 14.1034 101.682 13.8765 101.33 13.9754C101.116 14.1148 100.862 14.4114 101.116 14.6352C101.445 14.9513 101.938 15.1474 102.247 15.4976C102.6 15.9369 102.473 16.6259 101.972 16.8998C101.442 17.2013 100.658 17.0587 100.074 17.0068C100.064 16.6923 100.055 16.3794 100.043 16.065C100.386 16.3357 100.735 16.7912 101.233 16.6518C101.519 16.6161 101.738 16.2481 101.537 16.0131C101.181 15.6029 100.44 15.376 100.229 14.8702C100.048 14.3385 100.361 13.8959 100.845 13.6787C101.376 13.4291 101.855 13.5587 102.401 13.6479Z" fill="white"/>
<path d="M104.359 13.5898C104.975 13.4245 105.701 13.6368 106.163 14.0632C106.746 14.6127 106.787 15.5384 106.375 16.1966C105.741 17.1903 104.113 17.4237 103.253 16.6002C102.746 16.135 102.706 15.3909 102.889 14.7716C103.085 14.1588 103.762 13.7568 104.359 13.5898Z" fill="white"/>
<path d="M107.398 13.5818C107.744 13.5542 108.095 13.5591 108.443 13.5542C108.272 14.509 108.319 15.4395 108.362 16.4073C108.769 16.4916 109.179 16.5548 109.583 16.6554C109.183 16.8742 108.876 17.1303 108.392 17.093C107.978 17.0768 107.547 16.9812 107.506 16.5013C107.456 15.5254 107.529 14.5577 107.398 13.5818Z" fill="white"/>
<path d="M113.585 13.5782C113.832 13.5425 114.091 13.5506 114.339 13.5506C114.297 13.8408 114.254 14.1293 114.211 14.4195C113.616 14.2315 113.313 14.225 112.731 14.4617C112.716 15.3338 112.692 16.193 112.82 17.0619C112.473 17.0603 112.125 17.0619 111.777 17.0619C111.964 15.9401 111.952 14.6756 111.777 13.5522C112.099 13.5603 112.422 13.5652 112.743 13.5717C112.721 13.8229 112.698 14.0742 112.675 14.3255C112.929 14.0661 113.214 13.6657 113.585 13.5782Z" fill="white"/>
<path d="M117.762 13.5689C117.751 13.8072 117.739 14.0455 117.726 14.2838C117.265 14.1282 116.872 13.8705 116.375 14.0536C115.355 14.3568 115.352 16.0168 116.273 16.4383C116.757 16.6847 117.312 16.5193 117.821 16.4691C117.668 16.662 117.515 16.8565 117.362 17.051C116.915 17.0754 116.436 17.124 115.999 17.0121C115.431 16.8549 114.917 16.4058 114.76 15.8336C114.551 15.0425 114.932 14.1963 115.658 13.804C116.334 13.4538 117.029 13.5252 117.762 13.5689Z" fill="white"/>
<path d="M120.698 13.857C121.156 14.2217 121.07 14.8929 121.134 15.4132C120.381 15.4165 119.63 15.4132 118.877 15.4165C119.022 15.7229 119.134 16.2076 119.447 16.3908C119.941 16.6291 120.563 16.3794 121.058 16.2416C120.913 16.4961 120.77 16.7506 120.628 17.0052C119.996 17.0619 119.236 17.2175 118.684 16.8171C117.973 16.347 117.969 15.2528 118.21 14.5346C118.539 13.5441 119.9 13.2037 120.698 13.857Z" fill="white"/>
<path d="M123.842 13.64C123.858 13.8313 123.875 14.0242 123.89 14.2155C123.585 14.1117 123.232 13.9237 122.906 13.9545C122.613 14.0274 122.509 14.1814 122.448 14.4635C122.746 14.9353 123.417 15.1022 123.751 15.5659C124.036 16.0246 123.901 16.652 123.407 16.9097C122.883 17.2015 122.107 17.0556 121.532 17.007C121.524 16.6909 121.514 16.3764 121.504 16.0603C121.763 16.2678 122.072 16.6455 122.427 16.6747C122.781 16.7087 123.168 16.4785 123.063 16.0846C122.718 15.6777 122.127 15.4621 121.786 15.0552C121.453 14.5932 121.692 13.9966 122.17 13.7421C122.723 13.4276 123.25 13.5427 123.842 13.64Z" fill="white"/>
<path d="M131.044 13.5732C131.581 13.4435 132.327 13.6348 132.732 14.0109C133.388 14.5588 133.441 15.5769 132.968 16.2513C132.325 17.1688 130.879 17.3779 129.994 16.7019C129.353 16.1978 129.274 15.277 129.607 14.5783C129.864 14.0563 130.495 13.7159 131.044 13.5732Z" fill="white"/>
<path d="M136.555 13.5103C136.548 13.8199 136.535 14.1279 136.52 14.4359C135.935 14.2219 135.621 14.2414 135.029 14.4246C135.013 15.3178 134.973 16.177 135.111 17.0637C134.764 17.0621 134.416 17.0604 134.07 17.0588C134.225 15.9192 134.225 14.6985 134.059 13.5589C134.385 13.5637 134.709 13.567 135.036 13.5719C135.016 13.8166 134.996 14.0614 134.973 14.3062C135.202 14.076 135.429 13.7777 135.724 13.6286C135.983 13.5362 136.283 13.5378 136.555 13.5103Z" fill="white"/>
<path d="M149.18 13.8878C149.597 14.2607 149.559 14.9334 149.571 15.4392C148.831 15.4068 148.091 15.4133 147.351 15.4214L147.434 15.6273C147.556 15.9417 147.592 16.2708 147.951 16.4086C148.427 16.6096 149.047 16.3681 149.528 16.2611C149.317 16.514 149.152 17.0457 148.768 17.0425C148.116 17.1365 147.368 17.1511 146.9 16.6129C146.399 16.0309 146.414 15.0566 146.719 14.3904C147.139 13.4939 148.437 13.2248 149.18 13.8878Z" fill="white"/>
<path d="M109.602 13.5591C109.954 13.5623 110.307 13.5623 110.659 13.5591C110.462 14.6728 110.467 15.9534 110.674 17.0655C110.355 17.0623 110.035 17.0623 109.715 17.0623C109.63 15.8805 109.854 14.7441 109.602 13.5591Z" fill="white"/>
<path d="M98.4753 13.9998C99.0075 14.102 99.0124 14.5024 99.1805 14.919C98.5956 14.9401 98.0107 14.9401 97.4258 14.9304C97.64 14.4084 97.7784 13.9123 98.4753 13.9998Z" fill="#002C8D"/>
<path d="M119.894 13.9937C120.453 14.0748 120.459 14.5108 120.657 14.9291C120.062 14.9404 119.466 14.9388 118.871 14.9258C119.107 14.4298 119.207 13.9337 119.894 13.9937Z" fill="#002C8D"/>
<path d="M148.4 14.0079C148.926 14.1052 148.908 14.5137 149.061 14.9255C148.481 14.9417 147.903 14.9417 147.324 14.9238C147.542 14.4019 147.697 13.8896 148.4 14.0079Z" fill="#002C8D"/>
<path d="M104.163 14.1667C105.043 13.7906 105.865 14.5655 105.811 15.4328C105.789 16.0472 105.219 16.8464 104.514 16.4881C103.542 16.1801 103.264 14.7049 104.163 14.1667Z" fill="#002C8D"/>
<path d="M130.831 14.1444C131.592 13.8736 132.293 14.4005 132.438 15.1365C132.545 15.7233 132.228 16.2372 131.749 16.563C131.205 16.6182 130.615 16.3312 130.39 15.8287C130.146 15.2354 130.212 14.4848 130.831 14.1444Z" fill="#002C8D"/>
<path d="M97.4414 15.4186C98.196 15.4138 98.9424 15.4089 99.6904 15.4397C98.9588 15.5159 98.2257 15.5435 97.4892 15.5483L97.4414 15.4186Z" fill="#000054"/>
<path d="M147.352 15.4216C148.091 15.4135 148.831 15.407 149.571 15.4395C148.856 15.48 148.147 15.5724 147.434 15.6275L147.352 15.4216Z" fill="#000054"/>
<path d="M96.6964 19.3574C113.934 19.3639 131.171 19.3315 148.408 19.3574C148.439 26.5843 148.429 33.8144 148.423 41.0428C148.421 50.061 148.429 59.084 148.408 68.1021C130.444 68.1897 112.515 68.1459 94.5545 68.1621C94.0108 68.1556 93.4704 68.1216 92.93 68.0891C92.8756 66.5296 92.9168 64.9734 92.9069 63.4139C92.8937 49.6346 92.9118 35.8553 92.9052 22.076C92.9019 21.1682 92.8723 20.288 92.9695 19.3801C94.2052 19.2926 95.4557 19.3801 96.6964 19.3574Z" fill="#000054"/>
<path d="M93.7305 20.1421C111.686 20.1551 129.645 20.1453 147.6 20.147C147.6 35.3253 147.6 50.5052 147.6 65.6835C147.607 66.3319 147.648 66.9787 147.653 67.6272C129.681 67.6255 111.704 67.6239 93.7305 67.6288C93.7321 51.7988 93.7321 35.9704 93.7305 20.1421Z" fill="white"/>
<path d="M124.362 25.9653C125.189 25.9085 126.021 25.9215 126.848 25.9134C132.254 25.9085 137.66 25.9166 143.064 25.9102C143.079 38.5239 143.066 51.1392 143.074 63.7546C140.276 63.7497 137.477 63.7562 134.679 63.7497C135.444 60.9841 136.322 58.2461 137.054 55.4724C138.418 50.9609 139.703 46.3894 141.047 41.8682C141.166 41.4208 141.324 40.9507 141.054 40.5243C140.789 40.0056 140.036 39.9375 139.632 40.3265C139.4 40.6005 139.278 40.9912 139.156 41.3235C138.316 43.6206 137.447 45.9063 136.604 48.2018C136.485 48.5114 136.378 48.8421 136.208 49.1258C135.892 49.3398 135.707 49.1177 135.406 49.0091C136.556 45.48 137.683 41.9428 138.835 38.412C138.991 37.903 139.151 37.3794 138.813 36.8979C138.487 36.4051 137.821 36.4035 137.311 36.5737C136.968 36.7245 136.918 37.0373 136.797 37.3502C135.615 40.9361 134.401 44.5106 133.215 48.0948C132.974 48.064 132.704 48.0656 132.48 47.97C132.305 47.7771 132.425 47.4431 132.472 47.2178C133.633 43.5541 134.765 39.8905 135.94 36.23C136.096 35.6643 136.317 35.0693 135.941 34.536C135.569 33.9443 134.615 33.9232 134.226 34.4906C133.895 35.0904 133.744 35.815 133.538 36.4667C132.539 39.8337 131.539 43.2007 130.531 46.5661C130.442 46.7639 130.391 47.2048 130.122 47.2324C129.798 47.3799 129.715 47.2211 129.47 47.0427C129.489 46.7169 129.575 46.4154 129.659 46.1025C130.503 43.1375 131.312 40.1628 132.152 37.1962C132.276 36.7439 132.389 36.1717 131.997 35.8118C131.691 35.5038 131.186 35.5411 130.821 35.7129C130.435 35.8864 130.257 36.2673 130.119 36.6369C128.735 40.868 127.379 45.1104 125.957 49.3285C125.748 49.335 125.54 49.3398 125.331 49.3447C125.173 49.048 125.031 48.7465 124.939 48.4223C124.176 45.7799 123.438 43.2348 122.665 40.594C122.507 40.0866 121.871 39.9326 121.474 40.2844C120.958 40.6637 121.225 41.4613 121.204 42.0125C121.223 46.122 121.301 50.2282 121.304 54.3377C121.372 55.688 121.335 57.0384 121.349 58.3904C121.466 60.2303 121.387 62.0768 121.433 63.9199C120.975 63.9053 120.518 63.8713 120.062 63.8292C120.006 61.8012 120.078 59.7699 120.06 57.7403C120.049 52.6598 120.072 47.5826 120.093 42.502C120.072 41.8698 120.144 41.21 120.04 40.5859C119.798 40.0169 119.004 39.9326 118.665 40.466C118.413 41.0025 118.327 41.6234 118.157 42.1892C117.483 44.6192 116.913 47.0784 116.187 49.4922C115.948 49.5376 115.707 49.5814 115.468 49.6251C115.042 48.8405 114.831 48.0057 114.552 47.1659C113.562 44.1928 112.598 41.2149 111.597 38.2451C111.339 37.5285 111.165 36.7407 110.786 36.0793C110.433 35.5719 109.509 35.3449 109.104 35.9188C108.736 36.3727 109.026 36.8655 109.153 37.3518C109.969 40.1628 110.656 43.0111 111.461 45.8253C111.593 46.3457 111.901 46.8677 111.709 47.3978C111.211 47.5128 111.023 47.3475 110.85 46.9163C109.542 42.9543 108.27 38.9227 106.972 34.9656C106.734 34.2426 105.799 34.0172 105.252 34.549C104.856 35.1018 104.981 35.6659 105.182 36.2625C106.354 39.8127 107.487 43.3726 108.669 46.9179C108.782 47.3102 108.936 47.6409 108.769 48.0478C108.473 48.1353 108.181 48.184 107.896 48.0267C107.594 47.3767 107.44 46.6602 107.189 45.989C106.275 43.1456 105.308 40.3298 104.423 37.4815C104.316 37.1395 103.991 36.9336 103.688 36.7763C103.276 36.5656 102.711 36.8023 102.41 37.1038C102.103 37.535 102.162 38.2272 102.353 38.699C103.377 41.5472 104.324 44.4182 105.383 47.2551C105.598 47.8679 105.86 48.4855 105.988 49.1242C105.896 49.3641 105.5 49.4274 105.288 49.5425C105.097 49.249 104.916 48.9556 104.792 48.6282C103.876 46.2354 102.981 43.8249 102.059 41.437C101.859 41.0074 101.556 40.286 100.983 40.2957C100.205 40.3557 99.8969 41.1338 100.062 41.8066C102.106 48.3104 104.077 54.9164 106.113 61.4607C106.387 62.3167 106.599 63.1904 106.851 64.0529C103.892 64.0512 100.937 64.1064 97.9775 64.0075C97.9544 56.2457 97.9972 48.4806 97.9264 40.7188C97.928 35.8507 97.9231 30.9826 97.928 26.1144C103.775 26.0739 109.631 26.116 115.48 26.0933C116.215 26.0479 116.966 26.4451 117.554 26.8423C118.526 27.7452 119.192 28.8411 120.007 29.8364C120.609 29.0583 121.159 28.2332 121.798 27.4842C122.494 26.7304 123.314 26.1193 124.362 25.9653Z" fill="#000054"/>
<path d="M93.2233 69.9877C94.1707 70.0088 95.2103 69.9067 96.1297 70.1385C96.9535 70.3752 97.6669 71.1144 97.5219 72.0076C97.4478 72.5977 97.0046 72.9089 96.591 73.2785C96.9733 73.5687 97.4247 73.8848 97.6867 74.2901C98.0524 74.8818 97.9453 75.6615 97.4642 76.1608C96.9716 76.7039 96.3093 76.8855 95.6041 77.007C94.8017 77.0492 93.9977 77.007 93.1953 77.0443C93.5841 75.6859 93.4688 74.3679 93.4869 72.9786C93.4836 72.1616 93.5149 71.2781 93.3469 70.4773C93.3057 70.3136 93.2645 70.1498 93.2233 69.9877Z" fill="white"/>
<path d="M105.823 69.9844C106.406 69.9909 106.989 69.9909 107.573 69.9876C107.401 70.6571 107.309 71.3137 107.304 72.0059C107.291 73.4405 107.303 74.8752 107.301 76.3099C108.344 76.2369 109.341 76.0505 110.328 75.7068C110.107 76.1526 109.894 76.6049 109.65 77.0394C108.373 77.0232 107.092 77.0053 105.816 77.0523C105.92 76.6406 106.026 76.245 106.06 75.8203C106.12 74.3127 106.101 72.7759 106.072 71.2667C106.039 70.8273 105.928 70.4107 105.823 69.9844Z" fill="white"/>
<path d="M117.887 69.9875C118.47 69.9907 119.053 69.9891 119.636 69.9858C119.338 70.9731 119.363 71.962 119.378 72.9784C119.414 74.3806 119.243 75.6613 119.641 77.0311C119.06 77.0246 118.477 77.0246 117.895 77.0311C118.274 75.7148 118.132 74.4892 118.157 73.1405C118.145 72.2716 118.221 71.3151 118.014 70.4722C117.972 70.3101 117.93 70.1496 117.887 69.9875Z" fill="white"/>
<path d="M127.164 69.9862C127.79 69.9894 128.416 69.991 129.042 69.9862C129.36 70.4903 129.708 70.9491 130.11 71.39C131.24 72.6399 132.352 73.906 133.479 75.1591C133.415 73.4683 133.657 71.6105 133.204 69.9829C133.759 69.9894 134.313 69.991 134.868 69.9845C134.781 70.346 134.677 70.7221 134.636 71.0917C134.562 72.6577 134.575 74.3096 134.629 75.8772C134.666 76.2646 134.764 76.6553 134.857 77.0314C134.371 77.0266 133.885 77.0233 133.399 77.0217C132.857 76.1204 132.145 75.3909 131.453 74.6046C130.761 73.8136 130.059 73.0322 129.37 72.2379C129.439 73.8346 129.204 75.5465 129.657 77.0509C129.1 77.0185 128.543 77.0168 127.986 77.0509C128.39 75.6178 128.23 74.2821 128.26 72.8166C128.245 72.2071 128.314 71.5683 128.217 70.9669C128.052 70.7238 127.807 70.5227 127.584 70.3298C127.444 70.2147 127.304 70.0996 127.164 69.9862Z" fill="white"/>
<path d="M142.848 69.9844C144.372 69.9957 146.108 69.9552 147.375 70.9295C148.362 71.6962 148.914 72.8732 148.715 74.1165C148.522 75.381 147.55 76.3212 146.372 76.7638C145.299 77.1755 144.026 76.981 142.861 77.0329C143.297 75.4912 143.09 74.0906 143.141 72.4922C143.172 71.6249 143.063 70.8225 142.848 69.9844Z" fill="white"/>
<path d="M94.6933 70.5908C95.0772 70.6994 95.5682 70.7708 95.8845 71.0253C96.3739 71.4143 96.3393 72.2589 95.8895 72.6658C95.5715 72.9657 95.0953 73.1035 94.6933 73.2559C94.6917 72.3675 94.69 71.4792 94.6933 70.5908Z" fill="#002C8D"/>
<path d="M144.328 70.6118C145.339 70.7885 146.268 71.043 146.916 71.8876C147.738 72.9381 147.585 74.4943 146.609 75.3973C145.972 76.0133 145.181 76.1981 144.324 76.3229C144.329 74.4198 144.326 72.515 144.328 70.6118Z" fill="#002C8D"/>
<path d="M134.634 71.0918C134.767 72.6772 134.798 74.2935 134.627 75.8773C134.573 74.3097 134.559 72.6578 134.634 71.0918Z" fill="#000054"/>
<path d="M106.072 71.2666C106.101 72.7758 106.12 74.3126 106.06 75.8203C105.971 74.3029 105.943 72.7839 106.072 71.2666Z" fill="#000054"/>
<path d="M138.457 71.915C139.13 71.68 139.882 72.1355 140.002 72.8196C140.106 73.387 139.771 73.9641 139.209 74.1424C138.572 74.3807 137.84 73.9463 137.695 73.3076C137.547 72.7207 137.88 72.1161 138.457 71.915Z" fill="white"/>
<path d="M113.083 72.2457C113.713 72.0706 114.411 72.5034 114.538 73.134C114.68 73.7663 114.275 74.3952 113.634 74.5395C112.942 74.7 112.238 74.1505 112.202 73.4631C112.162 72.9103 112.548 72.3997 113.083 72.2457Z" fill="white"/>
<path d="M123.467 72.2489C124.047 72.0982 124.665 72.4419 124.859 72.9946C125.082 73.5977 124.744 74.2883 124.128 74.4942C123.414 74.7584 122.617 74.2024 122.577 73.468C122.535 72.912 122.925 72.3916 123.467 72.2489Z" fill="white"/>
<path d="M101.013 72.5278C101.614 72.1971 102.402 72.4873 102.652 73.1098C102.9 73.6642 102.656 74.3061 102.127 74.5979C101.558 74.9286 100.787 74.6693 100.511 74.0889C100.216 73.5345 100.451 72.8131 101.013 72.5278Z" fill="white"/>
<path d="M94.6953 73.3726L94.9392 73.4455C94.7777 74.2674 94.6953 75.0747 94.8337 75.908C94.87 76.0992 95.0512 76.25 95.1665 76.404C95.0084 76.4073 94.8518 76.4072 94.6953 76.4072C94.7003 75.3957 94.697 74.3841 94.6953 73.3726Z" fill="#000054"/>
<path d="M94.9374 73.4453C95.4515 73.5928 95.9227 73.7922 96.2769 74.2024C96.674 74.6401 96.7168 75.4004 96.3296 75.8559C96.0364 76.1898 95.5849 76.3098 95.1648 76.4038C95.0495 76.2498 94.8682 76.099 94.832 75.9078C94.6936 75.0745 94.776 74.2672 94.9374 73.4453Z" fill="#002C8D"/>
<path d="M93.1953 77.0441C93.9977 77.0068 94.8017 77.049 95.6041 77.0068C94.7836 77.1673 94.0208 77.1722 93.1953 77.0441Z" fill="#000054"/>
<path d="M105.816 77.0527C107.092 77.0057 108.373 77.0235 109.65 77.0397C108.397 77.2083 107.075 77.1548 105.816 77.0527Z" fill="#000054"/>
<path d="M127.984 77.0508C128.541 77.0168 129.098 77.0184 129.655 77.0508C129.078 77.1448 128.561 77.1448 127.984 77.0508Z" fill="#000054"/>
<path d="M150.818 78.2533C151.653 78.1139 152.506 78.5629 152.87 79.3135C153.332 80.2878 152.907 81.4744 151.892 81.9007C150.803 82.3871 149.513 81.724 149.238 80.599C148.961 79.5226 149.709 78.4251 150.818 78.2533Z" fill="white"/>
<path d="M150.643 78.5569C151.287 78.3495 152.009 78.5926 152.427 79.1049C152.958 79.742 152.908 80.7535 152.296 81.3225C151.584 82.0374 150.32 81.9158 149.752 81.0875C149.091 80.1861 149.569 78.8714 150.643 78.5569Z" fill="#002C8D"/>
<path d="M150.337 79.0642C150.801 79.0448 151.409 78.9621 151.836 79.1712C152.233 79.4598 152.004 79.8099 151.942 80.1957C151.999 80.5345 152.047 80.8733 152.106 81.2122C151.93 81.1976 151.755 81.183 151.579 81.1684C151.572 80.9139 151.564 80.6577 151.554 80.4016C151.294 80.3789 151.032 80.3595 150.77 80.34C150.77 80.6253 150.77 80.9106 150.768 81.1959C150.619 81.1943 150.467 81.1927 150.315 81.1895C150.325 80.4827 150.282 79.7694 150.337 79.0642Z" fill="white"/>
<path d="M138.169 79.3721C138.601 79.3753 139.034 79.3753 139.466 79.3737C139.317 80.061 139.263 80.7062 139.281 81.4082C139.319 82.7342 139.169 83.9662 139.479 85.2712C139.041 85.268 138.602 85.268 138.164 85.2729C138.475 83.9128 138.332 82.6272 138.367 81.2461C138.383 80.609 138.301 79.9946 138.169 79.3721Z" fill="white"/>
<path d="M150.773 79.437C151.045 79.4435 151.317 79.45 151.589 79.4565C151.592 79.6251 151.594 79.7937 151.596 79.9639C151.322 79.9752 151.049 79.9866 150.775 79.9979C150.775 79.8115 150.773 79.6251 150.773 79.437Z" fill="#002C8D"/>
<path d="M140.402 81.1472C140.722 81.1504 141.043 81.1537 141.363 81.1553C141.355 81.4066 141.348 81.6578 141.34 81.9091C141.584 81.6692 141.824 81.3758 142.121 81.1974C142.745 80.8975 143.553 81.3563 143.574 82.0501C143.656 83.1444 143.482 84.1819 143.726 85.2745C143.366 85.2713 143.006 85.2713 142.645 85.2729C142.805 84.4315 142.765 83.5805 142.765 82.7018C142.735 82.4311 142.808 82.042 142.501 81.8994C142.099 81.7162 141.743 81.9059 141.348 82.0031C141.391 83.1363 141.262 84.1657 141.488 85.2729C141.131 85.2713 140.773 85.2713 140.416 85.2761C140.442 85.0913 140.467 84.9065 140.486 84.7201C140.562 83.7118 140.575 82.6435 140.478 81.6368C140.458 81.473 140.429 81.3109 140.402 81.1472Z" fill="white"/>
<path d="M147.57 81.1492C147.558 81.4361 147.547 81.7214 147.537 82.0067C146.954 81.6695 146.42 81.4264 145.824 81.9208C145.13 82.66 145.275 84.4221 146.446 84.6572C146.642 84.722 146.863 84.7139 147.105 84.6329L147.638 84.5356C147.473 84.7788 147.31 85.0219 147.145 85.2651C146.525 85.2862 145.975 85.3753 145.428 85.0122C144.113 84.2373 144.278 82.057 145.583 81.3631C146.217 81.026 146.878 81.12 147.57 81.1492Z" fill="white"/>
<path d="M140.481 81.6367C140.578 82.6434 140.565 83.7117 140.489 84.72C140.428 83.6809 140.426 82.6775 140.481 81.6367Z" fill="#000054"/>
<path d="M148.344 84.0698C148.886 83.8672 149.434 84.5059 149.123 84.9938C148.901 85.4332 148.143 85.417 147.963 84.9501C147.798 84.574 147.983 84.2303 148.344 84.0698Z" fill="white"/>
<path d="M147.108 84.6327C146.866 84.7138 146.645 84.7219 146.449 84.657C146.581 84.3296 146.896 84.4787 147.108 84.6327Z" fill="#000054"/>
</svg>
