<svg width="242" height="96" viewBox="0 0 242 96" fill="none" xmlns="http://www.w3.org/2000/svg">
<path d="M43 20H71.4553L71.6176 20.1907C71.7514 20.3525 71.987 20.5012 72.0178 20.7147C72.1398 21.4138 72.0166 22.1681 72.0273 22.8779C72.032 34.265 72.0237 45.8068 72.032 57.1734C72.0154 57.4181 72.0036 57.7658 71.7987 57.9349C71.6413 58.0093 71.4589 58.0404 71.286 58.062C70.2404 58.1699 69.2553 58.0524 68.2215 58.05C60.5639 58.0512 52.9074 58.0488 45.2498 58.0512C44.672 58.0428 44.0515 58.1148 43.4855 57.9913C43.0462 57.9109 43.0782 57.3593 43 57.0128V20ZM48.1497 24.414C48.1509 24.6659 48.1521 24.9177 48.1568 25.1695C49.3089 25.4129 50.5688 25.3326 51.6772 25.7163C51.7032 30.8834 51.8003 36.0553 51.7991 41.2248C51.7896 44.3066 51.914 47.3764 51.7896 50.4582C51.7589 51.101 51.7754 51.9488 51.4072 52.5016C50.7216 53.058 49.6097 53.07 48.8531 53.4981C48.5262 53.7055 48.5748 54.0185 48.5843 54.3603C51.4794 54.5389 54.3201 54.19 57.2093 54.2535C58.333 54.2763 59.4319 54.2499 60.526 53.9585C62.1246 53.5664 63.5254 52.5735 64.5023 51.2425C65.7539 49.6009 66.3814 47.476 66.4667 45.4218C66.52 43.8797 66.2761 42.2585 65.6295 40.8519C64.8231 39.0772 63.2826 37.6454 61.4662 36.9883C62.0476 36.3263 62.7971 35.8994 63.3525 35.2159C64.1399 34.2542 64.7142 33.1234 64.8741 31.8727C65.0955 30.1735 64.771 28.3508 63.9611 26.8447C63.2187 25.4705 61.9292 24.3961 60.4076 24.0519C58.9251 23.7066 57.3029 23.7329 55.7884 23.7821C53.2437 23.8912 50.673 24.0483 48.1497 24.414Z" fill="#003A7E"/>
<path d="M71.4553 20H74.5897C74.2842 20.2602 74.4298 20.8346 74.4014 21.1991C74.4085 32.91 74.4026 44.6232 74.4038 56.334C74.4192 56.7813 74.4014 57.2946 74.5672 57.7143C74.6548 58.0009 75.0799 58.038 75.325 58.0512C83.416 58.0488 91.5083 58.0512 99.6005 58.05C100.558 58.0524 101.593 58.1555 102.564 58.0788C102.798 58.0536 103.07 58.0212 103.274 57.8941C103.463 57.6063 103.438 57.1495 103.454 56.8137C103.431 54.9346 103.442 53.0568 103.441 51.1777C103.441 41.7441 103.441 32.3116 103.439 22.8779C103.435 22.1848 103.527 21.463 103.43 20.7782C103.392 20.4857 103.194 20.3478 103.002 20.1559L102.82 20H106.066C105.971 20.2434 105.918 20.4797 105.912 20.7411C105.931 32.6378 105.912 44.6652 105.921 56.5763C105.938 56.9864 105.933 57.5044 106.155 57.8594C106.377 58.0644 106.659 58.0608 106.942 58.0728C107.455 58.0728 107.967 58.0452 108.481 58.05C115.98 58.05 123.48 58.0488 130.979 58.0512C132.036 58.0452 133.13 58.1663 134.179 58.0716C134.477 58.0176 134.815 58.0368 134.907 57.6747C135.089 56.9984 134.982 56.1937 134.989 55.4946C134.986 45.1424 134.989 34.789 134.988 24.4368C134.988 23.294 135.137 22.0901 134.98 20.9581C134.946 20.6475 134.779 20.4185 134.589 20.1859L134.418 20H137.691C137.4 20.7591 137.559 21.7148 137.531 22.5182C137.533 33.8297 137.53 45.1424 137.532 56.454C137.555 56.9036 137.51 57.5728 137.829 57.9217C138.295 58.1136 138.89 58.0404 139.387 58.0512C147.753 58.0488 156.122 58.0512 164.49 58.05C165.156 58.0392 165.763 58.1208 166.413 57.9241C166.506 57.6795 166.595 57.4409 166.602 57.1734C166.596 45.742 166.601 34.3094 166.6 22.8779C166.599 22.204 166.684 21.5049 166.6 20.837C166.576 20.4665 166.269 20.3142 166.054 20.0432C165.483 20.0096 164.911 20.0528 164.342 20.0084L164.237 20H175.283C173.179 20.0228 171.073 20.0348 168.968 20.0648C168.786 20.8874 168.884 21.7951 168.876 22.6381C168.879 33.9101 168.877 45.182 168.878 56.454C168.895 56.8821 168.878 57.4061 169.076 57.7958C169.206 58.032 169.586 58.0272 169.817 58.0512C177.869 58.0488 185.922 58.0512 193.974 58.05C194.99 58.0452 196.043 58.1627 197.054 58.0788C197.31 58.0608 197.545 57.9817 197.785 57.8965C197.852 57.6759 197.925 57.4576 198 57.2394V76H43V57.0128C43.0782 57.3593 43.0462 57.9109 43.4855 57.9913C44.0515 58.1148 44.672 58.0428 45.2498 58.0512C52.9074 58.0488 60.5639 58.0512 68.2215 58.05C69.2553 58.0524 70.2404 58.1699 71.286 58.062C71.4589 58.0404 71.6413 58.0093 71.7987 57.9349C72.0036 57.7658 72.0154 57.4181 72.032 57.1734C72.0237 45.8068 72.032 34.265 72.0273 22.8779C72.0166 22.1681 72.1398 21.4138 72.0178 20.7147C71.987 20.5012 71.7514 20.3525 71.6176 20.1907L71.4553 20ZM63.1441 67.9777C62.1281 68.154 61.1725 68.7044 60.6101 69.5954C60.0157 70.5259 59.8866 71.6843 60.0476 72.7623C60.1826 73.6617 60.6101 74.5035 61.3111 75.0815C62.1731 75.8021 63.3395 76.0348 64.4336 75.97C65.4815 75.9161 66.507 75.5467 67.234 74.7577C67.967 73.9854 68.2476 72.8487 68.2192 71.803C68.1955 70.749 67.8592 69.7249 67.0966 68.9838C66.0854 67.9753 64.4928 67.7487 63.1441 67.9777ZM170.021 72.8355C169.674 72.8403 169.328 72.8415 168.981 72.8415C168.948 73.3127 168.861 73.7588 168.591 74.1545C167.927 75.2158 166.048 75.1618 165.487 74.0238C165.178 73.441 165.122 72.6916 165.109 72.0428C165.102 71.291 165.174 70.4276 165.552 69.7633C166.156 68.6948 167.908 68.7116 168.562 69.7165C168.861 70.1482 168.944 70.6338 168.98 71.1495C169.322 71.1483 169.664 71.1507 170.006 71.1627C170.035 70.117 170.03 69.0594 170.01 68.0125C169.671 68.0209 169.333 68.0233 168.993 68.0257C168.925 68.2343 168.858 68.4418 168.79 68.6504C167.548 67.7679 165.797 67.6312 164.479 68.431C163.522 68.9886 162.901 69.9887 162.721 71.0835C162.519 72.2827 162.711 73.6725 163.476 74.6474C164.11 75.4436 165.043 75.8369 166.028 75.946C166.955 76.0384 167.995 75.9568 168.803 75.446C169.691 74.8644 170.012 73.8643 170.021 72.8355ZM48.5653 69.1337C48.8945 69.1529 49.3551 69.069 49.6204 69.2956C49.6879 69.4767 49.6784 69.6925 49.6843 69.8844C49.6796 71.2838 49.6807 72.6832 49.6843 74.0814C49.6689 74.3344 49.7021 74.6258 49.4049 74.7109C49.1325 74.7565 48.8412 74.7349 48.5653 74.7301C48.557 75.0707 48.5582 75.41 48.5582 75.7506C49.6523 75.7482 50.7453 75.7542 51.8394 75.7482C51.8406 75.4124 51.8394 75.0767 51.8394 74.7409C51.5303 74.7049 51.0306 74.8548 50.9442 74.4315C50.8862 73.6821 50.9371 72.9158 50.9205 72.1627C50.943 71.2382 50.8731 70.3029 50.9608 69.3819C51.5505 71.5008 52.1259 73.6329 52.7133 75.7506C53.265 75.7482 53.818 75.7506 54.3698 75.7494C54.9749 73.6425 55.5362 71.5152 56.1732 69.4191C56.1732 70.9744 56.1709 72.5297 56.1744 74.085C56.172 74.2744 56.1685 74.531 56.011 74.6642C55.7943 74.7721 55.4959 74.7289 55.2567 74.7421C55.2555 75.0743 55.252 75.4052 55.2508 75.7374C56.6256 75.7638 58.0015 75.7494 59.3762 75.7446C59.3774 75.4052 59.3739 75.0659 59.3537 74.7265C59.0814 74.7349 58.7771 74.7625 58.513 74.6917C58.3283 74.5778 58.3046 74.4063 58.3046 74.2037C58.3058 72.7227 58.307 71.2442 58.3046 69.7609C58.3236 69.5522 58.2833 69.274 58.5225 69.1841C58.7806 69.0965 59.1051 69.1505 59.3774 69.1301C59.3715 68.8003 59.3727 68.4706 59.3833 68.1408C58.0358 68.1012 56.6848 68.1408 55.3361 68.1216C54.866 69.6697 54.4799 71.2598 53.9696 72.7911C53.535 71.237 53.1052 69.6817 52.6659 68.1276C51.3042 68.1264 49.9389 68.1168 48.5772 68.1312C48.5452 68.4622 48.5594 68.8015 48.5653 69.1337ZM68.707 69.1337C69.0291 69.1469 69.4175 69.0869 69.7159 69.2224C69.8556 69.3771 69.8414 69.5654 69.8521 69.7621C69.8497 71.2022 69.8473 72.6424 69.8532 74.0814C69.8426 74.2864 69.8592 74.4699 69.7289 74.6426C69.4364 74.7925 69.035 74.7265 68.7141 74.7337C68.7153 75.0719 68.7165 75.41 68.7201 75.7482C70.1907 75.7518 71.6626 75.753 73.1332 75.747C73.1297 75.41 73.1285 75.0719 73.1261 74.7349C72.8301 74.7313 72.5116 74.7661 72.2215 74.7001C72.0154 74.627 71.9953 74.3752 71.9835 74.1869C71.9811 73.5621 71.9941 72.9374 71.9752 72.3114C72.508 72.3126 73.0871 72.2443 73.6069 72.3714C73.8899 72.4517 73.9372 72.7431 73.9443 73.0009C73.9822 73.7348 73.8259 74.5598 74.2025 75.2242C74.4843 75.729 75.0089 75.9484 75.5618 75.9736C76.1255 76.0108 76.8667 75.8993 77.2279 75.4052C77.6246 74.9052 77.5961 74.2361 77.6032 73.6305C77.3451 73.6221 77.0893 73.6221 76.8312 73.6329C76.8312 73.9519 76.8774 74.3764 76.7152 74.6606C76.6074 74.8656 76.2107 74.8248 76.1172 74.6258C75.9988 73.9711 76.187 73.2156 75.9834 72.5812C75.7927 72.0488 75.2291 71.8785 74.7424 71.7418C75.2812 71.6051 75.8294 71.4624 76.1811 70.9876C76.6346 70.3053 76.5529 69.232 75.9183 68.6888C75.3819 68.2379 74.5814 68.1228 73.9065 68.124C72.1788 68.1312 70.4429 68.1144 68.7165 68.1324C68.6904 68.4634 68.707 68.8003 68.707 69.1337ZM78.1598 68.124C78.1515 68.4598 78.1491 68.7943 78.1468 69.1301C78.4688 69.1505 78.8738 69.0797 79.171 69.2272C79.2989 69.3891 79.293 69.5678 79.3001 69.7633C79.293 71.2022 79.2953 72.6424 79.2989 74.0814C79.2894 74.3104 79.3202 74.4999 79.1367 74.6689C78.843 74.7877 78.4736 74.7265 78.1621 74.7313C78.1621 75.0707 78.1621 75.41 78.1704 75.7506C80.6796 75.7458 83.1887 75.759 85.6966 75.7434C85.6978 74.7121 85.6931 73.6809 85.7002 72.6496C85.3521 72.634 85.0028 72.6316 84.6546 72.634C84.6144 73.1784 84.625 73.7228 84.3254 74.2013C84.0803 74.567 83.6765 74.6881 83.2609 74.7193C82.6523 74.7577 82.0401 74.7313 81.4315 74.7349C81.4279 73.9387 81.4291 73.1424 81.4303 72.3462C81.7441 72.3834 82.3326 72.2203 82.4924 72.5776C82.6926 72.8774 82.6665 73.2264 82.6902 73.5729C82.9957 73.5753 83.3012 73.5777 83.6067 73.5801C83.6315 72.4206 83.6256 71.255 83.6079 70.0954C83.3024 70.1062 82.9969 70.1062 82.6914 70.1014C82.6547 70.4504 82.7139 70.9408 82.4084 71.1818C82.1419 71.3665 81.7393 71.3269 81.4303 71.3401C81.4291 70.6063 81.4279 69.8724 81.4315 69.1385C82.0768 69.1493 82.7375 69.1061 83.3782 69.1865C83.7381 69.238 84.1632 69.3771 84.3598 69.7117C84.6132 70.1182 84.625 70.5799 84.6475 71.0451C84.9968 71.0499 85.3461 71.0487 85.6955 71.0439C85.6978 70.0726 85.6978 69.1013 85.6966 68.13C83.184 68.118 80.6725 68.1288 78.1598 68.124ZM89.9334 68.13C89.9275 69.1025 89.9322 70.075 89.9322 71.0475C90.2827 71.0499 90.6332 71.0463 90.9837 71.0379C90.9955 70.5535 91.0464 69.9719 91.3709 69.5858C91.719 69.2093 92.1524 69.1649 92.6343 69.1265C92.6284 70.5379 92.6308 71.9505 92.6308 73.3619C92.626 73.7144 92.6568 74.0802 92.6047 74.4291C92.587 74.5538 92.5147 74.6462 92.3892 74.7049C92.0956 74.7553 91.7853 74.7373 91.4881 74.7373C91.4869 75.0731 91.4858 75.4088 91.4834 75.7446C92.9517 75.753 94.42 75.7554 95.8871 75.7434C95.8895 75.4088 95.8906 75.0731 95.8906 74.7373C95.5769 74.7253 95.179 74.7949 94.8948 74.6426C94.7503 74.4747 94.7717 74.29 94.761 74.0814C94.7705 72.4337 94.7622 70.7837 94.7669 69.1349C95.2607 69.1589 95.7284 69.226 96.0635 69.6349C96.3856 70.0522 96.3785 70.5391 96.4164 71.0427C96.7657 71.0463 97.115 71.0487 97.4631 71.0487C97.4691 70.0738 97.4691 69.1001 97.4631 68.1264C94.954 68.1276 92.4425 68.118 89.9334 68.13ZM97.9806 69.1361C98.3571 69.1313 98.7218 69.1145 99.0877 69.2296C99.1529 69.7285 99.1256 70.2225 99.128 70.7238C99.1268 71.8833 99.1327 73.0441 99.1256 74.2037C99.1185 74.4147 99.1043 74.6078 98.8876 74.7001C98.5999 74.7637 98.2885 74.7337 97.996 74.7385C97.996 75.0731 97.9936 75.4088 97.9841 75.7434C99.379 75.7578 100.774 75.7494 102.168 75.747C102.17 75.4112 102.169 75.0743 102.169 74.7373C101.873 74.7049 101.329 74.8572 101.278 74.4243C101.237 73.7204 101.275 73.0081 101.261 72.303C102.094 72.297 102.928 72.2994 103.761 72.3006C103.716 73.0645 103.837 73.8895 103.693 74.6342C103.483 74.7913 103.109 74.7229 102.857 74.7385C102.853 75.0731 102.852 75.4088 102.848 75.7434C104.24 75.753 105.633 75.7578 107.026 75.7422C107.025 75.4064 107.025 75.0707 107.024 74.7349C106.722 74.7373 106.403 74.7589 106.105 74.7061C105.857 74.579 105.905 74.3176 105.889 74.0814C105.894 72.6424 105.892 71.2022 105.89 69.7633C105.892 69.5558 105.896 69.3747 106.036 69.2092C106.34 69.0953 106.715 69.1505 107.037 69.1337C107.04 68.7979 107.04 68.4634 107.037 68.1276C105.638 68.1216 104.241 68.1252 102.843 68.1264C102.839 68.461 102.837 68.7955 102.838 69.1313C103.085 69.1649 103.722 69.0294 103.739 69.4047C103.789 70.0247 103.737 70.6542 103.765 71.2766C102.93 71.2982 102.093 71.2862 101.258 71.2838C101.307 70.629 101.168 69.8868 101.345 69.2572C101.558 69.0917 101.925 69.1517 102.182 69.1313C102.182 68.7955 102.182 68.4598 102.176 68.1252C100.781 68.1312 99.3814 68.1132 97.9877 68.1336C97.9747 68.467 97.9877 68.8027 97.9806 69.1361ZM107.374 74.7457C107.373 75.0815 107.373 75.416 107.374 75.7506C108.486 75.7494 109.598 75.7518 110.71 75.7494C110.709 75.4112 110.71 75.0731 110.711 74.7337C110.359 74.7493 110.032 74.7277 109.69 74.6426C109.658 74.1845 109.868 73.7828 109.987 73.3199C110.756 73.3271 111.527 73.3283 112.295 73.3199C112.418 73.7732 112.59 74.1773 112.59 74.6546C112.274 74.7373 111.955 74.7433 111.631 74.7373C111.627 75.0731 111.626 75.41 111.625 75.7458C113.007 75.753 114.39 75.7554 115.773 75.7434C115.768 75.4088 115.767 75.0743 115.765 74.7409C115.526 74.7313 115.233 74.7661 115.016 74.657C114.814 74.4735 114.723 74.2181 114.634 73.9663C113.98 72.0212 113.359 70.0654 112.699 68.1216C111.947 68.1348 111.193 68.1096 110.442 68.1336C109.773 70.099 109.137 72.098 108.475 74.0682C108.382 74.3008 108.281 74.6126 108.021 74.6965C107.815 74.7517 107.586 74.7349 107.374 74.7457ZM116.302 69.1337C116.603 69.1493 116.943 69.1013 117.232 69.1913C117.473 69.2728 117.425 69.5606 117.445 69.7633C117.447 71.2034 117.444 72.6436 117.446 74.0838C117.431 74.3248 117.476 74.5418 117.241 74.6905C116.948 74.7721 116.613 74.7337 116.311 74.7313C116.309 75.0707 116.311 75.4112 116.313 75.7518C117.481 75.7458 118.648 75.759 119.816 75.7434C119.817 75.4064 119.816 75.0695 119.813 74.7313C119.496 74.7253 119.098 74.7961 118.809 74.6462C118.631 74.4267 118.691 74.1101 118.679 73.8415C118.701 72.5872 118.642 71.3257 118.713 70.0738C119.716 71.9325 120.765 73.7684 121.781 75.6199C121.821 75.711 121.887 75.753 121.978 75.7446C122.702 75.7614 123.429 75.747 124.155 75.747C124.147 73.7528 124.155 71.7574 124.151 69.7621C124.166 69.5654 124.128 69.3783 124.282 69.2284C124.567 69.0833 124.958 69.1481 125.271 69.1325C125.276 68.7955 125.274 68.4598 125.266 68.1228C124.106 68.1276 122.944 68.124 121.782 68.124C121.778 68.461 121.778 68.7979 121.781 69.1349C122.138 69.1781 122.89 68.9718 122.906 69.5258C122.922 70.8125 122.912 72.104 122.911 73.3919C121.895 71.6507 120.951 69.8652 119.94 68.1216C118.732 68.136 117.522 68.1096 116.314 68.1336C116.285 68.4634 116.3 68.8015 116.302 69.1337ZM129.191 68.1192C129.178 68.455 129.176 68.792 129.178 69.1289C129.491 69.1637 129.927 69.063 130.197 69.2476C130.308 69.4515 130.299 69.6577 130.304 69.8844C130.297 71.3233 130.307 72.7635 130.3 74.2025C130.308 74.3908 130.235 74.537 130.156 74.7001C129.831 74.7373 129.508 74.7469 129.18 74.7373C129.178 75.0755 129.178 75.4124 129.183 75.7506C130.277 75.7446 131.371 75.7626 132.464 75.741C132.457 75.4052 132.456 75.0707 132.457 74.7349C132.238 74.7361 132.007 74.7469 131.793 74.7109C131.549 74.627 131.544 74.3008 131.538 74.085C131.544 72.4889 131.536 70.894 131.544 69.2992C132.158 71.4361 132.744 73.5849 133.313 75.7338C133.872 75.7662 134.435 75.7458 134.995 75.7482C135.561 73.6629 136.176 71.5907 136.739 69.5042C136.819 69.9131 136.789 70.3101 136.791 70.7238C136.791 71.8438 136.791 72.9626 136.793 74.0814C136.779 74.326 136.812 74.5826 136.552 74.7025C136.335 74.7493 136.099 74.7373 135.877 74.7409C135.874 75.0755 135.872 75.4112 135.864 75.7458C137.24 75.7554 138.617 75.7506 139.993 75.7482C139.996 75.4088 139.995 75.0695 139.981 74.7301C139.707 74.7349 139.411 74.7589 139.143 74.7001C138.96 74.5982 138.925 74.3991 138.926 74.2049C138.922 72.7239 138.931 71.243 138.922 69.7633C138.929 69.5558 138.914 69.3747 139.069 69.2164C139.35 69.1061 139.697 69.1433 139.995 69.1241C139.998 68.7896 139.994 68.4562 139.975 68.1216C138.638 68.1288 137.3 68.1228 135.963 68.1252C135.492 69.6733 135.075 71.2394 134.615 72.7911C134.508 72.5501 134.443 72.297 134.378 72.0428C134.017 70.7382 133.651 69.4335 133.29 68.1288C131.924 68.1168 130.558 68.1348 129.191 68.1192ZM140.501 69.1337C140.819 69.1469 141.188 69.0929 141.488 69.2057C141.677 69.3675 141.639 69.6601 141.649 69.8844C141.642 71.3233 141.653 72.7647 141.646 74.2037C141.641 74.3788 141.614 74.6402 141.415 74.6989C141.128 74.7709 140.807 74.7289 140.514 74.7349C140.513 75.0743 140.513 75.4124 140.514 75.7518C143.025 75.7458 145.537 75.7554 148.047 75.747C148.047 74.7073 148.044 73.6665 148.049 72.6256C147.7 72.6328 147.352 72.634 147.003 72.628C146.965 73.1544 146.973 73.7984 146.646 74.2361C146.406 74.597 145.947 74.6965 145.545 74.7241C144.957 74.7481 144.365 74.7457 143.777 74.7253C143.787 73.9303 143.772 73.1352 143.786 72.3402C144.079 72.345 144.372 72.3498 144.665 72.3546C145.009 72.7119 145.031 73.0957 145.035 73.5717C145.347 73.5801 145.659 73.5801 145.97 73.5717C145.952 72.4122 146.001 71.2478 145.947 70.0906C145.639 70.1002 145.33 70.1074 145.022 70.1242C145.023 70.4683 145.057 70.8976 144.79 71.1567C144.523 71.3749 144.106 71.3209 143.784 71.3329C143.78 70.5979 143.774 69.8628 143.791 69.1265C144.489 69.1697 145.235 69.0809 145.917 69.2152C146.259 69.2812 146.554 69.4551 146.74 69.7573C146.972 70.1566 146.971 70.6003 146.997 71.0475C147.347 71.0439 147.698 71.0439 148.048 71.0487C148.04 70.0738 148.058 69.0989 148.039 68.1252C145.533 68.1312 143.011 68.1132 140.507 68.1336C140.489 68.4658 140.502 68.8003 140.501 69.1337ZM148.63 69.1361C148.942 69.1481 149.331 69.0869 149.617 69.2296C149.761 69.4335 149.745 69.6469 149.749 69.8844C149.739 71.3233 149.749 72.7635 149.744 74.2025C149.744 74.3955 149.717 74.5538 149.563 74.6821C149.274 74.7757 148.934 74.7289 148.634 74.7361C148.631 75.0743 148.63 75.4112 148.632 75.7494C150.01 75.7506 151.389 75.7506 152.767 75.7494C153.85 75.7338 155.018 75.5455 155.876 74.8236C156.686 74.1329 156.984 73.0849 156.981 72.0428C156.998 70.9852 156.743 69.9131 155.968 69.1601C155.129 68.377 153.994 68.1456 152.887 68.1252C151.47 68.1276 150.051 68.1168 148.636 68.1312C148.605 68.4622 148.621 68.8027 148.63 69.1361ZM157.627 69.1373C158.013 69.1385 158.375 69.1001 158.746 69.2416C158.807 70.8113 158.753 72.3894 158.773 73.9615C158.759 74.2097 158.813 74.5286 158.574 74.6881C158.28 74.7721 157.939 74.7277 157.635 74.7409C157.638 75.0767 157.637 75.4124 157.631 75.7494C159.103 75.7506 160.575 75.753 162.046 75.747C162.04 75.4148 162.04 75.0827 162.049 74.7505C161.753 74.7373 161.452 74.7505 161.159 74.7109C160.909 74.6258 160.915 74.3008 160.904 74.0826C160.905 72.6832 160.91 71.2838 160.902 69.8844C160.897 69.6517 160.933 69.4239 160.973 69.1961C161.332 69.1349 161.69 69.1289 162.052 69.1325C162.052 68.7967 162.053 68.461 162.054 68.1252C160.582 68.13 159.106 68.1156 157.635 68.1312C157.61 68.4646 157.624 68.8027 157.627 69.1373ZM170.835 68.1396C170.848 68.4706 170.848 68.8003 170.847 69.1313C171.25 69.1481 171.61 69.0809 171.986 69.2584C171.999 70.8257 171.98 72.3942 171.997 73.9615C171.983 74.2325 172.032 74.4675 171.828 74.6797C171.526 74.7721 171.172 74.7301 170.858 74.7385C170.858 75.0755 170.858 75.4124 170.863 75.7506C172.327 75.7506 173.792 75.7494 175.257 75.7506C175.26 75.4112 175.26 75.0719 175.26 74.7325C174.955 74.7337 174.617 74.7709 174.321 74.6881C174.098 74.5526 174.14 74.3092 174.126 74.0838C174.127 72.8439 174.127 71.6039 174.127 70.364C174.133 69.9551 174.082 69.5798 174.208 69.1829C174.559 69.1361 174.913 69.1313 175.269 69.1349C175.276 68.7967 175.272 68.4598 175.259 68.1216C173.785 68.1396 172.308 68.1024 170.835 68.1396ZM175.81 69.1349C176.137 69.1529 176.561 69.0737 176.847 69.2488C176.967 69.4407 176.954 69.6649 176.96 69.8844C176.955 71.2838 176.956 72.6832 176.96 74.0826C176.948 74.3272 176.964 74.6006 176.7 74.7097C176.407 74.7469 176.108 74.7373 175.813 74.7529C175.823 75.0839 175.824 75.4136 175.816 75.7446C176.988 75.7542 178.161 75.753 179.335 75.747C179.328 75.4148 179.328 75.0839 179.338 74.7517C179.015 74.7145 178.572 74.8092 178.298 74.6174C178.171 74.368 178.198 74.1125 178.193 73.8415C178.203 72.5992 178.179 71.3545 178.206 70.1122C178.472 70.5019 178.684 70.93 178.919 71.3401C179.719 72.8115 180.568 74.2564 181.347 75.7374C182.119 75.765 182.892 75.7458 183.664 75.7494C183.663 73.9543 183.665 72.1591 183.663 70.364C183.665 70.0522 183.645 69.7285 183.695 69.4203C183.721 69.292 183.795 69.2104 183.919 69.1733C184.204 69.1229 184.504 69.1373 184.792 69.1313C184.788 68.7955 184.788 68.461 184.79 68.1252C183.627 68.1228 182.464 68.1276 181.302 68.1228C181.292 68.4586 181.291 68.7943 181.29 69.1301C181.574 69.1385 181.867 69.1205 182.148 69.1613C182.421 69.2452 182.424 69.521 182.43 69.7621C182.418 70.9876 182.444 72.2155 182.412 73.441C181.473 71.6507 180.436 69.9048 179.471 68.1264C178.253 68.1312 177.031 68.1096 175.813 68.136C175.798 68.4682 175.813 68.8027 175.81 69.1349ZM185.216 69.1325C185.541 69.1457 185.929 69.0905 186.231 69.2248C186.371 69.3843 186.352 69.563 186.361 69.7621C186.355 71.2022 186.357 72.6424 186.36 74.0826C186.35 74.2864 186.376 74.4687 186.242 74.639C185.954 74.7973 185.544 74.7253 185.225 74.7313C185.223 75.0695 185.223 75.4088 185.229 75.7482C187.738 75.7506 190.249 75.7542 192.758 75.747C192.759 74.7109 192.76 73.6761 192.758 72.64C192.41 72.6352 192.062 72.6328 191.714 72.6352C191.679 73.1616 191.68 73.8475 191.328 74.2744C191.052 74.6366 190.609 74.7037 190.185 74.7301C189.621 74.7481 189.055 74.7361 188.49 74.7325C188.493 73.9399 188.496 73.146 188.488 72.3534C188.779 72.3534 189.105 72.315 189.387 72.3906C189.737 72.6628 189.738 73.1664 189.744 73.5717C190.058 73.5765 190.371 73.5777 190.685 73.5753C190.694 72.4349 190.655 71.2898 190.706 70.1518C190.411 70.0582 190.064 70.1098 189.755 70.1014C189.724 70.4636 189.778 70.9408 189.461 71.1902C189.169 71.3665 188.814 71.3269 188.487 71.3401C188.495 70.6063 188.494 69.8724 188.493 69.1385C189.133 69.1493 189.787 69.1049 190.423 69.1829C190.784 69.2284 191.221 69.3795 191.422 69.7093C191.671 70.093 191.685 70.6075 191.718 71.0499C192.064 71.0487 192.41 71.0475 192.756 71.0427C192.761 70.0714 192.761 69.0989 192.754 68.1264C190.25 68.1276 187.734 68.1168 185.231 68.1312C185.196 68.461 185.212 68.8015 185.216 69.1325Z" fill="white"/>
<path d="M74.5893 20H102.82L103.002 20.1559C103.194 20.3478 103.392 20.4857 103.43 20.7782C103.527 21.463 103.434 22.1848 103.439 22.8779C103.44 32.3116 103.44 41.7441 103.44 51.1777C103.441 53.0568 103.431 54.9346 103.453 56.8137C103.438 57.1495 103.463 57.6063 103.273 57.8941C103.07 58.0212 102.797 58.0536 102.564 58.0788C101.593 58.1555 100.558 58.0524 99.6001 58.05C91.5079 58.0512 83.4157 58.0488 75.3247 58.0512C75.0795 58.038 74.6544 58.0009 74.5668 57.7143C74.401 57.2946 74.4188 56.7813 74.4034 56.334C74.4022 44.6232 74.4082 32.91 74.4011 21.1991C74.4295 20.8346 74.2838 20.2602 74.5893 20ZM75.8078 25.2343C77.0523 25.4657 78.2968 25.6312 79.5117 26.0065C79.5318 26.6049 79.5022 27.1961 79.4915 27.7944C79.3944 31.8739 79.231 35.9498 79.0463 40.0257C78.9042 43.3449 78.9196 46.657 78.7242 49.9762C78.6686 50.8528 78.6935 51.8193 78.4602 52.6671C78.388 52.9225 78.2601 53.0892 77.9984 53.1551C77.385 53.2846 76.7598 53.2798 76.1535 53.4633C75.764 53.5664 75.3353 53.7199 75.2323 54.1672C75.2264 54.3075 75.224 54.4478 75.2276 54.5893C78.1121 54.3531 80.9634 54.5317 83.8455 54.6409C83.8775 54.3327 83.8467 54.0389 83.797 53.7355C82.8947 53.4489 81.8337 53.7091 80.9148 53.4237C80.6389 53.3254 80.3915 53.1779 80.2517 52.9069C79.9723 52.4105 79.9498 51.7353 79.9119 51.1777C79.8645 49.7328 79.7544 48.3082 79.7651 46.8608C79.7651 41.1241 79.8409 35.3203 80.1914 29.5931C80.2399 29.0715 80.2281 28.5415 80.3204 28.0295C83.2902 36.5194 85.9047 45.1676 88.0065 53.9202C88.1261 54.2751 88.0242 54.7188 88.4789 54.7943C88.8614 53.6 89.0686 52.3829 89.4049 51.1753C91.4392 43.6579 93.6511 36.1884 95.8867 28.731C95.9045 28.8976 95.9199 29.0655 95.9317 29.2334C96.0644 32.8524 95.9827 36.4103 95.9755 40.0257C95.953 44.2035 96.0194 48.4053 95.7837 52.5771C95.3799 52.8829 94.9951 53.1803 94.5072 53.3398C94.0194 53.5257 93.3894 53.5197 92.9572 53.8051C92.7488 53.9849 92.8033 54.4154 92.7986 54.666C93.6949 54.7092 94.5605 54.5533 95.4557 54.5377C97.7197 54.4742 99.9932 54.6792 102.268 54.6912C102.266 54.4634 102.262 54.2355 102.258 54.0077C101.251 53.6444 99.9802 53.5017 99.0649 52.9261C98.6457 52.6827 98.5936 52.2174 98.5439 51.7773C98.4835 50.866 98.5557 49.9318 98.5522 49.0193C98.5391 42.5415 98.4586 36.0685 98.448 29.5931C98.4539 28.7238 98.3793 27.8088 98.5214 26.9502C98.5806 26.5929 98.7452 26.2571 99.0708 26.0809C99.9411 25.6707 101.081 25.8914 101.919 25.4621C102.314 25.2355 102.171 24.8937 102.196 24.51C100.476 24.5064 98.6836 24.6167 96.9951 24.3793C96.7026 24.3529 96.3616 24.3265 96.1034 24.4968C95.9969 24.6803 95.9282 24.8949 95.8666 25.0988C95.4214 26.8123 95.0413 28.5427 94.5795 30.2515C93.9341 32.5946 93.2071 34.9102 92.6103 37.2665C91.6713 40.8399 90.6186 44.3786 89.3504 47.8477C89.187 47.6594 89.161 47.4364 89.0864 47.205C87.2297 40.9766 85.2179 34.7962 83.3565 28.5703C82.9586 27.1493 82.4921 25.7547 81.9983 24.3661C81.3032 24.1598 80.6532 24.3001 79.9451 24.3529C78.8391 24.4704 77.7237 24.4057 76.6295 24.2126C76.3797 24.1826 75.9901 24.1155 75.7876 24.3049C75.6396 24.6215 75.7095 24.9165 75.8078 25.2343Z" fill="#003A7E"/>
<path d="M106.064 20H134.416L134.587 20.1859C134.778 20.4185 134.945 20.6475 134.979 20.9581C135.135 22.0901 134.986 23.294 134.986 24.4368C134.987 34.789 134.985 45.1424 134.987 55.4946C134.98 56.1937 135.088 56.9984 134.905 57.6747C134.813 58.0368 134.476 58.0176 134.177 58.0716C133.128 58.1663 132.034 58.0452 130.978 58.0512C123.479 58.0488 115.979 58.05 108.48 58.05C107.966 58.0452 107.453 58.0728 106.94 58.0728C106.657 58.0608 106.376 58.0644 106.153 57.8594C105.931 57.5044 105.936 56.9864 105.92 56.5763C105.91 44.6652 105.929 32.6378 105.91 20.7411C105.916 20.4797 105.969 20.2434 106.064 20ZM108.87 23.92C108.849 24.3277 109.031 24.6671 109.413 24.8158C110.156 25.0748 110.917 25.2307 111.56 25.7559C111.852 25.9993 111.97 26.3459 112.032 26.714C112.142 27.4155 112.121 28.1638 112.118 28.8737C112.094 30.9578 112.186 33.0263 112.149 35.1092C112.123 36.0709 112.072 37.023 112.078 37.9872C112.079 39.1479 112.152 40.3039 112.156 41.4647C112.162 43.2634 112.109 45.0621 112.11 46.8608C112.09 48.795 112.096 50.8372 111.664 52.7282C111.262 53.1887 110.587 53.4465 109.999 53.5424C109.564 53.6312 109.005 53.6947 108.651 53.9825C108.463 54.226 108.583 54.5102 108.609 54.7872C110.86 54.8051 113.1 54.666 115.348 54.6253C116.188 54.5953 116.996 54.7836 117.834 54.8003C119.356 54.8387 120.942 54.8771 122.451 54.6612C123.771 54.4718 124.968 53.9729 126.137 53.3422C127.56 52.5256 128.602 51.2593 129.437 49.8575C130.743 47.6511 131.522 45.0897 131.841 42.5451C132.246 39.1191 131.994 35.4582 130.786 32.2121C130.07 30.2851 129.03 28.2705 127.537 26.8435C125.983 25.377 123.973 24.3157 121.86 24.0087C119.821 23.661 117.86 24.0615 115.821 24.1287C113.442 24.2426 111.265 23.5818 108.87 23.92Z" fill="#003A7E"/>
<path d="M137.69 20H164.237L164.341 20.0084C164.91 20.0528 165.482 20.0096 166.053 20.0432C166.269 20.3142 166.575 20.4665 166.599 20.837C166.683 21.5049 166.598 22.204 166.599 22.8779C166.6 34.3094 166.595 45.742 166.601 57.1735C166.594 57.4409 166.505 57.6795 166.412 57.9241C165.762 58.1208 165.156 58.0392 164.489 58.05C156.121 58.0512 147.753 58.0488 139.386 58.0512C138.89 58.0404 138.294 58.1136 137.829 57.9217C137.509 57.5728 137.554 56.9036 137.532 56.454C137.529 45.1424 137.533 33.8297 137.53 22.5182C137.559 21.7148 137.399 20.7591 137.69 20ZM138.934 25.016C140.183 25.2918 141.432 25.3961 142.649 25.8206C142.551 30.5165 142.42 35.2123 142.202 39.9034C142.058 43.4265 142.03 46.9388 141.817 50.4582C141.777 51.2029 141.764 52.1802 141.356 52.823C140.867 53.0616 140.211 53.0352 139.681 53.1683C139.168 53.2798 138.697 53.371 138.36 53.8194C138.458 54.0233 138.465 54.1732 138.442 54.3926C141.259 54.1468 144.154 54.3099 146.976 54.455C147.008 54.1204 147.002 53.8326 146.903 53.5101C146.056 53.3098 145.209 53.4249 144.36 53.293C143.962 53.2199 143.541 53.058 143.364 52.6587C143.156 52.2138 143.119 51.6634 143.077 51.1765C142.968 49.6596 142.89 48.1415 142.881 46.6198C142.789 40.7524 143.045 34.9677 143.356 29.1135C143.376 28.7022 143.393 28.2921 143.444 27.8832C145.109 32.561 146.635 37.2964 148.038 42.0618C149.241 46.1425 150.328 50.2196 151.279 54.3675C151.315 54.5437 151.517 54.5078 151.651 54.5485C151.73 54.1036 151.851 53.6708 151.972 53.2367C154.07 45.1149 156.48 37.0518 158.861 29.0116C158.908 28.8305 158.945 28.6458 158.986 28.4636C159.033 28.7981 159.065 29.1339 159.075 29.4732C159.165 32.025 159.139 34.5984 159.115 37.1478C159.065 42.2477 159.177 47.2889 158.934 52.3865C158.077 53.1899 157.018 53.1371 155.976 53.7031C155.974 53.8734 155.824 54.3687 156.005 54.4514C156.642 54.5293 157.332 54.3938 157.974 54.3615C160.41 54.226 162.935 54.4766 165.397 54.4886C165.394 54.2511 165.388 54.0125 165.377 53.7751C164.388 53.4765 163.282 53.3026 162.361 52.8254C161.962 52.6215 161.774 52.3277 161.712 51.8816C161.593 50.9031 161.685 49.8851 161.675 48.8994C161.672 42.424 161.581 35.9486 161.576 29.4732C161.584 28.6051 161.512 27.6913 161.64 26.8339C161.694 26.437 161.867 26.0617 162.24 25.8806C163.099 25.4765 164.243 25.6947 165.062 25.2343C165.426 25.0772 165.306 24.5927 165.338 24.2749C163.571 24.3277 161.865 24.4212 160.109 24.1814C159.806 24.1598 159.429 24.0963 159.2 24.3481C158.967 24.8146 158.9 25.3734 158.761 25.8758C158.03 28.7645 157.272 31.6485 156.45 34.512C155.226 38.9117 154.078 43.4421 152.447 47.7038C151.795 45.6677 151.203 43.6087 150.564 41.5678C149.065 36.6885 147.527 31.8212 146.035 26.9394C145.759 25.9945 145.517 25.0484 145.117 24.1466C143.494 23.9308 141.607 24.4272 139.979 24.0639C139.659 24.0099 139.292 23.9068 138.986 24.0471C138.741 24.3709 138.853 24.6611 138.934 25.016Z" fill="#003A7E"/>
<path d="M175.282 20H197.139L197.255 20.0108C197.573 20.2039 197.947 20.554 197.956 20.9569C198.017 21.4378 197.924 21.909 197.999 22.3899V57.2394C197.924 57.4576 197.851 57.6759 197.783 57.8965C197.544 57.9817 197.309 58.0608 197.053 58.0788C196.042 58.1627 194.989 58.0452 193.973 58.05C185.921 58.0512 177.868 58.0488 169.816 58.0512C169.585 58.0272 169.205 58.032 169.075 57.7958C168.877 57.4061 168.894 56.8821 168.877 56.454C168.876 45.182 168.878 33.9101 168.875 22.6381C168.883 21.7951 168.785 20.8874 168.967 20.0648C171.072 20.0348 173.178 20.0228 175.282 20ZM178.215 24.3793C178.257 24.6083 178.194 25.0544 178.455 25.1647C179.346 25.4837 180.401 25.4273 181.291 25.7655C181.533 25.8782 181.832 25.9825 181.855 26.2943C182.221 28.1458 182.021 30.2143 182.036 32.1113C182.087 35.2291 182.063 38.3469 182.134 41.4647C182.158 44.2263 182.191 46.9783 182.068 49.7388C182.03 50.6117 182.114 51.5722 181.883 52.4188C181.783 52.8038 181.53 53.0436 181.168 53.1791C180.212 53.5328 179.194 53.4093 178.235 53.7991C178.235 54.0473 178.237 54.2955 178.242 54.5437C181.562 54.5305 184.886 54.6241 188.204 54.5185C188.184 54.2715 188.157 54.0245 188.125 53.7787C187.264 53.4057 186.318 53.4585 185.499 53.0412C185.193 52.8853 185.013 52.6563 184.912 52.3241C184.666 51.5195 184.697 50.5758 184.684 49.7388C184.682 46.2385 184.789 42.689 184.68 39.1863C184.627 37.3492 184.646 35.5085 184.647 33.6702C184.66 31.9878 184.623 30.315 184.693 28.6338C184.726 27.8616 184.684 26.997 184.911 26.2535C185.079 25.7523 185.561 25.6048 186.023 25.4981C186.737 25.3554 187.457 25.329 188.154 25.088C188.196 24.8577 188.212 24.6371 188.208 24.4033C187.915 24.3829 187.645 24.432 187.342 24.45C184.34 24.6551 181.253 24.3973 178.215 24.3793Z" fill="#003A7E"/>
<path d="M197.141 20H198V22.3899C197.926 21.909 198.018 21.4378 197.958 20.9569C197.948 20.554 197.574 20.2039 197.257 20.0108L197.141 20Z" fill="white"/>
<path d="M55.791 23.7817C57.3055 23.7325 58.9277 23.7062 60.4102 24.0515C61.9318 24.3957 63.2213 25.4701 63.9638 26.8443C64.7737 28.3504 65.0981 30.1731 64.8767 31.8723C64.7169 33.123 64.1426 34.2538 63.3551 35.2155C62.7998 35.8991 62.0502 36.3259 61.4688 36.9879C63.2853 37.645 64.8258 39.0768 65.6322 40.8515C66.2787 42.2581 66.5226 43.8794 66.4693 45.4215C66.3841 47.4756 65.7565 49.6005 64.5049 51.2421C63.528 52.5731 62.1272 53.566 60.5287 53.9582C59.4345 54.2495 58.3357 54.2759 57.212 54.2531C54.3227 54.1896 51.4821 54.5385 48.5869 54.3599C48.5774 54.0181 48.5289 53.7051 48.8557 53.4977C49.6124 53.0696 50.7242 53.0576 51.4098 52.5012C51.7781 51.9484 51.7615 51.1006 51.7923 50.4579C51.9166 47.3761 51.7923 44.3062 51.8018 41.2244C51.803 36.0549 51.7059 30.883 51.6798 25.7159C50.5715 25.3322 49.3116 25.4125 48.1594 25.1691C48.1547 24.9173 48.1535 24.6655 48.1523 24.4137C50.6757 24.0479 53.2464 23.8908 55.791 23.7817ZM54.3808 25.2878C54.4305 29.215 54.2671 33.2202 54.5181 37.1378C55.9189 37.4447 57.4594 37.4759 58.82 36.9711C59.6986 36.6341 60.4848 36.013 60.9597 35.1832C61.7732 33.8041 62.1592 32.1481 62.2089 30.5521C62.2314 29.1011 61.9425 27.511 60.9751 26.3838C60.3226 25.5888 59.2996 25.2267 58.3345 25.0036C57.0415 24.7398 55.6087 24.7554 54.3808 25.2878ZM54.5134 38.6103C54.4033 42.3528 54.466 46.1158 54.5442 49.8583C54.5773 50.7073 54.7218 51.4999 55.3044 52.1487C55.9319 52.9161 56.9858 53.1308 57.9224 53.12C59.1125 53.0804 60.4529 52.7266 61.3374 51.8764C62.1651 51.0754 62.7453 49.983 63.123 48.8978C63.7542 47.1278 63.766 45.1936 63.406 43.3625C63.1444 42.2125 62.7358 41.0434 61.9235 40.168C61.3623 39.5864 60.6708 39.1379 59.9236 38.8441C59.1527 38.5552 58.3807 38.4928 57.5672 38.4544C56.5489 38.4208 55.5246 38.4808 54.5134 38.6103Z" fill="white"/>
<path d="M115.825 24.1287C117.864 24.0616 119.825 23.6611 121.864 24.0088C123.976 24.3158 125.987 25.377 127.54 26.8436C129.033 28.2706 130.073 30.2851 130.789 32.2122C131.997 35.4582 132.249 39.1192 131.844 42.5452C131.526 45.0898 130.747 47.6511 129.441 49.8576C128.606 51.2594 127.564 52.5256 126.141 53.3423C124.972 53.973 123.775 54.4719 122.454 54.6613C120.946 54.8772 119.359 54.8388 117.838 54.8004C116.999 54.7836 116.192 54.5954 115.351 54.6253C113.104 54.6661 110.863 54.8052 108.612 54.7872C108.586 54.5102 108.467 54.226 108.655 53.9826C109.009 53.6948 109.568 53.6313 110.002 53.5425C110.591 53.4466 111.266 53.1888 111.667 52.7283C112.099 50.8373 112.093 48.7951 112.114 46.8609C112.112 45.0622 112.166 43.2635 112.16 41.4647C112.155 40.304 112.083 39.148 112.082 37.9872C112.076 37.0231 112.127 36.071 112.153 35.1093C112.189 33.0264 112.097 30.9579 112.122 28.8737C112.124 28.1638 112.146 27.4156 112.035 26.7141C111.974 26.3459 111.855 25.9994 111.563 25.756C110.92 25.2307 110.16 25.0749 109.416 24.8158C109.035 24.6671 108.853 24.3278 108.874 23.9201C111.268 23.5819 113.446 24.2426 115.825 24.1287ZM114.76 28.7538C114.817 31.031 114.783 33.3094 114.803 35.5889C114.817 39.3063 114.848 43.0236 114.88 46.741C114.909 47.9006 114.864 49.0805 114.989 50.2341C115.092 51.456 115.898 52.5796 116.95 53.16C117.607 53.5089 118.406 53.6313 119.14 53.6349C120.869 53.6301 122.582 53.0449 123.959 51.986C125.627 50.7497 126.831 48.8251 127.593 46.9053C128.762 43.8462 128.928 40.4886 128.637 37.251C128.36 34.4665 127.622 31.7841 125.984 29.4937C124.688 27.6218 122.742 26.1517 120.543 25.5773C119.196 25.2068 117.801 25.1408 116.418 25.3063C116.001 25.3591 115.52 25.4466 115.169 25.6912C114.905 25.8519 114.839 26.1913 114.784 26.4755C114.684 27.2177 114.745 28.0068 114.76 28.7538Z" fill="white"/>
<path d="M138.985 24.0471C139.291 23.9068 139.658 24.01 139.978 24.0639C141.606 24.4273 143.493 23.9308 145.116 24.1467C145.516 25.0484 145.758 25.9946 146.034 26.9395C147.526 31.8212 149.064 36.6885 150.563 41.5678C151.202 43.6088 151.794 45.6677 152.446 47.7039C154.077 43.4421 155.225 38.9117 156.449 34.5121C157.271 31.6485 158.029 28.7646 158.76 25.8758C158.899 25.3734 158.966 24.8146 159.199 24.3481C159.428 24.0963 159.805 24.1599 160.108 24.1814C161.864 24.4213 163.57 24.3277 165.337 24.275C165.305 24.5928 165.425 25.0772 165.061 25.2343C164.242 25.6948 163.098 25.4765 162.239 25.8806C161.866 26.0617 161.693 26.437 161.639 26.834C161.511 27.6913 161.583 28.6051 161.575 29.4733C161.58 35.9486 161.671 42.424 161.675 48.8994C161.684 49.8851 161.592 50.9032 161.711 51.8817C161.773 52.3278 161.961 52.6215 162.36 52.8254C163.281 53.3027 164.387 53.4765 165.376 53.7751C165.387 54.0126 165.393 54.2512 165.396 54.4886C162.934 54.4766 160.409 54.226 157.973 54.3615C157.331 54.3939 156.641 54.5294 156.004 54.4514C155.823 54.3687 155.973 53.8734 155.975 53.7032C157.017 53.1372 158.076 53.1899 158.933 52.3865C159.176 47.2889 159.064 42.2477 159.114 37.1478C159.138 34.5984 159.164 32.025 159.074 29.4733C159.064 29.1339 159.032 28.7981 158.985 28.4636C158.944 28.6459 158.907 28.8305 158.86 29.0116C156.479 37.0519 154.069 45.1149 151.971 53.2367C151.85 53.6708 151.729 54.1037 151.65 54.5486C151.516 54.5078 151.314 54.5438 151.278 54.3675C150.327 50.2197 149.24 46.1426 148.037 42.0619C146.634 37.2965 145.108 32.5611 143.443 27.8832C143.392 28.2921 143.375 28.7022 143.355 29.1135C143.044 34.9677 142.788 40.7524 142.88 46.6198C142.889 48.1415 142.967 49.6597 143.076 51.1766C143.118 51.6634 143.155 52.2138 143.363 52.6587C143.54 53.058 143.961 53.2199 144.359 53.2931C145.208 53.425 146.055 53.3099 146.902 53.5101C147.001 53.8327 147.007 54.1205 146.975 54.455C144.153 54.3099 141.258 54.1469 138.441 54.3927C138.464 54.1732 138.456 54.0233 138.359 53.8195C138.696 53.371 139.167 53.2799 139.68 53.1684C140.21 53.0352 140.866 53.0616 141.355 52.823C141.763 52.1803 141.776 51.203 141.816 50.4583C142.029 46.9388 142.057 43.4265 142.201 39.9034C142.419 35.2124 142.55 30.5165 142.648 25.8207C141.431 25.3962 140.182 25.2919 138.932 25.016C138.852 24.6611 138.739 24.3709 138.985 24.0471Z" fill="white"/>
<path d="M76.6302 24.2127C77.7243 24.4057 78.8398 24.4705 79.9457 24.353C80.6538 24.3002 81.3039 24.1599 81.999 24.3662C82.4927 25.7548 82.9593 27.1494 83.3571 28.5704C85.2186 34.7963 87.2304 40.9767 89.0871 47.2051C89.1617 47.4365 89.1877 47.6595 89.3511 47.8478C90.6193 44.3787 91.672 40.84 92.611 37.2666C93.2078 34.9102 93.9348 32.5947 94.5801 30.2516C95.0419 28.5428 95.422 26.8124 95.8673 25.0988C95.9288 24.895 95.9975 24.6803 96.1041 24.4969C96.3622 24.3266 96.7033 24.353 96.9957 24.3794C98.6843 24.6168 100.477 24.5065 102.196 24.5101C102.171 24.8938 102.315 25.2355 101.919 25.4622C101.082 25.8915 99.9418 25.6708 99.0715 26.0809C98.7458 26.2572 98.5813 26.593 98.522 26.9503C98.38 27.8089 98.4545 28.7239 98.4486 29.5932C98.4593 36.0686 98.5398 42.5416 98.5528 49.0194C98.5564 49.9319 98.4842 50.866 98.5445 51.7774C98.5943 52.2175 98.6464 52.6827 99.0656 52.9262C99.9809 53.5018 101.251 53.6445 102.259 54.0078C102.263 54.2356 102.266 54.4635 102.269 54.6913C99.9939 54.6793 97.7204 54.4743 95.4564 54.5378C94.5612 54.5534 93.6956 54.7093 92.7992 54.6661C92.804 54.4155 92.7495 53.985 92.9579 53.8051C93.3901 53.5197 94.0201 53.5257 94.5079 53.3399C94.9958 53.1804 95.3806 52.883 95.7844 52.5772C96.02 48.4054 95.9537 44.2036 95.9762 40.0258C95.9833 36.4104 96.065 32.8525 95.9324 29.2335C95.9206 29.0656 95.9052 28.8977 95.8874 28.731C93.6518 36.1885 91.4399 43.658 89.4056 51.1754C89.0693 52.383 88.8621 53.6001 88.4796 54.7944C88.0249 54.7189 88.1267 54.2752 88.0071 53.9203C85.9054 45.1677 83.2908 36.5195 80.3211 28.0295C80.2287 28.5416 80.2406 29.0716 80.192 29.5932C79.8415 35.3203 79.7657 41.1242 79.7657 46.8609C79.7551 48.3083 79.8652 49.7329 79.9126 51.1778C79.9505 51.7354 79.973 52.4105 80.2524 52.907C80.3921 53.178 80.6396 53.3255 80.9155 53.4238C81.8344 53.7092 82.8953 53.449 83.7976 53.7356C83.8474 54.039 83.8782 54.3328 83.8462 54.6409C80.9641 54.5318 78.1127 54.3532 75.2282 54.5894C75.2247 54.4479 75.227 54.3076 75.233 54.1673C75.336 53.72 75.7646 53.5665 76.1542 53.4634C76.7605 53.2799 77.3857 53.2847 77.999 53.1552C78.2607 53.0893 78.3886 52.9226 78.4609 52.6672C78.6941 51.8194 78.6693 50.8528 78.7249 49.9763C78.9203 46.657 78.9049 43.345 79.047 40.0258C79.2317 35.9499 79.3951 31.874 79.4922 27.7945C79.5029 27.1961 79.5325 26.605 79.5123 26.0066C78.2974 25.6313 77.0529 25.4658 75.8084 25.2343C75.7102 24.9166 75.6403 24.6216 75.7883 24.305C75.9908 24.1155 76.3804 24.1827 76.6302 24.2127Z" fill="white"/>
<path d="M188.208 24.4034C188.212 24.6372 188.196 24.8579 188.154 25.0881C187.457 25.3291 186.737 25.3555 186.023 25.4982C185.561 25.6049 185.079 25.7524 184.911 26.2537C184.684 26.9971 184.726 27.8617 184.693 28.634C184.623 30.3152 184.66 31.988 184.647 33.6704C184.646 35.5086 184.627 37.3493 184.68 39.1864C184.789 42.6891 184.682 46.2386 184.684 49.7389C184.697 50.5759 184.666 51.5196 184.912 52.3242C185.013 52.6564 185.193 52.8854 185.499 53.0413C186.318 53.4586 187.264 53.4059 188.125 53.7788C188.157 54.0246 188.184 54.2716 188.204 54.5187C184.886 54.6242 181.562 54.5307 178.242 54.5438C178.237 54.2956 178.235 54.0474 178.235 53.7992C179.194 53.4095 180.212 53.533 181.168 53.1792C181.53 53.0437 181.783 52.8039 181.883 52.419C182.114 51.5724 182.03 50.6119 182.068 49.7389C182.191 46.9785 182.158 44.2264 182.134 41.4648C182.063 38.347 182.087 35.2292 182.036 32.1115C182.021 30.2144 182.221 28.1459 181.855 26.2944C181.832 25.9826 181.533 25.8783 181.291 25.7656C180.401 25.4274 179.346 25.4838 178.455 25.1648C178.194 25.0545 178.257 24.6084 178.215 24.3794C181.253 24.3974 184.34 24.6552 187.342 24.4501C187.645 24.4322 187.915 24.383 188.208 24.4034Z" fill="white"/>
<path d="M58.3319 25.0042C59.297 25.2272 60.3201 25.5894 60.9725 26.3844C61.9399 27.5116 62.2288 29.1017 62.2064 30.5526C62.1566 32.1487 61.7706 33.8047 60.9571 35.1837C60.4823 36.0135 59.696 36.6347 58.8174 36.9716C57.4569 37.4765 55.9164 37.4453 54.5156 37.1383C54.2645 33.2207 54.4279 29.2156 54.3782 25.2884C55.6061 24.756 57.0389 24.7404 58.3319 25.0042Z" fill="#003A7E"/>
<path d="M116.417 25.3064C117.8 25.1409 119.194 25.2068 120.542 25.5774C122.741 26.1518 124.686 27.6219 125.983 29.4938C127.621 31.7841 128.358 34.4666 128.635 37.251C128.927 40.4887 128.761 43.8463 127.592 46.9053C126.83 48.8252 125.625 50.7498 123.958 51.9861C122.581 53.045 120.868 53.6301 119.139 53.6349C118.405 53.6313 117.605 53.509 116.948 53.1601C115.897 52.5797 115.09 51.4561 114.987 50.2342C114.863 49.0806 114.908 47.9006 114.878 46.7411C114.846 43.0237 114.816 39.3064 114.801 35.589C114.781 33.3094 114.816 31.0311 114.759 28.7539C114.743 28.0068 114.683 27.2178 114.782 26.4755C114.838 26.1913 114.903 25.852 115.167 25.6913C115.519 25.4467 116 25.3591 116.417 25.3064Z" fill="#003A7E"/>
<path d="M57.5623 38.455C58.3758 38.4934 59.1479 38.5557 59.9187 38.8447C60.6659 39.1385 61.3574 39.587 61.9187 40.1686C62.731 41.0439 63.1395 42.2131 63.4012 43.3631C63.7612 45.1942 63.7493 47.1284 63.1182 48.8983C62.7405 49.9836 62.1603 51.076 61.3326 51.877C60.448 52.7272 59.1076 53.0809 57.9176 53.1205C56.9809 53.1313 55.9271 52.9167 55.2995 52.1492C54.7169 51.5005 54.5725 50.7078 54.5393 49.8588C54.4612 46.1163 54.3984 42.3534 54.5085 38.6109C55.5198 38.4814 56.544 38.4214 57.5623 38.455Z" fill="#003A7E"/>
<path d="M63.1445 67.9778C64.4932 67.7487 66.0859 67.9754 67.0971 68.9838C67.8596 69.7249 68.1959 70.749 68.2196 71.803C68.248 72.8487 67.9674 73.9855 67.2344 74.7577C66.5074 75.5468 65.482 75.9161 64.434 75.9701C63.3399 76.0348 62.1736 75.8022 61.3115 75.0815C60.6105 74.5035 60.1831 73.6617 60.0481 72.7623C59.887 71.6843 60.0161 70.5259 60.6105 69.5954C61.173 68.7044 62.1286 68.154 63.1445 67.9778ZM63.7792 68.997C63.2985 69.081 62.9373 69.4383 62.7609 69.8868C62.4566 70.6183 62.4341 71.4996 62.4554 72.2827C62.4802 72.9746 62.5489 73.6929 62.9184 74.2948C63.3956 75.1055 64.7644 75.1223 65.2653 74.3224C65.7247 73.6341 65.7626 72.6089 65.7567 71.803C65.7413 71.0512 65.6821 70.0775 65.199 69.4647C64.8686 69.015 64.2978 68.9071 63.7792 68.997Z" fill="#010101"/>
<path d="M168.793 68.6505C168.86 68.4418 168.928 68.2344 168.995 68.0257C169.335 68.0233 169.674 68.0209 170.012 68.0126C170.032 69.0594 170.037 70.117 170.009 71.1627C169.667 71.1507 169.324 71.1483 168.982 71.1495C168.947 70.6339 168.864 70.1482 168.564 69.7165C167.911 68.7117 166.158 68.6949 165.554 69.7633C165.176 70.4276 165.104 71.291 165.111 72.0429C165.124 72.6916 165.18 73.4411 165.489 74.0239C166.05 75.1618 167.929 75.2158 168.594 74.1546C168.864 73.7588 168.95 73.3128 168.983 72.8415C169.33 72.8415 169.676 72.8403 170.023 72.8355C170.015 73.8644 169.694 74.8645 168.806 75.446C167.997 75.9569 166.957 76.0384 166.03 75.9461C165.045 75.837 164.112 75.4436 163.478 74.6474C162.713 73.6725 162.522 72.2827 162.723 71.0836C162.903 69.9887 163.525 68.9887 164.481 68.4311C165.799 67.6312 167.551 67.7679 168.793 68.6505Z" fill="#010101"/>
<path d="M48.5787 68.1312C49.9405 68.1168 51.3057 68.1264 52.6675 68.1276C53.1068 69.6817 53.5366 71.237 53.9712 72.791C54.4815 71.2597 54.8675 69.6697 55.3376 68.1216C56.6863 68.1408 58.0374 68.1012 59.3849 68.1408C59.3743 68.4705 59.3731 68.8003 59.379 69.1301C59.1067 69.1504 58.7822 69.0965 58.5241 69.184C58.2849 69.274 58.3251 69.5522 58.3062 69.7608C58.3086 71.2442 58.3074 72.7227 58.3062 74.2036C58.3062 74.4063 58.3299 74.5778 58.5146 74.6917C58.7787 74.7624 59.083 74.7349 59.3553 74.7265C59.3755 75.0658 59.379 75.4052 59.3778 75.7445C58.0031 75.7493 56.6271 75.7637 55.2524 75.7373C55.2536 75.4052 55.2571 75.0742 55.2583 74.7421C55.4975 74.7289 55.7959 74.772 56.0126 74.6641C56.1701 74.531 56.1736 74.2744 56.176 74.0849C56.1724 72.5296 56.1748 70.9743 56.1748 69.4191C55.5378 71.5152 54.9765 73.6424 54.3714 75.7493C53.8196 75.7505 53.2666 75.7481 52.7148 75.7505C52.1275 73.6328 51.552 71.5008 50.9624 69.3819C50.8747 70.3028 50.9446 71.2382 50.9221 72.1627C50.9387 72.9158 50.8878 73.682 50.9458 74.4315C51.0322 74.8548 51.5319 74.7049 51.841 74.7409C51.841 75.0766 51.8421 75.4124 51.841 75.7481C50.7468 75.7541 49.6539 75.7481 48.5598 75.7505C48.5598 75.41 48.5586 75.0706 48.5669 74.7301C48.8428 74.7349 49.1341 74.7564 49.4064 74.7109C49.7036 74.6257 49.6705 74.3343 49.6859 74.0813C49.6823 72.6831 49.6811 71.2837 49.6859 69.8843C49.68 69.6925 49.6894 69.4766 49.6219 69.2955C49.3567 69.0689 48.8961 69.1528 48.5669 69.1337C48.561 68.8015 48.5468 68.4621 48.5787 68.1312Z" fill="#010101"/>
<path d="M68.7178 68.1322C70.4442 68.1142 72.1801 68.131 73.9078 68.1238C74.5827 68.1226 75.3832 68.2377 75.9196 68.6886C76.5542 69.2318 76.6359 70.305 76.1824 70.9874C75.8308 71.4622 75.2825 71.6049 74.7437 71.7416C75.2304 71.8783 75.794 72.0486 75.9847 72.581C76.1884 73.2154 76.0001 73.9708 76.1185 74.6256C76.212 74.8246 76.6087 74.8654 76.7165 74.6603C76.8787 74.3761 76.8325 73.9516 76.8325 73.6327C77.0906 73.6219 77.3464 73.6219 77.6046 73.6303C77.5974 74.2358 77.6259 74.905 77.2292 75.405C76.868 75.899 76.1268 76.0106 75.5631 75.9734C75.0102 75.9482 74.4856 75.7288 74.2038 75.2239C73.8272 74.5596 73.9835 73.7346 73.9456 73.0007C73.9385 72.7429 73.8912 72.4515 73.6082 72.3712C73.0884 72.2441 72.5093 72.3124 71.9765 72.3112C71.9954 72.9372 71.9824 73.5619 71.9848 74.1867C71.9966 74.3749 72.0167 74.6268 72.2228 74.6999C72.5129 74.7659 72.8314 74.7311 73.1274 74.7347C73.1298 75.0716 73.131 75.4098 73.1345 75.7468C71.6639 75.7528 70.192 75.7516 68.7213 75.748C68.7178 75.4098 68.7166 75.0716 68.7154 74.7335C69.0363 74.7263 69.4377 74.7922 69.7302 74.6423C69.8605 74.4697 69.8439 74.2862 69.8545 74.0811C69.8486 72.6422 69.851 71.202 69.8534 69.7618C69.8427 69.5652 69.8569 69.3769 69.7172 69.2222C69.4188 69.0867 69.0304 69.1467 68.7083 69.1335C68.7083 68.8001 68.6917 68.4632 68.7178 68.1322ZM71.9824 69.1407C72.0179 69.7918 71.9303 70.6744 72.0238 71.2776C72.4833 71.2979 72.9759 71.2967 73.4353 71.2704C73.7491 71.2392 74.1019 71.1372 74.231 70.8123C74.3707 70.4358 74.3802 69.9477 74.2038 69.582C74.0345 69.3002 73.7349 69.227 73.4353 69.1743C72.9569 69.1143 72.4643 69.1443 71.9824 69.1407Z" fill="#010101"/>
<path d="M78.1615 68.124C80.6741 68.1288 83.1856 68.118 85.6983 68.13C85.6995 69.1013 85.6995 70.0726 85.6971 71.0439C85.3478 71.0487 84.9985 71.0499 84.6492 71.0451C84.6267 70.5799 84.6149 70.1182 84.3615 69.7117C84.1649 69.3771 83.7398 69.238 83.3798 69.1865C82.7392 69.1061 82.0785 69.1493 81.4332 69.1385C81.4296 69.8724 81.4308 70.6063 81.432 71.3401C81.741 71.3269 82.1436 71.3665 82.41 71.1818C82.7155 70.9408 82.6563 70.4504 82.693 70.1014C82.9985 70.1062 83.304 70.1062 83.6095 70.0954C83.6273 71.255 83.6332 72.4206 83.6084 73.5801C83.3029 73.5777 82.9974 73.5753 82.6919 73.5729C82.6682 73.2264 82.6942 72.8774 82.4941 72.5776C82.3343 72.2203 81.7458 72.3834 81.432 72.3462C81.4308 73.1424 81.4296 73.9387 81.4332 74.7349C82.0418 74.7313 82.654 74.7577 83.2626 74.7193C83.6782 74.6881 84.082 74.567 84.3271 74.2013C84.6267 73.7228 84.616 73.1784 84.6563 72.634C85.0044 72.6316 85.3537 72.634 85.7019 72.6496C85.6948 73.6809 85.6995 74.7121 85.6983 75.7434C83.1904 75.759 80.6812 75.7458 78.1721 75.7506C78.1638 75.41 78.1638 75.0707 78.1638 74.7313C78.4753 74.7265 78.8447 74.7877 79.1383 74.6689C79.3219 74.4999 79.2911 74.3104 79.3006 74.0814C79.297 72.6424 79.2947 71.2022 79.3018 69.7633C79.2947 69.5678 79.3006 69.3891 79.1727 69.2272C78.8755 69.0797 78.4705 69.1505 78.1484 69.1301C78.1508 68.7943 78.1532 68.4598 78.1615 68.124Z" fill="#010101"/>
<path d="M97.4624 68.126C97.4684 69.0997 97.4684 70.0734 97.4624 71.0484C97.1143 71.0484 96.765 71.046 96.4157 71.0424C96.3778 70.5387 96.3849 70.0519 96.0628 69.6346C95.7277 69.2257 95.26 69.1585 94.7662 69.1345C94.7615 70.7833 94.7698 72.4334 94.7603 74.081C94.7709 74.2896 94.7496 74.4743 94.8941 74.6422C95.1783 74.7945 95.5761 74.7249 95.8899 74.7369C95.8899 75.0727 95.8887 75.4084 95.8864 75.743C94.4193 75.755 92.951 75.7526 91.4827 75.7442C91.485 75.4084 91.4862 75.0727 91.4874 74.7369C91.7846 74.7369 92.0949 74.7549 92.3885 74.7045C92.514 74.6458 92.5863 74.5535 92.604 74.4287C92.6561 74.0798 92.6253 73.7141 92.6301 73.3615C92.6301 71.9501 92.6277 70.5375 92.6336 69.1261C92.1517 69.1645 91.7183 69.2089 91.3702 69.5854C91.0457 69.9715 90.9948 70.5531 90.983 71.0376C90.6325 71.046 90.282 71.0496 89.9315 71.0472C89.9315 70.0747 89.9267 69.1021 89.9327 68.1296C92.4418 68.1176 94.9533 68.1272 97.4624 68.126Z" fill="#010101"/>
<path d="M97.9876 68.1336C99.3813 68.1132 100.781 68.1312 102.176 68.1252C102.182 68.4597 102.182 68.7955 102.182 69.1313C101.925 69.1516 101.558 69.0917 101.345 69.2572C101.168 69.8867 101.307 70.629 101.258 71.2837C102.093 71.2861 102.93 71.2981 103.765 71.2765C103.736 70.6542 103.789 70.0246 103.739 69.4047C103.722 69.0293 103.085 69.1648 102.838 69.1313C102.836 68.7955 102.839 68.4609 102.842 68.1264C104.241 68.1252 105.638 68.1216 107.037 68.1276C107.04 68.4633 107.04 68.7979 107.037 69.1337C106.714 69.1504 106.34 69.0953 106.036 69.2092C105.896 69.3747 105.891 69.5558 105.89 69.7632C105.891 71.2022 105.894 72.6424 105.889 74.0813C105.905 74.3176 105.857 74.579 106.105 74.7061C106.403 74.7588 106.722 74.7373 107.023 74.7349C107.025 75.0706 107.025 75.4064 107.026 75.7421C105.633 75.7577 104.24 75.7529 102.848 75.7433C102.852 75.4088 102.853 75.073 102.857 74.7385C103.109 74.7229 103.483 74.7912 103.693 74.6341C103.837 73.8895 103.716 73.0645 103.761 72.3006C102.928 72.2994 102.094 72.297 101.26 72.303C101.275 73.0081 101.237 73.7204 101.278 74.4243C101.329 74.8572 101.873 74.7049 102.169 74.7373C102.169 75.0742 102.17 75.4112 102.167 75.7469C100.774 75.7493 99.3789 75.7577 97.984 75.7433C97.9935 75.4088 97.9959 75.073 97.9959 74.7385C98.2883 74.7337 98.5998 74.7636 98.8875 74.7001C99.1042 74.6078 99.1184 74.4147 99.1255 74.2036C99.1326 73.0441 99.1267 71.8833 99.1279 70.7237C99.1255 70.2225 99.1527 69.7284 99.0876 69.2296C98.7217 69.1145 98.357 69.1313 97.9805 69.1361C97.9876 68.8027 97.9745 68.4669 97.9876 68.1336Z" fill="#010101"/>
<path d="M110.444 68.1336C111.195 68.1096 111.949 68.1348 112.701 68.1216C113.36 70.0654 113.982 72.0212 114.636 73.9662C114.724 74.218 114.816 74.4734 115.018 74.6569C115.235 74.766 115.527 74.7313 115.766 74.7409C115.769 75.0742 115.77 75.4088 115.775 75.7433C114.392 75.7553 113.009 75.7529 111.627 75.7457C111.628 75.41 111.629 75.073 111.633 74.7373C111.957 74.7433 112.276 74.7373 112.592 74.6545C112.592 74.1773 112.42 73.7731 112.297 73.3199C111.529 73.3283 110.758 73.3271 109.989 73.3199C109.87 73.7827 109.66 74.1845 109.692 74.6425C110.034 74.7277 110.361 74.7492 110.713 74.7337C110.712 75.073 110.71 75.4112 110.712 75.7493C109.6 75.7517 108.488 75.7493 107.376 75.7505C107.375 75.416 107.375 75.0814 107.376 74.7457C107.588 74.7349 107.816 74.7516 108.022 74.6965C108.283 74.6125 108.384 74.3008 108.477 74.0681C109.139 72.0979 109.775 70.099 110.444 68.1336ZM110.318 72.3078C110.857 72.309 111.397 72.309 111.937 72.315C111.712 71.4876 111.403 70.6854 111.156 69.8639C110.803 70.6374 110.599 71.5008 110.318 72.3078Z" fill="#010101"/>
<path d="M116.315 68.1336C117.523 68.1096 118.733 68.136 119.941 68.1216C120.952 69.8651 121.896 71.6507 122.911 73.3918C122.913 72.1039 122.922 70.8125 122.907 69.5258C122.89 68.9718 122.138 69.178 121.782 69.1349C121.778 68.7979 121.778 68.4609 121.783 68.124C122.945 68.124 124.106 68.1276 125.267 68.1228C125.275 68.4597 125.276 68.7955 125.271 69.1325C124.959 69.1481 124.568 69.0833 124.283 69.2284C124.129 69.3783 124.167 69.5654 124.151 69.762C124.156 71.7574 124.148 73.7528 124.156 75.7469C123.43 75.7469 122.703 75.7613 121.978 75.7445C121.887 75.7529 121.822 75.711 121.782 75.6198C120.766 73.7684 119.717 71.9325 118.714 70.0738C118.643 71.3257 118.702 72.5872 118.679 73.8415C118.691 74.1101 118.632 74.4267 118.81 74.6461C119.099 74.796 119.497 74.7253 119.814 74.7313C119.816 75.0694 119.817 75.4064 119.816 75.7433C118.649 75.7589 117.481 75.7457 116.314 75.7517C116.311 75.4112 116.31 75.0706 116.311 74.7313C116.613 74.7337 116.948 74.772 117.242 74.6905C117.476 74.5418 117.431 74.3248 117.447 74.0837C117.444 72.6436 117.448 71.2034 117.446 69.7632C117.426 69.5606 117.474 69.2728 117.233 69.1912C116.944 69.1013 116.604 69.1492 116.303 69.1337C116.301 68.8015 116.285 68.4633 116.315 68.1336Z" fill="#010101"/>
<path d="M129.194 68.1191C130.56 68.1347 131.926 68.1167 133.292 68.1287C133.653 69.4334 134.019 70.7381 134.38 72.0427C134.445 72.297 134.51 72.55 134.617 72.791C135.077 71.2393 135.494 69.6732 135.966 68.1251C137.302 68.1227 138.64 68.1287 139.977 68.1215C139.996 68.4561 140 68.7895 139.997 69.124C139.699 69.1432 139.352 69.106 139.071 69.2164C138.916 69.3746 138.932 69.5557 138.925 69.7632C138.933 71.2429 138.925 72.7239 138.928 74.2048C138.927 74.3991 138.963 74.5981 139.145 74.7C139.414 74.7588 139.71 74.7348 139.983 74.73C139.997 75.0694 139.999 75.4087 139.995 75.7481C138.619 75.7505 137.242 75.7553 135.866 75.7457C135.874 75.4111 135.877 75.0754 135.879 74.7408C136.102 74.7372 136.337 74.7492 136.554 74.7024C136.815 74.5825 136.781 74.3259 136.796 74.0813C136.793 72.9625 136.793 71.8437 136.793 70.7237C136.791 70.31 136.822 69.9131 136.741 69.5042C136.179 71.5907 135.563 73.6628 134.997 75.7481C134.437 75.7457 133.874 75.7661 133.315 75.7337C132.746 73.5848 132.16 71.436 131.546 69.2991C131.538 70.894 131.546 72.4888 131.54 74.0849C131.546 74.3007 131.551 74.6269 131.795 74.7108C132.009 74.7468 132.24 74.736 132.459 74.7348C132.458 75.0706 132.459 75.4051 132.466 75.7409C131.373 75.7625 130.279 75.7445 129.185 75.7505C129.181 75.4123 129.181 75.0754 129.182 74.7372C129.51 74.7468 129.833 74.7372 130.159 74.7C130.237 74.537 130.31 74.3907 130.302 74.2024C130.309 72.7634 130.299 71.3233 130.307 69.8843C130.301 69.6576 130.31 69.4514 130.199 69.2475C129.929 69.0629 129.493 69.1636 129.18 69.1288C129.178 68.7919 129.181 68.4549 129.194 68.1191Z" fill="#010101"/>
<path d="M140.509 68.1336C143.014 68.1132 145.536 68.1312 148.042 68.1252C148.06 69.0989 148.043 70.0738 148.051 71.0487C147.701 71.0439 147.35 71.0439 147 71.0475C146.973 70.6002 146.975 70.1565 146.743 69.7572C146.557 69.455 146.262 69.2812 145.92 69.2152C145.238 69.0809 144.492 69.1696 143.794 69.1265C143.776 69.8627 143.782 70.5978 143.787 71.3329C144.109 71.3209 144.526 71.3749 144.792 71.1566C145.06 70.8976 145.026 70.4683 145.024 70.1242C145.332 70.1074 145.641 70.1002 145.949 70.0906C146.004 71.2477 145.955 72.4121 145.973 73.5717C145.661 73.5801 145.35 73.5801 145.037 73.5717C145.034 73.0956 145.011 72.7119 144.668 72.3546C144.374 72.3498 144.082 72.345 143.788 72.3402C143.775 73.1352 143.789 73.9302 143.78 74.7253C144.367 74.7456 144.959 74.748 145.548 74.7241C145.949 74.6965 146.409 74.597 146.649 74.236C146.976 73.7983 146.968 73.1544 147.005 72.628C147.355 72.634 147.703 72.6328 148.052 72.6256C148.046 73.6664 148.05 74.7073 148.05 75.7469C145.54 75.7553 143.028 75.7457 140.517 75.7517C140.515 75.4124 140.515 75.0742 140.517 74.7349C140.81 74.7289 141.131 74.7708 141.418 74.6989C141.617 74.6401 141.644 74.3787 141.649 74.2036C141.656 72.7647 141.645 71.3233 141.652 69.8843C141.641 69.6601 141.679 69.3675 141.491 69.2056C141.19 69.0929 140.822 69.1469 140.503 69.1337C140.505 68.8003 140.492 68.4657 140.509 68.1336Z" fill="#010101"/>
<path d="M148.635 68.1312C150.05 68.1168 151.47 68.1276 152.886 68.1252C153.993 68.1456 155.129 68.377 155.967 69.16C156.743 69.9131 156.997 70.9851 156.981 72.0428C156.983 73.0848 156.686 74.1329 155.876 74.8236C155.017 75.5455 153.85 75.7337 152.766 75.7493C151.388 75.7505 150.01 75.7505 148.632 75.7493C148.629 75.4112 148.63 75.0742 148.634 74.7361C148.933 74.7289 149.273 74.7756 149.562 74.6821C149.716 74.5538 149.743 74.3955 149.743 74.2024C149.748 72.7635 149.739 71.3233 149.748 69.8843C149.745 69.6469 149.76 69.4335 149.617 69.2296C149.33 69.0869 148.942 69.1481 148.629 69.1361C148.621 68.8027 148.604 68.4621 148.635 68.1312ZM151.885 74.7385C152.577 74.7301 153.373 74.8008 153.934 74.308C154.548 73.7216 154.557 72.7167 154.578 71.9229C154.569 71.1482 154.531 70.1122 153.921 69.5498C153.393 69.0881 152.543 69.1457 151.893 69.1325C151.863 70.9995 151.876 72.8702 151.885 74.7385Z" fill="#010101"/>
<path d="M157.636 68.1315C159.106 68.1159 160.583 68.1303 162.055 68.1255C162.053 68.4613 162.052 68.797 162.052 69.1328C161.691 69.1292 161.332 69.1352 160.974 69.1963C160.933 69.4242 160.898 69.652 160.903 69.8847C160.911 71.2841 160.906 72.6835 160.905 74.0829C160.916 74.3011 160.91 74.6261 161.159 74.7112C161.453 74.7508 161.754 74.7376 162.05 74.7508C162.04 75.083 162.04 75.4151 162.046 75.7473C160.576 75.7533 159.104 75.7509 157.632 75.7497C157.638 75.4127 157.639 75.077 157.636 74.7412C157.94 74.728 158.281 74.7724 158.575 74.6884C158.814 74.529 158.759 74.21 158.773 73.9618C158.753 72.3897 158.808 70.8116 158.746 69.2419C158.376 69.1004 158.013 69.1388 157.627 69.1376C157.625 68.803 157.611 68.4649 157.636 68.1315Z" fill="#010101"/>
<path d="M175.26 68.1216C175.273 68.4597 175.276 68.7967 175.269 69.1349C174.914 69.1313 174.56 69.1361 174.208 69.1828C174.083 69.5797 174.134 69.9551 174.128 70.364C174.128 71.6039 174.128 72.8438 174.127 74.0837C174.141 74.3092 174.098 74.5526 174.322 74.6881C174.618 74.7708 174.955 74.7337 175.261 74.7325C175.261 75.0718 175.261 75.4112 175.257 75.7505C173.793 75.7493 172.328 75.7505 170.863 75.7505C170.858 75.4124 170.858 75.0754 170.858 74.7385C171.172 74.7301 171.526 74.772 171.828 74.6797C172.033 74.4674 171.983 74.2324 171.998 73.9614C171.981 72.3941 172 70.8256 171.987 69.2584C171.61 69.0809 171.25 69.148 170.848 69.1313C170.849 68.8003 170.849 68.4705 170.836 68.1396C172.309 68.1024 173.786 68.1396 175.26 68.1216Z" fill="#010101"/>
<path d="M175.816 68.136C177.033 68.1096 178.255 68.1312 179.473 68.1264C180.438 69.9047 181.476 71.6506 182.415 73.441C182.447 72.2154 182.421 70.9875 182.432 69.762C182.426 69.521 182.423 69.2452 182.151 69.1612C181.869 69.1204 181.576 69.1384 181.292 69.13C181.293 68.7943 181.294 68.4585 181.304 68.1228C182.467 68.1276 183.629 68.1228 184.792 68.1252C184.79 68.4609 184.79 68.7955 184.795 69.1312C184.506 69.1372 184.206 69.1228 183.921 69.1732C183.798 69.2104 183.723 69.2919 183.697 69.4202C183.647 69.7284 183.667 70.0522 183.665 70.364C183.667 72.1591 183.665 73.9542 183.666 75.7493C182.894 75.7457 182.121 75.7649 181.349 75.7373C180.57 74.2564 179.721 72.8114 178.921 71.3401C178.686 70.93 178.474 70.5019 178.209 70.1121C178.181 71.3545 178.205 72.5992 178.196 73.8415C178.2 74.1125 178.173 74.3679 178.3 74.6173C178.575 74.8092 179.017 74.7145 179.341 74.7516C179.33 75.0838 179.33 75.4148 179.337 75.7469C178.164 75.7529 176.99 75.7541 175.818 75.7445C175.826 75.4136 175.825 75.0838 175.816 74.7528C176.11 74.7372 176.409 74.7468 176.702 74.7097C176.967 74.6005 176.95 74.3271 176.962 74.0825C176.958 72.6831 176.957 71.2837 176.962 69.8843C176.956 69.6649 176.969 69.4406 176.849 69.2488C176.563 69.0737 176.139 69.1528 175.812 69.1348C175.816 68.8027 175.8 68.4681 175.816 68.136Z" fill="#010101"/>
<path d="M185.229 68.1311C187.732 68.1167 190.248 68.1275 192.753 68.1263C192.76 69.0988 192.76 70.0713 192.754 71.0426C192.408 71.0474 192.062 71.0486 191.717 71.0498C191.683 70.6073 191.669 70.0929 191.42 69.7092C191.219 69.3794 190.782 69.2283 190.421 69.1827C189.785 69.1048 189.132 69.1492 188.491 69.1384C188.492 69.8722 188.493 70.6061 188.485 71.34C188.812 71.3268 189.167 71.3664 189.46 71.1901C189.776 70.9407 189.722 70.4634 189.753 70.1013C190.062 70.1097 190.409 70.0581 190.704 70.1517C190.653 71.2896 190.692 72.4348 190.683 73.5752C190.369 73.5776 190.056 73.5764 189.743 73.5716C189.737 73.1663 189.736 72.6626 189.385 72.3904C189.103 72.3149 188.778 72.3533 188.486 72.3533C188.495 73.1459 188.491 73.9397 188.489 74.7324C189.053 74.736 189.619 74.748 190.183 74.73C190.607 74.7036 191.05 74.6364 191.326 74.2743C191.679 73.8474 191.677 73.1615 191.712 72.6351C192.06 72.6327 192.408 72.6351 192.756 72.6399C192.759 73.6759 192.757 74.7108 192.756 75.7468C190.247 75.754 187.737 75.7504 185.228 75.748C185.222 75.4087 185.222 75.0693 185.223 74.7312C185.543 74.7252 185.952 74.7971 186.24 74.6388C186.374 74.4686 186.348 74.2863 186.358 74.0824C186.355 72.6423 186.354 71.2021 186.36 69.7619C186.35 69.5629 186.369 69.3842 186.229 69.2247C185.927 69.0904 185.539 69.1456 185.215 69.1324C185.21 68.8014 185.194 68.4609 185.229 68.1311Z" fill="#010101"/>
<path d="M63.779 68.9969C64.2976 68.907 64.8683 69.0149 65.1987 69.4646C65.6818 70.0773 65.741 71.0511 65.7564 71.8029C65.7623 72.6087 65.7244 73.634 65.265 74.3223C64.7641 75.1221 63.3953 75.1053 62.9181 74.2947C62.5487 73.6928 62.48 72.9745 62.4551 72.2826C62.4338 71.4995 62.4563 70.6182 62.7606 69.8867C62.9371 69.4382 63.2982 69.0809 63.779 68.9969Z" fill="white"/>
<path d="M71.98 69.1411C72.4619 69.1447 72.9545 69.1147 73.4329 69.1747C73.7325 69.2274 74.032 69.3006 74.2014 69.5824C74.3778 69.9481 74.3683 70.4362 74.2286 70.8127C74.0995 71.1377 73.7467 71.2396 73.4329 71.2708C72.9734 71.2971 72.4809 71.2983 72.0214 71.278C71.9279 70.6748 72.0155 69.7922 71.98 69.1411Z" fill="white"/>
<path d="M151.893 69.1323C152.543 69.1455 153.394 69.088 153.922 69.5496C154.531 70.112 154.569 71.1481 154.579 71.9227C154.558 72.7166 154.549 73.7214 153.935 74.3078C153.373 74.8007 152.578 74.7299 151.886 74.7383C151.877 72.8701 151.864 70.9994 151.893 69.1323Z" fill="white"/>
<path d="M111.154 69.8638C111.401 70.6852 111.71 71.4874 111.935 72.3148C111.395 72.3088 110.855 72.3088 110.316 72.3076C110.597 71.5006 110.801 70.6372 111.154 69.8638Z" fill="white"/>
</svg>
