<svg width="242" height="96" viewBox="0 0 242 96" fill="none" xmlns="http://www.w3.org/2000/svg">
<path d="M58.2398 20H59.6352L60.0988 20.2283L60.4368 20.4006C62.0878 21.2708 63.9598 21.7963 65.7582 22.2658C67.3399 22.7354 69.0342 21.8738 70.7242 22.0289C73.6925 22.1323 76.1062 24.3292 77.2935 26.9052C77.8005 28.1502 78.0735 29.8 76.8169 30.7046C76.3489 29.5846 76.0412 28.4 75.5168 27.3058C74.8235 25.7982 73.4542 24.6049 71.9722 23.8942C70.4122 23.2308 68.4882 24.2517 66.8328 24.2043C64.7615 24.1268 62.6122 23.2954 60.6882 22.5889C61.5462 24.1957 62.2482 25.8283 63.5785 27.1163C65.0952 28.5723 67.0235 29.632 69.0038 30.3255C71.2095 31.0665 73.3242 30.5022 75.5559 30.4548C76.4788 30.7262 76.2925 31.2388 76.5005 32.0055C73.3458 32.3028 69.2422 32.8542 66.3908 31.2086C63.4528 29.7612 60.9698 27.5686 59.7002 24.5102C59.1672 23.0886 57.9798 21.5335 58.2398 20Z" fill="black"/>
<path d="M81.3497 23.2092C82.524 22.8603 84.0754 23.3815 84.2487 24.7427C84.7037 26.2332 83.512 26.6209 82.771 27.659C81.6747 28.8824 82.03 31.1138 81.822 32.656C81.3237 32.5956 80.8297 32.5095 80.3357 32.4061C79.781 31.2215 80.2187 29.5716 80.3877 28.3138C80.6607 26.7932 82.511 25.9704 82.342 24.4627C81.2847 25.2941 80.301 26.0609 79.9674 27.4307C79.6077 29.1883 79.4777 30.9975 79.2004 32.7723C78.611 32.2596 78.0304 32.1476 78.143 31.2258C78.247 29.2184 78.208 26.5347 79.5644 24.9107C80.041 24.2775 80.6217 23.5581 81.3497 23.2092Z" fill="black"/>
<path d="M70.2692 25.1219C72.5398 25.6689 74.5505 27.1249 75.7205 29.1539C75.2568 29.3089 74.7888 29.4425 74.3165 29.5545C73.4065 28.904 72.7392 28.1071 71.7035 27.616C70.7848 27.112 69.6148 26.8062 68.9648 25.992C69.0732 25.2339 69.5412 25.0099 70.2692 25.1219Z" fill="black"/>
<path d="M83.3095 33.3883C87.6082 33.7933 92.2405 35.4862 94.9792 38.9582C96.1795 40.397 96.7342 42.0597 97.4015 43.7699C97.3365 40.565 97.3538 37.3643 97.3322 34.1594C101.18 34.1896 105.033 34.1896 108.881 34.1637C108.872 35.6757 108.863 37.1877 108.842 38.6997C110.224 37.08 111.693 35.6068 113.617 34.6246C116.655 32.9188 120.559 32.8973 123.796 34.0173C126.244 34.8659 128.055 36.6493 129.178 38.9453C131.37 35.904 134.491 33.7028 138.312 33.3496C141.844 33.0437 146.013 33.4271 148.713 35.973C150.593 37.7046 151.312 39.936 151.802 42.3656C152.27 40.0868 153.128 38.0708 155.018 36.6062C158.896 33.5348 164.33 33.048 169.101 33.3151C172.814 33.5133 177.278 34.4179 179.913 37.2523C181.542 38.9022 182.053 40.9354 182.517 43.1323C178.725 43.2056 174.938 43.1453 171.146 43.1711C170.735 42.3225 170.397 41.1982 169.539 40.6942C168.239 39.9016 166.392 39.9662 165.001 40.4702C163.949 40.901 163.372 42.0511 163.975 43.085C164.672 43.9163 165.907 44.2696 166.912 44.5625C170.96 45.6179 175.601 46.1176 179.276 48.224C181.139 49.2579 182.63 50.8173 183.28 52.8677C184.32 55.4739 183.553 58.6185 182.066 60.9016C180.051 63.848 176.498 65.2437 173.105 65.8942C168.468 66.7126 163.454 66.7514 158.918 65.3988C155.993 64.4985 153.787 62.9563 152.118 60.3846C152.21 62.112 152.214 63.8394 152.201 65.5711C148.01 65.597 143.825 65.5754 139.634 65.584C139.621 60.0099 139.651 54.4357 139.625 48.8616C139.565 47.285 139.444 45.0277 138.165 43.8991C136.783 42.7791 133.945 42.8136 132.64 44.0671C131.262 45.4111 131.05 47.8837 131.007 49.7102C130.993 55.0043 131.007 60.3028 131.007 65.597C126.812 65.5582 122.617 65.6056 118.423 65.5668C118.47 59.8591 118.453 54.1428 118.44 48.4308C118.392 46.8413 118.215 44.5797 116.694 43.6493C114.899 42.6757 111.979 42.8825 110.896 44.8425C109.934 46.4665 109.899 48.7496 109.873 50.5846C109.877 55.5902 109.855 60.5957 109.886 65.6013C105.708 65.5668 101.531 65.584 97.3538 65.5926C97.3408 62.5643 97.3278 59.5403 97.4145 56.5163C96.5218 58.5625 95.6335 60.4923 93.9478 62.0302C90.3728 65.3643 85.4632 66.3939 80.7008 66.4628C76.2028 66.4628 71.7092 65.4763 68.0952 62.6893C64.9622 60.2726 63.0815 56.6326 62.5918 52.7471C62.1758 48.7194 62.6092 44.6788 64.7022 41.1379C66.7258 37.6013 70.1968 35.2277 74.0795 34.1034C77.1042 33.1816 80.1765 33.2203 83.3095 33.3883Z" fill="#DF0029"/>
<path d="M83.6723 42.8953C84.578 43.7913 84.8336 45.0491 85.1976 46.2208C89.2493 46.1605 93.3053 46.2381 97.3613 46.1734C97.3396 48.5685 97.3396 50.9636 97.3613 53.363C93.379 53.3328 89.3923 53.363 85.41 53.3414C85.0763 54.3753 84.7946 55.6418 84.071 56.4818C82.2293 58.7519 78.0736 58.515 76.4703 56.0768C75.2526 54.3107 75.0056 52.243 74.9883 50.1538C75.0056 47.9568 75.2049 45.6307 76.4183 43.7267C77.8526 41.3359 81.7223 40.9181 83.6723 42.8953Z" fill="#FFFBF7"/>
<path d="M152.129 46.5396C152.922 48.1076 153.802 49.5248 155.323 50.4897C158.924 52.9063 163.833 53.2122 167.911 54.2891C169.146 54.6596 170.624 55.0774 171.105 56.4171C171.291 57.4897 170.767 58.5451 169.792 59.0448C167.946 59.9709 165.398 59.8159 163.82 58.4159C163.11 57.8042 162.91 56.6066 162.616 55.758C159.14 55.7494 155.665 55.7537 152.194 55.7537C152.194 52.6823 152.255 49.6066 152.129 46.5396Z" fill="white"/>
<path d="M119.166 67.9834C119.166 69.2154 119.136 70.4431 119.084 71.6708C119.937 70.7532 120.449 69.9348 121.814 69.7969C121.268 70.5077 120.674 71.1797 120.076 71.8517C120.704 72.5926 121.315 73.3465 121.935 74.096C121.515 74.1219 121.09 74.1477 120.67 74.1736C120.145 73.4283 119.634 72.6745 119.11 71.9249C119.123 72.6616 119.136 73.4025 119.153 74.1391C118.785 74.1391 118.412 74.1391 118.044 74.1391C118.083 72.1619 118.061 70.1846 118.035 68.2031C118.412 68.1256 118.789 68.0523 119.166 67.9834Z" fill="black"/>
<path d="M122.456 68.2678C122.785 68.1343 123.123 68.0094 123.457 67.8931C123.513 69.9737 123.47 72.0543 123.496 74.1349C123.132 74.1349 122.768 74.1349 122.404 74.1349C122.451 72.1835 122.334 70.2149 122.456 68.2678Z" fill="black"/>
<path d="M134.151 68.19C134.497 68.1081 134.844 68.0349 135.195 67.9746C135.208 68.7888 135.169 69.5986 135.134 70.4128C135.802 70.1845 136.469 69.9777 137.145 69.7925C137.474 70.2017 137.847 70.6195 138.107 71.0718C138.692 72.278 138.02 74.0226 136.595 74.2251C136.023 74.0872 135.459 73.8245 134.913 73.6048C134.879 73.9192 134.848 74.2337 134.818 74.5481C134.588 74.2854 134.367 74.0226 134.159 73.7512C134.06 71.9248 134.077 70.0208 134.151 68.19Z" fill="black"/>
<path d="M178.416 68.1773C178.758 68.1127 179.101 68.0653 179.452 68.0352C179.478 70.0641 179.439 72.0973 179.465 74.1262C179.096 74.1219 178.724 74.1176 178.355 74.1133C178.429 72.1361 178.312 70.1502 178.416 68.1773Z" fill="black"/>
<path d="M68.4219 68.0955L69.4835 68.0869C69.4619 68.9183 69.4402 69.7497 69.4185 70.5811C69.7435 70.3355 70.0642 70.09 70.3849 69.8445C71.0912 70.0857 71.8452 69.922 72.1269 70.7448C72.4562 71.7915 72.3132 73.0149 72.3695 74.1091C71.9882 74.1306 71.6069 74.1521 71.2255 74.1737C71.2082 73.1054 71.1865 72.0371 71.1172 70.9731C70.7619 70.9128 70.4065 70.8525 70.0512 70.7921C69.8519 71.0592 69.6569 71.3306 69.4619 71.602C69.2842 72.7737 70.0512 74.066 68.4825 74.3761C68.4219 72.2826 68.4695 70.1891 68.4219 68.0955Z" fill="black"/>
<path d="M81.2079 68.3239L82.1049 67.8242C82.1613 69.8316 82.2306 71.8605 82.1223 73.8679L81.2426 74.415C81.1126 72.3947 81.0476 70.3356 81.2079 68.3239Z" fill="black"/>
<path d="M163.432 68.1944C164.992 67.4363 164.242 69.547 164.351 70.331C165.061 70.1458 165.711 69.9218 166.457 69.9778C167.666 70.792 167.172 72.864 167.302 74.1304C166.925 74.139 166.543 74.1433 166.166 74.152C166.158 73.0923 166.149 72.0326 166.101 70.9729C165.72 70.9126 165.339 70.8566 164.962 70.8006C164.771 71.0892 164.585 71.3821 164.398 71.675C164.411 72.4978 164.42 73.3249 164.429 74.1477L163.406 74.1433C163.432 72.1618 163.341 70.1716 163.432 68.1944Z" fill="black"/>
<path d="M67.9122 69.3965C67.1018 69.4223 66.2308 69.25 65.4292 69.4094C63.7608 69.9005 63.7175 72.6316 65.3165 73.2303C66.1095 73.5017 67.1148 73.1872 67.9425 73.1959C67.1755 74.4623 65.8235 74.4968 64.5712 73.9239C62.8725 73.17 62.4825 70.8223 63.6525 69.4482C64.6752 68.2506 66.9632 67.9189 67.9122 69.3965Z" fill="black"/>
<path d="M89.6118 68.4185C89.6985 68.9655 89.7765 69.5169 89.8545 70.064L90.6561 69.9649L90.6995 70.8265L89.7851 70.8351C89.7938 71.6148 89.7981 72.3945 89.7981 73.1742C90.2965 73.4111 90.7905 73.6566 91.2845 73.9065C90.8078 74.0658 90.3268 74.1778 89.8415 74.2468C88.2945 73.9926 88.8751 72.1101 88.7495 70.9945C88.3638 70.8049 87.9825 70.6154 87.6055 70.4258C87.9565 70.2406 88.3075 70.0554 88.6585 69.8745C88.9661 69.3791 89.2825 68.8966 89.6118 68.4185Z" fill="black"/>
<path d="M92.9311 68.4141C92.9657 68.8707 93.0004 69.3273 93.0264 69.7839C93.5074 70.0295 93.9754 70.2836 94.4391 70.5507C93.9451 70.6928 93.4467 70.8307 92.9484 70.9642C93.0004 71.6621 92.9961 72.3771 93.1347 73.0621C93.5464 73.3593 93.9711 73.6436 94.4001 73.9193C93.5464 74.2079 92.8141 74.5224 92.1554 73.6695C91.9084 72.8338 92.0124 71.8947 91.8824 71.0331L90.8164 70.3611L91.7394 69.9218C92.1034 69.3919 92.5064 68.8965 92.9311 68.4141Z" fill="black"/>
<path d="M102.02 68.5563C102.596 68.5563 103.172 68.552 103.749 68.5477C104.282 70.0166 104.797 71.4898 105.244 72.9889C105.742 71.5071 106.279 70.0424 106.812 68.5778C107.354 68.5649 107.891 68.552 108.433 68.5391C108.433 70.4129 108.433 72.2868 108.433 74.1606L107.402 74.1132C107.432 72.4935 107.48 70.8781 107.497 69.2584C106.821 70.8868 106.301 72.5668 105.651 74.2037C105.33 74.1606 105.014 74.1218 104.698 74.0831C104.134 72.4978 103.619 70.8954 103.021 69.3231C103.003 71.0332 103.09 72.7305 102.99 74.4363L102.111 73.9624C101.955 72.1748 102.089 70.3526 102.02 68.5563Z" fill="black"/>
<path d="M158.52 69.3143C157.462 69.3531 156.513 69.2713 155.543 69.7882C156.457 70.7057 158.793 71.2959 158.325 72.9156C157.835 74.5008 155.161 74.8626 154.516 73.0922C155.824 73.2731 156.479 73.6565 157.584 72.6959C156.708 71.8516 154.316 71.0676 154.81 69.5642C155.443 68.1383 157.666 68.0005 158.52 69.3143Z" fill="black"/>
<path d="M76.7116 70.9127C76.9153 72.0499 76.7679 73.2819 76.6596 74.4235C76.3736 74.2425 76.0833 74.0616 75.7973 73.8807C75.2773 74.0487 74.7486 74.1908 74.2156 74.2985C73.6523 73.9712 73.2319 73.4284 72.7812 72.9588C73.7346 71.5933 74.6923 71.6579 76.2133 71.3392C75.2513 70.7447 74.2979 70.6844 73.1886 70.5724C74.1852 69.8358 76.1569 69.461 76.7116 70.9127Z" fill="black"/>
<path d="M77.9779 69.9863C78.3419 70.0553 78.7059 70.1156 79.0699 70.1759C79.6679 70.1457 80.2659 70.1328 80.8639 70.1285C80.2312 70.6066 79.5856 71.0676 78.9616 71.5543C78.9659 72.5106 78.9442 73.4669 78.9009 74.4232L78.0429 73.8762C77.9129 72.5882 77.9866 71.2786 77.9779 69.9863Z" fill="black"/>
<path d="M84.283 70.0767C85.713 69.6847 87.1213 70.0723 87.4203 71.6705C87.7756 73.4927 86.0163 74.7591 84.361 74.0914C82.632 73.4927 82.6536 70.7659 84.283 70.0767Z" fill="black"/>
<path d="M96.7472 69.952C98.2466 69.9951 98.3376 71.1926 98.6279 72.3427C97.4882 72.3815 96.3486 72.4031 95.2089 72.4634C96.2662 73.6738 97.0809 73.3766 98.5499 73.4024C97.4406 74.9446 94.9272 74.3717 94.5849 72.5323C94.3032 71.1237 95.2436 69.8098 96.7472 69.952Z" fill="black"/>
<path d="M112.135 69.9564C112.486 70.2536 112.833 70.5594 113.179 70.8653C113.197 71.3693 113.214 71.8733 113.231 72.373C112.178 72.3859 111.125 72.4031 110.072 72.4548C111.073 73.7256 111.949 73.3422 113.413 73.4025C112.75 73.872 112.365 74.4062 111.476 74.2899C109.825 74.1951 108.885 72.5367 109.57 71.0591C110.072 69.9348 111.052 69.9305 112.135 69.9564Z" fill="black"/>
<path d="M117.402 70.6023C116.774 70.7143 116.15 70.8349 115.53 70.9771C114.828 71.2829 114.754 72.2521 115.11 72.8035C115.517 73.6349 116.713 73.2688 117.484 73.4583C116.271 75.0995 113.762 74.0226 113.823 72.1143C113.736 70.2318 116.158 69.1334 117.402 70.6023Z" fill="black"/>
<path d="M127.241 69.8184C127.93 70.6282 128.273 71.3045 128.563 72.3297C127.389 72.3814 126.214 72.403 125.04 72.4719C126.102 73.6694 126.934 73.3765 128.394 73.3981C127.566 74.2941 126.708 74.5568 125.569 74.0399C124.407 73.5316 124.186 72.0325 124.633 70.9814C125.196 69.9261 126.219 70.0467 127.241 69.8184Z" fill="black"/>
<path d="M129.259 69.9263C129.679 70.0641 130.095 70.2149 130.502 70.3829C130.65 70.2493 130.793 70.1158 130.94 69.9823C131.425 69.9693 131.915 69.9564 132.405 69.9435C133.245 71.2789 133.059 72.6315 133.076 74.1349C132.704 74.1392 132.335 74.1392 131.963 74.1392C131.954 72.9718 131.924 71.8087 131.768 70.65C131.239 70.8998 130.32 70.9127 130.251 71.6407C130.151 72.4678 130.182 73.3164 130.173 74.1478C129.839 74.1478 129.506 74.1478 129.172 74.1521C129.22 72.7478 129.142 71.3306 129.259 69.9263Z" fill="black"/>
<path d="M139.194 69.9953L140.164 69.991C140.181 71.3523 140.013 72.5283 140.866 73.7C142.27 72.6317 141.963 71.5504 142.041 69.9824C142.383 69.9997 142.725 70.0169 143.063 70.0341C143.068 71.559 143.12 73.0452 142.842 74.5529C142.6 74.26 142.357 73.9627 142.114 73.6612C141.091 74.036 140.333 74.6476 139.453 73.6009C138.968 72.623 139.276 71.0938 139.194 69.9953Z" fill="black"/>
<path d="M144.303 69.9692C144.658 70.0382 145.014 70.1028 145.373 70.1631C146.171 70.0899 146.535 70.0166 147.232 70.4388C146.682 70.6455 146.123 70.848 145.568 71.0375C145.33 72.0671 145.304 73.1096 145.274 74.1606L144.281 74.1219C144.294 72.7348 144.299 71.352 144.303 69.9692Z" fill="black"/>
<path d="M148.251 69.9091C148.667 69.9479 149.083 69.9952 149.499 70.0555C149.746 70.146 149.993 70.2365 150.24 70.3269C150.613 70.1589 150.985 69.9952 151.358 69.8315C151.371 71.4685 151.362 73.1054 151.349 74.7423C150.14 76.0346 148.567 76.6075 147.267 75.0137C148.017 75.0525 148.771 75.0611 149.521 75.0482C150.067 74.7854 150.379 74.0445 150.751 73.5965C149.625 73.786 148.663 74.5528 147.709 73.5405C146.752 72.2955 147.233 70.9386 148.251 69.9091Z" fill="black"/>
<path d="M162.89 70.529C162.144 70.71 161.377 70.822 160.645 71.046C160.077 71.817 160.051 72.8207 160.992 73.2774C161.642 73.3549 162.292 73.4109 162.942 73.441C162.175 74.014 161.65 74.574 160.628 74.1518C159.189 73.6909 158.656 71.998 159.54 70.7918C160.368 69.6804 161.854 69.7278 162.89 70.529Z" fill="black"/>
<path d="M169.252 70.1244C170.457 69.6851 172.004 69.978 172.381 71.3651C172.962 73.0924 171.397 74.7035 169.638 74.1866C167.788 73.7817 167.567 70.8826 169.252 70.1244Z" fill="black"/>
<path d="M176.817 70.4515C177.601 71.0675 177.567 72.3426 177.255 73.1912C176.427 74.5352 174.412 74.673 173.472 73.3721C172.735 72.2779 173.186 71.3001 173.727 70.2576C174.724 70.0121 175.981 69.633 176.817 70.4515Z" fill="black"/>
<path d="M183.674 70.5898C182.881 70.719 182.084 70.8181 181.287 70.9387C182.093 71.4901 182.912 72.0243 183.705 72.5972C183.276 73.2261 183.198 73.9196 182.357 74.0876C181.369 74.3892 180.767 73.9713 180.004 73.4156C180.901 73.3596 181.798 73.3209 182.691 73.2304C181.893 72.5972 181.079 72.0329 180.338 71.335C180.476 70.9775 180.628 70.62 180.784 70.2667C181.937 69.8618 182.695 69.7541 183.674 70.5898Z" fill="black"/>
<path d="M96.7031 70.5034C97.0931 70.8696 97.4571 71.253 97.8255 71.6364C97.0021 71.6665 96.1788 71.6751 95.3555 71.6665C95.5721 71.421 95.7975 71.1797 96.0228 70.9385C96.2481 70.792 96.4735 70.6456 96.7031 70.5034Z" fill="white"/>
<path d="M111.493 70.4775C111.878 70.8523 112.238 71.2486 112.598 71.6492C111.805 71.6708 111.012 71.6794 110.219 71.6708C110.401 71.4209 110.583 71.1754 110.765 70.9255C111.003 70.7705 111.246 70.624 111.493 70.4775Z" fill="white"/>
<path d="M126.502 70.4858C126.905 70.8606 127.286 71.2526 127.667 71.6489C126.809 71.6661 125.956 71.6661 125.098 71.6446C125.557 71.244 126.016 70.8477 126.502 70.4858Z" fill="white"/>
<path d="M170.101 70.7274C171.726 70.4129 171.748 73.5274 170.348 73.4197C168.909 73.5576 168.797 70.9083 170.101 70.7274Z" fill="white"/>
<path d="M175.984 70.7188C176.378 71.5889 176.773 73.0449 175.551 73.3895C174.459 73.6738 174.112 72.584 174.246 71.7052C174.233 70.7834 175.312 70.7704 175.984 70.7188Z" fill="white"/>
<path d="M85.119 70.7402C86.8177 70.7704 86.3453 72.3901 85.9467 73.4368C85.4917 73.4325 85.041 73.4282 84.586 73.4282C84.2047 72.4633 83.7063 71.0762 85.119 70.7402Z" fill="white"/>
<path d="M136.706 70.585C137.144 71.7911 137.647 72.8465 136.169 73.5271C135.38 73.0533 135.055 72.6483 135.216 71.692C135.359 70.8262 136.043 70.9123 136.706 70.585Z" fill="white"/>
<path d="M149.983 70.7061C150.121 71.2402 150.42 71.8907 150.295 72.4421C149.978 72.8814 149.549 73.2691 149.168 73.6568C148.761 72.9977 148.193 72.5713 148.293 71.7313C148.284 70.8137 149.311 70.8181 149.983 70.7061Z" fill="white"/>
<path d="M101.079 71.3564C101.092 71.6709 101.11 71.9811 101.123 72.2912C100.338 72.274 99.5539 72.2524 98.7695 72.2008C99.1075 71.0204 100.109 71.5589 101.079 71.3564Z" fill="black"/>
<path d="M76.073 72.1877C75.8346 72.6098 75.592 73.0363 75.3493 73.4585C74.8813 73.4154 74.4133 73.3637 73.9453 73.312C74.5693 72.1058 74.786 72.1877 76.073 72.1877Z" fill="white"/>
</svg>
