<svg width="242" height="96" viewBox="0 0 242 96" fill="none" xmlns="http://www.w3.org/2000/svg">
<path d="M131.126 12.0123C127.132 12.4865 124.482 15.1943 124.482 18.8006C124.482 20.4477 124.98 21.8078 126.013 22.9309C127.145 24.1787 128.29 24.8401 131.637 26.1628C134.187 27.1735 135.021 27.5978 135.842 28.334C136.676 29.0952 136.925 29.6567 136.925 30.8546C136.925 32.4643 136.315 33.3628 134.685 34.1364C133.889 34.5108 133.839 34.5233 132.01 34.5233C130.38 34.5233 130.044 34.4858 129.335 34.2363C128.887 34.074 128.314 33.812 128.066 33.6498L127.605 33.3503L127.817 32.9385C128.128 32.3271 128.103 31.0792 127.767 30.63C126.958 29.5319 125.453 29.3073 124.42 30.1184C123.524 30.8297 123.288 32.4394 123.897 33.7371C124.383 34.7354 125.689 35.9333 126.996 36.5697C128.638 37.3683 129.932 37.6304 132.072 37.6304C135.046 37.6179 136.775 36.994 138.43 35.3344C139.811 33.9617 140.408 32.5018 140.408 30.4678C140.408 28.7084 139.911 27.3857 138.791 26.1753C137.808 25.1271 136.365 24.3035 133.652 23.2179C129.882 21.733 128.775 21.0092 128.215 19.7115C127.667 18.4387 128.078 16.7416 129.123 15.943C130.579 14.82 133.341 14.6578 135.282 15.5812C135.655 15.7558 135.917 15.9555 135.879 16.0304C135.407 17.1659 135.494 18.0269 136.128 18.7382C136.663 19.3247 137.236 19.5368 138.107 19.4619C139.438 19.3496 140.122 18.3763 140.01 16.7541C139.936 15.7184 139.55 14.9822 138.642 14.1087C137.024 12.5489 133.889 11.6754 131.126 12.0123Z" fill="#3D383C"/>
<path d="M173.067 12.4369C169.82 13.1482 167.456 15.4068 166.585 18.6137C166.249 19.849 166.274 22.2449 166.635 23.5426C167.07 25.0525 167.705 26.1506 168.775 27.2362C169.82 28.2969 170.616 28.796 172.072 29.2951C172.993 29.6196 173.217 29.6445 174.871 29.6445C176.489 29.6445 176.775 29.6071 177.671 29.3076C180.931 28.222 183.009 25.639 183.482 22.1076C183.73 20.186 183.27 17.865 182.312 16.2927C181.416 14.8078 179.985 13.535 178.517 12.936C176.912 12.2872 174.672 12.075 173.067 12.4369ZM176.949 15.3444C178.343 15.8809 179.525 17.0913 180.122 18.6012C180.359 19.2002 180.396 19.5371 180.396 20.9846C180.396 22.4321 180.359 22.769 180.122 23.3679C179.264 25.5392 177.547 26.8119 175.307 26.9492C172.532 27.1114 170.405 25.5891 169.596 22.8688C169.347 22.0327 169.335 20.0487 169.571 19.1752C170.094 17.2161 171.524 15.7062 173.378 15.1821C174.312 14.9326 176.078 15.0074 176.949 15.3444Z" fill="#3D383C"/>
<path d="M42.2383 13.9344V15.4942H43.7314H45.2245V24.7906V34.087H43.7314H42.2383V35.6468V37.2065H47.7254C52.0429 37.2065 53.4986 37.1691 54.5189 37.0069C61.6235 35.9587 65.7544 31.4166 65.7544 24.6783C65.7544 22.8565 65.6051 21.9081 65.1198 20.4232C63.6392 15.9684 59.583 13.1358 53.7848 12.4994C53.1129 12.437 50.2512 12.3747 47.4019 12.3747H42.2383V13.9344ZM53.5609 15.619C57.9904 16.1681 61.0014 18.489 61.9719 22.1078C62.3079 23.3182 62.2705 26.0759 61.9097 27.411C61.188 30.1563 59.4461 32.1653 56.8954 33.226C55.3277 33.8748 53.8968 34.087 51.147 34.087H48.7083V24.7906V15.4942H50.612C51.6572 15.4942 52.9885 15.5566 53.5609 15.619Z" fill="#3D383C"/>
<path d="M75.2594 12.5369C75.2345 12.6242 75.2221 13.3105 75.2345 14.0717L75.2718 15.4318L76.6156 15.4693C77.611 15.4942 77.9594 15.5442 77.9221 15.6565C77.8847 15.7438 76.3668 19.9116 74.5129 24.9403L71.1658 34.0745L70.046 34.1119L68.9262 34.1494L68.8889 35.6717L68.8516 37.2065H73.2811H77.6981V35.7091V34.2242L76.2175 34.1868L74.7368 34.1494L75.6327 31.5913L76.541 29.0332H81.4184H86.3082L87.1668 31.4665C87.6396 32.8017 88.0253 33.9622 88.0253 34.0495C88.0253 34.1743 87.6894 34.2117 86.6566 34.2117H85.288V35.7091V37.2065H89.705H94.1345L94.0972 35.6717L94.0599 34.1494L92.9276 34.1119L91.7953 34.0745L88.4608 25.0027C86.6193 20.0114 85.1013 15.8312 85.064 15.7189C85.0142 15.5317 85.1635 15.4942 86.358 15.4693L87.7142 15.4318V13.9344V12.437L81.5179 12.3996C76.4788 12.3747 75.3216 12.3996 75.2594 12.5369ZM83.3594 20.6852C84.3921 23.5303 85.2506 25.9261 85.2631 25.9885C85.288 26.0509 83.77 26.1008 81.4308 26.1008C78.3824 26.1008 77.5612 26.0634 77.5986 25.9386C78.4695 23.4429 81.3811 15.4942 81.4308 15.4942C81.4682 15.4942 82.3391 17.8277 83.3594 20.6852Z" fill="#3D383C"/>
<path d="M96.4883 13.9344V15.4942H97.7698H99.0514L102.622 21.4963L106.193 27.4859V30.7802V34.0745L104.551 34.1119L102.896 34.1494L102.859 35.6717L102.821 37.2065H107.935H113.049L113.012 35.6717L112.974 34.1494L111.332 34.1119L109.677 34.0745V30.7677V27.4485L113.261 21.4714L116.832 15.5067L118.175 15.4942H119.519L119.482 13.9594L119.445 12.437L115.065 12.3996L110.673 12.3747V13.9344V15.4942H111.904H113.149L110.648 19.8866C109.267 22.3074 108.109 24.3414 108.06 24.3913C107.985 24.4662 102.958 15.7563 102.958 15.5566C102.958 15.5192 103.468 15.4942 104.078 15.4942H105.198V13.9344V12.3747H100.843H96.4883V13.9344Z" fill="#3D383C"/>
<path d="M150.984 13.8718V15.2444H151.918H152.851V20.9845V26.7245H151.918H150.984V28.0971V29.4697H154.468H157.952V28.0971V26.7245H156.895H155.837V24.6032V22.4819H158.263H160.689V21.1716V19.8614H158.263H155.837V17.4905V15.1196H158.201H160.565V16.2427V17.3657H161.934H163.302V14.9325V12.4992H157.143H150.984V13.8718Z" fill="#3D383C"/>
<path d="M187.562 13.8595V15.2446H188.496H189.429V20.9847V26.7247H188.496H187.562V28.0973V29.4699L191.021 29.445L194.468 29.4076V28.0973V26.7871L193.448 26.7497L192.415 26.7122V24.9154V23.1185L193.572 23.081L194.729 23.0436L196.409 26.2256L198.089 29.4076L200.042 29.445L201.996 29.4824V28.0973V26.7247H201.025H200.055L198.81 24.5036L197.554 22.2949L198.139 21.958C198.947 21.4963 199.818 20.5729 200.229 19.7493C200.54 19.1129 200.565 18.9257 200.565 17.6155C200.565 16.2928 200.54 16.1181 200.216 15.4692C199.806 14.6207 198.898 13.7597 197.952 13.323C196.596 12.6741 196.011 12.5992 191.644 12.5368L187.562 12.4744V13.8595ZM195.75 15.4318C197.292 15.8935 198.027 17.316 197.442 18.7136C196.932 19.9615 195.588 20.6103 193.522 20.6103C192.34 20.6103 192.415 20.81 192.415 17.8526V15.2446H193.759C194.617 15.2446 195.339 15.3195 195.75 15.4318Z" fill="#3D383C"/>
<path d="M150.734 35.8339V37.2065H176.366H201.997V35.8339V34.4613H176.366H150.734V35.8339Z" fill="#3D383C"/>
<path d="M61.8218 41.2616C61.5854 41.4488 61.5854 41.4488 61.8218 41.636C62.1702 41.898 63.738 41.898 63.8375 41.636C63.8873 41.5362 63.8499 41.3615 63.7629 41.2616C63.5513 40.9996 62.1578 41.0121 61.8218 41.2616Z" fill="#3D383C"/>
<path d="M59.4715 41.6862C59.1978 41.811 58.837 42.0481 58.6877 42.1978C58.4139 42.4599 58.4015 42.4973 58.6006 42.6845C58.7872 42.8717 58.8619 42.8467 59.6333 42.4349C60.2181 42.123 60.4669 41.9233 60.4669 41.7486C60.4669 41.4242 60.0812 41.3992 59.4715 41.6862Z" fill="#3D383C"/>
<path d="M65.2169 41.5363C64.968 41.7859 65.1795 42.0729 65.9136 42.4597C67.2325 43.1335 67.6307 42.6094 66.374 41.8607C65.7146 41.4614 65.3786 41.3616 65.2169 41.5363Z" fill="#3D383C"/>
<path d="M56.8438 43.7699C56.0848 44.5685 55.8857 45.2049 56.3959 45.18C56.6323 45.18 57.665 43.9321 57.665 43.6576C57.665 43.2583 57.2668 43.3207 56.8438 43.7699Z" fill="#3D383C"/>
<path d="M57.3563 52.1803C55.1746 53.1546 48.5848 49.3102 46.4693 53.8024C45.1544 56.5948 45.972 65.2825 52.1935 65.6568C53.5202 67.746 49.8909 73.0191 52.1931 75.7643C54.4952 78.5095 58.0776 71.8245 60.4669 73.5806C63.6844 75.9455 65.5989 78.9739 68.1551 77.4489C71.7742 75.3509 71.8517 67.6534 71.8517 65.9064C71.8517 64.1595 79.2549 62.5373 76.7042 58.4818C74.1535 54.4264 69.474 54.9461 68.43 54.1768C67.1799 53.2532 63.8476 46.8907 61.7113 46.7522C59.8038 46.6285 58.6695 51.5535 57.3563 52.1803Z" fill="#FE9F01"/>
<path d="M60.9377 45.0053C59.1709 45.5543 57.5036 47.4511 56.7446 49.772C56.6327 50.1214 56.4585 50.4708 56.3714 50.5457C56.2469 50.6455 55.7866 50.5706 54.6045 50.2337C52.452 49.6348 50.5234 49.5225 48.9806 49.9093C46.6912 50.4958 45.3847 51.4816 44.4889 53.3284C43.817 54.701 43.6055 55.5994 43.6055 57.0469C43.6055 59.4053 44.2774 61.0774 45.8824 62.7495C47.1142 64.0472 48.682 65.32 49.9884 66.0937C50.511 66.4181 50.9465 66.7301 50.9465 66.7925C50.9465 66.8549 50.8096 67.2417 50.6479 67.641C50.1377 68.8514 49.5778 70.8854 49.4285 72.0958C49.1174 74.6663 49.9262 76.6129 51.6681 77.4739C52.3027 77.7859 52.5018 77.8233 53.5594 77.8109C55.3635 77.7984 56.5953 77.2244 58.5115 75.4649C59.0216 75.0032 59.4944 74.6538 59.5691 74.6788C59.6437 74.7037 59.9672 75.2029 60.2907 75.8018C61.0995 77.2992 61.6843 78.0604 62.605 78.8216C64.4963 80.3814 66.4746 80.8057 68.9133 80.1817C71.1405 79.6077 72.6585 78.0979 73.4548 75.6895C74.1018 73.7304 74.276 71.0725 73.9027 68.6018C73.8032 67.9155 73.7409 67.2542 73.7907 67.1294C73.828 67.0046 74.3133 66.5554 74.8732 66.1311C77.088 64.459 78.917 62.3003 79.6386 60.5408C80.6962 57.9079 79.8999 55.1751 77.735 54.0771C76.5156 53.4407 75.4953 53.2535 73.4672 53.241C72.4096 53.241 71.0285 53.2909 70.4064 53.3533L69.2617 53.4656L69.1373 53.0413C69.0626 52.8043 68.9133 52.2552 68.8013 51.806C68.117 49.1232 66.5741 46.5651 65.0313 45.5793C63.899 44.868 62.1571 44.6185 60.9377 45.0053ZM63.2396 48.3869C64.9939 49.2604 66.6737 52.1928 67.4202 55.6992C67.5198 56.1235 67.5695 56.1235 69.1124 55.7991C71.128 55.3748 73.3552 55.4996 74.5248 56.0736C76.6276 57.1218 76.9262 59.293 75.3211 61.8011C74.699 62.762 73.0317 64.4216 71.9244 65.1703C71.4764 65.4698 71.0783 65.7942 71.041 65.894C71.0036 65.9814 71.041 66.2933 71.128 66.5803C71.3769 67.4039 71.3271 71.1349 71.0658 72.2081C70.5433 74.2545 69.3239 76.0015 67.9304 76.6628C66.8603 77.1745 65.6285 77.162 64.5336 76.6379C63.0405 75.9266 61.4976 74.1173 60.6516 72.0583C60.4276 71.5218 60.2285 71.0601 60.2036 71.0351C60.1787 71.0102 59.5815 71.5467 58.8847 72.233C57.0557 74.005 55.488 74.8909 54.1566 74.8909C53.3976 74.8909 52.6511 74.5041 52.3027 73.9426C51.5064 72.6323 51.8423 69.7873 53.1612 66.8673C53.3603 66.4181 53.4972 66.0063 53.4474 65.9564C53.4101 65.894 52.8377 65.5821 52.1783 65.2576C48.7691 63.5731 46.517 60.5034 46.5419 57.546C46.5543 56.136 46.8903 55.2875 47.7737 54.3141C48.993 53.0039 50.4861 52.4299 52.6884 52.4299C54.0944 52.4299 55.0774 52.6171 56.5207 53.1287C57.0059 53.3034 57.4912 53.4282 57.5907 53.3907C57.6778 53.3533 57.8271 52.9665 57.9142 52.5297C58.1382 51.494 59.0216 49.7221 59.6686 49.0608C60.6764 48.0251 62.0078 47.7755 63.2396 48.3869Z" fill="#FEE9B0"/>
<path d="M60.9377 45.0053C59.1709 45.5543 57.5036 47.4511 56.7446 49.772C56.6327 50.1214 56.4585 50.4708 56.3714 50.5457C56.2469 50.6455 55.7866 50.5706 54.6045 50.2337C52.452 49.6348 50.5234 49.5225 48.9806 49.9093C46.6912 50.4958 45.3847 51.4816 44.4889 53.3284C43.817 54.701 43.6055 55.5994 43.6055 57.0469C43.6055 59.4053 44.2774 61.0774 45.8824 62.7495C47.1142 64.0472 48.682 65.32 49.9884 66.0937C50.511 66.4181 50.9465 66.7301 50.9465 66.7925C50.9465 66.8549 50.8096 67.2417 50.6479 67.641C50.1377 68.8514 49.5778 70.8854 49.4285 72.0958C49.1174 74.6663 49.9262 76.6129 51.6681 77.4739C52.3027 77.7859 52.5018 77.8233 53.5594 77.8109C55.3635 77.7984 56.5953 77.2244 58.5115 75.4649C59.0216 75.0032 59.4944 74.6538 59.5691 74.6788C59.6437 74.7037 59.9672 75.2029 60.2907 75.8018C61.0995 77.2992 61.6843 78.0604 62.605 78.8216C64.4963 80.3814 66.4746 80.8057 68.9133 80.1817C71.1405 79.6077 72.6585 78.0979 73.4548 75.6895C74.1018 73.7304 74.276 71.0725 73.9027 68.6018C73.8032 67.9155 73.7409 67.2542 73.7907 67.1294C73.828 67.0046 74.3133 66.5554 74.8732 66.1311C77.088 64.459 78.917 62.3003 79.6386 60.5408C80.6962 57.9079 79.8999 55.1751 77.735 54.0771C76.5156 53.4407 75.4953 53.2535 73.4672 53.241C72.4096 53.241 71.0285 53.2909 70.4064 53.3533L69.2617 53.4656L69.1373 53.0413C69.0626 52.8043 68.9133 52.2552 68.8013 51.806C68.117 49.1232 66.5741 46.5651 65.0313 45.5793C63.899 44.868 62.1571 44.6185 60.9377 45.0053ZM63.2396 48.3869C64.9939 49.2604 66.6737 52.1928 67.4202 55.6992C67.5198 56.1235 67.5695 56.1235 69.1124 55.7991C71.128 55.3748 73.3552 55.4996 74.5248 56.0736C76.6276 57.1218 76.9262 59.293 75.3211 61.8011C74.699 62.762 73.0317 64.4216 71.9244 65.1703C71.4764 65.4698 71.0783 65.7942 71.041 65.894C71.0036 65.9814 71.041 66.2933 71.128 66.5803C71.3769 67.4039 71.3271 71.1349 71.0658 72.2081C70.5433 74.2545 69.3239 76.0015 67.9304 76.6628C66.8603 77.1745 65.6285 77.162 64.5336 76.6379C63.0405 75.9266 61.4976 74.1173 60.6516 72.0583C60.4276 71.5218 60.2285 71.0601 60.2036 71.0351C60.1787 71.0102 59.5815 71.5467 58.8847 72.233C57.0557 74.005 55.488 74.8909 54.1566 74.8909C53.3976 74.8909 52.6511 74.5041 52.3027 73.9426C51.5064 72.6323 51.8423 69.7873 53.1612 66.8673C53.3603 66.4181 53.4972 66.0063 53.4474 65.9564C53.4101 65.894 52.8377 65.5821 52.1783 65.2576C48.7691 63.5731 46.517 60.5034 46.5419 57.546C46.5543 56.136 46.8903 55.2875 47.7737 54.3141C48.993 53.0039 50.4861 52.4299 52.6884 52.4299C54.0944 52.4299 55.0774 52.6171 56.5207 53.1287C57.0059 53.3034 57.4912 53.4282 57.5907 53.3907C57.6778 53.3533 57.8271 52.9665 57.9142 52.5297C58.1382 51.494 59.0216 49.7221 59.6686 49.0608C60.6764 48.0251 62.0078 47.7755 63.2396 48.3869Z" fill="#FEE9B0"/>
<path d="M67.8054 43.5701C67.7059 43.7323 67.8179 43.907 68.44 44.6182C68.975 45.2172 69.2861 45.3295 69.4105 44.9926C69.4976 44.7555 69.3234 44.4435 68.7635 43.8446C68.4026 43.4578 67.9547 43.3205 67.8054 43.5701Z" fill="#3D383C"/>
<path d="M61.2115 60.7157C60.0916 61.2148 59.6811 62.7621 60.3903 63.7728C60.9253 64.5216 62.2193 64.8086 63.0156 64.3344C63.6626 63.96 63.9239 63.5108 63.9861 62.6997C64.0234 62.1008 63.9861 61.9011 63.7373 61.5517C63.588 61.3146 63.3018 61.0151 63.1152 60.8779C62.6921 60.5659 61.7092 60.4786 61.2115 60.7157Z" fill="#C10714"/>
<path d="M50.8613 46.1909C50.2641 46.4405 50.6 46.7899 51.6328 47.002C52.5411 47.2017 52.6904 47.1767 52.6904 46.8273C52.6904 46.5154 52.4789 46.3656 51.9065 46.2658C51.6452 46.2159 51.359 46.1535 51.2844 46.1285C51.1973 46.1036 51.0106 46.1285 50.8613 46.1909Z" fill="#3D383C"/>
<path d="M55.1551 46.4402C54.9685 46.5774 54.757 46.6898 54.6574 46.6898C54.5579 46.6898 54.3712 46.7646 54.2344 46.8645C53.998 47.0516 53.998 47.0516 54.2468 47.2887C54.6947 47.7379 55.0182 47.7504 55.4413 47.3261C55.715 47.0516 55.8021 46.852 55.7772 46.6024C55.7275 46.1781 55.5533 46.1282 55.1551 46.4402Z" fill="#3D383C"/>
<path d="M47.8992 46.4031C47.4388 46.478 47.2148 46.6527 47.2148 46.9397C47.2148 47.3265 47.4512 47.339 49.0563 46.9896C49.2678 46.9522 49.3301 46.8648 49.3052 46.6527C49.2803 46.4281 49.1807 46.3782 48.7701 46.3657C48.4964 46.3532 48.1107 46.3782 47.8992 46.4031Z" fill="#3D383C"/>
<path d="M69.9979 46.7771C70.0103 47.3885 70.396 48.2495 70.6698 48.2495C71.2172 48.2495 70.8315 46.54 70.2592 46.4651C70.0352 46.4277 69.9854 46.4776 69.9979 46.7771Z" fill="#3D383C"/>
<path d="M45.0366 47.5508C44.7629 47.6756 44.402 47.9252 44.2403 48.1123C43.9541 48.4118 43.9417 48.4617 44.1283 48.6489C44.3274 48.8361 44.402 48.8111 45.161 48.312C45.6961 47.9626 45.9698 47.7005 45.9449 47.5758C45.8827 47.2888 45.609 47.2888 45.0366 47.5508Z" fill="#3D383C"/>
<path d="M100.033 49.0731C95.5909 49.6721 91.7835 52.4423 90.0042 56.373C88.1752 60.416 88.5982 65.9563 90.9996 69.5002C94.6452 74.8908 102.173 76.3633 107.511 72.7196L107.996 72.3952L108.033 73.331L108.071 74.2669H109.75H111.418L111.393 68.0527L111.355 61.851L106.416 61.8135L101.464 61.7886V63.286V64.7834H104.761H108.058V67.1917V69.6L107.162 70.1241C104.45 71.6589 100.842 72.0582 98.266 71.0849C94.0605 69.4877 91.7088 64.9331 92.5674 60.0042C93.1024 56.8846 94.8816 54.4139 97.507 53.1286C100.008 51.9057 103.168 51.8433 105.507 52.9789C105.98 53.2035 106.478 53.478 106.615 53.5778C106.826 53.7525 106.826 53.7775 106.64 54.1518C106.378 54.651 106.378 55.6991 106.64 56.2607C106.913 56.8347 107.498 57.2589 108.257 57.4336C110.484 57.9452 111.903 55.487 110.721 53.166C110.323 52.3549 109.116 51.157 108.133 50.5705C107.249 50.034 105.682 49.4725 104.45 49.2354C103.243 48.9983 101.14 48.9234 100.033 49.0731Z" fill="#3D383C"/>
<path d="M191.708 49.073C188.373 49.5846 186.134 51.5687 185.499 54.5635C185.138 56.2605 185.536 58.1946 186.495 59.5049C187.515 60.9024 189.058 61.8383 192.666 63.2484C195.727 64.4463 196.822 65.1326 197.481 66.2557C197.792 66.7673 197.83 66.9669 197.817 67.8404C197.817 69.4127 197.22 70.361 195.789 71.0723C194.134 71.9083 191.235 71.821 189.344 70.8851C188.51 70.4858 188.46 70.3985 188.747 69.8993C188.995 69.4751 188.983 68.352 188.722 67.8154C188.261 66.8421 186.88 66.3929 185.785 66.8796C185.014 67.229 184.578 67.9028 184.491 68.8886C184.392 69.8869 184.616 70.6356 185.275 71.5215C186.905 73.7551 190.737 75.0778 194.283 74.6536C198.701 74.1045 201.301 71.4217 201.289 67.4037C201.276 64.8206 200.131 63.0487 197.506 61.5638C197.12 61.3392 195.777 60.7527 194.507 60.2411C190.787 58.7437 189.891 58.1946 189.244 57.0342C188.921 56.4602 188.871 56.2231 188.871 55.4869C188.883 54.7381 188.933 54.5011 189.257 53.9271C189.966 52.6667 191.26 52.0553 193.176 52.0553C194.483 52.0553 195.378 52.23 196.187 52.6418C196.71 52.9038 196.784 52.9912 196.71 53.2158C196.448 54.0893 196.411 54.4012 196.536 54.8629C196.834 55.9985 197.792 56.6349 199.012 56.5226C199.858 56.4352 200.492 55.9361 200.791 55.1C201.625 52.7791 199.484 50.2085 195.976 49.3101C194.831 49.0231 192.778 48.8983 191.708 49.073Z" fill="#3D383C"/>
<path d="M71.3535 49.5473C71.0051 50.2087 71.4282 50.8076 72.2245 50.8076C72.6226 50.8076 72.7222 50.7577 72.7222 50.583C72.7222 50.4457 72.5853 50.2835 72.4111 50.2087C72.2494 50.1338 72.0254 49.8967 71.9134 49.6846C71.6895 49.2478 71.5401 49.2104 71.3535 49.5473Z" fill="#3D383C"/>
<path d="M42.2744 50.0339C41.7767 50.7951 41.6896 51.107 41.9135 51.2942C42.0131 51.3815 42.1624 51.419 42.2246 51.3815C42.4734 51.2193 43.2573 49.7968 43.1827 49.6221C43.0458 49.2602 42.6725 49.4349 42.2744 50.0339Z" fill="#3D383C"/>
<path d="M118.012 50.995V52.5548H119.629H121.247V61.8511V71.1475H119.629H118.012V72.7073V74.2671H122.926H127.841V72.7073V71.1475H126.224H124.606V61.8511V52.5548H126.224H127.841V50.995V49.4352H122.926H118.012V50.995Z" fill="#3D383C"/>
<path d="M134.188 50.995V52.5548H135.681H137.174V61.8511V71.1475H135.681H134.188V72.7073V74.2671H138.978H143.768V72.7073V71.1475H142.213H140.658V67.8033V64.4716H142.636H144.602L147.389 69.3631L150.176 74.2671H152.826H155.464V72.7073V71.1475H154.008H152.54L150.276 67.379L147.999 63.6106L149.081 63.0491C151.582 61.7513 152.976 59.4803 152.976 56.735C152.963 53.5905 151.321 51.2945 148.223 50.1714C146.443 49.5101 145.498 49.4352 139.575 49.4352H134.188V50.995ZM145.597 52.7544C147.364 53.1163 148.571 53.9648 149.131 55.2376C149.492 56.0362 149.529 57.4463 149.205 58.3822C148.77 59.63 147.476 60.7031 145.759 61.2272C144.987 61.4643 142.151 61.6265 141.242 61.4893L140.658 61.4019V56.9721V52.5548H142.648C143.992 52.5548 144.963 52.6172 145.597 52.7544Z" fill="#3D383C"/>
<path d="M161.312 50.995V52.5548H162.806H164.299V61.8511V71.1475H162.806H161.312V72.7073V74.2671H170.084H178.856V70.8979V67.5288H177.177H175.497V69.4005V71.2723H171.64H167.783V61.9135V52.5673L169.437 52.5298L171.08 52.4924L171.117 50.9576L171.154 49.4352H166.227H161.312V50.995Z" fill="#3D383C"/>
<path d="M74.1888 50.4457C74.0644 50.5081 73.9648 50.6828 73.9648 50.8076C73.9648 51.0322 74.0519 51.0571 74.7238 51.0571C75.5201 51.0571 75.9556 50.9074 75.9556 50.6329C75.9556 50.533 75.8685 50.4207 75.7566 50.3833C75.4455 50.2585 74.4252 50.3084 74.1888 50.4457Z" fill="#3D383C"/>
<path d="M77.1744 50.508C76.9754 50.7076 77.0749 51.057 77.3611 51.1069C77.5104 51.1444 77.9334 51.2317 78.3067 51.319C78.8542 51.4314 78.991 51.4314 79.0781 51.2941C79.2523 51.0196 79.215 50.8324 78.9413 50.6827C78.6302 50.5204 77.2864 50.3832 77.1744 50.508Z" fill="#3D383C"/>
<path d="M80.3125 51.6686C80.3125 51.9805 81.5567 52.8415 81.8429 52.7292C82.154 52.6169 82.1042 52.4547 81.5692 51.9181C81.2208 51.5563 80.9844 51.4315 80.6982 51.4315C80.3996 51.4315 80.3125 51.4814 80.3125 51.6686Z" fill="#3D383C"/>
<path d="M40.9699 52.4551C40.7086 52.6672 40.3353 53.6904 40.3975 54.0648C40.4224 54.2644 40.5219 54.3643 40.6837 54.3643C40.8828 54.3643 40.9947 54.1771 41.2311 53.5157C41.4924 52.767 41.5049 52.6422 41.3431 52.48C41.2063 52.3428 41.1316 52.3303 40.9699 52.4551Z" fill="#3D383C"/>
<path d="M82.2671 53.6402C82.1054 53.7899 82.18 54.1518 82.4786 54.8007C82.8146 55.5369 83.0261 55.7241 83.2625 55.5244C83.4865 55.3497 83.4616 55.0253 83.2127 54.4638C82.8643 53.6776 82.516 53.3782 82.2671 53.6402Z" fill="#3D383C"/>
<path d="M40.0846 55.8866C39.9602 56.0114 39.9851 57.2343 40.1219 57.5961C40.2464 57.933 40.7316 58.0578 40.7565 57.7583C40.7938 57.2842 40.7067 56.3483 40.6072 56.0863C40.5076 55.8117 40.2464 55.7119 40.0846 55.8866Z" fill="#3D383C"/>
<path d="M83.435 56.5853C83.2608 56.7975 83.4972 58.2699 83.746 58.5444C83.8953 58.6942 83.9451 58.6942 84.1193 58.5195C84.2935 58.3448 84.3059 58.2075 84.194 57.5462C84.0073 56.5354 83.7585 56.211 83.435 56.5853Z" fill="#3D383C"/>
<path d="M40.6303 59.343C40.3193 59.7174 41.0409 61.352 41.464 61.2647C41.7502 61.2023 41.7004 60.7032 41.3147 59.8546C40.9912 59.1434 40.8667 59.056 40.6303 59.343Z" fill="#3D383C"/>
<path d="M83.1833 60.3538C82.8722 61.1774 82.8473 61.6141 83.1086 61.7139C83.3326 61.7888 83.5814 61.4519 83.8552 60.6782C84.0791 60.0418 84.0045 59.6675 83.6685 59.6675C83.5068 59.6675 83.3699 59.8547 83.1833 60.3538Z" fill="#3D383C"/>
<path d="M42.0736 62.5625C41.9491 62.9369 42.9072 64.1847 43.2929 64.1348C43.6662 64.0849 43.5915 63.7355 43.0441 63.0367C42.5713 62.4377 42.1855 62.2505 42.0736 62.5625Z" fill="#3D383C"/>
<path d="M81.5056 63.1864C80.9084 63.8727 80.7964 64.2346 81.1324 64.3718C81.5181 64.5091 82.6254 63.124 82.4637 62.6997C82.3517 62.4002 82.078 62.5375 81.5056 63.1864Z" fill="#3D383C"/>
<path d="M44.4769 65.0954C44.3401 65.2701 44.4147 65.3824 44.9871 65.919C45.4101 66.3058 45.7461 66.5304 45.9078 66.5054C46.3806 66.4306 46.2438 66.0687 45.5346 65.4822C44.7507 64.8458 44.7009 64.8209 44.4769 65.0954Z" fill="#3D383C"/>
<path d="M79.1514 65.7565C78.5542 66.3555 78.4173 66.7298 78.7408 66.8546C79.1265 67.0044 80.3708 65.7191 80.2214 65.3323C80.097 65.0078 79.7486 65.1576 79.1514 65.7565Z" fill="#3D383C"/>
<path d="M47.2397 67.192C47.1277 67.3168 47.1401 67.4291 47.277 67.6287C47.389 67.766 47.4885 68.0655 47.5134 68.2776C47.5756 68.8641 47.7871 69.0138 48.0982 68.6894C48.4839 68.3026 48.4466 67.8034 47.9738 67.3792C47.5383 66.9799 47.4263 66.9549 47.2397 67.192Z" fill="#3D383C"/>
<path d="M77.2264 67.8529C76.9029 68.0775 76.8532 68.8386 77.1269 69.213C77.2762 69.4126 77.326 69.4251 77.5002 69.2879C77.6122 69.2005 77.6993 69.0133 77.6993 68.8761C77.6993 68.7513 77.8237 68.4768 77.9605 68.2896C78.1099 68.0899 78.1845 67.8653 78.1472 67.7905C78.0228 67.5908 77.5499 67.6282 77.2264 67.8529Z" fill="#3D383C"/>
<path d="M46.8917 70.6111C46.5931 71.3099 46.5185 72.0211 46.73 72.1459C46.9913 72.3206 47.1779 72.071 47.4641 71.1976C47.7503 70.3615 47.7254 70.1494 47.3397 70.1494C47.1779 70.1494 47.0286 70.3116 46.8917 70.6111Z" fill="#3D383C"/>
<path d="M76.941 70.673C76.9036 71.01 76.9658 72.2203 77.0281 72.4325C77.0778 72.5822 77.1898 72.6446 77.364 72.6197C77.6004 72.5822 77.6377 72.4949 77.6751 71.8834C77.7248 71.0224 77.5506 70.5233 77.2022 70.5233C77.0654 70.5233 76.941 70.5982 76.941 70.673Z" fill="#3D383C"/>
<path d="M46.4687 73.6928C46.3319 74.0797 46.4314 75.053 46.6554 75.3525C46.7425 75.4648 46.8918 75.5271 47.0162 75.4772C47.2277 75.3899 47.2775 74.6038 47.1033 73.8301C47.0037 73.3434 46.6305 73.2686 46.4687 73.6928Z" fill="#3D383C"/>
<path d="M76.9625 74.1047C76.9002 74.2295 76.7883 74.6538 76.7012 75.0655C76.5767 75.6895 76.5767 75.8267 76.7509 75.9889C77.0371 76.2759 77.2611 76.0139 77.4477 75.1529C77.5597 74.6039 77.5597 74.3668 77.4601 74.1546C77.286 73.8302 77.1242 73.8177 76.9625 74.1047Z" fill="#3D383C"/>
<path d="M47.1396 76.8252C46.9654 77.2744 47.8488 78.5098 48.3216 78.5098C48.7198 78.5098 48.6451 78.1604 48.0728 77.3493C47.5626 76.638 47.2765 76.4758 47.1396 76.8252Z" fill="#3D383C"/>
<path d="M75.8303 78.0604C75.4073 78.9963 75.3824 79.1959 75.6561 79.3082C75.9423 79.4205 76.1414 79.2209 76.4524 78.4971C76.7511 77.7859 76.7386 77.3491 76.4151 77.2867C76.2534 77.2493 76.104 77.4365 75.8303 78.0604Z" fill="#3D383C"/>
<path d="M58.7374 78.5223C58.3019 78.8717 58.3268 79.3334 58.7872 79.2835C58.9614 79.271 59.2227 79.3209 59.372 79.3958C59.5835 79.5081 59.6955 79.5081 59.8448 79.3833C60.0936 79.1712 60.0812 79.0963 59.7079 78.6471C59.3222 78.1854 59.1854 78.1729 58.7374 78.5223Z" fill="#3D383C"/>
<path d="M49.1686 79.2208C48.9695 79.408 49.1188 79.6326 49.7409 80.0569C50.4128 80.5186 50.8732 80.6309 50.9851 80.3439C51.0847 80.0943 50.9603 79.957 50.251 79.5203C49.6165 79.1335 49.3303 79.0586 49.1686 79.2208Z" fill="#3D383C"/>
<path d="M56.235 80.0322C55.389 80.469 55.2397 80.6187 55.4761 80.8683C55.6129 80.9931 55.7373 81.0055 56.0608 80.8932C56.7452 80.6686 57.2926 80.2818 57.2926 80.0197C57.2926 79.6329 57.0189 79.6454 56.235 80.0322Z" fill="#3D383C"/>
<path d="M73.9791 80.8304C73.3445 81.4044 73.1828 81.7913 73.5187 81.9161C73.7427 82.0034 74.6261 81.3795 74.9122 80.9427C75.1362 80.6058 75.074 80.2564 74.7878 80.2564C74.7007 80.2564 74.3274 80.5185 73.9791 80.8304Z" fill="#3D383C"/>
<path d="M60.7398 80.4686C60.5656 80.6433 60.6776 80.8554 61.2251 81.4169C61.5859 81.7913 61.9094 82.0034 62.096 82.0034C62.5688 82.0034 62.4569 81.6291 61.7974 80.9677C61.2375 80.4187 60.9264 80.2689 60.7398 80.4686Z" fill="#3D383C"/>
<path d="M52.1551 80.6684C52.0182 81.0428 52.2795 81.18 53.2127 81.18C54.0961 81.1925 54.121 81.18 54.121 80.8806C54.121 80.5811 54.0961 80.5686 53.1754 80.5312C52.4537 80.5062 52.2049 80.5436 52.1551 80.6684Z" fill="#3D383C"/>
<path d="M71.2261 82.7397C70.6537 82.9892 70.4049 83.1639 70.38 83.3386C70.3302 83.7005 70.6537 83.7754 71.2634 83.5383C72.0722 83.2138 72.3583 82.9892 72.321 82.7147C72.2712 82.3403 72.1219 82.3528 71.2261 82.7397Z" fill="#3D383C"/>
<path d="M63.4777 82.5904C63.428 82.6278 63.3906 82.7776 63.3906 82.9024C63.3906 83.2642 64.8837 83.8507 65.2445 83.6386C65.5929 83.414 65.3192 83.102 64.5229 82.8025C63.6644 82.4781 63.6021 82.4656 63.4777 82.5904Z" fill="#3D383C"/>
<path d="M67.1485 83.4635C66.937 83.501 66.8748 83.5883 66.8997 83.788C66.937 84.0375 67.0117 84.0625 67.8329 84.0625C68.7661 84.0625 69.0771 83.9252 68.9527 83.5758C68.8905 83.4261 68.7038 83.3762 68.1564 83.3887C67.7582 83.4011 67.3103 83.4386 67.1485 83.4635Z" fill="#3D383C"/>
</svg>
