<svg width="242" height="96" viewBox="0 0 242 96" fill="none" xmlns="http://www.w3.org/2000/svg">
<path d="M120.789 29.1169C122.345 29.0133 124.004 29.7245 125.121 30.7857C127.613 33.2497 127.703 37.6093 125.891 40.4793C124.853 42.2377 122.823 43.3157 120.77 43.0273C119.563 42.9237 118.624 42.3273 117.696 41.6105C117.763 44.0521 117.712 46.4993 117.732 48.9437C116.371 48.9465 115.012 48.9465 113.654 48.9437C113.66 42.4897 113.668 36.0385 113.648 29.5873C114.928 29.5817 116.208 29.5789 117.49 29.5957C117.485 30.0577 117.476 30.5197 117.471 30.9789C118.447 30.0745 119.403 29.2597 120.789 29.1169Z" fill="#273691"/>
<path d="M107.745 29.4889C109.059 29.3993 110.386 29.4833 111.705 29.4469C111.767 30.2169 111.821 30.9869 111.821 31.7597C111.807 35.4165 111.815 39.0761 111.815 42.7329C110.513 42.7385 109.213 42.7385 107.911 42.7385C107.92 42.1505 107.931 41.5653 107.937 40.9801C107.118 41.7165 106.438 42.4501 105.343 42.7861C103.791 43.2817 101.822 43.1529 100.464 42.2009C99.0744 41.1817 98.7397 39.5409 98.675 37.9197C98.6103 35.1421 98.6891 32.3617 98.6328 29.5841C99.9969 29.5869 101.358 29.5869 102.719 29.5841C102.711 31.6169 102.717 33.6469 102.708 35.6797C102.714 36.6289 102.759 37.7629 103.212 38.6197C103.648 39.4961 105.062 39.6165 105.9 39.4121C107.042 39.1629 107.546 38.1381 107.655 37.0629C107.776 34.5485 107.568 32.0005 107.745 29.4889Z" fill="#273691"/>
<path d="M138.623 32.673C138.612 33.8294 138.589 34.9802 138.446 36.131C137.352 35.8398 136.016 35.6186 135.304 36.7274C135.045 37.7858 135.203 38.9786 135.172 40.0678C136.165 40.065 137.16 40.0622 138.153 40.0622C138.15 41.1626 138.15 42.263 138.162 43.3634C137.166 43.3662 136.168 43.3662 135.172 43.3634C135.172 46.6646 135.169 49.963 135.175 53.2642C133.797 53.2894 132.421 53.281 131.046 53.2866C131.052 49.9826 131.038 46.6786 131.054 43.3746C130.458 43.369 129.862 43.3634 129.266 43.3578C129.283 42.263 129.282 41.1654 129.277 40.0706C129.873 40.065 130.472 40.0594 131.068 40.051C131.063 38.5418 130.917 36.8674 131.308 35.403C131.67 33.9862 132.868 32.9558 134.278 32.6338C135.681 32.309 137.217 32.393 138.623 32.673Z" fill="#273691"/>
<path d="M79.2322 32.7708C80.5934 32.7652 81.9547 32.7652 83.3131 32.768C83.2991 39.6055 83.2991 46.4403 83.3131 53.2779C82.0559 53.2807 80.7988 53.2807 79.5416 53.2891C79.5416 52.7235 79.5444 52.1579 79.5444 51.5923C78.7147 52.3651 77.9638 53.0875 76.8416 53.4179C74.3216 54.1459 71.5203 53.0539 70.055 50.9175C68.9216 49.0331 68.57 46.7455 69.2028 44.6287C69.6219 43.3155 70.1056 42.1003 71.2194 41.2127C73.3709 39.124 77.3169 39.2415 79.2519 41.5711C79.2181 38.6368 79.2491 35.7024 79.2322 32.7708Z" fill="#273691"/>
<path d="M119.415 32.897C120.945 32.3902 122.759 33.3562 123.183 34.9018C123.456 36.4726 123.394 38.1022 121.932 39.0626C120.739 39.7318 118.607 39.5946 117.845 38.3234C117.162 37.1278 117.103 35.5318 117.674 34.2802C118.017 33.569 118.683 33.1406 119.415 32.897Z" fill="#FFFBF7"/>
<path d="M198.554 33.9074C199.896 33.143 201.721 33.9326 202.005 35.453C202.297 36.7438 201.366 38.0766 200.087 38.323C199.066 38.4994 198.115 37.9114 197.584 37.077C197.086 35.9234 197.322 34.4842 198.554 33.9074Z" fill="#273691"/>
<path d="M215.041 33.723C216.586 33.2078 218.357 34.5266 218.2 36.1702C217.997 37.4778 216.6 38.651 215.236 38.3038C214.144 37.951 213.216 36.8898 213.388 35.6886C213.464 34.7226 214.167 34.0534 215.041 33.723Z" fill="#273691"/>
<path d="M22.4333 34.1514C23.8508 34.0506 25.288 34.1318 26.7111 34.1262C26.683 36.4866 26.7083 38.8498 26.6914 41.213C29.4336 41.2018 32.1758 41.2074 34.918 41.2102C34.9039 38.8498 34.9264 36.4894 34.9011 34.1262C36.3523 34.1066 37.8008 34.1066 39.252 34.1206C39.1648 35.8538 39.193 37.587 39.1902 39.3202C39.2267 43.9654 39.1114 48.619 39.2633 53.2642C37.812 53.2894 36.358 53.2894 34.9067 53.267C34.918 50.5062 34.9123 47.7454 34.9123 44.9846C32.173 44.9986 29.4336 44.9986 26.697 44.9818C26.7027 47.7454 26.6914 50.509 26.7027 53.2698C25.2711 53.2866 23.8367 53.2838 22.4023 53.2754C22.4389 46.9222 22.3714 40.4962 22.4333 34.1514Z" fill="#273691"/>
<path d="M165.275 34.1515C166.684 34.0507 168.113 34.1263 169.525 34.1347C169.5 36.4923 169.522 38.8527 169.508 41.2103C172.248 41.2075 174.99 41.2019 177.729 41.2131C177.718 38.8499 177.74 36.4839 177.709 34.1207C179.149 34.1095 180.587 34.1067 182.027 34.1235C181.987 40.5075 182.007 46.8915 182.015 53.2727C180.584 53.2867 179.149 53.2839 177.718 53.2755C177.732 50.5119 177.723 47.7455 177.723 44.9819C174.987 45.0015 172.25 44.9959 169.514 44.9847C169.519 47.7399 169.5 50.4923 169.525 53.2475C168.099 53.2979 166.676 53.2867 165.25 53.2727C165.284 46.9251 165.225 40.4907 165.275 34.1515Z" fill="#273691"/>
<path d="M205.033 36.2314C206.395 36.1278 207.801 36.1418 209.156 36.335C209.131 37.5782 209.137 38.8214 209.125 40.0646C210.307 40.0646 211.491 40.0618 212.672 40.0646C212.672 41.1622 212.675 42.2626 212.692 43.3602C211.46 43.3658 210.225 43.3602 208.99 43.3798C209.019 45.0206 208.971 46.6614 209.005 48.2994C209.013 49.0078 209.289 49.691 209.952 50.0242C210.799 50.3462 211.84 50.1082 212.695 49.9122C212.669 51.0266 212.672 52.141 212.68 53.2554C210.861 53.7146 208.577 53.9134 206.859 53.023C205.787 52.4266 205.05 51.5138 205.028 50.2454C204.929 47.955 205.016 45.6562 204.994 43.363C204.218 43.3658 203.444 43.3658 202.668 43.363C202.682 42.2626 202.685 41.1594 202.699 40.059C203.467 40.0618 204.235 40.0646 205.005 40.0646C205.011 38.7906 204.921 37.4998 205.033 36.2314Z" fill="#273691"/>
<path d="M188.71 39.8379C190.764 39.6083 193.185 39.7203 194.67 41.3611C195.818 42.3971 195.919 44.0407 196.043 45.4799C196.116 48.0755 196.043 50.6767 196.079 53.2723C194.833 53.2835 193.587 53.2807 192.341 53.2891C192.344 52.7319 192.347 52.1719 192.35 51.6147C190.623 54.0423 186.643 54.3223 184.503 52.3371C182.798 50.6823 182.981 47.7283 184.919 46.3339C187.006 44.8443 190.018 44.9899 192.474 44.8191C192.215 44.2591 191.979 43.5339 191.503 43.1223C190.685 42.4755 189.537 42.4027 188.561 42.6799C187.698 42.9319 187.116 43.5843 186.365 44.0295C185.555 43.3939 184.897 42.5651 184.154 41.8539C185.549 40.8627 186.969 40.0367 188.71 39.8379Z" fill="#273691"/>
<path d="M49.9247 40.1068C51.3253 40.552 52.6528 41.7756 52.9228 43.254C53.325 45.0656 53.3278 46.9947 53.2631 48.8399C53.2238 50.3155 53.3222 51.7855 53.3222 53.2639C52.0538 53.2863 50.7881 53.2807 49.5197 53.2863C49.5309 52.7375 49.5478 52.1887 49.5619 51.6371C47.8238 54.0115 44.0016 54.3027 41.8163 52.4267C40.05 50.7775 40.1513 47.8375 42.075 46.3675C44.1759 44.8528 47.1938 44.9844 49.6744 44.822C49.3144 43.9456 49.0641 43.156 48.1106 42.764C46.3781 42.106 44.8256 42.8648 43.6275 44.1136C42.8625 43.366 42.1116 42.6072 41.3522 41.8568C42.4013 41.1736 43.3238 40.4792 44.5528 40.1404C46.2769 39.6308 48.2006 39.5916 49.9247 40.1068Z" fill="#273691"/>
<path d="M59.0249 40.0622C59.0137 40.6642 58.9996 41.2634 58.9856 41.8626C59.6324 41.1934 60.2202 40.4906 61.1034 40.1182C62.4337 39.5834 64.034 39.6338 65.3559 40.1714C66.6637 40.765 67.4765 42.1286 67.6846 43.5118C68.1515 46.687 67.8984 49.9574 67.9771 53.2418C66.5906 53.2978 65.204 53.2838 63.8174 53.281C63.8146 50.9598 63.8371 48.6386 63.8174 46.3202C63.7781 45.5474 63.764 44.6178 63.1762 44.0354C62.414 43.061 60.7715 43.1366 59.9727 44.0214C59.1684 44.7298 59.2724 45.6258 59.2302 46.6002C59.2359 48.8206 59.2331 51.0438 59.2387 53.2642C57.8662 53.2894 56.4909 53.281 55.1184 53.2866C55.1324 48.885 55.0874 44.4778 55.1381 40.0762C56.4346 40.037 57.7312 40.0734 59.0249 40.0622Z" fill="#273691"/>
<path d="M92.9208 40.1318C93.8264 40.3726 94.5295 40.9102 95.2214 41.5178C94.3805 42.3354 93.5396 43.153 92.7211 43.993C92.1783 43.545 91.7395 43.0858 91.0252 42.9262C90.3305 42.747 89.3602 42.8366 88.9327 43.4806C88.8202 43.951 88.7836 44.4354 89.318 44.6426C90.6877 45.2726 92.4117 45.2754 93.7899 46.023C94.6786 46.4934 95.4014 47.2494 95.5983 48.2574C95.8008 49.5146 95.7305 50.839 94.7995 51.805C93.517 53.2526 91.6974 53.5522 89.8524 53.6418C87.8414 53.6138 85.8445 53.3142 84.4102 51.7742C85.237 50.9286 86.0217 50.0438 86.7811 49.1366C87.5433 49.691 88.2745 50.4162 89.2702 50.4778C90.1027 50.5198 91.2333 50.5954 91.6777 49.719C91.7845 48.9938 90.7074 48.6018 90.1561 48.4562C88.4236 47.9858 86.5167 47.871 85.3102 46.3506C84.2302 44.679 84.652 42.0498 86.3536 40.9242C88.162 39.5634 90.8199 39.5046 92.9208 40.1318Z" fill="#273691"/>
<path d="M143.62 39.8965C145.965 39.4569 148.497 39.9721 150.313 41.5569C151.818 42.7637 152.547 44.7069 152.516 46.5997C152.589 48.5765 151.857 50.6233 150.271 51.8749C147.459 54.2717 142.81 54.2353 140.059 51.7545C137.393 49.4865 137.151 45.0625 139.331 42.3885C140.43 41.1005 141.943 40.1933 143.62 39.8965Z" fill="#273691"/>
<path d="M157.686 40.0734C157.683 40.7622 157.678 41.4538 157.675 42.1454C158.285 41.437 158.949 40.5242 159.793 40.0902C160.696 39.6898 161.807 39.687 162.771 39.8214C163.131 40.9106 162.861 42.445 162.926 43.6294C161.542 43.3074 160.127 43.1002 158.901 43.9822C157.982 44.5898 157.768 45.5614 157.717 46.5946C157.638 48.8178 157.703 51.0494 157.683 53.2754C156.333 53.2838 154.983 53.2838 153.631 53.2754C153.631 48.8766 153.642 44.4778 153.625 40.079C154.978 40.0566 156.333 40.0566 157.686 40.0734Z" fill="#273691"/>
<path d="M197.698 40.0925C199.031 40.0057 200.381 40.0841 201.717 40.0673C201.705 44.4689 201.703 48.8733 201.719 53.2749C200.364 53.2833 199.005 53.2805 197.65 53.2861C197.684 48.8985 197.582 44.4745 197.698 40.0925Z" fill="#273691"/>
<path d="M213.74 40.1041C214.966 40.0229 216.26 40.0313 217.486 40.0817C217.84 40.0985 217.894 40.4205 217.885 40.7145C217.894 44.8865 217.868 49.0697 217.897 53.2417C216.499 53.3005 215.101 53.2893 213.703 53.2697C213.748 48.8905 213.661 44.4777 213.74 40.1041Z" fill="#273691"/>
<path d="M75.5038 43.4137C76.5163 43.2513 77.5259 43.3745 78.3472 44.0241C79.7084 44.9593 79.8716 47.1069 79.1544 48.4733C78.0772 50.3157 75.3238 50.5761 73.8275 49.0949C72.9669 48.1541 72.8825 46.7961 73.1272 45.6033C73.4 44.4609 74.3647 43.6433 75.5038 43.4137Z" fill="#FFFBF7"/>
<path d="M143.695 43.6851C145.101 42.9991 147.093 43.3603 147.99 44.6903C148.822 46.2079 148.687 48.8287 146.91 49.6379C145.287 50.5591 142.649 49.9235 142.173 47.9607C141.766 46.3955 142.002 44.3851 143.695 43.6851Z" fill="#FFFBF7"/>
<path d="M99.7356 43.856C100.051 44.1444 100.517 44.3964 100.599 44.8416C100.911 46.2304 100.816 47.7032 101.128 49.0864C101.988 50.3072 103.257 51.2956 104.286 52.382C104.905 53.0456 105.515 53.684 106.334 54.1068C106.227 53.5412 106.123 53.0596 105.721 52.6284C104.972 51.7716 104.244 50.9316 103.704 49.9208C103.943 49.6044 104.16 49.2964 104.438 49.0164C104.812 48.8932 105.231 48.9044 105.549 49.1564C106.283 49.7304 106.882 50.4556 107.633 51.0156C108.744 51.9312 110.015 52.5696 111.211 53.3536C111.812 53.74 111.77 54.6472 111.815 55.2744C111.824 58.2508 111.804 61.23 111.818 64.2064C109.706 64.1532 107.639 63.7808 105.518 63.862C105.484 62.9212 105.687 61.776 105.369 60.894C103.577 57.926 101.648 54.9972 99.8396 52.0376C99.3278 51.2004 98.5037 50.4248 98.5009 49.4C98.4559 47.9244 98.3181 46.432 98.3715 44.9592C98.4503 44.1304 99.069 44.066 99.7356 43.856Z" fill="#CD163F"/>
<path d="M125.538 43.9092C126.148 43.9624 126.603 44.234 127.107 44.5476C127.053 46.3368 127.149 48.2156 126.792 49.974C126.412 50.9484 125.667 51.78 125.166 52.6984C123.375 55.5012 121.634 58.3516 119.825 61.1404C119.822 63.0696 119.82 65.0016 119.834 66.9308C117.893 65.738 115.826 65.1836 113.641 64.6096C113.672 61.4064 113.643 58.2004 113.652 54.9972C113.672 54.4232 113.717 53.6224 114.273 53.2976C115.542 52.4996 116.844 51.8192 117.983 50.8252C118.723 50.226 119.378 49.47 120.188 48.9632C120.633 48.8988 121.111 49.1564 121.535 49.2796C121.454 49.848 121.518 50.3996 121.139 50.8616C120.346 51.9088 119.403 52.6704 119.032 53.9948C120.146 53.6728 120.663 52.8132 121.473 52.0516C122.427 51.1276 123.375 50.2036 124.266 49.2208C124.567 47.6416 124.407 45.9252 124.938 44.4132C125.135 44.2424 125.335 44.0716 125.538 43.9092Z" fill="#CD163F"/>
<path d="M192.41 47.5377C192.353 48.6129 192.297 49.5397 191.366 50.2313C190.373 50.8921 188.613 51.2141 187.687 50.2845C186.959 49.5873 187.336 48.5653 188.112 48.0949C189.304 47.3893 191.071 47.5405 192.41 47.5377Z" fill="#FFFBF7"/>
<path d="M49.6005 47.5325C49.5133 48.4929 49.5977 49.3133 48.8186 50.0133C47.8455 50.9121 45.8458 51.2537 44.8361 50.2485C44.1949 49.5289 44.5296 48.6161 45.2664 48.1317C46.4393 47.3841 48.2589 47.5493 49.6005 47.5325Z" fill="#FFFBF7"/>
<path d="M188.777 57.3658C189.553 57.7046 189.755 58.3598 190.028 59.0878C189.62 59.0906 189.21 59.0906 188.802 59.085C188.234 58.5054 188.062 58.4578 187.261 58.4578C187.314 58.7714 187.261 59.1858 187.429 59.4658C188.189 59.9642 189.196 60.1434 189.75 60.8714C190.093 61.3166 190.121 61.8682 190.034 62.403C189.688 63.7358 188.062 64.5478 186.836 63.775C186.054 63.397 185.989 62.711 185.711 61.9746C186.124 61.9662 186.535 61.9606 186.948 61.955C187.1 62.2182 187.252 62.4814 187.404 62.7446C187.843 62.7306 188.282 62.7082 188.72 62.683C188.726 62.319 188.763 61.9354 188.698 61.5742C188.104 60.9134 186.684 60.7874 186.195 59.8886C186.051 59.4126 186.046 58.7098 186.189 58.231C186.735 57.3658 187.803 56.831 188.777 57.3658Z" fill="#01863F"/>
<path d="M131.075 57.3572C131.472 57.3124 131.871 57.3068 132.268 57.29C132.268 58.158 132.259 59.0232 132.251 59.8912C133.055 59.8996 133.86 59.9024 134.664 59.9024C134.656 59.0456 134.65 58.1916 134.639 57.3348C135.038 57.3236 135.438 57.3152 135.837 57.304C135.837 59.4992 135.834 61.6916 135.837 63.8868C135.438 63.8784 135.038 63.8728 134.639 63.8644C134.65 62.9684 134.658 62.0752 134.67 61.1792C133.913 61.1176 133.154 61.0868 132.394 61.0532C132.268 61.994 132.24 62.9208 132.268 63.87C131.86 63.8756 131.449 63.8812 131.042 63.8868C131.075 61.7112 130.988 59.5272 131.075 57.3572Z" fill="#01863F"/>
<path d="M148.517 57.3742C148.896 57.321 149.285 57.3014 149.667 57.2734C149.67 59.477 149.661 61.6806 149.673 63.8842C149.276 63.8786 148.88 63.8758 148.483 63.8702C148.522 61.7086 148.435 59.5358 148.517 57.3742Z" fill="#01863F"/>
<path d="M154.995 57.3686C156.207 57.2566 157.439 57.335 158.654 57.3322C158.642 57.7326 158.631 58.1358 158.62 58.5362C158.22 58.5362 157.818 58.5362 157.416 58.5362C157.447 60.317 157.43 62.1006 157.436 63.8814C157.003 63.8758 156.57 63.873 156.139 63.8674C156.148 62.0922 156.136 60.317 156.15 58.5418C155.737 58.5334 155.324 58.5222 154.91 58.511C154.933 58.1302 154.947 57.7466 154.995 57.3686Z" fill="#01863F"/>
<path d="M217.928 57.3411C217.919 57.887 217.914 58.4358 217.905 58.9818C218.125 59.007 218.347 59.0323 218.566 59.0575C218.569 59.2982 218.569 59.5391 218.572 59.7799L217.981 60.0962C217.815 61.3226 217.95 62.6134 217.925 63.8538C217.486 63.8594 217.048 63.865 216.606 63.8678C216.614 62.633 216.606 61.3982 216.637 60.1634C216.42 60.0346 216.201 59.9058 215.984 59.7799C216.15 59.4019 216.316 59.0911 216.586 58.7775C216.603 58.2987 216.609 57.817 216.614 57.3354C217.053 57.3354 217.489 57.3383 217.928 57.3411Z" fill="#01863F"/>
<path d="M175.844 57.355C176.257 57.341 176.673 57.327 177.087 57.313C177.081 57.9374 177.07 58.559 177.053 59.1834C177.678 59.0266 178.327 58.671 178.963 58.9538C179.613 59.1554 180.124 59.595 180.214 60.2978C180.341 61.485 180.254 62.6946 180.273 63.8874C179.874 63.8818 179.475 63.8762 179.075 63.8706C179.095 62.6582 179.165 61.4822 178.898 60.2866C178.662 60.1326 178.426 59.9758 178.189 59.8162C177.841 60.0262 177.191 60.1802 177.143 60.6478C177 61.709 177.098 62.8122 177.084 63.8818C176.671 63.8706 176.257 63.8566 175.844 63.8426C175.852 61.681 175.855 59.5166 175.844 57.355Z" fill="#01863F"/>
<path d="M141.442 59.9002C141.89 60.3902 141.777 61.261 141.839 61.8938C140.495 61.8994 139.156 61.8714 137.812 61.947C138.273 62.3278 138.745 62.6778 139.257 62.983C140.171 62.5322 140.863 62.3306 141.912 62.4258C141.381 63.0166 140.925 63.641 140.149 63.9238C138.922 64.4418 137.44 63.6046 136.945 62.4454C136.332 61.1994 137.018 59.4998 138.343 59.049C139.451 58.5506 140.734 58.9426 141.442 59.9002Z" fill="#01863F"/>
<path d="M144.163 58.9481C145.013 58.6289 145.626 58.9481 146.34 59.3709C146.737 58.9985 147.164 59.0209 147.673 58.9481C147.665 60.5889 147.656 62.2297 147.673 63.8705C147.302 63.8705 146.931 63.8733 146.557 63.8733C146.531 63.6577 146.506 63.4449 146.481 63.2293C146.093 63.5653 145.724 63.9881 145.187 64.0581C143.899 64.2569 142.715 63.2405 142.479 62.0113C142.149 60.7373 142.858 59.3149 144.163 58.9481Z" fill="#01863F"/>
<path d="M162.217 59.1103C163.427 59.6059 163.452 60.7511 163.688 61.8571C162.296 61.9187 160.904 61.8683 159.514 61.9439C159.967 62.3275 160.429 62.6691 160.938 62.9771C161.807 62.5627 162.532 62.3331 163.522 62.3919C163.033 63.1507 162.535 63.7863 161.61 64.0019C159.908 64.4303 158.285 62.8595 158.533 61.1515C158.606 59.3287 160.625 58.3151 162.217 59.1103Z" fill="#01863F"/>
<path d="M168.064 59.3344C168.458 59.1356 168.86 59.0068 169.285 58.8948C169.313 60.558 169.294 62.2212 169.299 63.8844C168.981 63.8844 168.661 63.8816 168.343 63.8816C168.298 63.68 168.259 63.4812 168.216 63.2796C167.505 63.8256 166.9 64.2932 165.944 63.9964C163.851 63.3748 163.503 60.18 165.418 59.13C166.394 58.6008 167.156 58.8612 168.064 59.3344Z" fill="#01863F"/>
<path d="M171.529 59.0658C172.932 58.4694 174.594 59.0966 175.126 60.561C174.293 60.5526 173.79 60.4798 173.07 60.0822C172.004 59.455 170.809 60.8466 171.245 61.8882C171.486 62.5938 172.142 62.6918 172.744 62.9802C173.126 62.7254 173.509 62.4706 173.888 62.213C174.299 62.2186 174.707 62.227 175.117 62.2354C174.724 62.9298 174.403 63.5626 173.61 63.8622C172.516 64.3886 171.143 63.8874 170.502 62.9018C169.639 61.6726 170.032 59.6174 171.529 59.0658Z" fill="#01863F"/>
<path d="M193.972 59.0458C194.369 59.0066 194.777 58.9954 195.176 58.9814C195.156 60.639 195.17 62.2938 195.162 63.9514C194.732 63.8618 194.301 63.775 193.874 63.6798C193.432 63.8562 193.055 64.1502 192.569 64.0774C191.722 63.943 190.825 63.1842 190.775 62.2938C190.685 61.2074 190.752 60.1042 190.735 59.015C191.109 59.0094 191.486 59.0038 191.86 58.9982C191.84 60.2134 191.765 61.3894 192.11 62.571C192.423 62.6942 192.735 62.8202 193.047 62.9434C193.275 62.823 193.503 62.6998 193.73 62.5794C193.975 61.4034 193.916 60.233 193.972 59.0458Z" fill="#01863F"/>
<path d="M197.334 59.2868C198.662 58.5112 200.065 58.752 200.917 60.0428C201.944 61.6416 200.785 63.8396 198.952 64.0776C198.338 64.1672 197.835 63.7528 197.295 63.5232C197.326 64.17 197.348 64.8168 197.368 65.4636C196.929 65.4692 196.493 65.4776 196.055 65.4832C196.066 63.302 196.06 61.1236 196.058 58.9452C196.502 59.0152 196.921 59.1048 197.334 59.2868Z" fill="#01863F"/>
<path d="M201.948 59.0826C202.274 59.021 202.6 58.9678 202.927 58.9258C202.972 59.077 203.017 59.231 203.059 59.385C203.469 59.189 203.863 58.9818 204.302 58.853C205.269 58.6934 206.318 59.2366 206.808 60.0738C207.486 61.5298 206.991 63.3442 205.399 63.9238C204.482 64.3298 203.863 63.879 203.064 63.4926C203.093 64.1534 203.112 64.8142 203.129 65.475C202.724 65.4778 202.319 65.4778 201.914 65.4778C201.962 63.3498 201.872 61.2106 201.948 59.0826Z" fill="#01863F"/>
<path d="M209.201 59.035C210.756 58.3546 212.753 59.4354 212.834 61.1714C213.026 62.7618 211.557 64.1534 210.002 64.0778C208.599 63.9182 207.42 62.5854 207.6 61.1518C207.668 60.1718 208.289 59.385 209.201 59.035Z" fill="#01863F"/>
<path d="M215.72 58.7886C215.722 59.133 215.725 59.4774 215.728 59.8218C215.424 59.9506 215.12 60.0766 214.817 60.2054C214.552 61.4374 214.64 62.6386 214.648 63.8846C214.249 63.879 213.849 63.8734 213.45 63.865C213.461 62.2494 213.464 60.6338 213.441 59.0182C213.911 59.0294 214.381 59.0546 214.85 59.0518C215.14 58.965 215.43 58.8782 215.72 58.7886Z" fill="#01863F"/>
<path d="M139.552 59.9196C140.199 60.0064 140.412 60.4684 140.744 60.9416C139.808 60.964 138.874 60.964 137.938 60.9528C138.022 60.8072 138.106 60.6672 138.193 60.5244C138.618 60.1772 138.953 59.8188 139.552 59.9196Z" fill="white"/>
<path d="M146.143 60.1966C146.309 60.8854 146.714 61.5014 146.272 62.1734C145.952 62.9154 144.995 62.8874 144.343 62.6802C143.415 62.053 143.375 60.8686 144.261 60.1854C144.886 59.673 145.468 60.0398 146.143 60.1966Z" fill="white"/>
<path d="M161.047 59.9028C161.475 59.9728 161.88 60.2136 162.274 60.3872C162.302 60.5804 162.33 60.7736 162.358 60.9668C161.48 60.9556 160.6 60.9556 159.723 60.9668C159.745 60.8016 159.765 60.6364 159.787 60.4712C160.187 60.2696 160.603 59.9784 161.047 59.9028Z" fill="white"/>
<path d="M166.507 59.9417C167.579 59.7233 168.529 60.8377 168.161 61.8653C167.823 63.0665 165.959 63.1169 165.441 62.0473C165.019 61.1709 165.568 60.1517 166.507 59.9417Z" fill="white"/>
<path d="M198.477 59.9141C199.406 59.7601 200.159 60.8073 199.991 61.6585C199.929 62.3725 199.192 62.6637 198.691 63.0445C198.241 62.7617 197.513 62.5041 197.316 61.9721C196.855 61.1601 197.608 60.0233 198.477 59.9141Z" fill="white"/>
<path d="M204.916 59.9642C205.377 60.1966 205.855 60.6782 205.878 61.2186C205.968 61.8066 205.509 62.291 205.245 62.7782C204.573 62.7362 203.667 62.9434 203.293 62.2154C202.815 61.5238 203.147 60.9526 203.419 60.2694C203.872 60.0958 204.426 59.7822 204.916 59.9642Z" fill="white"/>
<path d="M209.907 59.9279C210.939 59.7095 211.771 60.7875 211.546 61.7507C211.527 62.3835 210.7 62.6999 210.244 63.0163C209.842 62.7951 209.443 62.5711 209.046 62.3443C208.925 62.0251 208.798 61.7059 208.672 61.3867C209.001 60.7735 209.178 60.1771 209.907 59.9279Z" fill="white"/>
</svg>
