<svg width="242" height="96" viewBox="0 0 242 96" fill="none" xmlns="http://www.w3.org/2000/svg">
<path d="M73.9581 61.2642V75.703C73.9581 75.9834 73.7417 76.2025 73.4645 76.2025H72.4759C72.2284 76.2025 71.9809 75.9848 71.9809 75.703V69.4655H68.8312V75.703C68.8312 75.9834 68.6149 76.2025 68.3377 76.2025H67.3491C67.0719 76.2025 66.8555 75.9848 66.8555 75.703V61.2642C66.8555 60.9838 67.0719 60.7646 67.3491 60.7646H68.3377C68.6163 60.7646 68.8312 60.9824 68.8312 61.2642V67.4703H71.9809V61.2642C71.9809 60.9838 72.2284 60.7646 72.4759 60.7646H73.4645C73.7431 60.7646 73.9581 60.9838 73.9581 61.2642Z" fill="#24B0AF"/>
<path d="M84.579 64.3509V72.5836C84.579 74.5788 82.9738 76.2011 81.0277 76.2011C79.052 76.2011 77.4453 74.5788 77.4453 72.5836V64.3509C77.4453 62.387 79.0505 60.7646 81.0277 60.7646C82.9738 60.7646 84.579 62.387 84.579 64.3509ZM82.6032 64.3509C82.6032 63.4771 81.8933 62.7598 81.0291 62.7598C80.1339 62.7598 79.4239 63.4771 79.4239 64.3509V72.5836C79.4239 73.4887 80.1339 74.2059 81.0291 74.2059C81.8933 74.2059 82.6032 73.4887 82.6032 72.5836V64.3509Z" fill="#24B0AF"/>
<path d="M95.2026 64.3509V65.848C95.2026 67.8432 93.5974 69.4655 91.6513 69.4655H90.0461V75.703C90.0461 75.952 89.8297 76.2025 89.5525 76.2025H88.5639C88.3164 76.2025 88.0703 75.9535 88.0703 75.703V69.4655V67.4703V61.2642C88.0703 60.9838 88.3178 60.7646 88.5639 60.7646H91.6513C93.5974 60.7646 95.2026 62.387 95.2026 64.3509ZM93.2268 64.3509C93.2268 63.4771 92.5169 62.7598 91.6527 62.7598H90.0475V67.4689H91.6527C92.5169 67.4689 93.2268 66.7517 93.2268 65.848V64.3509Z" fill="#24B0AF"/>
<path d="M100.019 62.7614V67.4705H102.706C102.985 67.4705 103.199 67.6882 103.199 67.97V68.9676C103.199 69.2479 102.983 69.4671 102.706 69.4671H100.019V74.2075H102.706C102.985 74.2075 103.199 74.4252 103.199 74.707V75.7046C103.199 75.9849 102.983 76.2041 102.706 76.2041H99.0316C98.4757 76.2041 98.043 75.7359 98.043 75.2065V61.7666C98.043 61.2059 98.4757 60.769 99.0316 60.769H102.706C102.985 60.769 103.199 60.9868 103.199 61.2686V62.2662C103.199 62.5465 102.983 62.7657 102.706 62.7657H100.019V62.7614Z" fill="#24B0AF"/>
<path d="M114.034 62.7613V67.4704H116.722C117 67.4704 117.215 67.6881 117.215 67.9699V68.9675C117.215 69.2479 116.999 69.467 116.722 69.467H114.034V75.7045C114.034 75.9849 113.818 76.204 113.541 76.204H112.552C112.275 76.204 112.059 75.9863 112.059 75.7045V61.7652C112.059 61.2045 112.491 60.7676 113.047 60.7676H116.722C117 60.7676 117.215 60.9853 117.215 61.2671V62.2647C117.215 62.545 116.999 62.7642 116.722 62.7642H114.034V62.7613Z" fill="#24B0AF"/>
<path d="M127.837 64.3509V72.5836C127.837 74.5788 126.232 76.2011 124.286 76.2011C122.31 76.2011 120.703 74.5788 120.703 72.5836V64.3509C120.703 62.387 122.308 60.7646 124.286 60.7646C126.232 60.7646 127.837 62.387 127.837 64.3509ZM125.861 64.3509C125.861 63.4771 125.151 62.7598 124.287 62.7598C123.392 62.7598 122.682 63.4771 122.682 64.3509V72.5836C122.682 73.4887 123.392 74.2059 124.287 74.2059C125.151 74.2059 125.861 73.4887 125.861 72.5836V64.3509Z" fill="#24B0AF"/>
<path d="M137.81 65.8475C137.81 66.8764 137.408 67.8114 136.729 68.4675C137.408 69.1221 137.81 70.0272 137.81 71.0561V75.7026C137.81 75.9516 137.593 76.2021 137.316 76.2021H136.327C136.049 76.2021 135.832 75.953 135.832 75.7026V71.0561C135.832 70.1823 135.122 69.4651 134.258 69.4651H132.684V75.7026C132.684 75.9516 132.437 76.2021 132.191 76.2021H131.202C130.923 76.2021 130.707 75.953 130.707 75.7026V61.7632C130.707 61.2025 131.14 60.7656 131.696 60.7656H134.258C136.234 60.7656 137.81 62.388 137.81 64.3519V65.8475ZM135.832 64.3504C135.832 63.4766 135.122 62.7594 134.258 62.7594H132.684V67.4685H134.258C135.122 67.4685 135.832 66.7512 135.832 65.8475V64.3504Z" fill="#24B0AF"/>
<path d="M151.797 74.704V75.7016C151.797 75.9506 151.581 76.2011 151.304 76.2011H147.66C147.105 76.2011 146.672 75.7329 146.672 75.2035V61.2642C146.672 60.9838 146.888 60.7646 147.165 60.7646H148.154C148.402 60.7646 148.648 60.9824 148.648 61.2642V74.2059H151.304C151.581 74.2059 151.797 74.4236 151.797 74.704Z" fill="#24B0AF"/>
<path d="M156.952 75.703C156.952 75.9834 156.736 76.2025 156.459 76.2025H155.47C155.193 76.2025 154.977 75.9848 154.977 75.703V61.2642C154.977 60.9838 155.193 60.7646 155.47 60.7646H156.459C156.706 60.7646 156.952 60.9824 156.952 61.2642V75.703Z" fill="#24B0AF"/>
<path d="M162.417 62.7613V67.4704H165.104C165.383 67.4704 165.598 67.6881 165.598 67.9699V68.9675C165.598 69.2479 165.382 69.467 165.104 69.467H162.417V75.7045C162.417 75.9849 162.201 76.204 161.924 76.204H160.935C160.658 76.204 160.441 75.9863 160.441 75.7045V61.7652C160.441 61.2045 160.874 60.7676 161.43 60.7676H165.104C165.383 60.7676 165.598 60.9853 165.598 61.2671V62.2647C165.598 62.545 165.382 62.7642 165.104 62.7642H162.417V62.7613Z" fill="#24B0AF"/>
<path d="M171.062 62.7614V67.4705H173.749C174.027 67.4705 174.242 67.6882 174.242 67.97V68.9676C174.242 69.2479 174.026 69.4671 173.749 69.4671H171.062V74.2075H173.749C174.027 74.2075 174.242 74.4252 174.242 74.707V75.7046C174.242 75.9849 174.026 76.2041 173.749 76.2041H170.075C169.519 76.2041 169.086 75.7359 169.086 75.2065V61.7666C169.086 61.2059 169.519 60.769 170.075 60.769H173.749C174.027 60.769 174.242 60.9868 174.242 61.2686V62.2662C174.242 62.5465 174.026 62.7657 173.749 62.7657H171.062V62.7614Z" fill="#24B0AF"/>
<path d="M99.7988 39.1137C96.7722 40.1568 94.6706 39.0482 94.2109 36.239C96.635 34.9099 99.4368 36.3756 99.7988 39.1137Z" fill="#357A57"/>
<path d="M100.094 35.6771C102.487 34.4362 104.174 35.0011 105.369 37.446C103.252 39.0627 100.604 38.1761 100.094 35.6771Z" fill="#357A57"/>
<path d="M146.12 39.5189C144.536 40.3002 143.286 39.6982 142.715 37.8766C144.252 37.0142 145.784 37.7528 146.12 39.5189Z" fill="#24B0AF"/>
<path d="M135.516 36.8766C136.75 34.8871 138.319 34.49 140.149 35.647C139.276 37.5981 137.48 38.0947 135.516 36.8766Z" fill="#357A57"/>
<path d="M129 38.441C130.235 36.0373 132.432 35.5478 134.408 37.237C133.188 39.6435 131.007 40.1288 129 38.441Z" fill="#357A57"/>
<path d="M105.093 32.5178C107.381 32.1265 109.417 33.8769 109.028 36.1553C106.509 36.5452 104.933 35.1207 105.093 32.5178Z" fill="#357A57"/>
<path d="M95.8164 33.2136C97.1953 31.1615 98.9378 30.9551 101.038 32.5974C99.9674 34.8046 97.6154 35.0822 95.8164 33.2136Z" fill="#357A57"/>
<path d="M135.023 29.8524C136.366 27.4189 138.094 26.9692 140.239 28.4336C139.172 30.7931 137.436 31.2926 135.023 29.8524Z" fill="#357A57"/>
<path d="M106.625 30.5453C107.874 28.1672 109.253 27.7047 111.455 28.8503C110.803 31.1999 108.906 31.8972 106.625 30.5453Z" fill="#357A57"/>
<path d="M129.184 34.4285C129.908 32.0206 131.393 31.2892 133.651 32.2284C133.247 34.5851 131.405 35.4916 129.184 34.4285Z" fill="#357A57"/>
<path d="M124.066 27.4342C125.819 25.7165 127.209 25.8332 128.479 27.7387C126.942 29.4507 125.526 29.3796 124.066 27.4342Z" fill="#357A57"/>
<path d="M101.458 28.0663C100.393 30.2152 98.9726 30.6193 97.0039 29.4011C97.8242 27.3732 99.271 26.915 101.458 28.0663Z" fill="#357A57"/>
<path d="M106.09 27.0201C106.125 24.9253 107.067 24.0743 109.068 24.228C109.163 26.189 108.341 26.9902 106.09 27.0201Z" fill="#357A57"/>
<path d="M118.979 26.7138C116.782 26.9301 115.865 26.1403 115.832 24.1209C117.754 23.7665 118.704 24.5265 118.979 26.7138Z" fill="#357A57"/>
<path d="M130.43 27.6852C131.704 26.1838 132.777 26.0699 134.526 27.2511C133.572 28.9019 131.918 29.077 130.43 27.6852Z" fill="#357A57"/>
<path d="M110.395 23.4567C111.666 21.8415 112.66 21.7091 114.149 22.8846C113.106 24.4714 112.086 24.6478 110.395 23.4567Z" fill="#357A57"/>
<path d="M117.028 31.0974C115.173 33.0171 113.719 32.9986 111.977 31.1386C113.459 29.2758 114.948 29.2345 117.028 31.0974Z" fill="#357A57"/>
<path d="M126.293 30.2093C124.49 32.2927 122.991 32.3582 121.09 30.5409C122.511 28.5357 124.044 28.409 126.293 30.2093Z" fill="#24B0AF"/>
<path d="M121.019 32.3015C120.204 35.115 118.791 35.8493 116.156 34.9513C116.639 32.384 118.058 31.5757 121.019 32.3015Z" fill="#357A57"/>
<path d="M125.512 35.9058C125.577 33.7654 126.442 32.9856 128.47 33.135C128.596 35.0391 127.739 35.8731 125.512 35.9058Z" fill="#24B0AF"/>
<path d="M120.707 36.3527C121.175 33.895 122.318 33.1564 124.629 33.7071C124.424 35.9272 123.281 36.7298 120.707 36.3527Z" fill="#357A57"/>
<path d="M116.815 37.2762C114.725 38.8544 113.318 38.6154 111.906 36.5433C113.626 34.9622 115.079 35.1515 116.815 37.2762Z" fill="#357A57"/>
<path d="M122.86 40.2252C122.597 38.5744 123.147 37.8486 124.722 37.6636C125.097 39.1052 124.561 39.8708 122.86 40.2252Z" fill="#357A57"/>
<path d="M126.078 38.943C126.181 37.2751 126.877 36.6888 128.454 36.8567C128.506 38.3453 127.816 38.9743 126.078 38.943Z" fill="#357A57"/>
<path d="M117.648 29.7409C118.094 27.9933 118.948 27.5137 120.586 28.0132C120.341 29.6014 119.484 30.128 117.648 29.7409Z" fill="#357A57"/>
<path d="M139.033 32.6216C137.706 34.2411 136.393 34.3023 134.809 32.818C136.169 31.1885 137.469 31.1273 139.033 32.6216Z" fill="#24B0AF"/>
<path d="M127.077 22.9712C128.897 23.1875 129.426 23.9574 129.03 25.705C127.309 25.4417 126.863 24.8468 127.077 22.9712Z" fill="#357A57"/>
<path d="M124.534 22.8789C122.646 22.9131 122.154 22.442 122.051 20.6261C123.769 20.5322 124.268 20.9691 124.534 22.8789Z" fill="#357A57"/>
<path d="M125.519 42.8977C124.88 43.6278 124.075 44.2269 123.429 44.9513C122.968 45.4679 122.535 46.0087 122.147 46.5836C120.463 49.0755 120.702 50.8999 121.85 53.5938C122.577 55.2959 122.46 55.5022 120.668 55.6032C119.743 55.6559 118.322 55.6217 116.712 55.5819C115.613 55.5549 115.156 55.4609 115.531 54.4448C115.68 54.0421 115.906 53.2153 116.025 52.8026C116.453 51.3254 116.542 49.74 116.025 48.2728C115.507 46.8084 114.438 45.7497 113.353 44.6937C112.635 43.9935 112.004 43.2578 111.385 42.4737C110.776 41.7038 110.201 40.8229 109.912 39.8765C109.805 39.5236 109.738 39.1479 109.813 38.7878C109.909 38.321 110.327 37.8229 110.839 37.9539C111.404 38.099 111.81 38.7408 112.202 39.1265C116.5 43.3645 120.207 43.5367 122.04 42.3669C123.202 41.6241 125.137 40.0003 125.891 40.6122C126.509 41.1132 126.143 42.1165 125.737 42.6359C125.667 42.7227 125.595 42.8109 125.519 42.8977Z" fill="#357A57"/>
<path d="M104.234 39.3056C106.859 38.16 108.869 39.1405 109.602 41.8445C107.285 43.2021 104.994 42.1504 104.234 39.3056Z" fill="#24B0AF"/>
<path d="M115.55 26.8754C114.08 28.5418 112.371 28.613 110.746 27.076C111.928 25.3285 113.918 25.2445 115.55 26.8754Z" fill="#24B0AF"/>
<path d="M102.09 30.9979C102.513 28.8462 103.944 28.0592 106.125 28.7821C105.729 31.042 104.145 31.9116 102.09 30.9979Z" fill="#24B0AF"/>
<path d="M120.668 26.8751C121.026 24.7049 122.109 23.9706 124.253 24.3505C124.202 26.377 122.939 27.2949 120.668 26.8751Z" fill="#24B0AF"/>
<path d="M116.582 40.9226C117.207 37.9085 118.651 36.9564 121.369 37.6424C121.15 40.4758 119.462 41.6697 116.582 40.9226Z" fill="#24B0AF"/>
<path d="M114.065 33.7101C112.707 35.4549 111.127 35.5317 109.641 33.9222C110.983 32.1661 112.404 32.0978 114.065 33.7101Z" fill="#24B0AF"/>
<path d="M127.367 30.0516C128.781 28.408 129.975 28.4307 131.348 30.1299C130.183 31.9913 128.559 31.96 127.367 30.0516Z" fill="#24B0AF"/>
<path d="M140.984 33.6332C143.147 32.8846 144.196 33.3927 144.769 35.3921C142.897 36.2445 141.718 35.7223 140.984 33.6332Z" fill="#357A57"/>
<path d="M139.282 37.8574C141.047 37.8902 141.674 38.5377 141.564 40.1415C139.983 40.2596 139.265 39.568 139.282 37.8574Z" fill="#24B0AF"/>
<path d="M118.663 19.8477C120.561 20.8524 120.885 21.793 120.034 23.6104C118.181 22.933 117.737 21.7817 118.663 19.8477Z" fill="#24B0AF"/>
<path d="M136.161 55.2575C136.289 55.5222 136.075 55.8281 135.782 55.8338C135.113 55.8452 133.648 55.8665 133.384 55.8281C133.041 55.7769 131.047 53.3291 130.856 53.1441C130.708 52.9919 129.511 54.5801 128.92 55.3969C128.92 55.3969 128.636 55.7726 128.432 55.8338C127.759 56.0387 125.8 56.0146 124.923 55.8039C124.802 55.774 124.612 55.4681 124.561 55.3528C124.351 54.8789 124.017 53.7433 124.093 52.1138C124.178 50.3677 125.786 48.7396 126.175 48.3682C126.223 48.3226 126.26 48.2671 126.281 48.2045C126.304 48.1376 126.346 48.0537 126.418 48.0366C126.444 48.0295 126.541 48.0551 126.688 48.0978C126.693 48.0765 126.695 48.0579 126.695 48.0366C126.703 47.8402 126.703 47.3948 126.346 47.14C126.346 47.14 125.408 46.0371 126.239 44.9271C127.067 43.8171 128.042 43.531 128.917 43.8712C129.79 44.2156 130.323 45.438 130.32 45.8336C130.32 46.2293 129.999 46.447 129.996 46.5665C129.996 46.6832 130.252 47.0604 130.313 47.1685C130.374 47.2767 130.197 47.4659 130.104 47.4332C130.013 47.4047 130.223 47.5784 130.237 47.6324C130.251 47.6908 130.093 47.705 130.19 47.7121C130.258 47.7192 130.267 47.8573 130.151 47.9085C130.074 47.9441 130.074 48.1334 130.018 48.2387C129.878 48.5105 129.564 48.5575 129.329 48.5176C129.098 48.482 128.633 48.5176 128.589 48.5717C128.582 48.5788 128.568 48.6557 128.554 48.7353C128.647 48.7709 128.701 48.7894 128.701 48.7894C128.701 48.7894 128.687 49.1082 128.801 49.4526C128.83 49.5437 128.869 49.6333 128.92 49.7216C129.162 50.1385 128.892 50.7519 129.202 50.9298C129.516 51.1077 130.023 50.4402 130.351 50.2154C130.675 49.9934 130.868 50.0745 131.059 50.4986C131.25 50.9298 131.412 50.658 131.657 50.4402C131.899 50.2225 133.258 50.8828 133.409 51.213C133.498 51.4136 133.207 51.6783 132.959 51.8591C132.787 51.9857 132.737 52.2205 132.843 52.407C133.088 52.8339 133.497 53.5255 133.668 53.6977C133.92 53.951 134.785 54.5829 135.655 54.8803C135.946 54.9785 136.094 55.1166 136.161 55.2575Z" fill="#357A57"/>
</svg>
