<svg width="242" height="96" viewBox="0 0 242 96" fill="none" xmlns="http://www.w3.org/2000/svg">
<g clip-path="url(#clip0)">
<path d="M111.76 69.7241H110.594V75.9438H111.76V69.7241Z" fill="#E2A227"/>
<path d="M119.479 73.3298C119.479 73.6002 119.479 73.9607 119.569 74.141C119.479 73.9607 119.3 73.6002 119.121 73.3298L116.788 69.7241H115.621V75.9438H116.788V72.3382C116.788 72.0678 116.788 71.7072 116.698 71.5269C116.788 71.7072 116.967 72.0678 117.146 72.3382L119.479 75.9438H120.646V69.7241H119.479V73.3298Z" fill="#E2A227"/>
<path d="M123.605 70.8058H125.669V75.9438H126.836V70.8058H128.9V69.7241H123.605V70.8058Z" fill="#E2A227"/>
<path d="M133.026 73.3298H135.179V72.3382H133.026V70.8058H135.628V69.7241H131.859V75.9438H135.807V74.9523H133.026V73.3298Z" fill="#E2A227"/>
<path d="M142.535 73.3298C143.163 73.0593 143.522 72.4283 143.522 71.6171C143.522 70.8058 143.163 70.1748 142.535 69.9044C142.266 69.8143 141.907 69.7241 141.279 69.7241H139.215V75.9438H140.381V73.6903H141.368L142.625 75.9438H143.971L142.714 73.6002C142.714 73.4199 142.625 73.3298 142.535 73.3298ZM140.471 70.8058H141.279C142.086 70.8058 142.355 71.0762 142.355 71.7072C142.355 72.3382 141.996 72.6086 141.458 72.6086H140.471V70.8058Z" fill="#E2A227"/>
<path d="M150.972 73.3298C150.972 73.6002 150.972 73.9607 151.061 74.141C150.972 73.9607 150.792 73.6002 150.613 73.3298L148.28 69.7241H147.113V75.9438H148.28V72.3382C148.28 72.0678 148.28 71.7072 148.19 71.5269C148.28 71.7072 148.459 72.0678 148.639 72.3382L150.972 75.9438H152.138V69.7241H150.972V73.3298Z" fill="#E2A227"/>
<path d="M158.601 69.7241H157.345L155.191 75.9438V76.034H156.448L156.986 74.4114H159.05L159.588 75.9438H160.844L158.601 69.7241ZM157.973 70.9861C157.973 71.1664 158.152 71.6171 158.152 71.7974L158.691 73.4199H157.165L157.704 71.7974C157.794 71.5269 157.883 71.1664 157.973 70.9861Z" fill="#E2A227"/>
<path d="M162.457 70.8058H164.431V75.9438H165.687V70.8058H167.661V69.7241H162.457V70.8058Z" fill="#E2A227"/>
<path d="M172.057 69.7241H170.891V75.9438H172.057V69.7241Z" fill="#E2A227"/>
<path d="M178.25 69.6338C176.455 69.6338 175.02 71.076 175.02 72.7887C175.02 74.6817 176.365 76.0338 178.25 76.0338C180.134 76.0338 181.48 74.5915 181.48 72.7887C181.48 70.9859 180.044 69.6338 178.25 69.6338ZM178.25 70.7155C179.327 70.7155 180.224 71.6169 180.224 72.7887C180.224 74.0507 179.327 74.9521 178.25 74.9521C177.083 74.9521 176.276 74.0507 176.276 72.7887C176.276 71.6169 177.173 70.7155 178.25 70.7155Z" fill="#E2A227"/>
<path d="M188.03 73.3298C188.03 73.6002 188.03 73.9607 188.12 74.141C188.03 73.9607 187.851 73.6002 187.671 73.3298L185.338 69.7241H184.172V75.9438H185.338V72.3382C185.338 72.0678 185.338 71.7072 185.249 71.5269C185.338 71.7072 185.518 72.0678 185.697 72.3382L188.03 75.9438H189.197V69.7241H188.03V73.3298Z" fill="#E2A227"/>
<path d="M195.39 69.7241H194.134L191.98 75.9438V76.034H193.237L193.775 74.4114H195.839L196.377 75.9438H197.633L195.39 69.7241ZM194.762 70.9861C194.762 71.1664 194.942 71.6171 194.942 71.7974L195.48 73.4199H193.955L194.493 71.7974C194.672 71.5269 194.762 71.1664 194.762 70.9861Z" fill="#E2A227"/>
<path d="M201.581 74.9523V69.7241H200.414V75.9438H204.272V74.9523H201.581Z" fill="#E2A227"/>
<path d="M128.45 48.3606H113.375V36.2817H110.594V62.8733H113.375V50.7944H128.45V62.8733H131.142V36.2817H128.45V48.3606Z" fill="#593224"/>
<path d="M148.819 35.8311C141.282 35.8311 135.359 41.7804 135.359 49.3522C135.359 57.1043 141.282 63.2339 148.819 63.2339C156.356 63.2339 162.278 57.1043 162.278 49.3522C162.278 41.7804 156.356 35.8311 148.819 35.8311ZM148.819 60.7099C142.897 60.7099 138.231 55.7522 138.231 49.3522C138.231 43.2226 142.897 38.355 148.819 38.355C154.741 38.355 159.407 43.1325 159.407 49.3522C159.407 55.7522 154.741 60.7099 148.819 60.7099Z" fill="#593224"/>
<path d="M176.277 36.2817H167.125V62.8733H169.907V52.5071H176.277C181.213 52.5071 184.443 49.262 184.443 44.3944C184.533 39.5268 181.213 36.2817 176.277 36.2817ZM169.907 38.8057H176.008C179.508 38.8057 181.661 40.9691 181.661 44.3043C181.661 47.8198 179.508 49.9831 175.919 49.9831H169.907V38.8057Z" fill="#593224"/>
<path d="M203.911 38.8057V36.2817H189.465V62.8733H203.911V60.3493H192.246V50.7944H203.911V48.2705H192.246V38.8057H203.911Z" fill="#593224"/>
<path d="M68.0615 27.538H69.4971C69.6766 27.538 69.8561 27.3577 69.9458 27.1775L70.3944 16.3606C70.3944 16.2704 70.3944 16.1803 70.3047 16.0901C70.215 16 70.1253 16 70.0355 16H67.6128C67.5231 16 67.4334 16.0901 67.3436 16.0901C67.2539 16.1803 67.2539 16.2704 67.2539 16.3606L67.7026 27.1775C67.7026 27.4479 67.882 27.538 68.0615 27.538Z" fill="#E2A227"/>
<path d="M69.497 68.1011H68.0614C67.8819 68.1011 67.6127 68.2814 67.6127 68.4616L67.1641 79.2785C67.1641 79.3687 67.1641 79.4588 67.2538 79.549C67.3435 79.6391 67.4333 79.6391 67.523 79.6391H69.9457C70.0354 79.6391 70.1251 79.549 70.2149 79.549C70.3046 79.4588 70.3046 79.3687 70.3046 79.2785L69.856 68.4616C69.9457 68.2814 69.7662 68.1011 69.497 68.1011Z" fill="#E2A227"/>
<path d="M53.439 34.0282C53.5287 34.1183 53.6184 34.1183 53.7081 34.1183C53.7979 34.1183 53.8876 34.1183 53.9773 34.0282L54.9644 33.0366C55.1438 32.8563 55.1438 32.5859 54.9644 32.4958L47.6963 24.4733C47.6065 24.3831 47.5168 24.3831 47.4271 24.293C47.3373 24.293 47.2476 24.293 47.1579 24.3831L45.453 26.0958C45.3633 26.1859 45.3633 26.2761 45.3633 26.3662C45.3633 26.4563 45.453 26.5465 45.5427 26.6366L53.439 34.0282Z" fill="#E2A227"/>
<path d="M84.1248 61.6113C83.9454 61.431 83.6762 61.431 83.5865 61.6113L82.5994 62.6028C82.42 62.7831 82.42 63.0535 82.5994 63.1437L89.8676 71.1662C89.9573 71.2564 90.047 71.2564 90.1367 71.3465C90.2265 71.3465 90.3162 71.3465 90.4059 71.2564L92.1108 69.5437C92.2005 69.4535 92.2005 69.3634 92.2005 69.2733C92.2005 69.1831 92.1108 69.093 92.0211 69.0028L84.1248 61.6113Z" fill="#E2A227"/>
<path d="M48.6807 48.5409V47.0987C48.6807 46.9184 48.5013 46.648 48.3218 46.648L37.5542 46.1973C37.4645 46.1973 37.3748 46.1973 37.285 46.2874C37.1953 46.3775 37.1953 46.4677 37.1953 46.5578V48.9916C37.1953 49.0818 37.285 49.1719 37.285 49.2621C37.3748 49.3522 37.4645 49.3522 37.5542 49.3522L48.3218 48.9015C48.5013 48.9916 48.6807 48.8113 48.6807 48.5409Z" fill="#E2A227"/>
<path d="M100.454 46.2874C100.365 46.1973 100.275 46.1973 100.185 46.1973L89.4175 46.648C89.2381 46.648 89.0586 46.8283 89.0586 47.0987V48.5409C89.0586 48.7212 89.2381 48.9015 89.4175 48.9916L100.185 49.4423C100.275 49.4423 100.365 49.4423 100.454 49.3522C100.544 49.2621 100.544 49.1719 100.544 49.0818V46.648C100.544 46.4677 100.544 46.3775 100.454 46.2874Z" fill="#E2A227"/>
<path d="M54.0633 61.6113C53.8838 61.431 53.6146 61.431 53.5249 61.6113L45.539 68.9127C45.4492 69.0028 45.4492 69.093 45.4492 69.1831C45.4492 69.2733 45.4492 69.3634 45.539 69.4535L47.2438 71.1662C47.3335 71.2564 47.4233 71.2564 47.513 71.2564C47.6027 71.2564 47.6925 71.1662 47.7822 71.0761L55.0503 63.0535C55.2298 62.8733 55.2298 62.6028 55.0503 62.5127L54.0633 61.6113Z" fill="#E2A227"/>
<path d="M83.5866 34.0284C83.6763 34.1185 83.766 34.1185 83.8558 34.1185C83.9455 34.1185 84.0352 34.1185 84.125 34.0284L92.1109 26.727C92.2006 26.6368 92.2006 26.5467 92.2904 26.4565C92.2904 26.3664 92.2904 26.2763 92.2006 26.1861L90.4958 24.4734C90.406 24.3833 90.3163 24.3833 90.2266 24.3833C90.1368 24.3833 90.0471 24.4734 89.9574 24.5636L82.6893 32.5861C82.5098 32.7664 82.5098 33.0368 82.6893 33.127L83.5866 34.0284Z" fill="#E2A227"/>
<path d="M78.0193 59.7179C76.0453 60.7996 73.3534 61.7912 70.3026 61.7912C64.2009 61.7912 56.8431 56.7433 56.8431 48.9912C56.8431 45.1151 59.8042 42.2306 63.6626 42.2306C67.162 42.2306 69.1361 43.763 69.9436 44.5743L68.4182 45.8362C68.3285 45.9264 68.2388 46.0165 68.3285 46.1968C68.3285 46.2869 68.4182 46.4672 68.5977 46.4672L76.7631 49.1715H76.8528C77.0323 49.1715 77.2117 48.9912 77.2117 48.8109C77.2117 48.7208 77.2117 48.7207 77.2117 48.6306L76.3144 40.1574C76.3144 40.0672 76.2247 39.8869 76.135 39.8869C76.0453 39.7968 75.8658 39.8869 75.7761 39.9771L73.9815 41.2391C72.7253 39.9771 69.3155 37.0024 64.3804 37.0024C57.6507 37.0024 53.2539 42.4109 53.2539 48.0898C53.2539 55.5715 59.4453 63.4137 68.7772 63.4137C72.3663 63.4137 75.7761 62.0616 78.2885 60.1686C78.6474 59.8982 78.6474 59.8081 78.5577 59.7179C78.5577 59.5377 78.468 59.5377 78.0193 59.7179Z" fill="#E2A227"/>
<path d="M68.7835 32.3154C65.1943 32.3154 61.7846 33.6675 59.2722 35.5605C58.9132 35.8309 58.9132 35.9211 59.003 36.0112C59.0927 36.1013 59.1824 36.1915 59.5414 35.9211C61.5154 34.8394 64.2073 33.8478 67.2581 33.8478C73.3597 33.8478 80.7176 38.8957 80.7176 46.6478C80.7176 50.5239 77.7565 53.4084 73.8981 53.4084C70.3986 53.4084 68.4246 51.876 67.617 51.0647L69.1424 49.8028C69.2322 49.7126 69.3219 49.6225 69.2322 49.4422C69.2322 49.3521 69.1424 49.1718 68.963 49.1718L60.7976 46.4675C60.7078 46.4675 60.5284 46.4675 60.4386 46.5577C60.3489 46.6478 60.2592 46.738 60.3489 46.9182L61.2462 55.4816C61.2462 55.5718 61.3359 55.7521 61.4257 55.7521C61.4257 55.7521 61.5154 55.7521 61.6051 55.7521C61.6949 55.7521 61.7846 55.7521 61.8743 55.6619L63.4895 54.3098C64.7457 55.5718 68.1554 58.5464 73.0905 58.5464C79.8203 58.5464 84.217 53.138 84.217 47.4591C84.3068 40.1577 78.1154 32.3154 68.7835 32.3154Z" fill="#E2A227"/>
</g>
<defs>
<clipPath id="clip0">
<rect width="242" height="96" fill="white"/>
</clipPath>
</defs>
</svg>
