<svg width="242" height="96" viewBox="0 0 242 96" fill="none" xmlns="http://www.w3.org/2000/svg">
<path d="M14.0117 50.4795C14.2385 50.4091 14.4757 50.3793 14.7127 50.3913H120.656C120.854 50.3913 121.052 50.4167 121.255 50.43C121.243 50.5763 121.232 50.7227 121.22 50.8678C120.981 50.8678 120.741 50.8751 120.501 50.8751H14.8589C14.5689 50.8751 14.2597 50.9295 14.0117 50.719V50.4795Z" fill="#F58A49"/>
<path d="M136.38 50.4296C136.62 50.4175 136.859 50.3945 137.099 50.3945C167.123 50.3945 197.146 50.3945 227.17 50.3945C227.446 50.3945 227.728 50.3631 227.994 50.4792V50.842C227.754 50.8541 227.515 50.8771 227.275 50.8771H136.918C136.738 50.8771 136.559 50.8662 136.379 50.8614C136.379 50.7211 136.38 50.5735 136.38 50.4296Z" fill="#F58B49"/>
<path d="M227.989 30.7719C227.722 30.9678 227.413 30.8928 227.12 30.8928C196.501 30.8928 165.882 30.8928 135.263 30.8928C135.023 30.8928 134.784 30.8928 134.544 30.9001C134.484 30.7646 134.424 30.6292 134.363 30.4925C134.566 30.3715 134.792 30.4247 135.007 30.4247C165.748 30.4247 196.49 30.4247 227.232 30.4247C227.488 30.4247 227.75 30.3885 227.989 30.5276V30.7719Z" fill="#F4843F"/>
<path d="M106.607 30.8956H14.6959C14.4563 30.8956 14.2166 30.927 14.0117 30.7746V30.5327C14.2298 30.4118 14.4682 30.4287 14.7043 30.4287C45.0325 30.4287 75.3604 30.4287 105.688 30.4287C105.886 30.4287 106.083 30.4553 106.281 30.4698C106.34 30.4856 106.391 30.4892 106.385 30.4033V30.4118C106.861 30.3779 106.672 30.667 106.607 30.8956Z" fill="#F4843F"/>
<path d="M110.334 75.988C110.15 75.7751 109.875 75.8017 109.641 75.7195C108.723 75.3989 108.288 74.799 108.286 73.8242C108.286 72.555 108.286 71.2862 108.286 70.0179C108.286 69.5619 108.251 69.1555 107.652 69.1482C107.532 69.1482 107.402 69.0986 107.42 68.9366C107.433 68.8156 107.539 68.7926 107.645 68.7926H110.34C110.442 68.7926 110.543 68.7927 110.549 68.9342C110.553 68.9592 110.551 68.9848 110.544 69.009C110.536 69.0332 110.524 69.0555 110.507 69.0743C110.49 69.0931 110.469 69.108 110.446 69.1178C110.423 69.1277 110.398 69.1323 110.373 69.1313C109.621 69.1374 109.675 69.6768 109.681 70.1848C109.694 71.3507 109.693 72.5191 109.731 73.6851C109.757 74.4858 110.102 74.8801 110.827 75.0494C112.461 75.4304 113.344 74.793 113.424 73.1142C113.475 72.0256 113.436 70.9371 113.433 69.8485C113.433 69.4712 113.334 69.1724 112.874 69.1628C112.746 69.1628 112.558 69.1543 112.574 68.9535C112.591 68.7527 112.777 68.7975 112.905 68.7963C113.465 68.7963 114.023 68.7963 114.583 68.7963C114.693 68.7963 114.843 68.7539 114.861 68.9354C114.879 69.1168 114.747 69.1446 114.629 69.1458C114.03 69.1458 113.998 69.5643 113.994 70.0082C113.985 71.2177 114.029 72.4272 113.949 73.6367C113.858 75.0047 113.285 75.584 111.95 75.8731C111.867 75.8912 111.799 75.9106 111.772 75.994L110.334 75.988Z" fill="#F37C32"/>
<path d="M190.251 75.9881C190.239 75.9724 190.23 75.9482 190.214 75.9421C188.177 75.1342 188.147 75.0882 188.147 72.87C188.147 71.9024 188.147 70.9348 188.147 69.9672C188.147 69.5439 188.126 69.1399 187.548 69.1423C187.408 69.1423 187.25 69.0939 187.287 68.9004C187.319 68.7311 187.474 68.7891 187.58 68.7891C188.399 68.7891 189.217 68.7891 190.035 68.7891C190.177 68.7891 190.395 68.7141 190.409 68.9621C190.418 69.1556 190.224 69.1544 190.095 69.158C189.713 69.1713 189.551 69.3999 189.559 69.7398C189.584 71.1077 189.447 72.4781 189.644 73.8412C189.753 74.5923 190.02 74.9032 190.759 75.0507C192.146 75.3277 193.308 74.9092 193.275 73.2437C193.254 72.0971 193.287 70.9457 193.301 69.8027C193.301 69.3987 193.153 69.1532 192.716 69.1459C192.582 69.1459 192.408 69.1193 192.437 68.9161C192.468 68.6948 192.657 68.7952 192.775 68.7952C193.333 68.7855 193.893 68.7952 194.452 68.7952C194.572 68.7952 194.712 68.7843 194.726 68.9512C194.741 69.1181 194.599 69.1508 194.487 69.1544C193.888 69.1689 193.864 69.5922 193.865 70.0361C193.865 71.1029 193.865 72.1709 193.865 73.2377C193.865 74.8282 193.356 75.474 191.817 75.878C191.77 75.8913 191.737 75.953 191.697 75.9917L190.251 75.9881Z" fill="#F37C33"/>
<path d="M44.8026 75.9878C44.7954 75.9696 44.793 75.943 44.7798 75.9334C44.4204 75.6915 43.7997 75.8124 43.6499 75.3915C43.5169 75.0105 43.6751 74.5243 43.7146 74.0864C43.7278 73.9437 43.6487 73.7236 43.8955 73.7139C44.1424 73.7042 44.098 73.9195 44.0992 74.0659C44.1064 74.8049 44.5725 75.1278 45.1944 75.2996C45.8618 75.4846 46.5028 75.4725 47.0276 74.9367C47.6459 74.3029 47.4554 73.3958 46.6298 73.1019C46.0883 72.9072 45.5227 72.7778 44.9775 72.5927C44.11 72.2976 43.6427 71.6977 43.614 70.8825C43.5897 70.4567 43.7 70.0342 43.9289 69.6758C44.1578 69.3173 44.4935 69.0415 44.8877 68.888C45.8965 68.4901 46.9246 68.5602 47.9323 68.888C48.13 68.9521 48.2786 69.0319 48.1971 69.3186C48.1204 69.5835 48.1444 69.8774 48.1108 70.1556C48.0917 70.3176 48.1683 70.5571 47.8712 70.5462C47.6184 70.5353 47.695 70.3225 47.6795 70.1834C47.6076 69.5496 47.1499 69.1843 46.3387 69.1226C45.6689 69.0718 45.0398 69.4855 44.9128 70.0624C44.7858 70.6394 44.9763 71.0397 45.5479 71.2586C46.0475 71.4497 46.5747 71.5695 47.0912 71.7134C47.8928 71.9359 48.529 72.3315 48.6237 73.2567C48.7303 74.3259 48.2965 75.1302 47.3787 75.5814C47.0492 75.7422 46.6981 75.8596 46.3567 75.9962L44.8026 75.9878Z" fill="#F37E36"/>
<path d="M174.32 75.9878C174.308 75.9721 174.298 75.9503 174.283 75.9418C173.886 75.7229 173.247 75.8269 173.074 75.4133C172.915 75.0347 173.088 74.5122 173.121 74.0538C173.131 73.9328 173.059 73.749 173.264 73.7139C173.504 73.674 173.504 73.8651 173.538 74.0187C173.801 75.1157 174.678 75.6419 175.755 75.3492C176.354 75.1895 176.811 74.6706 176.817 74.1155C176.825 73.4781 176.412 73.2035 175.869 73.0451C175.354 72.8939 174.837 72.7463 174.332 72.5613C173.594 72.2976 173.121 71.7884 173.062 70.9744C172.997 70.1169 173.301 69.4021 174.069 69.0029C175.16 68.4284 176.303 68.5312 177.437 68.9074C177.611 68.9654 177.701 69.0706 177.629 69.2702C177.519 69.5811 177.558 69.9076 177.545 70.2281C177.545 70.3648 177.567 70.5245 177.356 70.5341C177.321 70.541 177.285 70.5393 177.251 70.529C177.216 70.5188 177.185 70.5003 177.159 70.4753C177.134 70.4502 177.115 70.4193 177.103 70.3851C177.092 70.3509 177.089 70.3145 177.095 70.2789C177.125 69.8592 177.018 69.5363 176.603 69.3513C176.113 69.1311 175.62 69.0114 175.102 69.2206C174.623 69.4141 174.323 69.7431 174.305 70.3092C174.287 70.8752 174.61 71.1208 175.047 71.2768C175.535 71.4461 176.039 71.5659 176.535 71.7062C177.31 71.9263 177.938 72.3109 178.035 73.2071C178.155 74.2776 177.748 75.0299 176.893 75.5318C176.534 75.7459 176.094 75.7338 175.758 75.9866L174.32 75.9878Z" fill="#F37E36"/>
<path d="M182.82 75.9877C182.656 75.7761 182.395 75.8124 182.179 75.7458C180.431 75.2391 179.501 73.8711 179.592 71.9105C179.665 70.3115 180.851 69.0464 182.531 68.7392C183.631 68.522 184.769 68.6055 185.826 68.9811C186.134 69.0911 186.219 69.2568 186.149 69.5689C186.082 69.8604 186.065 70.1628 186.016 70.4591C185.99 70.6187 185.959 70.799 185.738 70.7736C185.516 70.7482 185.568 70.5643 185.579 70.4409C185.649 69.7237 185.136 69.4673 184.621 69.3282C182.676 68.8045 180.982 69.783 181.107 72.2528C181.226 74.6561 183.134 75.8704 185.402 75.0516C185.625 74.9717 185.843 74.8774 186.121 74.7698C186.121 75.1556 185.981 75.3987 185.657 75.5209C185.234 75.6817 184.808 75.8305 184.384 75.9841L182.82 75.9877Z" fill="#F37E36"/>
<path d="M121 75.8657C121 75.9068 121 75.948 121 75.9867H119.203C119.203 75.9456 119.213 75.9032 119.216 75.8657H121Z" fill="#F58B49"/>
<path d="M106.605 30.8952C106.67 30.6666 106.861 30.3776 106.377 30.4114C106.388 29.8458 106.551 29.2938 106.849 28.8149C107.468 27.8025 108.004 26.7394 108.702 25.7766C108.794 25.6484 108.928 25.6363 109.061 25.6024C109.863 25.3956 110.174 24.9662 110.325 24.1619C110.464 23.4169 110.648 22.6537 111.566 22.4299C111.915 22.344 112.081 22.0465 112.201 21.697C112.449 20.9773 112.58 21.0245 113.245 21.27C113.706 21.4405 114.297 21.53 114.791 21.2422C115.75 20.6834 116.754 20.4899 117.863 20.4354C118.564 20.4016 119.31 20.4608 120.02 20.2226C120.655 20.0073 120.94 20.3544 120.979 20.9906C121.005 21.4006 121.049 21.7804 120.958 22.1904C120.904 22.4323 121.136 22.5823 121.362 22.6392C121.71 22.7262 122.065 22.7795 122.412 22.8702C122.758 22.9609 123.131 22.9984 123.207 23.4689C123.237 23.6442 123.435 23.6842 123.581 23.735C123.787 23.8075 124.005 23.845 124.214 23.9116C124.64 24.047 125.183 24.5296 125.053 23.4652C124.999 23.0214 125.667 22.6621 126.21 22.8036C126.833 22.9657 127.432 23.2524 128.044 23.4084C128.789 23.6007 129.51 24.0773 130.386 23.6503C131.165 23.2717 131.323 23.4217 131.59 24.2696C132.009 25.6 132.575 26.8531 133.435 27.9573C133.282 28.706 134.006 29.0229 134.256 29.5769C134.409 29.9179 134.221 30.207 134.357 30.4937C134.418 30.6303 134.476 30.7658 134.539 30.9013C134.524 30.9612 134.528 31.0242 134.549 31.0821C134.57 31.1399 134.609 31.1899 134.659 31.2254C135.169 31.5242 135.307 32.0237 135.453 32.5559C135.573 33.001 136.098 32.7808 136.412 33.0336C136.041 33.2151 136.1 33.3372 136.396 33.5973C136.983 34.1113 137.63 34.6048 137.714 35.5095C137.742 35.7998 138.011 35.9691 138.355 35.8493C139.249 35.5373 140.253 35.6389 141.092 35.0704C141.287 34.9374 141.738 34.993 141.703 35.4442C141.668 35.8953 141.823 36.217 142.205 36.598C141.711 36.4698 141.624 36.6404 141.466 36.9887C140.665 38.7437 140.015 40.6075 138.266 41.7384C137.684 42.1146 137.308 42.7351 136.922 43.3338C136.554 43.9046 136.057 44.3739 135.753 45.0174C135.483 45.5871 135.41 46.0854 135.799 46.5522C135.99 46.7796 135.979 46.9296 135.853 47.1195C135.655 47.4146 135.672 47.8125 135.872 47.9577C136.306 48.2722 136.173 48.6677 136.208 49.0571C136.25 49.5167 136.318 49.9727 136.374 50.4311C136.374 50.5763 136.374 50.7202 136.374 50.8641C136.34 51.5729 135.963 52.0519 135.379 52.4062C134.841 52.7316 134.21 52.9566 133.948 53.6157C133.903 53.7367 133.773 53.6907 133.696 53.7367C133.307 53.9786 133.053 54.2785 133.302 54.7696C133.511 55.182 133.391 55.5993 133.386 56.0287C133.379 56.8282 132.999 57.1705 132.333 57.3809C132.112 57.4511 132.031 57.641 132.021 57.9022C131.995 58.6388 131.804 59.3077 131.209 59.8241C130.931 60.0839 130.694 60.3859 130.508 60.7192C129.929 61.6747 129.025 62.1948 128.062 62.6435C127.928 62.681 127.788 62.6905 127.65 62.6713C126.871 62.6616 126.107 62.6967 125.363 62.9991C124.843 63.2107 123.911 62.3846 124.007 61.7569C124.154 60.7821 123.76 59.9741 123.259 59.252C122.571 58.259 122.327 57.1959 122.389 56.0239C122.409 55.6477 122.261 55.3151 122.085 54.9982C121.845 54.5785 121.599 54.1697 121.355 53.7561C120.885 52.9602 120.785 52.1438 121.188 51.285C121.243 51.1641 121.209 51.0093 121.216 50.8702C121.223 50.7311 121.237 50.5775 121.249 50.4311C121.384 50.0974 121.589 49.7967 121.849 49.5494C121.978 49.4351 122.063 49.2785 122.089 49.1071C122.116 48.9357 122.081 48.7604 121.992 48.612C121.771 48.1706 121.713 47.7267 121.662 47.2235C121.573 46.3563 121.327 45.4564 120.689 44.7525C120.248 44.2687 119.79 43.7849 119.558 43.139C119.516 43.0338 119.498 42.9206 119.505 42.8076C119.511 42.6945 119.543 42.5843 119.596 42.4847C119.828 41.9416 119.937 41.3357 120.032 40.7442C120.093 40.3608 119.637 39.9423 119.25 39.9641C119.033 39.9762 118.818 40.0318 118.603 40.0657C118.174 40.1322 117.86 40.0221 117.776 39.5347C117.687 39.0231 117.346 38.8562 116.87 38.8598C116.042 38.8598 115.329 39.2227 114.638 39.6145C114.353 39.7766 114.126 39.8226 113.813 39.7052C113.158 39.4633 112.51 39.4452 111.871 39.8347C111.32 40.1709 110.748 40.0366 110.194 39.5129C109.639 38.9892 109.265 38.2792 108.431 38.1474C108.298 38.1268 108.297 38.0131 108.311 37.9152C108.356 37.337 108 36.9331 107.691 36.523C107.534 36.315 107.429 35.9606 107.004 36.1408C106.877 36.1941 106.68 36.0199 106.639 35.8094C106.557 35.3982 106.416 34.9882 106.407 34.5757C106.399 34.1331 106.295 33.8041 105.863 33.6263C106.809 32.8716 107.032 32.0213 106.605 30.8952Z" fill="#3B617E"/>
<path d="M98.817 75.6175C99.3394 75.3961 99.3394 74.9728 99.3334 74.5132C99.3166 72.9844 99.3202 71.4556 99.3334 69.9268C99.3334 69.5046 99.3154 69.1503 98.7654 69.1527C98.6253 69.1527 98.4671 69.1007 98.5006 68.9108C98.5294 68.7487 98.6852 68.7898 98.7954 68.7898C100.353 68.8237 101.899 68.7245 103.45 68.8358C105.607 68.9918 106.342 70.6803 106.086 72.4256C105.776 74.5688 104.062 75.8775 101.844 75.8049C100.858 75.7735 99.869 75.8049 98.8817 75.8049C98.8613 75.7396 98.8361 75.6779 98.817 75.6175ZM100.753 72.2635C100.753 73.1102 100.753 73.9568 100.753 74.8035C100.753 75.0115 100.753 75.2292 101.03 75.2449C102.708 75.3381 104.216 75.0212 104.561 72.9687C104.62 72.6167 104.585 72.243 104.584 71.8801C104.584 70.5025 103.95 69.6643 102.639 69.3885C102.16 69.2869 101.651 69.3305 101.156 69.299C100.843 69.2785 100.742 69.42 100.748 69.726C100.769 70.5714 100.753 71.4169 100.753 72.2635Z" fill="#F37D33"/>
<path d="M160.427 72.2665C160.427 73.0732 160.427 73.8788 160.427 74.6855C160.427 75.104 160.533 75.4027 161.026 75.3918C161.164 75.3918 161.328 75.3918 161.304 75.6035C161.286 75.7704 161.149 75.7595 161.031 75.7595C160.173 75.7595 159.314 75.7595 158.456 75.7595C158.323 75.7595 158.151 75.7874 158.163 75.566C158.175 75.3447 158.355 75.3822 158.477 75.3906C158.926 75.4233 159.025 75.1379 159.026 74.7859C159.032 73.1337 159.026 71.4815 159.026 69.8269C159.026 69.3891 158.851 69.1508 158.396 69.1496C158.276 69.1496 158.156 69.1049 158.156 68.9404C158.163 68.7517 158.307 68.7904 158.417 68.7904C159.752 68.7904 161.088 68.7831 162.423 68.8182C163.104 68.8363 163.678 69.1097 163.861 69.8499C163.963 70.2241 163.932 70.6227 163.774 70.9762C163.615 71.3298 163.338 71.616 162.992 71.7851C162.44 72.0669 162.445 72.281 162.784 72.7334C163.275 73.3901 163.702 74.0965 164.148 74.7895C164.303 75.0314 164.455 75.2661 164.748 75.358C164.867 75.3979 164.972 75.4426 164.956 75.5999C164.932 75.8236 164.756 75.7559 164.633 75.7583C164.213 75.7668 163.794 75.7462 163.376 75.768C163.113 75.7813 162.974 75.6567 162.852 75.4523C162.276 74.4847 161.708 73.5171 161.107 72.5713C160.851 72.1649 160.996 72.0875 161.39 72.0052C162.217 71.8468 162.679 70.9965 162.437 70.1474C162.252 69.4943 161.359 69.0891 160.659 69.3129C160.381 69.4024 160.427 69.5995 160.42 69.7967C160.424 70.6143 160.427 71.4404 160.427 72.2665Z" fill="#F37C33"/>
<path d="M59.1711 72.3712C59.1711 73.1562 59.1867 73.9436 59.1651 74.7249C59.1543 75.1349 59.2442 75.395 59.7091 75.3817C59.8421 75.3817 60.011 75.3696 60.0086 75.5788C60.0062 75.788 59.8289 75.7506 59.7019 75.7518C58.8639 75.7518 58.0252 75.7518 57.1856 75.7518C57.0742 75.7518 56.9304 75.7784 56.9065 75.609C56.8753 75.4022 57.0263 75.3804 57.1713 75.3829C57.6302 75.3937 57.7404 75.1204 57.7392 74.7213C57.7336 73.1086 57.7336 71.4987 57.7392 69.8917C57.7392 69.4865 57.6601 69.166 57.1701 69.1539C57.0311 69.1539 56.8669 69.1079 56.9101 68.912C56.9436 68.7608 57.0946 68.7911 57.2096 68.7911C58.5276 68.7911 59.8457 68.7511 61.1505 68.8249C62.0803 68.8769 62.4338 69.241 62.6003 69.9921C62.6688 70.3406 62.6215 70.7021 62.4658 71.0207C62.31 71.3393 62.0545 71.5972 61.7388 71.7543C61.087 72.0652 61.2032 72.3385 61.5459 72.8018C62.0096 73.4283 62.4122 74.1008 62.8328 74.76C62.9958 75.0164 63.1539 75.2716 63.4631 75.3647C63.5829 75.4046 63.6907 75.4542 63.6596 75.6066C63.6284 75.759 63.4918 75.7506 63.3756 75.7518C62.9167 75.7518 62.459 75.7445 62 75.7518C61.7868 75.7518 61.6849 75.6453 61.5843 75.4784C60.9959 74.4999 60.4076 73.5226 59.8001 72.5562C59.5605 72.1704 59.6647 72.0616 60.0805 71.9902C60.2664 71.9551 60.4433 71.8822 60.6005 71.776C60.7576 71.6697 60.8917 71.5324 60.9946 71.3722C61.0975 71.212 61.167 71.0323 61.199 70.8441C61.2309 70.6559 61.2246 70.4632 61.1805 70.2775C61.0103 69.5276 60.2626 69.1128 59.4563 69.2797C59.1387 69.3462 59.1675 69.5482 59.1675 69.7695C59.1699 70.642 59.1711 71.5092 59.1711 72.3712Z" fill="#F37D33"/>
<path d="M50.503 75.7583C51.0039 75.3616 50.9823 74.8669 50.9727 74.3589C50.9583 72.8905 50.9643 71.421 50.9727 69.9514C50.9727 69.5438 50.9631 69.1677 50.4156 69.152C50.3017 69.152 50.1543 69.1205 50.1603 68.9609C50.1699 68.7492 50.3508 68.7903 50.4791 68.7903C52.0128 68.7903 53.5465 68.7903 55.0802 68.7903C55.4157 68.7903 55.4947 68.95 55.4552 69.2391C55.4517 69.3396 55.4336 69.439 55.4013 69.5342C55.2815 69.7761 55.5211 70.22 55.1964 70.2683C54.8166 70.3252 55.0143 69.8728 54.9196 69.6636C54.7998 69.4011 54.5769 69.383 54.378 69.3721C53.8412 69.3431 53.2996 69.3721 52.764 69.3552C52.4992 69.3552 52.4166 69.4761 52.4189 69.718C52.4249 70.3228 52.4189 70.9275 52.4189 71.5323C52.4189 71.6278 52.4357 71.7923 52.4825 71.808C53.0037 71.9822 53.5429 71.8854 54.0749 71.8758C54.4116 71.8685 54.3792 71.5649 54.3936 71.3279C54.402 71.1912 54.4415 71.086 54.6009 71.1017C54.7602 71.1174 54.795 71.2009 54.7914 71.3436C54.7794 71.8871 54.7718 72.4297 54.7686 72.9716C54.7686 73.1228 54.7746 73.2655 54.5697 73.2619C54.402 73.2619 54.3936 73.1264 54.3936 73.0054C54.3936 72.3898 53.9754 72.3753 53.5273 72.3753C52.4154 72.3753 52.4154 72.3753 52.4154 73.4892V73.7311C52.4154 75.3495 52.4537 75.3845 54.0581 75.2527C54.6153 75.2067 55.1437 75.1318 55.1365 74.3698C55.131 74.329 55.1352 74.2875 55.1487 74.2487C55.1623 74.2098 55.1848 74.1748 55.2145 74.1466C55.2441 74.1183 55.28 74.0976 55.3191 74.0861C55.3583 74.0747 55.3996 74.0728 55.4396 74.0807C55.6493 74.1158 55.5798 74.3008 55.5738 74.4206C55.5535 74.7834 55.5007 75.1463 55.4768 75.5006C55.4552 75.8151 55.2299 75.7425 55.0406 75.7655C54.1659 75.8683 53.2912 75.7413 52.4154 75.7655C51.7767 75.7704 51.1453 75.7583 50.503 75.7583Z" fill="#F37C32"/>
<path d="M139.533 75.5997C140.03 75.3578 140.058 74.9441 140.052 74.4785C140.035 72.969 140.042 71.4547 140.052 69.9477C140.052 69.5304 140.004 69.1724 139.471 69.1579C139.351 69.1579 139.214 69.1252 139.219 68.9632C139.226 68.7467 139.407 68.7914 139.534 68.7914C141.049 68.7914 142.564 68.7975 144.079 68.7817C144.438 68.7817 144.537 68.922 144.489 69.2498C144.465 69.4083 144.489 69.5764 144.453 69.7336C144.405 69.9308 144.484 70.2646 144.213 70.2779C143.863 70.296 144.026 69.9453 144.006 69.7675C143.964 69.4216 143.698 69.395 143.485 69.3817C142.908 69.3454 142.328 69.3659 141.749 69.355C141.482 69.355 141.48 69.5268 141.48 69.7179C141.48 70.3226 141.48 70.9274 141.48 71.5321C141.48 71.6289 141.488 71.7958 141.531 71.8103C142.053 71.9809 142.591 71.8793 143.121 71.8781C143.438 71.8781 143.397 71.5975 143.433 71.3858C143.457 71.2419 143.498 71.1028 143.683 71.1052C143.899 71.1052 143.882 71.2721 143.868 71.4064C143.813 71.927 143.813 72.452 143.868 72.9727C143.88 73.0863 143.897 73.2291 143.735 73.2629C143.701 73.274 143.665 73.2767 143.629 73.271C143.594 73.2653 143.561 73.2513 143.532 73.2301C143.503 73.2089 143.479 73.1811 143.463 73.149C143.447 73.1169 143.438 73.0813 143.438 73.0452C143.413 72.7513 143.38 72.4405 143.029 72.4042C142.555 72.3384 142.073 72.3466 141.601 72.4284C141.47 72.4562 141.481 72.6207 141.481 72.7404C141.481 73.4456 141.481 74.1507 141.481 74.8558C141.481 75.0639 141.525 75.2187 141.773 75.1993C142.329 75.157 142.878 75.2973 143.444 75.2139C143.889 75.1485 144.127 75.0022 144.163 74.5257C144.175 74.3696 144.163 74.0419 144.453 74.0902C144.743 74.1386 144.601 74.4168 144.6 74.5886C144.593 75.7182 144.588 75.7618 143.51 75.7981C142.207 75.8452 140.901 75.8089 139.598 75.8089L139.533 75.5997Z" fill="#F37C33"/>
<path d="M73.1533 75.6178C73.7128 75.3445 73.6709 74.857 73.6673 74.3696C73.6585 72.9182 73.6585 71.4692 73.6673 70.0227C73.6673 69.5703 73.6553 69.1567 73.0466 69.1482C72.9364 69.1482 72.7842 69.1131 72.807 68.9498C72.8285 68.743 73.0095 68.7926 73.1377 68.7914C73.9764 68.7914 74.8152 68.7914 75.6539 68.7914C76.3297 68.7914 77.0067 68.812 77.6825 68.7829C78.0803 68.766 78.1713 68.9305 78.1114 69.2824C78.0683 69.5401 78.0407 69.8001 78.0108 70.0589C77.9952 70.1872 77.9676 70.3008 77.8083 70.3008C77.6489 70.3008 77.6345 70.1472 77.6429 70.0348C77.6837 69.4179 77.2691 69.3732 76.8246 69.3502C75.068 69.2619 75.0644 69.2607 75.0704 71.0145C75.0704 72.0304 74.9601 71.8792 75.9091 71.895C76.0685 71.895 76.229 71.895 76.3884 71.895C76.7479 71.9107 77.0882 71.9071 77.0522 71.3834C77.047 71.3479 77.0497 71.3118 77.06 71.2776C77.0703 71.2433 77.088 71.2118 77.1119 71.1853C77.1357 71.1588 77.1651 71.138 77.1979 71.1243C77.2307 71.1107 77.266 71.1046 77.3014 71.1064C77.5339 71.1064 77.4608 71.2842 77.4608 71.4124C77.4608 71.9361 77.4608 72.4586 77.4608 72.9847C77.4608 73.0984 77.5111 73.2436 77.341 73.2678C77.2128 73.2859 77.0678 73.2315 77.0702 73.0948C77.0834 72.259 76.4903 72.3848 75.9822 72.3836C74.9554 72.3836 75.0728 72.2881 75.0668 73.3331C75.0668 73.8169 75.0668 74.3007 75.0668 74.7845C75.0668 74.9913 75.0572 75.2175 75.3556 75.1993C75.9127 75.1655 76.4615 75.3021 77.0247 75.2247C77.486 75.1618 77.7436 75.0046 77.7831 74.499C77.7939 74.3406 77.7999 74.0297 78.0982 74.0938C78.3475 74.1471 78.2181 74.3938 78.2181 74.5523C78.2181 75.7085 78.2181 75.7521 77.0906 75.7956C75.8049 75.8464 74.5168 75.8077 73.2299 75.8077C73.2024 75.74 73.1784 75.6783 73.1533 75.6178Z" fill="#F37C32"/>
<path d="M196.173 75.6276C196.849 75.3458 196.716 74.7931 196.717 74.2887C196.717 72.8373 196.717 71.3859 196.717 69.9345C196.717 69.516 196.707 69.1508 196.152 69.1544C196.004 69.1544 195.858 69.0854 195.897 68.9016C195.93 68.7456 196.086 68.7891 196.198 68.7879C197.714 68.7879 199.228 68.794 200.744 68.7879C201.081 68.7879 201.223 68.8883 201.162 69.2403C201.139 69.3612 201.162 69.4822 201.139 69.6031C201.103 69.845 201.222 70.2321 200.91 70.2695C200.541 70.3131 200.712 69.9176 200.671 69.7156C200.609 69.4193 200.371 69.3866 200.171 69.3769C199.594 69.3467 199.014 69.3648 198.435 69.3564C198.176 69.3564 198.152 69.5124 198.153 69.7192C198.153 70.324 198.153 70.9287 198.153 71.5335C198.153 71.629 198.153 71.7826 198.21 71.8117C198.562 71.9991 198.949 71.8746 199.32 71.8951C199.692 71.9157 200.117 71.9858 200.146 71.3968C200.152 71.2589 200.18 71.0968 200.378 71.1138C200.577 71.1307 200.534 71.3085 200.534 71.4379C200.539 71.9411 200.539 72.4446 200.534 72.9486C200.534 73.0768 200.597 73.251 200.378 73.2727C200.227 73.2873 200.169 73.1844 200.139 73.0562C200.08 72.7841 200.073 72.4418 199.712 72.4164C199.236 72.3904 198.759 72.3953 198.283 72.4309C198.151 72.4394 198.15 72.6124 198.15 72.7345C198.15 73.4602 198.15 74.1859 198.15 74.9116C198.15 75.11 198.229 75.2188 198.43 75.2055C199.005 75.168 199.574 75.3083 200.16 75.214C200.588 75.1463 200.794 74.9999 200.841 74.556C200.857 74.406 200.804 74.0807 201.099 74.0976C201.427 74.1158 201.266 74.4097 201.266 74.5742C201.266 75.745 201.258 75.7837 200.102 75.8151C198.829 75.855 197.554 75.8236 196.281 75.8236L196.173 75.6276Z" fill="#F37C32"/>
<path d="M166.363 75.6434C167.011 75.3568 166.896 74.8125 166.896 74.313C166.896 72.8434 166.888 71.3726 166.896 69.9031C166.896 69.4955 166.849 69.1774 166.347 69.1677C166.208 69.1677 166.043 69.1302 166.064 68.9367C166.087 68.7202 166.276 68.7988 166.398 68.7976C167.892 68.7976 169.387 68.7976 170.881 68.7879C171.265 68.7879 171.461 68.8702 171.335 69.2983C171.308 69.3927 171.335 69.5003 171.315 69.5983C171.271 69.8402 171.418 70.2393 171.115 70.2756C170.727 70.3216 170.893 69.9019 170.838 69.6793C170.765 69.3891 170.513 69.3842 170.318 69.3745C169.761 69.3455 169.201 69.3649 168.641 69.3564C168.416 69.3564 168.315 69.4399 168.318 69.6733C168.318 70.2974 168.328 70.9227 168.318 71.5468C168.318 71.8117 168.421 71.9097 168.678 71.8952C169.017 71.877 169.356 71.877 169.695 71.8952C170.076 71.923 170.313 71.8093 170.341 71.3908C170.349 71.2517 170.354 71.0848 170.558 71.1041C170.761 71.1235 170.721 71.2977 170.722 71.4295C170.722 71.9326 170.722 72.4358 170.722 72.939C170.722 73.0696 170.767 73.2425 170.555 73.2619C170.401 73.2764 170.364 73.1676 170.337 73.0369C170.286 72.7829 170.264 72.4697 169.953 72.4177C169.461 72.3318 168.958 72.3318 168.466 72.4177C168.299 72.4479 168.329 72.6402 168.329 72.7805C168.329 73.4651 168.329 74.1497 168.329 74.8367C168.329 75.0374 168.355 75.2104 168.609 75.1923C169.127 75.1548 169.637 75.2733 170.16 75.231C170.682 75.1886 171.018 75.0145 171.068 74.4436C171.082 74.2827 171.068 74.0251 171.342 74.0807C171.617 74.1364 171.471 74.3662 171.462 74.5246C171.382 75.7402 171.381 75.774 170.294 75.8055C169.013 75.843 167.73 75.8139 166.448 75.8139L166.363 75.6434Z" fill="#F37C33"/>
<path d="M92.1106 75.6165C92.6366 75.394 92.6282 74.9658 92.6234 74.5086C92.6074 72.9766 92.6074 71.447 92.6234 69.9198C92.6234 69.488 92.5899 69.1505 92.0519 69.1457C91.9129 69.1457 91.7499 69.0937 91.7919 68.9038C91.8254 68.7478 91.9836 68.7937 92.0938 68.7925C93.6515 68.7925 95.202 68.7925 96.7549 68.7925C97.0856 68.7925 97.1694 68.9219 97.1047 69.2352C97.0649 69.4931 97.0401 69.7532 97.0304 70.0141C97.0209 70.1351 97.0304 70.2742 96.8735 70.2971C96.6902 70.325 96.6123 70.1847 96.6171 70.0383C96.641 69.3477 96.1605 69.3562 95.6944 69.3501C95.2954 69.3441 94.8964 69.3719 94.4962 69.3501C94.1739 69.3344 94.0169 69.419 94.0373 69.7807C94.0637 70.3431 94.0373 70.9079 94.0457 71.474C94.0457 71.6095 93.999 71.8368 94.1476 71.8489C94.5406 71.8985 94.9432 71.8683 95.3458 71.8973C95.7867 71.93 96.1018 71.8381 96.0827 71.301C96.079 71.276 96.081 71.2505 96.0884 71.2263C96.0958 71.2022 96.1085 71.18 96.1255 71.1615C96.1425 71.1429 96.1634 71.1284 96.1867 71.1191C96.21 71.1098 96.235 71.1058 96.26 71.1075C96.4277 71.1075 96.4481 71.2164 96.4481 71.3494C96.4481 71.913 96.4481 72.4767 96.4481 73.0427C96.4481 73.1491 96.4349 73.2483 96.3067 73.2677C96.1558 73.2894 96.0922 73.2084 96.0755 73.0657C96.0431 72.7802 96.0024 72.4609 95.6573 72.4198C95.1651 72.3391 94.6627 72.3457 94.1727 72.4392C94.0158 72.4755 94.0529 72.6738 94.0529 72.8105C94.0529 73.4745 94.0529 74.1409 94.0529 74.8037C94.0529 75.0166 94.0529 75.2271 94.3488 75.2041C94.8665 75.163 95.3769 75.2827 95.9065 75.2404C96.4361 75.198 96.7644 75.019 96.8064 74.4506C96.8208 74.2716 96.8291 74.0502 97.0916 74.0877C97.4043 74.1288 97.2258 74.3792 97.2114 74.5159C97.1203 75.7423 97.1143 75.7786 96.0467 75.8113C94.7598 75.8524 93.473 75.8209 92.1861 75.8209C92.1537 75.7447 92.1322 75.6806 92.1106 75.6165Z" fill="#F37C32"/>
<path d="M129.706 75.758C129.288 75.758 128.867 75.758 128.45 75.758C128.342 75.758 128.188 75.8063 128.155 75.637C128.123 75.4677 128.256 75.4096 128.372 75.4121C129.028 75.4229 128.893 75.0492 128.748 74.6585C128.674 74.4947 128.609 74.3262 128.556 74.1542C128.457 73.7187 128.196 73.5857 127.773 73.6292C127.454 73.6477 127.134 73.6497 126.815 73.6353C125.647 73.6353 125.616 73.6571 125.338 74.7855C125.256 75.1206 125.27 75.3975 125.727 75.3903C125.886 75.3903 126.086 75.4133 126.051 75.6322C126.021 75.8245 125.824 75.7435 125.699 75.7459C125.161 75.7543 124.621 75.7459 124.084 75.7459C123.964 75.7459 123.826 75.7604 123.832 75.579C123.832 75.5537 123.837 75.5287 123.847 75.5054C123.856 75.4821 123.87 75.461 123.888 75.4434C123.906 75.4258 123.927 75.412 123.951 75.4029C123.974 75.3938 123.999 75.3895 124.024 75.3903C124.476 75.36 124.588 74.9899 124.722 74.6646C125.461 72.8479 126.195 71.0292 126.925 69.2085C127.019 68.9739 127.054 68.7247 127.421 68.7138C127.787 68.7029 127.9 68.894 128.02 69.1722C128.788 71.0002 129.561 72.8257 130.34 74.6489C130.487 74.9972 130.596 75.3891 131.086 75.3951C131.111 75.3943 131.136 75.3987 131.16 75.408C131.183 75.4174 131.205 75.4316 131.222 75.4496C131.24 75.4677 131.254 75.4892 131.263 75.5129C131.272 75.5366 131.276 75.562 131.275 75.5874C131.275 75.7713 131.136 75.7507 131.023 75.7507C130.583 75.758 130.144 75.758 129.706 75.758ZM128.116 73.0838L127.037 70.4446C126.701 71.3094 126.424 72.052 126.122 72.785C126.002 73.0632 126.13 73.0874 126.348 73.085C126.906 73.0826 127.459 73.085 128.116 73.085V73.0838Z" fill="#F37D33"/>
<path d="M68.5188 73.9498C69.0448 72.6097 69.566 71.2684 70.0968 69.9307C70.2706 69.494 70.267 69.1832 69.6895 69.1493C69.5696 69.1421 69.3767 69.1396 69.3899 68.9376C69.4031 68.7163 69.5936 68.7913 69.7146 68.7901C70.273 68.7816 70.8313 68.7901 71.3921 68.7901C71.5047 68.7901 71.6545 68.7514 71.6952 68.911C71.736 69.0707 71.6246 69.1384 71.4951 69.1529C71.0854 69.2025 70.9572 69.5158 70.8265 69.8412C70.0645 71.6917 69.2964 73.541 68.55 75.3976C68.4409 75.6673 68.3463 75.8342 68.0144 75.8342C67.6825 75.8342 67.5722 75.6625 67.4644 75.4C66.7287 73.6039 65.981 71.8126 65.2381 70.0189C65.0692 69.6089 64.9266 69.1723 64.3742 69.1457C64.2544 69.1457 64.1346 69.0598 64.1765 68.9038C64.2065 68.7828 64.3239 68.7913 64.4221 68.7913C65.3196 68.7913 66.2195 68.7913 67.1145 68.7913C67.2259 68.7913 67.3709 68.7611 67.3865 68.9401C67.3888 68.9656 67.3856 68.9914 67.3771 69.0156C67.3686 69.0398 67.355 69.0619 67.3372 69.0803C67.3194 69.0987 67.2979 69.113 67.2742 69.1222C67.2504 69.1314 67.225 69.1353 67.1996 69.1336C66.3932 69.1626 66.6256 69.6053 66.8126 70.0649C67.3398 71.3554 67.8514 72.6533 68.3702 73.9474L68.5188 73.9498Z" fill="#F37E36"/>
<path d="M121.001 75.8657H119.222C116.562 75.4811 115.602 73.2048 116.227 71.0386C116.603 69.7238 117.615 69.0695 118.863 68.7756C119.975 68.5076 121.142 68.5736 122.218 68.9655C122.553 69.0864 122.716 69.2074 122.584 69.6029C122.485 69.9016 122.486 70.2354 122.447 70.5535C122.431 70.683 122.407 70.7954 122.242 70.7809C122.216 70.7812 122.192 70.7762 122.168 70.7661C122.145 70.756 122.125 70.7411 122.108 70.7224C122.091 70.7036 122.078 70.6815 122.07 70.6574C122.062 70.6333 122.059 70.6078 122.062 70.5826C122.103 69.771 121.577 69.4227 120.922 69.2824C120.111 69.1082 119.292 69.13 118.581 69.6694C117.611 70.4072 117.275 71.8683 117.742 73.2979C118.143 74.528 119.115 75.2331 120.371 75.2803C121.11 75.29 121.84 75.1243 122.503 74.7965C122.493 75.4484 122.164 75.677 121.001 75.8657Z" fill="#F37E36"/>
<path d="M134.883 68.7886C135.76 68.7886 136.64 68.814 137.519 68.7777C137.96 68.7596 138.072 68.9205 138.009 69.3232C137.966 69.6002 137.964 69.8844 137.933 70.1699C137.92 70.2908 137.89 70.4118 137.73 70.4215C137.571 70.4311 137.53 70.309 137.539 70.1796C137.588 69.4333 137.187 69.2882 136.56 69.4006C136.361 69.4237 136.159 69.4237 135.96 69.4006C135.69 69.3861 135.56 69.4841 135.561 69.778C135.569 71.4713 135.561 73.1646 135.561 74.8579C135.561 75.2316 135.748 75.4058 136.123 75.3889C136.25 75.3889 136.427 75.3586 136.429 75.5739C136.431 75.7892 136.258 75.7566 136.127 75.7578C135.289 75.7578 134.45 75.7578 133.611 75.7578C133.48 75.7578 133.304 75.8013 133.285 75.5933C133.266 75.3853 133.439 75.3852 133.574 75.3925C134.053 75.4167 134.15 75.0938 134.152 74.7285C134.163 73.0775 134.16 71.4253 134.152 69.7695C134.152 69.674 134.136 69.5083 134.089 69.4938C133.571 69.3293 133.034 69.3728 132.507 69.4164C132.131 69.4502 132.185 69.8131 132.148 70.0804C132.127 70.2122 132.178 70.3936 131.974 70.4069C131.719 70.4239 131.782 70.2122 131.762 70.0647C131.587 68.785 131.587 68.785 132.84 68.785L134.883 68.7886Z" fill="#F37C32"/>
<path d="M149.981 72.6133C149.974 72.3816 150.013 72.1507 150.094 71.9339C150.176 71.7171 150.299 71.5188 150.457 71.3502C150.615 71.1816 150.804 71.0462 151.014 70.9516C151.223 70.857 151.45 70.8052 151.679 70.7991C152.591 70.7821 153.435 71.6155 153.456 72.5541C153.478 73.4927 152.662 74.3066 151.696 74.3066C151.473 74.3116 151.25 74.2715 151.043 74.1887C150.835 74.1058 150.645 73.9819 150.486 73.8241C150.326 73.6664 150.199 73.478 150.112 73.2701C150.026 73.0622 149.981 72.8389 149.981 72.6133Z" fill="#F37D33"/>
<path d="M84.6177 74.3069C84.1658 74.3072 83.7318 74.1283 83.4095 73.8085C83.0871 73.4888 82.9022 73.054 82.8947 72.5978C82.8886 72.1302 83.0654 71.679 83.3869 71.3423C83.7084 71.0055 84.1486 70.8104 84.6117 70.7993C85.0741 70.8049 85.5162 70.992 85.8443 71.3209C86.1725 71.6499 86.3608 72.0948 86.3695 72.5616C86.3697 72.7927 86.3243 73.0217 86.2361 73.235C86.1478 73.4483 86.0184 73.6418 85.8554 73.8042C85.6924 73.9666 85.499 74.0947 85.2866 74.181C85.0741 74.2673 84.8467 74.3101 84.6177 74.3069Z" fill="#F37D33"/>
<path d="M106.382 30.4019C106.388 30.4877 106.336 30.4841 106.277 30.4684L106.382 30.4019Z" fill="#3B617E"/>
<path d="M27.6713 36.7117C27.5215 36.7854 27.5646 36.8991 27.5646 36.9886C27.591 40.0487 27.4844 43.1111 27.6593 46.17C27.7096 47.0686 27.8211 47.1763 28.7976 47.2198C29.0708 47.2319 29.3679 47.1581 29.3691 47.6177C29.3691 47.9673 29.3068 48.0955 28.9126 48.0858C27.5946 48.0532 26.2766 48.0628 24.9585 48.0858C24.6542 48.0858 24.5296 48.0411 24.5416 47.706C24.5535 47.4 24.5883 47.198 24.9621 47.2222C25.2013 47.2278 25.4404 47.2067 25.6751 47.1593C26.0345 47.0977 26.2191 46.8981 26.2442 46.505C26.404 43.9118 26.4439 41.3178 26.364 38.7231C26.3365 37.776 26.3545 36.829 26.3389 35.8819C26.3197 34.722 26.2634 34.6785 25.1251 34.4838C24.9274 34.4499 24.623 34.5587 24.5464 34.2031C24.4385 33.7072 24.5739 33.5307 25.0736 33.5742C26.4041 33.7034 27.7435 33.7123 29.0756 33.6008C29.4638 33.5645 29.6447 33.6492 29.7945 34.0084C31.1329 37.1628 32.7014 40.1987 34.1584 43.301C34.2578 43.5115 34.3141 43.7594 34.555 43.9288C35.3865 42.3951 36.1127 40.8228 36.8448 39.2528C37.6727 37.4749 38.5618 35.7235 39.2927 33.9092C39.3838 33.6782 39.4772 33.5331 39.76 33.5742C41.0325 33.7581 42.3062 33.6262 43.5811 33.5742C43.8207 33.5657 44.1982 33.3613 44.2281 33.9129C44.2521 34.3737 44.0544 34.4088 43.6769 34.4293C42.6932 34.4837 42.4787 34.7414 42.4668 35.7441C42.4452 38.5441 42.4308 41.344 42.4032 44.1428C42.3961 44.8492 42.4572 45.5495 42.5123 46.251C42.5734 47.0396 42.704 47.1726 43.4876 47.2271C43.7273 47.2428 44.0304 47.0856 44.191 47.3964C44.4007 47.8028 44.1694 48.1402 43.7117 48.1221C41.8744 48.0358 40.0396 48.0358 38.2071 48.1221C37.9867 48.1318 37.7123 48.2273 37.7087 47.8149C37.7087 47.4714 37.7362 47.2101 38.1652 47.2319C38.3042 47.2392 38.4444 47.221 38.5846 47.2319C39.113 47.2585 39.4233 47.0287 39.4485 46.4772C39.4748 45.9934 39.5192 45.5096 39.5204 45.0258C39.5276 42.3463 39.5276 39.6665 39.5204 36.9862C39.5204 36.8919 39.5096 36.7975 39.5036 36.6983C39.2544 36.6983 39.2532 36.9124 39.1921 37.037C37.4151 40.651 35.6561 44.2747 34.0254 47.9588C33.9247 48.185 33.8301 48.3084 33.5581 48.3217C33.219 48.3398 33.1255 48.1451 33.0129 47.8911C31.3953 44.2469 29.6579 40.6607 27.9013 37.0818C27.8438 36.9427 27.8235 36.7733 27.6713 36.7117Z" fill="#3D627F"/>
<path d="M51.2865 41.5099C51.32 42.6154 51.217 44.4478 51.3572 46.2802C51.4039 46.897 51.6304 47.1619 52.2151 47.1692C52.4152 47.1692 52.6165 47.226 52.8142 47.2042C53.2611 47.1534 53.3318 47.3712 53.3234 47.7655C53.3139 48.2734 53.0011 48.0896 52.7471 48.0884C50.83 48.0823 48.9128 48.0739 46.9957 48.0884C46.7561 48.0884 46.55 48.138 46.5871 47.7872C46.6135 47.5332 46.4673 47.1764 46.9526 47.2212C47.0724 47.2278 47.1926 47.2254 47.312 47.2139C48.0885 47.1631 48.2335 47.0107 48.2706 46.2209C48.4659 42.5597 48.424 38.8974 48.2826 35.235C48.2658 34.7875 48.1088 34.5093 47.6128 34.5093C47.3959 34.5093 47.1754 34.4174 46.9622 34.4319C46.5512 34.4597 46.5955 34.2009 46.5763 33.9299C46.55 33.5526 46.774 33.549 47.0293 33.5671C49.6006 33.8017 52.172 33.5102 54.7421 33.5671C55.4994 33.5852 56.2531 33.688 56.9121 34.121C58.1414 34.9229 58.5584 36.4796 58.0384 38.1608C57.347 40.3911 54.9231 41.5813 52.5554 41.1519C52.1672 41.0817 52.1037 40.7007 52.0306 40.4177C51.9611 40.154 52.2499 40.1758 52.408 40.2206C52.7918 40.3384 53.2023 40.3338 53.5835 40.2073C53.6769 40.1758 53.7704 40.142 53.8614 40.1008C54.9626 39.6086 55.497 38.2213 55.1867 36.6646C54.9278 35.3705 54.0915 34.652 52.8178 34.6315C51.3644 34.6085 51.3141 34.6315 51.2877 36.1312C51.2649 37.6818 51.2865 39.2312 51.2865 41.5099Z" fill="#3C627F"/>
<path d="M65.9455 43.699C65.187 43.699 64.4286 43.7063 63.6689 43.699C63.4293 43.699 63.2579 43.7305 63.174 43.9966C62.9224 44.7961 62.569 45.5689 62.388 46.3866C62.2586 46.9756 62.3796 47.1546 62.968 47.2163C63.166 47.2489 63.3664 47.2638 63.5671 47.261C63.9924 47.2272 63.9744 47.4908 63.9816 47.7944C63.9912 48.196 63.7492 48.1186 63.5024 48.1065C62.2275 48.0412 60.9501 48.0412 59.6753 48.1065C59.4356 48.1186 59.2283 48.1549 59.2355 47.8077C59.2355 47.5441 59.196 47.2151 59.5782 47.2501C60.4757 47.33 60.7764 46.7276 61.0556 46.0491C62.7139 42.0577 64.3243 38.047 65.8868 34.017C66.0066 33.7098 66.1121 33.457 66.4991 33.5428C66.9316 33.6396 67.4576 33.2767 67.756 33.9879C69.497 38.1377 71.2895 42.2646 73.0425 46.4083C73.2749 46.9587 73.5817 47.2852 74.1976 47.226C74.6421 47.1836 74.6541 47.4618 74.6541 47.8005C74.6541 48.2044 74.3989 48.1246 74.1664 48.1149C72.3691 48.0351 70.5778 48.046 68.7841 48.1149C68.5612 48.1234 68.2053 48.329 68.1646 47.8186C68.131 47.3989 68.2844 47.2828 68.6798 47.2465C69.9259 47.1352 69.9463 47.0808 69.4838 45.8762C69.2621 45.2968 69.0117 44.7271 68.8176 44.1381C68.6978 43.7873 68.5109 43.6882 68.161 43.7003C67.4229 43.7172 66.6836 43.699 65.9455 43.699ZM65.9131 42.5258C66.5123 42.5258 67.1042 42.5186 67.6997 42.5258C68.0591 42.5258 68.0951 42.371 67.9669 42.0759C67.7991 41.6913 67.6553 41.297 67.4972 40.9087C67.0443 39.7976 66.5893 38.6873 66.1324 37.5777C66.0959 37.4666 66.0233 37.3711 65.9263 37.3068C65.8365 37.2657 65.7694 37.3794 65.7286 37.4822C65.1223 39.0296 64.5132 40.5757 63.9014 42.1206C63.7899 42.4049 63.8774 42.5295 64.1841 42.5258C64.7605 42.5198 65.3356 42.5258 65.9131 42.5258Z" fill="#3E6380"/>
<path d="M84.4751 33.3046C86.1282 33.2933 87.7704 33.5754 89.3267 34.138C89.6346 34.2493 89.7209 34.34 89.6262 34.6847C89.3866 35.5592 89.3494 36.4699 89.274 37.371C89.2476 37.6806 89.1673 37.7774 88.8558 37.781C88.5203 37.781 88.44 37.6455 88.4628 37.3516C88.4712 37.2537 88.4136 37.1484 88.4304 37.0529C88.6473 35.789 87.7978 35.2386 86.8656 34.8988C83.5825 33.7135 79.5193 35.0379 79.2941 39.744C79.2426 40.8144 79.2809 41.8703 79.6152 42.8984C80.6265 46.0044 83.1463 47.3978 86.3252 47.0325C87.3143 46.9176 88.2754 46.6264 89.1637 46.1725C89.2895 46.1084 89.4345 45.9766 89.5891 46.1556C89.7089 46.2959 89.619 46.4217 89.5771 46.5463C89.5027 46.793 89.3735 47.0194 89.1993 47.208C89.025 47.3967 88.8104 47.5427 88.5718 47.6348C85.8159 48.8068 83.0541 48.8226 80.3305 47.6747C77.8335 46.6309 76.5442 44.5808 76.1847 41.9211C75.8552 39.4949 76.4004 37.325 78.1534 35.5555C79.4175 34.2783 81.0051 33.6808 82.7401 33.4462C83.374 33.3615 84.0078 33.2551 84.4751 33.3046Z" fill="#3E6380"/>
<path d="M100.151 40.7755C100.151 42.4688 100.144 44.1621 100.151 45.8554C100.159 47.0541 100.242 47.1448 101.414 47.2694C101.774 47.3069 102.1 47.302 102.023 47.8269C101.988 48.0688 101.903 48.1317 101.682 48.1208C99.6685 48.0229 97.6555 48.0434 95.6425 48.1112C95.4173 48.1184 95.2831 48.0737 95.3082 47.8281C95.3286 47.6346 95.1884 47.3564 95.5479 47.3165C95.7456 47.2948 95.9457 47.2234 96.1386 47.2403C96.9522 47.3105 97.1451 46.7964 97.1547 46.1518C97.1678 45.2253 97.1702 44.2988 97.1702 43.3699C97.1702 40.7513 97.1607 38.134 97.1798 35.5166C97.1798 35.0413 97.0852 34.8393 96.5639 34.8756C95.6054 34.9409 94.6468 34.8393 93.6954 34.9687C93.3539 35.0147 93.2269 35.1441 93.1766 35.4827C93.1165 35.8393 93.0836 36.2 93.0783 36.5616C93.0783 36.9245 92.9406 37.0769 92.5416 37.0672C92.1018 37.0575 92.1989 36.7842 92.1893 36.5386C92.1569 35.6751 92.1426 34.8103 92.0862 33.9479C92.0659 33.6455 92.1102 33.585 92.4289 33.5935C96.5755 33.7282 100.723 33.7282 104.87 33.5935C105.135 33.585 105.229 33.6141 105.219 33.8947C105.166 34.8175 105.111 35.7404 105.099 36.6644C105.093 37.0007 104.967 37.0636 104.673 37.0587C104.38 37.0539 104.259 37.0019 104.236 36.6644C104.109 34.7365 104.356 34.9941 102.357 34.8889C101.8 34.8599 101.238 34.9106 100.68 34.8756C100.268 34.8502 100.136 34.9651 100.142 35.4005C100.16 37.1918 100.151 38.9891 100.151 40.7755Z" fill="#3D627F"/>
<path d="M18.22 48.0752C17.2614 48.0752 16.3028 48.0607 15.3443 48.0837C15.0651 48.0909 14.9297 48.0474 14.9572 47.7402C14.98 47.4983 14.8758 47.2394 15.3083 47.208C16.6264 47.1112 16.5952 47.0871 16.6647 45.7276C16.8265 42.6071 16.7546 39.4865 16.721 36.366C16.721 36.0854 16.6695 35.806 16.6599 35.5254C16.6276 34.6207 16.5485 34.5288 15.6534 34.5131C15.2149 34.5058 14.8626 34.4586 14.9513 33.8599C14.986 33.6301 15.0459 33.5491 15.2796 33.5672C17.2091 33.7142 19.1469 33.7142 21.0765 33.5672C21.2502 33.5539 21.4839 33.5201 21.4432 33.8031C21.412 34.0232 21.6456 34.3546 21.2275 34.4453C21.1318 34.4754 21.0328 34.4929 20.9327 34.4973C19.7776 34.4211 19.7093 34.6763 19.6926 35.8713C19.6446 39.3535 19.5488 42.8369 19.7573 46.3178C19.804 47.0955 19.9406 47.179 20.8357 47.2213C21.0837 47.2334 21.4695 47.0508 21.4575 47.5962C21.4503 47.9591 21.4036 48.1151 20.9675 48.0909C20.0592 48.0389 19.139 48.0752 18.22 48.0752Z" fill="#3B617E"/>
<path d="M173.324 48.0735C172.387 48.0735 171.449 48.0614 170.512 48.0808C170.228 48.0868 170.051 48.0808 170.07 47.7179C170.084 47.447 170.044 47.1942 170.45 47.2075C171.6 47.245 171.743 47.2704 171.806 45.7658C171.938 42.6477 171.926 39.5296 171.87 36.4103C171.87 36.1901 171.804 35.97 171.813 35.7523C171.874 34.3009 171.497 34.5658 170.507 34.4279C170.12 34.3735 170.07 34.2404 170.066 33.9078C170.066 33.4639 170.36 33.545 170.597 33.5655C172.228 33.6939 173.865 33.7093 175.498 33.6115C176.77 33.5428 178.044 33.5496 179.315 33.632C181.312 33.7736 182.477 35.7136 181.781 37.7298C181.358 38.9551 180.492 39.7364 179.349 40.2263C178.924 40.4089 178.807 40.5601 179.096 40.9822C180.373 42.8509 181.534 44.7994 182.915 46.5979C183.166 46.9257 183.428 47.2148 183.873 47.222C184.304 47.2293 184.087 47.5667 184.126 47.7615C184.18 48.0215 184.044 48.1074 183.788 48.105C182.692 48.0917 181.594 48.0808 180.498 48.0977C180.224 48.0977 180.175 47.926 180.077 47.759C178.867 45.6581 177.643 43.5669 176.288 41.5567C176.109 41.293 175.884 41.0608 175.68 40.8141C175.452 40.5371 175.527 40.375 175.869 40.3303C176.009 40.3224 176.148 40.3224 176.288 40.3303C177.547 40.317 178.402 39.6759 178.819 38.435C179.254 37.1384 178.928 35.8261 177.958 35.1149C177.078 34.4714 176.065 34.6178 175.074 34.6976C174.834 34.717 174.834 34.919 174.827 35.1076C174.815 35.9132 174.814 36.7187 174.78 37.5266C174.66 40.323 174.78 43.1182 174.802 45.9133C174.81 47.0733 174.931 47.1882 176.069 47.2123C176.412 47.2196 176.606 47.2535 176.601 47.6962C176.597 48.1388 176.376 48.0941 176.072 48.088C175.155 48.0675 174.236 48.0808 173.316 48.0808L173.324 48.0735Z" fill="#3D627F"/>
<path d="M151.466 48.1187C150.45 48.1187 149.429 48.1187 148.418 48.1187C148.167 48.1187 147.938 48.1477 147.96 47.7631C147.978 47.491 147.935 47.2225 148.341 47.2636C148.441 47.2595 148.54 47.2465 148.637 47.2249C149.633 47.1451 149.715 47.0253 149.364 46.0989C149.109 45.424 148.818 44.7684 148.582 44.0838C148.478 43.7839 148.33 43.6859 148.022 43.6895C146.507 43.704 144.99 43.698 143.469 43.6895C143.241 43.6895 143.055 43.6895 142.964 43.9701C142.702 44.7684 142.364 45.5425 142.171 46.3625C142.03 46.9782 142.158 47.1511 142.796 47.2092C142.972 47.2388 143.151 47.2529 143.33 47.2515C143.746 47.214 143.753 47.4571 143.758 47.7728C143.758 48.1695 143.536 48.1054 143.286 48.0921C142.011 48.0274 140.734 48.0274 139.46 48.0921C139.22 48.1054 139.018 48.1308 139.024 47.7873C139.024 47.5176 138.999 47.2055 139.376 47.2346C140.199 47.2999 140.514 46.7907 140.791 46.1279C142.454 42.1619 144.042 38.1645 145.612 34.1611C145.731 33.8502 145.761 33.4354 146.293 33.5212C146.786 33.595 147.296 33.3664 147.598 34.0957C149.303 38.2214 151.029 42.3385 152.833 46.423C153.073 46.9516 153.358 47.2576 153.943 47.2128C154.343 47.1826 154.439 47.3773 154.435 47.7571C154.435 48.2034 154.166 48.0945 153.914 48.0933C153.097 48.0873 152.28 48.0933 151.462 48.0933L151.466 48.1187ZM145.746 42.5272C146.322 42.5272 146.9 42.5199 147.477 42.5272C147.821 42.5332 147.895 42.4062 147.765 42.0881C147.136 40.5678 146.517 39.0438 145.891 37.5235C145.856 37.4376 145.79 37.3215 145.718 37.3033C145.562 37.2646 145.538 37.4243 145.497 37.5307C144.897 39.0608 144.298 40.5932 143.68 42.1196C143.56 42.4268 143.658 42.5248 143.952 42.5248C144.55 42.5248 145.147 42.526 145.746 42.5272Z" fill="#3E6380"/>
<path d="M224.026 48.1183C223.088 48.1183 222.151 48.1183 221.214 48.1183C220.986 48.1183 220.76 48.1449 220.786 47.7954C220.805 47.5438 220.712 47.2366 221.137 47.2644C221.197 47.2589 221.256 47.2488 221.315 47.2342C222.487 47.106 222.513 47.0588 222.07 45.9207C221.83 45.305 221.568 44.6978 221.351 44.0725C221.246 43.7665 221.089 43.6867 220.786 43.6903C219.289 43.7048 217.791 43.7048 216.294 43.6903C215.966 43.6903 215.789 43.7689 215.688 44.1028C215.488 44.7728 215.229 45.426 215.023 46.0936C214.745 46.9959 214.866 47.1495 215.786 47.2293C216.126 47.2584 216.587 47.1531 216.505 47.7918C216.472 48.0615 216.385 48.1244 216.136 48.1098C214.822 48.03 213.504 48.03 212.19 48.1098C211.971 48.1244 211.782 48.1232 211.807 47.8147C211.827 47.5728 211.716 47.2197 212.127 47.2487C213.01 47.3092 213.325 46.7262 213.614 46.0392C215.255 42.0817 216.852 38.1056 218.407 34.1111C218.546 33.7482 218.665 33.447 219.148 33.5293C219.596 33.6055 220.06 33.366 220.347 34.0639C222.058 38.1907 223.842 42.2885 225.585 46.4008C225.815 46.9415 226.122 47.2801 226.741 47.2209C227.174 47.1797 227.221 47.4446 227.21 47.793C227.203 48.1933 226.946 48.105 226.713 48.1038C225.815 48.1038 224.915 48.1038 224.02 48.1038L224.026 48.1183ZM218.461 37.0332C217.742 38.8535 217.101 40.4912 216.452 42.1264C216.342 42.4046 216.392 42.5486 216.715 42.5292C217.609 42.4748 218.501 42.6852 219.398 42.5292C219.8 42.4615 220.381 42.7203 220.575 42.3986C220.77 42.0768 220.359 41.6293 220.204 41.2435C219.661 39.8949 219.092 38.5524 218.461 37.0332Z" fill="#3E6380"/>
<path d="M204.49 48.4826C202.585 48.4669 200.76 48.1488 199.175 46.9888C197.371 45.6681 196.446 43.8441 196.243 41.6283C196.014 39.1222 196.661 36.933 198.594 35.2313C199.775 34.1923 201.193 33.6783 202.709 33.4545C204.924 33.1256 207.186 33.3456 209.299 34.0955C209.717 34.2419 209.792 34.3967 209.68 34.8212C209.456 35.6764 209.408 36.5666 209.364 37.4495C209.346 37.7918 209.156 37.7664 208.929 37.7724C208.701 37.7785 208.569 37.7398 208.554 37.4531C208.503 36.7383 208.673 35.9606 207.908 35.449C207.285 35.0281 206.644 34.6979 205.896 34.6023C204.135 34.3604 202.473 34.537 201.076 35.7901C199.997 36.7516 199.526 38.0143 199.387 39.4077C199.254 40.7381 199.319 42.0686 199.838 43.3216C201.044 46.2244 203.35 47.3456 206.363 47.0445C207.354 46.9381 208.317 46.6512 209.207 46.1978C209.35 46.1265 209.504 45.9559 209.686 46.1531C209.836 46.32 209.686 46.4506 209.639 46.5933C209.486 47.105 209.16 47.417 208.663 47.6323C207.249 48.2528 206.228 48.4838 204.49 48.4826Z" fill="#3E6380"/>
<path d="M160.214 48.0883C159.216 48.0883 158.219 48.0762 157.218 48.0968C156.937 48.0968 156.801 48.0436 156.829 47.7412C156.848 47.5307 156.774 47.3239 157.127 47.2804C158.467 47.1171 158.496 47.1026 158.565 45.7249C158.694 43.2104 158.62 40.6922 158.617 38.1764C158.617 37.2088 158.531 36.2485 158.511 35.2845C158.5 34.7596 158.271 34.5068 157.754 34.5056C157.556 34.5056 157.358 34.4403 157.155 34.4379C156.732 34.4379 156.846 34.127 156.82 33.8839C156.783 33.5295 157.012 33.5489 157.237 33.5634C159.069 33.6759 160.902 33.6843 162.735 33.6263C164.173 33.5767 165.599 33.4823 167.033 33.6263C167.392 33.6638 167.512 33.7666 167.44 34.1439C167.287 34.8929 167.216 35.6567 167.229 36.4214C167.238 36.7045 167.196 36.8762 166.849 36.8641C166.553 36.8544 166.399 36.8327 166.37 36.4529C166.259 34.8805 166.47 35.062 164.812 34.8043C163.887 34.6604 162.941 34.7608 162.004 34.7959C161.709 34.8067 161.624 34.9507 161.619 35.2095C161.59 36.6972 161.565 38.1849 161.527 39.6738C161.519 40.0064 161.679 40.079 161.966 40.0766C162.764 40.0766 163.562 40.0923 164.362 40.0826C165.162 40.0729 165.293 39.9242 165.313 39.115C165.322 38.7812 165.313 38.5586 165.772 38.5635C166.252 38.5695 166.207 38.838 166.206 39.1489C166.206 40.2761 166.195 41.4034 166.206 42.5355C166.206 42.879 166.141 43.0338 165.752 43.0423C165.343 43.0495 165.292 42.8693 165.31 42.5367C165.308 42.3158 165.289 42.0954 165.252 41.8775C165.213 41.5147 165.039 41.3296 164.653 41.2655C163.719 41.1119 162.783 41.1881 161.847 41.1591C161.607 41.1518 161.519 41.2715 161.534 41.4905C161.654 43.1765 161.517 44.8686 161.684 46.5534C161.732 47.0445 161.986 47.2054 162.424 47.2271C162.702 47.2404 162.978 47.3191 163.255 47.3142C163.582 47.307 163.644 47.4497 163.654 47.7472C163.666 48.1282 163.448 48.1101 163.195 48.1101C162.198 48.1101 161.201 48.1101 160.199 48.1101L160.214 48.0883Z" fill="#3D627F"/>
<path d="M188.34 40.3643C188.288 38.8669 188.414 37.1143 188.233 35.3654C188.156 34.6167 188.087 34.5345 187.321 34.5066C186.923 34.4921 186.439 34.5925 186.521 33.8958C186.551 33.643 186.603 33.5511 186.88 33.5717C188.79 33.7144 190.708 33.7144 192.617 33.5717C192.807 33.5572 193.058 33.504 193.022 33.8342C192.997 34.0761 193.195 34.4389 192.714 34.4607C192.656 34.4607 192.595 34.4885 192.538 34.4957C191.316 34.6602 191.285 34.659 191.269 35.9169C191.227 39.3991 191.164 42.8824 191.33 46.3634C191.363 47.0443 191.554 47.1859 192.417 47.2197C192.706 47.2306 193.086 47.0988 193.04 47.6612C193.014 47.9805 192.976 48.0978 192.604 48.0918C190.729 48.0628 188.853 48.0712 186.973 48.0821C186.707 48.0821 186.509 48.1123 186.523 47.7362C186.535 47.4278 186.523 47.1617 186.947 47.2161C187.067 47.2252 187.187 47.2252 187.307 47.2161C188.094 47.1883 188.165 47.0891 188.228 46.2957C188.371 44.4016 188.321 42.5087 188.34 40.3643Z" fill="#3B617E"/>
<path d="M100.75 72.2638C100.75 71.4172 100.761 70.5705 100.75 69.7239C100.75 69.4142 100.845 69.2764 101.157 69.2969C101.652 69.3284 102.161 69.2848 102.641 69.3864C103.952 69.6622 104.581 70.5004 104.585 71.878C104.585 72.2408 104.621 72.6109 104.563 72.9665C104.218 75.0227 102.711 75.3359 101.032 75.2428C100.749 75.2271 100.755 75.0094 100.755 74.8014C100.756 73.9547 100.75 73.1093 100.75 72.2638Z" fill="#FEFEFD"/>
<path d="M128.12 73.0852C127.463 73.0852 126.91 73.0852 126.356 73.0852C126.138 73.0852 126.015 73.0634 126.13 72.7852C126.432 72.0522 126.709 71.3096 127.045 70.4448L128.12 73.0852Z" fill="#FAFBFB"/>
<path d="M65.9124 42.526C65.3361 42.526 64.761 42.5199 64.1846 42.526C63.8779 42.526 63.7904 42.405 63.9019 42.1208C64.5129 40.575 65.122 39.0289 65.7291 37.4823C65.7699 37.3795 65.837 37.2658 65.9268 37.307C66.0238 37.3713 66.0964 37.4667 66.1329 37.5779C66.5922 38.6858 67.0471 39.7961 67.4977 40.9089C67.6558 41.2971 67.7996 41.6914 67.9674 42.076C68.0956 42.3712 68.0644 42.5308 67.7002 42.526C67.1046 42.5187 66.5091 42.526 65.9124 42.526Z" fill="#FAFBFB"/>
<path d="M145.745 42.5267C145.146 42.5267 144.547 42.5267 143.948 42.5267C143.654 42.5267 143.554 42.4287 143.676 42.1215C144.288 40.5951 144.887 39.0627 145.492 37.5327C145.534 37.425 145.558 37.2666 145.714 37.3053C145.786 37.3234 145.852 37.4395 145.887 37.5254C146.513 39.0458 147.132 40.5697 147.761 42.0901C147.891 42.4058 147.817 42.5352 147.473 42.5291C146.9 42.5195 146.323 42.5267 145.745 42.5267Z" fill="#FAFBFB"/>
<path d="M218.46 37.0332C219.091 38.5523 219.658 39.8949 220.203 41.2483C220.358 41.6342 220.757 42.095 220.574 42.4034C220.392 42.7118 219.799 42.4663 219.397 42.534C218.5 42.6852 217.608 42.4748 216.714 42.534C216.391 42.5534 216.341 42.4131 216.451 42.1313C217.097 40.4912 217.743 38.8535 218.46 37.0332Z" fill="#FAFBFB"/>
</svg>
