<svg width="242" height="96" viewBox="0 0 242 96" fill="none" xmlns="http://www.w3.org/2000/svg">
<path d="M115.477 10.3159C115.891 10.3227 116.293 10.438 116.532 10.802C116.758 11.1728 116.771 11.7104 116.865 12.0888C117.048 12.4217 117.202 12.7364 117.122 13.1315C117.063 13.5569 116.799 13.8314 116.532 14.1423C116.73 14.3372 116.971 14.4949 117.228 14.5965C117.571 14.6678 117.943 14.579 118.29 14.6587C118.616 14.7315 118.922 14.7739 119.219 14.9324C119.468 15.0712 119.787 15.1068 120.001 15.2881C120.205 15.47 120.248 15.6953 120.327 15.9425C120.352 16.0767 120.511 16.1389 120.627 16.1715C121.073 16.2738 121.529 16.3648 121.964 16.5089C122.26 16.6355 122.538 16.8289 122.802 17.0109C122.863 16.9404 122.924 16.8699 122.986 16.7993C122.89 16.3861 122.862 15.8939 123.032 15.4966C123.148 15.2107 123.471 15.0757 123.705 14.8945C124.004 14.6693 124.373 14.6063 124.713 14.4668C124.967 14.3637 125.227 14.2659 125.505 14.3235C125.81 14.388 126.123 14.4335 126.421 14.526C126.657 14.6041 126.813 14.8505 126.997 15.0029C127.357 15.0833 127.735 15.1273 128.089 15.2335C128.261 15.285 128.409 15.3851 128.576 15.4412C128.864 15.4807 129.165 15.4443 129.455 15.4579C129.912 15.4609 130.347 15.7362 130.815 15.7643C131.063 15.7681 131.298 15.8424 131.544 15.8606C131.851 15.7438 132.084 15.4829 132.372 15.3517C132.844 15.1819 133.331 15.081 133.829 15.1978C134.04 15.2463 134.202 15.3707 134.393 15.4632C134.921 15.5481 135.284 15.1591 135.8 15.2547C136.058 15.3047 136.295 15.3737 136.461 15.5906C136.648 15.8378 136.806 16.107 136.987 16.358C137.261 16.7227 137.498 17.1732 137.553 17.6312C137.533 17.82 137.464 18.0065 137.409 18.187C137.296 18.5252 137.246 18.8748 137.152 19.2168C137.093 19.4458 136.91 19.6065 136.748 19.7665C136.838 19.9751 136.869 20.1707 137.02 20.3428C137.16 20.5044 137.26 20.6575 137.315 20.8668C137.393 21.1785 137.603 21.3878 137.741 21.6676C137.961 22.1423 138.315 22.4729 138.432 23.0181C138.5 23.2888 138.506 23.6748 138.698 23.8886C138.997 24.1351 139.483 24.22 139.728 24.5256C139.93 24.7523 139.895 25.0981 140.031 25.3605C140.189 25.6501 140.279 25.961 140.345 26.2833C140.391 26.5153 140.243 26.761 140.295 27.0052C140.378 27.3798 140.372 27.8363 140.705 28.0896C140.977 28.2807 141.265 28.4141 141.489 28.6712C141.808 29.0526 142.088 29.4484 142.205 29.9413C142.334 30.2909 142.327 30.6549 142.416 31.0105C142.523 31.1273 142.678 31.1971 142.798 31.3017C142.971 31.4367 143.082 31.6285 143.242 31.7703C143.535 31.9091 143.909 31.9311 144.167 32.1252C144.367 32.2647 144.478 32.4528 144.659 32.6158C144.951 32.8759 145.233 33.1527 145.485 33.4537C145.747 33.773 146.17 34.0217 146.387 34.3705C146.572 34.7717 146.538 35.1728 146.446 35.5921C146.635 35.743 146.813 35.9038 146.988 36.0714C147.205 35.9387 147.406 35.7794 147.628 35.6558C147.938 35.5087 148.288 35.5527 148.594 35.4867C148.753 35.4063 148.884 35.2683 149.032 35.1682C149.279 34.9847 149.554 34.9696 149.828 34.8194C150.008 34.7178 150.18 34.6488 150.387 34.62C150.84 34.5669 151.347 34.3561 151.626 33.98C151.816 33.7707 151.984 33.5637 152.27 33.4909C152.658 33.3635 153.135 33.4507 153.422 33.7525C153.624 33.9648 153.699 34.2522 153.734 34.5358C153.821 35.2623 153.481 35.9993 153.494 36.7417C153.477 37.4856 153.019 37.9474 152.776 38.6215C152.641 38.9203 152.617 39.2456 152.475 39.5406C152.298 39.9387 152.183 40.3527 152.031 40.7607C151.937 41.0321 151.93 41.3415 151.814 41.6024C151.674 41.8526 151.485 42.0786 151.282 42.2795C151.191 42.3773 151.097 42.457 151.049 42.5851C150.941 42.8748 150.841 43.166 150.717 43.4488C150.597 43.7286 150.382 43.8947 150.214 44.1601C149.971 44.5241 149.654 44.8228 149.428 45.1967C149.295 45.412 149.131 45.6016 148.952 45.7806C148.667 46.068 148.438 46.4281 148.146 46.7163C147.971 46.8824 147.71 46.9263 147.547 47.0947C147.236 47.398 146.961 47.7157 146.634 48.0031C146.214 48.361 145.949 48.8107 145.551 49.1898C145.335 49.3961 145.196 49.6479 145.054 49.9064C144.905 50.1847 144.646 50.35 144.498 50.6291C144.35 50.896 144.266 51.1667 144.027 51.3737C143.697 51.6771 143.438 52.0289 143.055 52.2261C142.919 52.2875 142.938 52.4111 142.891 52.5347C142.755 53.0594 142.439 53.4052 142.196 53.87C142.069 54.0922 141.905 54.2818 141.782 54.5047C141.648 54.7512 141.525 55.0044 141.401 55.2562C141.333 55.3965 141.288 55.5823 141.337 55.7339C141.485 56.0092 141.724 56.1866 141.785 56.5036C141.865 56.7743 141.823 57.0579 141.71 57.3119C141.616 57.4916 141.493 57.6244 141.448 57.8276C141.39 58.1074 141.375 58.4244 141.494 58.6905C141.586 58.9256 141.6 59.1819 141.687 59.4162C141.816 59.608 142.038 59.7923 142.127 60.0153C142.232 60.2981 142.278 60.5976 142.23 60.8979C142.126 61.434 141.952 61.9716 141.903 62.5161C141.881 62.805 141.774 63.0606 141.822 63.3555C141.883 63.7771 141.692 64.1464 141.72 64.5658C141.735 64.9692 141.649 65.4113 141.433 65.7563C141.094 66.1734 140.741 66.5768 140.378 66.9734C140.224 67.1281 140.026 67.2145 139.866 67.3662C139.659 67.5489 139.474 67.8075 139.231 67.9379C138.893 68.0896 138.525 68.1525 138.181 68.2579C137.924 68.3747 137.634 68.5135 137.454 68.7371C137.124 69.1155 136.738 69.4355 136.401 69.8063C136.231 69.983 135.999 70.0316 135.813 70.1991C135.48 70.5123 135.08 70.7345 134.74 71.0408C134.758 71.2069 134.785 71.3707 134.816 71.5345C134.878 71.8621 134.81 72.1995 134.877 72.5241C134.912 72.7023 134.946 72.8789 134.943 73.0617C134.955 73.5318 134.719 74.0247 134.606 74.4752C134.525 74.7777 134.479 75.0704 134.255 75.307C133.92 75.7256 133.332 75.9364 132.836 76.0911C132.406 76.2321 132.02 76.4619 131.58 76.5764C131.623 76.9988 131.538 77.4166 131.363 77.801C131.206 78.0702 131.04 78.3296 130.916 78.617C130.724 78.9688 130.591 79.3358 130.195 79.4966C129.482 79.8128 128.947 80.3466 128.472 80.9533C128.255 81.1891 128.054 81.4439 127.829 81.6706C127.466 81.9421 127.069 82.1635 126.723 82.4577C126.464 82.6905 126.145 82.8262 125.89 83.0628C125.609 83.3275 125.247 83.3844 124.885 83.5739C124.55 83.7506 124.242 83.9462 123.869 84.0372C123.606 84.1191 123.338 84.0691 123.082 84.1662C122.785 84.27 122.475 84.3163 122.175 84.4088C121.884 84.4953 121.606 84.568 121.3 84.5119C121.042 84.4771 120.838 84.3633 120.577 84.4528C120.307 84.5354 120.052 84.4998 119.778 84.4854C119.179 84.5453 118.593 84.7121 117.991 84.7614C117.724 84.8388 117.494 84.9571 117.205 84.9593C116.696 84.9753 116.177 84.6553 115.784 84.355C115.554 84.1571 115.248 83.9099 115.177 83.602C115.103 83.3426 115.02 83.0553 115.038 82.7845C115.049 82.5419 115.147 82.3189 115.22 82.0884C115.063 81.8473 114.893 81.6152 114.747 81.368C114.56 81.0427 114.529 80.675 114.374 80.3148C114.281 80.1169 114.231 79.9053 114.152 79.7028C113.957 79.4822 113.691 79.3798 113.527 79.1182C113.376 78.8649 113.19 78.6291 113.054 78.369C112.874 77.8427 112.798 77.2634 112.668 76.7197C112.582 76.3648 112.68 76.0388 112.551 75.693C112.458 75.4298 112.393 75.1667 112.406 74.8854C112.42 74.3842 112.359 73.9224 112.498 73.4333C112.329 73.2513 112.162 73.0844 112.067 72.8486C111.906 72.4687 111.674 72.1389 111.572 71.7332C111.316 71.1 110.997 70.4789 110.588 69.9315C110.373 69.6092 110.205 69.2103 110.21 68.8168C110.211 68.5165 110.202 68.2147 110.217 67.9144C110.233 67.6801 110.329 67.4905 110.386 67.2698C110.449 66.9711 110.434 66.6913 110.599 66.4206C110.73 66.2022 110.826 65.9701 110.899 65.726C111.029 65.2672 111.267 64.8532 111.4 64.3936C111.505 63.9955 111.761 63.6126 112.109 63.3881C112.267 63.2721 112.448 63.1698 112.585 63.0287C112.807 62.7633 112.909 62.3933 112.966 62.0581C112.95 61.729 112.689 61.412 112.588 61.0989C112.468 60.7174 112.228 60.314 112.335 59.9038C112.371 59.6619 112.527 59.4852 112.599 59.2607C112.535 58.9787 112.431 58.7095 112.396 58.419C112.344 58.002 112.011 57.6456 111.918 57.2346C111.831 56.8236 111.724 56.4187 111.647 56.0046C111.5 55.7377 111.298 55.514 111.18 55.2281C111.012 54.8467 110.715 54.6026 110.468 54.2788C110.3 54.0619 110.102 53.889 109.879 53.7305C109.593 53.5227 109.578 53.2278 109.365 52.9593C109.203 52.7523 109.106 52.5612 109.038 52.3064C108.906 51.8014 108.665 51.3464 108.814 50.8194C108.873 50.5085 109.115 50.3864 109.262 50.1423C109.367 49.8321 109.417 49.5053 109.524 49.1952C109.655 48.8471 109.585 48.5036 109.782 48.1707C109.986 47.8401 109.98 47.489 110.105 47.1318C110.134 47.0113 110.202 46.9165 110.146 46.7944C110.027 46.4327 109.74 46.3243 109.502 46.0391C108.972 46.0573 108.407 45.9967 107.884 46.0922C107.205 46.2401 106.387 45.9216 106.022 45.3203C105.835 45.0094 105.858 44.5559 105.773 44.2033C105.731 44.063 105.748 43.8454 105.603 43.7718C105.41 43.6376 105.231 43.5057 104.984 43.5231C104.529 43.5322 104.069 43.5064 103.616 43.5383C103.187 43.5861 102.955 43.9364 102.538 44.0008C102.268 44.0661 102.027 44.0327 101.772 44.1366C101.508 44.2321 101.325 44.4262 101.057 44.4968C100.676 44.6052 100.31 44.6234 99.9554 44.819C99.5476 45.0268 99.1473 45.0268 98.7402 44.8168C98.3308 44.568 97.8935 44.4551 97.4441 44.3049C97.2485 44.2336 97.0785 44.2996 96.8822 44.3322C96.6072 44.3899 96.2945 44.3413 96.0173 44.3709C95.8988 44.4043 95.7923 44.4808 95.6805 44.5324C95.4139 44.6659 95.1178 44.6477 94.855 44.7751C94.5732 44.9062 94.2825 45.02 93.966 44.9601C93.6858 44.9055 93.401 44.8122 93.1609 44.6553C92.8776 44.4748 92.6578 44.2094 92.4124 43.9713C92.1556 43.7066 91.8942 43.489 91.6941 43.1751C91.4124 42.7838 91.1843 42.3751 90.8497 42.0505C90.608 41.8207 90.4698 41.5334 90.2084 41.3392C90.0332 41.2073 89.827 41.1178 89.6979 40.9366C89.4871 40.6386 89.3036 40.3246 89.2243 39.9652C89.1072 39.5239 89.2039 39.0128 89.1548 38.5571C89.1057 38.3098 88.9705 38.0717 88.8338 37.8625C88.6306 37.5584 88.469 37.224 88.3587 36.8744C88.2636 36.5802 88.0891 36.3277 88.0038 36.0312C87.9637 35.9197 87.9501 35.8128 87.8482 35.7377C87.4592 35.3844 87.0362 35.0173 86.9766 34.46C86.9879 34.206 87.0906 33.9497 87.1525 33.704C87.2349 33.3741 87.4214 33.0541 87.4033 32.722C87.4048 32.383 87.2779 32.1093 87.3459 31.7703C87.3965 31.4443 87.6457 31.1629 87.8421 30.9081C88.0226 30.67 88.3263 30.5244 88.3587 30.2135C88.4373 29.7988 88.6563 29.4226 88.8882 29.0761C89.0589 28.8221 89.1276 28.5483 89.2145 28.2579C89.3482 27.7916 89.2069 27.3085 89.3391 26.8611C89.3882 26.6746 89.5377 26.5085 89.6503 26.3546C89.5415 26.0672 89.4093 25.748 89.3837 25.4401C89.3897 25.0738 89.5687 24.6871 89.7099 24.3527C89.8799 23.9584 90.222 23.79 90.4584 23.4594C90.7031 23.0977 90.9403 22.7277 91.2054 22.3811C91.6541 21.8913 92.1767 21.5553 92.5272 20.9783C92.7938 20.5286 93.0634 19.9864 93.5498 19.7339C93.7228 19.6262 93.9494 19.58 94.0612 19.4117C94.253 19.1675 94.3399 18.9006 94.5755 18.7125C94.787 18.5426 94.9894 18.388 95.2613 18.3326C95.4773 18.2727 95.6911 18.2863 95.9116 18.2644C96.1223 18.2325 96.2613 18.0308 96.4063 17.8943C96.5951 17.7047 96.8436 17.7146 97.0581 17.569C97.2832 17.4173 97.4985 17.2535 97.6797 17.0488C97.787 16.9244 97.9041 16.8031 97.9192 16.6317C97.9713 16.2177 98.0997 15.8348 98.2885 15.464C98.4124 15.2357 98.6488 15.056 98.8217 14.8626C99.151 14.4865 99.4622 14.0043 99.8738 13.7176C100.2 13.4826 100.514 13.2725 100.915 13.1906C101.071 13.1489 101.258 13.1398 101.378 13.0299C101.69 12.7561 101.976 12.4566 102.189 12.0979C102.412 11.7718 102.708 11.3608 103.125 11.2994C103.362 11.2327 103.591 11.2843 103.814 11.3684C104.03 11.47 104.174 11.6953 104.382 11.8007C104.781 11.8742 105.162 11.7521 105.538 11.878C105.742 11.9281 105.912 12.0456 106.124 11.9576C106.316 11.8598 106.467 11.6717 106.664 11.5838C106.877 11.5019 107.118 11.4981 107.332 11.423C107.563 11.3335 107.791 11.238 108.008 11.1182C108.353 10.9263 108.77 10.8467 109.154 10.7709C109.679 10.736 110.201 10.6678 110.719 10.5707C111.217 10.4342 111.799 10.7527 112.295 10.7451C112.751 10.6177 113.211 10.6572 113.668 10.5487C113.943 10.4896 114.264 10.6973 114.529 10.601C114.849 10.482 115.121 10.3296 115.477 10.3159Z" fill="black"/>
<path d="M115.337 10.8407C115.613 10.7883 115.865 10.9195 116.143 10.9847C116.304 11.351 116.371 11.6596 116.359 12.0608C116.326 12.3049 116.658 12.4566 116.644 12.7023C116.642 12.9222 116.677 13.1224 116.543 13.3112C116.325 13.726 115.885 13.8837 115.617 14.2712C115.854 14.2833 116.035 14.259 116.26 14.1809C116.333 14.3432 116.381 14.5214 116.471 14.6746C116.579 14.8255 116.786 14.9127 116.947 14.9953C117.185 15.1212 117.41 15.0735 117.668 15.0795C118.194 15.0439 118.747 15.2274 119.235 15.4063C119.484 15.4973 119.747 15.5679 119.96 15.7324C120.034 15.9023 119.925 16.1009 119.877 16.2662C120.025 16.4164 120.154 16.565 120.368 16.6189C120.868 16.7205 121.469 16.7205 121.923 16.9662C122.126 17.067 122.294 17.2096 122.462 17.3605C122.562 17.4735 122.735 17.4363 122.872 17.4424C123.188 17.4484 123.414 17.1603 123.441 16.863C123.465 16.5817 123.238 16.3368 123.276 16.0372C123.43 15.8264 123.636 15.6513 123.815 15.4609C124.178 15.0477 124.791 14.9036 125.306 14.7808C125.716 14.8558 126.127 14.8892 126.528 15.0143C126.589 15.1371 126.641 15.2668 126.712 15.3851C127.145 15.6012 127.612 15.696 128.093 15.608C128.207 15.7066 128.332 15.8674 128.485 15.9C128.829 15.9265 129.178 15.8886 129.523 15.9136C129.864 15.9553 130.213 16.1207 130.521 16.2109C130.74 16.2412 130.967 16.2086 131.186 16.2374C131.322 16.2784 131.449 16.358 131.587 16.3845C131.727 16.3929 131.876 16.3125 131.988 16.2367C132.201 16.0896 132.409 15.9394 132.637 15.8166C132.68 16.0441 132.741 16.2587 132.734 16.493C132.713 17.0928 132.866 17.7116 132.895 18.3144C132.939 18.8179 133.046 19.3244 133.044 19.8295C133.047 20.2132 133.032 20.5923 133.095 20.973C133.124 21.8549 133.104 22.7413 133.117 23.624C133.133 23.9622 133.044 24.2731 132.989 24.6029C132.941 24.9351 132.983 25.2862 132.931 25.6206C132.852 26.0687 132.922 26.5078 132.844 26.9574C132.783 27.3389 132.837 27.7188 132.775 28.1025C132.714 28.4664 132.761 28.8388 132.705 29.2012C132.518 30.0877 132.304 30.9711 132.148 31.8644C132.084 32.4073 131.945 32.9009 131.976 33.4515C132.238 33.4469 132.486 33.4272 132.744 33.3847C132.985 33.3483 133.198 33.4029 133.406 33.274C133.667 33.1284 133.902 32.9449 134.171 32.8107C134.504 32.6302 134.919 32.5885 135.285 32.5135C135.676 32.4058 136.016 32.1244 136.404 32.0054C137.02 31.9516 137.655 32.035 138.271 31.9811C138.765 31.8249 139.259 31.6475 139.717 31.4071C140.118 31.2304 140.51 31.006 140.925 30.8687C141.176 30.9263 141.548 30.9771 141.693 31.2122C141.9 31.4996 142.13 31.6983 142.26 32.0319C142.408 32.4225 142.467 32.8494 142.569 33.2619C142.652 33.5864 142.618 33.9148 142.679 34.2439C142.73 34.9658 142.865 35.674 142.875 36.3997C143.001 37.1595 142.908 37.9148 142.925 38.7117C142.939 39.0189 142.861 39.3138 142.861 39.6202C142.857 40.3019 142.853 40.9859 142.837 41.6683C142.762 42.1991 142.794 42.7269 142.782 43.2607C142.754 44.8039 142.787 46.344 142.788 47.8863C142.783 48.4361 142.818 48.9502 142.737 49.4788C142.652 50.4115 142.794 51.2873 142.586 52.2109C142.282 53.0101 141.792 53.5925 141.338 54.2977C141.051 54.739 140.958 55.2198 140.725 55.6968C140.88 55.9189 141.033 56.1434 141.186 56.3671C141.278 56.5286 141.414 56.6537 141.359 56.8539C141.285 57.0465 141.135 57.2065 141.056 57.3953C141.01 57.7813 141.093 58.1749 140.958 58.5479C140.861 58.8058 140.652 59.0295 140.402 59.1425C139.797 59.2122 139.126 59.1925 138.669 58.7299C138.392 58.4251 138.165 58.0452 138.035 57.6532C137.953 57.2452 138.02 56.7713 138.021 56.377C137.776 55.4397 137.509 54.5032 137.282 53.5682C137.21 53.2331 137.066 52.9373 136.942 52.6211C136.562 51.7385 136.181 50.8566 135.796 49.9762C135.18 48.4877 134.506 47.0257 133.887 45.5387C133.8 45.3498 133.724 45.1133 133.572 44.9669C133.296 44.7099 133.051 44.4278 132.743 44.2063C132.505 44.0335 132.473 43.7938 132.398 43.5299C132.303 43.241 132.241 42.9635 132.106 42.6943C131.863 42.2575 131.988 41.7411 132.051 41.2755C131.663 41.249 131.269 41.271 130.885 41.2225C130.479 41.1527 130.051 41.1694 129.64 41.1603C129.632 41.3339 129.629 41.5007 129.605 41.6721C129.509 42.2659 129.593 42.8892 129.536 43.486C129.46 43.9425 129.492 44.3914 129.473 44.8441C129.395 45.4719 129.387 46.1172 129.417 46.7489C129.418 47.4844 129.393 48.2465 129.254 48.9699C129.042 49.5243 128.773 50.0581 128.593 50.6276C128.464 51.0371 128.271 51.4185 128.121 51.8196C127.892 52.5324 127.559 53.2027 127.338 53.9208C127.288 54.0816 127.254 54.2644 127.165 54.4084C127.049 54.5889 126.798 54.6579 126.678 54.824C126.534 55.2327 126.72 55.6149 126.511 55.9811C126.363 56.2147 126.1 56.3497 126.112 56.6553C126.186 56.8668 126.329 57.0526 126.42 57.2596C126.671 57.8458 126.808 58.5601 126.629 59.1826C126.544 59.4822 126.311 59.5724 126.115 59.7794C126.082 59.9751 126.133 60.2397 126.306 60.3595C126.497 60.5271 126.8 60.5127 127.038 60.521C127.338 60.5097 127.604 60.5969 127.889 60.6772C127.962 61.2369 127.872 61.7904 127.929 62.3516C127.982 62.6314 128.023 62.9051 127.968 63.1902C127.891 63.4374 127.746 63.6217 127.625 63.8401C127.496 64.1176 127.532 64.4225 127.544 64.7189C127.564 65.0336 127.532 65.3461 127.541 65.6615C127.458 65.7131 127.376 65.7639 127.293 65.8147C127.496 65.8238 127.686 65.7836 127.859 65.917C128.05 66.1089 128.035 66.4698 128.183 66.692C128.285 66.8353 128.44 66.943 128.535 67.0901C128.626 67.241 128.684 67.4177 128.741 67.5838C128.883 67.9349 128.816 68.3701 128.807 68.744C128.632 68.8661 128.456 68.9881 128.281 69.1102C128.337 69.3104 128.372 69.5273 128.51 69.6896C128.719 69.8541 129.03 69.9057 129.232 70.0945C129.514 70.3212 129.578 70.7026 129.803 70.9984C129.984 70.9946 130.171 71.0006 130.35 70.9741C130.626 70.83 130.881 70.5085 131.195 70.457C131.42 70.4365 131.662 70.6025 131.799 70.7716C132.159 71.2516 132.332 71.8014 132.422 72.3891C132.473 72.8092 132.748 73.1823 132.865 73.5948C132.907 73.8405 132.886 74.1036 132.877 74.3516C132.857 74.7921 132.905 75.2334 132.888 75.6733C132.274 75.7643 131.787 76.0911 131.213 76.2943C131.317 76.8653 131.057 77.4499 130.748 77.9155C130.503 78.2879 130.362 78.7421 130.069 79.0621C129.929 79.1887 129.726 79.2494 129.559 79.3396C129.312 79.47 129.06 79.5686 128.775 79.558C127.917 79.5497 127.058 79.536 126.199 79.5368C125.899 79.539 125.607 79.4723 125.307 79.4784C124.201 79.4723 123.09 79.4579 121.985 79.4708C121.625 79.4685 121.279 79.5557 120.918 79.539C120.144 79.5224 119.418 79.6073 118.653 79.4875C117.948 79.4723 117.235 79.464 116.53 79.4791C116.027 79.5155 115.593 79.3298 115.087 79.3131C114.706 79.2994 114.269 79.2168 113.956 78.9832C113.794 78.7876 113.698 78.5457 113.529 78.3531C113.324 78.1316 113.343 77.8041 113.289 77.5205C113.218 76.9586 112.979 76.5104 113.031 75.9394C113.068 75.5967 112.823 75.3457 112.868 74.9946C113.677 74.7534 114.488 74.5093 115.296 74.2742C116.062 73.9459 116.794 73.5303 117.553 73.1861C119.028 72.4543 120.514 71.7468 121.985 71.006C122.283 70.8672 122.392 70.6116 122.608 70.3705C122.769 70.1878 122.897 69.9072 123.115 69.7927C123.448 69.6585 123.794 69.5955 124.119 69.4234C124.376 69.2725 124.674 69.2755 124.959 69.3225C125.335 69.4211 125.76 69.3354 126.134 69.4173C126.451 69.5091 126.573 69.7586 126.765 69.9974C126.871 69.9898 126.978 69.983 127.084 69.9762C127.022 69.7411 126.936 69.5182 126.905 69.2748C126.88 68.8259 126.394 68.5248 126.228 68.1381C126.244 67.925 126.309 67.7218 126.309 67.5064C125.586 67.6899 124.893 67.8067 124.146 67.6763C123.822 67.6209 123.555 67.3351 123.533 67.0037C123.513 66.2166 123.498 65.4264 123.505 64.6393C123.575 64.1934 123.195 63.7688 123.079 63.3411C123.061 62.529 123.056 61.8147 123.06 61.0048C123.171 60.7326 123.452 60.3565 123.412 60.0471C123.181 59.489 122.837 59.0765 122.899 58.4251C122.854 57.7988 123.227 57.4014 123.356 56.8304C123.381 56.4953 123.337 56.1502 123.291 55.8188C123.257 55.5929 123.111 55.3806 123.063 55.1584C123.053 54.9976 123.069 54.8338 123.073 54.6723C122.879 54.4759 122.615 54.2932 122.542 54.0187C122.127 52.6325 121.575 51.2797 121.205 49.8814C121.137 49.412 120.854 49.0784 120.726 48.6302C120.581 47.9265 120.462 47.2122 120.254 46.5244C120.158 46.1931 120.232 45.8549 120.121 45.5243C119.956 44.9836 119.856 44.4391 119.893 43.8704C119.882 43.3639 119.924 42.8566 119.891 42.3508C119.89 42.1559 119.775 42.0437 119.656 41.9087C118.84 41.9967 118.024 42.1317 117.204 42.1756C116.711 42.2462 116.218 42.3098 115.719 42.3296C115.103 42.4562 114.491 42.3296 113.876 42.4365C113.504 42.4918 113.105 42.435 112.737 42.4941C112.294 42.579 111.854 42.5062 111.399 42.576C111.014 42.6458 110.63 42.5836 110.249 42.6571C109.998 42.7026 109.745 42.6867 109.494 42.7269C109.146 42.783 108.796 42.7489 108.448 42.8232C107.875 42.852 107.287 42.9021 106.717 42.9787C106.427 43.0044 106.148 42.9779 105.856 43.0249C105.42 43.1099 105.001 43.0204 104.557 43.0697C104.01 43.1265 103.484 43.0424 102.947 42.9498C102.199 42.8407 101.454 42.6791 100.713 42.5328C100.301 42.4448 99.9205 42.419 99.5346 42.2408C99.132 42.0589 98.7272 41.886 98.3208 41.7131C97.8858 41.5394 97.5776 41.1883 97.2324 40.8797C96.9016 40.5855 96.6063 40.2473 96.4205 39.8401C96.2815 39.4875 96.1433 39.1007 95.8752 38.8232C95.7513 38.7004 95.6871 38.5715 95.6388 38.4054C95.4832 37.8723 95.3805 37.3226 95.2823 36.7773C95.2272 36.2958 95.2914 35.7923 95.3744 35.3176C95.5217 34.8649 95.7687 34.4441 95.9568 34.008C96.1879 33.4583 96.4243 32.91 96.6682 32.3656C96.9772 31.6725 97.425 31.0712 97.8133 30.3986C98.3518 29.456 98.9152 28.5294 99.4832 27.6043C99.7679 27.1083 100.069 26.6238 100.372 26.1392C100.648 25.7025 100.88 25.2407 101.157 24.8046C101.4 24.3929 101.655 23.9895 101.881 23.5679C102.485 22.5533 103.266 21.5955 103.94 20.6173C104.507 19.8992 105.085 19.1864 105.646 18.463C106.03 17.936 106.398 17.3984 106.753 16.8509C107.198 16.2359 107.645 15.6194 108.119 15.0257C108.501 14.573 108.902 14.14 109.287 13.6896C109.593 13.3574 109.837 13.0283 110.177 12.7432C110.45 12.5119 110.704 12.2594 110.974 12.0244C111.261 11.7703 111.455 11.4594 111.818 11.2956C112.013 11.1849 112.286 11.288 112.488 11.2024C112.621 11.1394 112.736 11.056 112.855 10.9718C113.026 11.0242 113.195 11.0932 113.37 11.1341C113.575 11.097 113.738 11.0143 113.952 11.0666C114.196 11.1379 114.434 11.1849 114.688 11.1379C114.905 11.0325 115.1 10.9021 115.337 10.8407Z" fill="#FFFBF7"/>
<path d="M119.043 23.8936C119.073 24.2325 119.051 24.573 119.088 24.9112C119.178 25.555 119.099 26.2208 119.182 26.8653C119.239 27.3976 119.189 27.9444 119.255 28.4767C119.303 28.8991 119.267 29.3404 119.31 29.7635C119.397 30.3353 119.331 30.9275 119.386 31.5068C119.451 31.9626 119.437 32.435 119.441 32.896C118.026 32.9097 116.61 32.9074 115.196 32.9226C114.439 32.9991 113.671 32.9711 112.91 32.9688C113.206 32.4403 113.585 31.9595 113.909 31.4484C115.444 29.172 116.971 26.8911 118.508 24.6154C118.681 24.3629 118.814 24.1028 119.043 23.8936Z" fill="black"/>
<path d="M108.145 33.5166C109.255 33.5212 110.365 33.5189 111.474 33.5174C111.595 33.5265 111.706 33.5014 111.795 33.603C111.92 33.9511 111.833 34.2878 111.799 34.648C110.882 34.6927 109.96 34.651 109.042 34.67C109.038 35.2478 109.035 35.8264 109.044 36.4042C109.806 36.408 110.568 36.4049 111.33 36.4042C111.468 36.3981 111.589 36.4436 111.718 36.4853C111.72 36.7636 111.733 37.0442 111.719 37.3225C111.719 37.4605 111.612 37.5742 111.47 37.5621C110.661 37.5735 109.85 37.5568 109.041 37.5682C109.031 38.5494 109.049 39.5344 109.033 40.5141C109.01 40.7545 108.699 40.6916 108.532 40.7037C108.294 40.6832 107.969 40.7575 107.761 40.6248C107.737 40.546 107.727 40.4641 107.727 40.3792C107.728 38.2059 107.729 36.0288 107.727 33.8563C107.727 33.7251 107.727 33.6319 107.835 33.5416C107.934 33.5151 108.044 33.5189 108.145 33.5166Z" fill="black"/>
<path d="M122.449 33.5257C122.758 33.5106 123.08 33.5121 123.388 33.5235C123.504 33.5212 123.536 33.5773 123.588 33.6683C123.617 33.9056 123.598 34.1498 123.602 34.3887C123.601 36.4558 123.6 38.5229 123.602 40.59C123.343 40.7591 123.091 40.6893 122.8 40.7037C122.627 40.6901 122.408 40.7455 122.289 40.5855C122.254 40.3693 122.27 40.1426 122.267 39.9242C122.27 38.1043 122.268 36.2844 122.268 34.4653C122.271 34.2173 122.255 33.9648 122.28 33.7183C122.286 33.6266 122.35 33.525 122.449 33.5257Z" fill="black"/>
<path d="M129.522 33.4478C130.387 33.3932 131.206 33.3675 132.011 33.7443C131.981 34.1242 131.957 34.5117 131.897 34.8871C131.76 34.8886 131.632 34.8947 131.505 34.8325C130.566 34.3881 129.298 34.4822 128.503 35.1805C127.591 35.954 127.435 37.4001 128.004 38.42C128.307 38.9705 128.832 39.3709 129.429 39.5483C130.105 39.7584 130.869 39.6666 131.526 39.4293C131.647 39.3823 131.764 39.3618 131.893 39.3512C132.004 39.7212 131.99 40.1307 132.017 40.5227C131.307 40.8063 130.581 40.8336 129.826 40.8018C128.98 40.7464 128.154 40.4651 127.497 39.9169C126.846 39.3663 126.436 38.5633 126.323 37.7208C126.295 37.419 126.294 37.1142 126.3 36.8116C126.301 36.0647 126.613 35.314 127.086 34.7438C127.691 34.0181 128.595 33.5737 129.522 33.4478Z" fill="black"/>
<path d="M101.26 33.5198C101.648 33.5099 102.037 33.5236 102.426 33.5198C102.778 34.269 103.1 35.0333 103.436 35.7909C104.016 37.1255 104.621 38.4487 105.198 39.784C105.297 40.0259 105.434 40.2648 105.495 40.5196C105.448 40.6166 105.399 40.6978 105.279 40.6963C104.904 40.7122 104.527 40.697 104.152 40.6985C103.895 40.126 103.665 39.5429 103.417 38.9666C102.311 38.956 101.203 38.9582 100.097 38.9651C99.8465 39.5383 99.6146 40.1192 99.3646 40.6932C98.9718 40.7061 98.5783 40.7023 98.1848 40.6985C98.1365 40.6379 98.0874 40.578 98.0391 40.5173C98.5821 39.2388 99.1644 37.9732 99.7332 36.7054C100.163 35.7249 100.601 34.7474 101.035 33.7685C101.091 33.6623 101.124 33.541 101.26 33.5198Z" fill="black"/>
<path d="M114.452 33.5803C114.532 33.5022 114.689 33.5265 114.793 33.5166C115.451 33.5227 116.108 33.5128 116.766 33.5227C117.309 33.556 117.908 33.6137 118.386 33.895C118.844 34.1536 119.171 34.6214 119.225 35.1492C119.256 35.5822 119.278 35.9833 119.029 36.3602C118.801 36.7613 118.437 36.9547 118.038 37.1503C118.208 37.3589 118.366 37.5735 118.485 37.8169C118.886 38.6252 119.301 39.4283 119.69 40.2427C119.763 40.3761 119.764 40.5096 119.766 40.6575C119.352 40.731 118.919 40.6992 118.5 40.6976C118.385 40.712 118.35 40.5793 118.303 40.4997C117.969 39.752 117.63 39.0059 117.278 38.2658C117.16 38.0353 117.038 37.7873 116.774 37.7009C116.448 37.6008 116.062 37.6432 115.722 37.6425C115.719 38.5547 115.724 39.4684 115.722 40.3807C115.722 40.5081 115.698 40.6779 115.543 40.6908C115.228 40.709 114.896 40.7143 114.582 40.687C114.402 40.6688 114.411 40.5263 114.4 40.3814C114.4 38.2324 114.404 36.0796 114.398 33.9299C114.401 33.8078 114.397 33.6933 114.452 33.5803Z" fill="black"/>
<path d="M136.914 33.5199C137.299 33.51 137.685 33.5229 138.071 33.5206C138.657 34.7953 139.211 36.0852 139.776 37.3697C140.161 38.2274 140.543 39.0858 140.919 39.9472C140.996 40.1314 141.101 40.318 141.142 40.5144C141.114 40.6092 141.035 40.6971 140.93 40.6956C140.554 40.7123 140.175 40.6971 139.798 40.6986C139.538 40.1292 139.318 39.5423 139.069 38.9675C137.961 38.9546 136.853 38.9606 135.745 38.9637C135.498 39.5369 135.257 40.1132 135.013 40.688C134.646 40.7047 134.276 40.7115 133.909 40.6964C133.816 40.7047 133.748 40.5834 133.68 40.5296C134.646 38.3009 135.665 36.0958 136.635 33.8679C136.699 33.7496 136.751 33.5244 136.914 33.5199Z" fill="black"/>
<path d="M115.987 34.6627C116.512 34.6634 117.176 34.6422 117.622 34.9683C117.972 35.289 117.933 35.8843 117.559 36.1739C117.041 36.5948 116.337 36.4591 115.721 36.475C115.725 35.9063 115.714 35.336 115.722 34.7681C115.733 34.6392 115.898 34.6702 115.987 34.6627Z" fill="white"/>
<path d="M101.745 35.0098C101.923 35.3389 102.048 35.6998 102.199 36.0426C102.45 36.6462 102.721 37.2429 102.955 37.8526C102.155 37.8663 101.351 37.864 100.551 37.8541C100.942 36.9032 101.355 35.9614 101.745 35.0098Z" fill="white"/>
<path d="M137.397 35.0054C137.57 35.3405 137.698 35.7 137.846 36.0465C138.093 36.6524 138.365 37.2476 138.603 37.8566C137.801 37.8634 136.997 37.8641 136.195 37.855C136.587 36.9019 136.997 35.9555 137.397 35.0054Z" fill="white"/>
<path d="M126.854 64.4777C126.874 64.7097 126.84 64.9402 126.867 65.1761C126.889 65.3603 126.925 65.5362 126.926 65.7243C126.822 65.8934 126.663 65.9617 126.482 66.0223C126.26 65.6144 126.528 65.3042 126.423 64.8871C126.396 64.7165 126.388 64.5444 126.379 64.3723C126.537 64.3836 126.761 64.3101 126.854 64.4777Z" fill="black"/>
</svg>
