<svg width="242" height="96" viewBox="0 0 242 96" fill="none" xmlns="http://www.w3.org/2000/svg">
<path d="M62.0428 20H62.0652C62.904 23.2504 63.9697 26.4536 65.3265 29.5218C66.3223 31.7709 67.5626 33.8133 68.803 35.9265C68.0251 38.7038 66.7695 41.3733 65.409 43.9033C64.3954 45.76 63.1371 47.4328 62.0105 49.2541C60.9592 50.974 59.8954 52.6812 58.8773 54.421C58.4839 55.1124 58.0949 55.8327 57.8511 56.5939C57.6226 57.3388 57.5616 58.099 57.5814 58.8756C57.602 59.8733 57.9748 60.8401 58.6102 61.6031C59.3415 62.492 60.3722 63.072 61.5077 63.226C60.0307 63.5731 58.5063 63.6573 57.0087 63.3855C55.3981 63.1173 53.8441 62.4205 52.6145 61.3267C51.5605 60.4278 50.6302 59.3685 49.8935 58.1887C48.8261 56.4825 48.2086 54.4771 48.1566 52.4573C48.0778 51.765 48.1898 51.0573 48.2131 50.3605C48.4381 48.5981 48.8736 46.7912 49.6775 45.2027C52.2192 41.0281 54.7959 36.8689 57.2121 32.6181C58.3799 30.5911 59.2878 28.4544 60.1006 26.2606C60.8454 24.2082 61.5032 22.1177 62.0428 20Z" fill="#7CAFD2"/>
<path d="M114.54 32.802C114.54 33.5985 114.541 34.3941 114.54 35.1897C114.007 35.2033 113.438 35.0963 112.991 35.4624C112.566 35.8158 112.481 36.5145 112.469 37.0337C112.465 38.5152 112.469 39.9977 112.468 41.4792C113.158 41.4792 113.849 41.4792 114.54 41.4792C114.54 42.2721 114.54 43.065 114.54 43.8579C113.849 43.8579 113.158 43.857 112.467 43.8579C112.468 50.4048 112.466 56.9508 112.468 63.4978C112.472 64.0768 112.748 64.6005 113.216 64.9331C113.542 65.176 113.911 65.2312 114.305 65.272C114.304 65.9426 114.301 66.6122 114.307 67.2827C113.876 67.348 113.457 67.3208 113.024 67.3235C111.27 67.3253 109.516 67.3226 107.762 67.3253C107.748 66.6394 107.761 65.9543 107.754 65.2684C108.175 65.2258 108.569 65.1442 108.9 64.8561C109.313 64.5145 109.543 64.0378 109.545 63.4969C109.546 56.9508 109.545 50.4048 109.546 43.8588C109.058 43.857 108.569 43.8579 108.08 43.8579C108.08 43.065 108.08 42.2721 108.08 41.4792C108.569 41.4783 109.058 41.482 109.546 41.4756C109.547 39.7838 109.544 38.0912 109.548 36.4003C109.575 35.5829 109.695 34.6559 110.186 33.9781C110.53 33.4798 111.041 33.1762 111.609 33.0022C112.511 32.7059 113.587 32.8292 114.54 32.802Z" fill="#495A67"/>
<path d="M86.0117 33.0929C88.1922 33.0693 90.3951 33.0892 92.5792 33.0838C92.5389 33.767 92.5676 34.4494 92.5506 35.1326C91.6552 35.1362 90.8943 35.8584 90.8441 36.7591C90.8325 37.7559 90.8567 38.7545 90.8289 39.7512C90.8262 47.5142 90.8298 55.2781 90.8271 63.042C90.8325 63.3963 90.7904 63.7533 90.923 64.0868C91.1417 64.6939 91.6875 65.1415 92.3202 65.234C92.7943 65.2657 93.2774 65.2521 93.7524 65.243C94.6728 65.156 95.3764 64.3468 95.3387 63.4081C96.0109 63.3682 96.6884 63.3972 97.3615 63.3881C97.3651 64.7002 97.3651 66.0123 97.3615 67.3244C93.5445 67.3235 89.7265 67.3235 85.9086 67.3244C85.8997 66.6394 85.9086 65.9543 85.9023 65.2693C86.277 65.2412 86.6337 65.1723 86.95 64.9558C87.3874 64.6667 87.719 64.1266 87.7118 63.5902C87.71 54.6483 87.7127 45.7055 87.7109 36.7637C87.7011 36.2426 87.3865 35.7288 86.968 35.4353C86.674 35.2142 86.3514 35.1743 86.0009 35.1118C86.0099 34.4394 85.9848 33.7643 86.0117 33.0929Z" fill="#495A67"/>
<path d="M101.043 33.0919C102.072 33.0683 103.105 33.0901 104.135 33.0828C104.133 34.2925 104.138 35.5022 104.131 36.7119C103.1 36.7101 102.068 36.7101 101.037 36.7119C101.038 35.5068 101.02 34.2961 101.043 33.0919Z" fill="#495A67"/>
<path d="M164.856 36.8852C165.824 36.8625 166.796 36.8843 167.763 36.8761C167.763 38.4057 167.766 39.9353 167.762 41.464C168.447 41.4939 169.135 41.4739 169.82 41.4794C169.82 42.2722 169.82 43.0651 169.82 43.858C169.135 43.8616 168.448 43.8489 167.763 43.8662C167.763 50.3179 167.766 56.7706 167.762 63.2233C167.76 63.7018 167.791 64.3043 168.184 64.6369C168.614 65.0057 169.292 64.9169 169.818 64.9278C169.82 65.7261 169.825 66.5262 169.815 67.3245C168.777 67.3037 167.659 67.4233 166.669 67.0509C166.031 66.8216 165.482 66.3858 165.181 65.7642C164.93 65.254 164.835 64.6949 164.848 64.1295C164.846 57.3741 164.847 50.6188 164.848 43.8643C164.369 43.8535 163.887 43.858 163.408 43.8589C163.347 43.0715 163.393 42.2768 163.377 41.4866C163.868 41.473 164.358 41.4875 164.849 41.4667C164.853 39.9416 164.835 38.4093 164.856 36.8852Z" fill="#495A67"/>
<path d="M69.4472 36.9951C71.2486 39.9908 73.1047 42.953 74.8918 45.9569C75.6321 47.1839 76.3849 48.4062 77.0203 49.6966C77.921 51.5007 78.5779 53.4463 78.871 55.4488C79.286 58.1138 79.2044 60.8486 78.4677 63.4501C77.8332 65.73 76.7228 67.8658 75.2377 69.6971C73.3288 72.0549 70.796 73.8881 67.9675 74.9437C66.3077 75.5762 64.561 75.9061 62.7927 76.0003H61.3005C60.0296 75.9215 58.7489 75.7502 57.5238 75.3914C56.322 75.0688 55.182 74.584 54.0742 74.0186C55.1667 74.2007 56.2574 74.3067 57.3634 74.1907C59.6918 73.9705 62.0273 73.1686 63.9067 71.7405C65.3586 70.664 66.4717 69.2015 67.1529 67.5178C67.7175 66.1042 68.0491 64.5665 68.0787 63.0415C68.0831 60.6202 67.3016 58.1664 66.1571 56.056C65.0127 54.0334 63.8216 52.0363 62.6054 50.0582C63.3089 48.8765 64.103 47.7493 64.8504 46.5949C65.9931 44.894 66.9216 43.0844 67.7865 41.2277C68.4138 39.8504 68.9973 38.4413 69.4472 36.9951Z" fill="#7CAFD2"/>
<path d="M121.715 41.1787C122.362 41.2204 122.983 41.2657 123.599 41.4832C124.415 41.7559 125.142 42.2498 125.609 42.9901C126.205 43.9071 126.358 44.9302 126.395 46.0067C126.394 49.0495 126.395 52.0924 126.395 55.1343C124.14 55.1343 121.886 55.1343 119.631 55.1343C119.629 57.6199 119.633 60.1045 119.629 62.5892C119.626 62.9843 119.67 63.3857 119.754 63.7717C119.877 64.2765 120.133 64.7332 120.59 64.9959C120.989 65.2297 121.452 65.2143 121.898 65.1862C122.485 65.1346 122.974 64.7304 123.2 64.1904C123.406 63.6974 123.457 63.1238 123.467 62.5937C123.47 61.3777 123.466 60.1625 123.469 58.9465C124.444 58.9465 125.419 58.9465 126.394 58.9465C126.395 60.2223 126.394 61.4973 126.395 62.7732C126.361 63.9403 126.173 65.0585 125.462 66.0117C124.876 66.7901 124.016 67.2468 123.083 67.4489C121.999 67.6827 120.833 67.6709 119.76 67.3864C118.857 67.1499 118.032 66.6352 117.511 65.8414C116.959 65.0077 116.713 63.9466 116.72 62.9517C116.717 57.3943 116.721 51.8359 116.719 46.2785C116.721 45.8282 116.714 45.366 116.783 44.9211C116.958 43.8528 117.386 42.827 118.251 42.1474C119.24 41.3609 120.491 41.1778 121.715 41.1787Z" fill="#495A67"/>
<path d="M155.599 41.1921C156.207 41.1522 156.868 41.2211 157.467 41.3352C158.382 41.5409 159.22 41.9877 159.731 42.8077C160.338 43.7619 160.407 44.8121 160.417 45.9149C160.419 51.8049 160.416 57.6994 160.418 63.5893C160.426 64.1122 160.705 64.5843 161.11 64.896C161.449 65.1642 161.834 65.224 162.249 65.2748C162.236 65.9227 162.267 66.5751 162.235 67.2221C162.188 67.2973 162.129 67.3299 162.059 67.3209C161.308 67.3308 160.556 67.3209 159.804 67.3227C159.45 67.2393 159.108 67.1605 158.797 66.9593C158.509 66.7889 158.302 66.5452 158.056 66.3241C157.896 66.3984 157.762 66.5307 157.618 66.6313C156.844 67.204 155.927 67.464 154.985 67.5728C154.271 67.6407 153.583 67.6407 152.902 67.3852C152.135 67.1124 151.522 66.4899 151.186 65.7478C150.821 64.9594 150.71 64.0859 150.715 63.2233C150.717 61.2279 150.714 59.2326 150.716 57.2372C150.722 56.013 151.158 54.8468 151.952 53.9244C152.95 52.7491 154.31 51.9988 155.558 51.1389C156.171 50.7039 156.835 50.2191 157.206 49.5458C157.395 49.2078 157.485 48.8418 157.48 48.4548C157.476 47.4563 157.487 46.4577 157.474 45.4591C157.449 44.91 157.341 44.2467 156.887 43.8842C156.513 43.5843 155.961 43.5562 155.504 43.5924C155.046 43.626 154.528 43.8063 154.281 44.2249C153.961 44.7433 153.948 45.4138 153.929 46.0064C153.922 46.8437 153.929 47.681 153.926 48.5183C152.965 48.5183 152.003 48.5183 151.041 48.5183C151.041 46.1723 151.041 43.8253 151.041 41.4793C151.981 41.4793 152.922 41.4793 153.862 41.4793C153.862 41.6179 153.862 41.7575 153.861 41.8961C154.391 41.4992 154.939 41.2618 155.599 41.1921Z" fill="#495A67"/>
<path d="M177.014 41.1768C178.095 41.203 179.116 41.348 180.045 41.947C180.756 42.401 181.25 43.1041 181.528 43.8979C181.78 44.5866 181.836 45.2762 181.875 46.0029C181.878 49.0439 181.875 52.0922 181.876 55.1342C179.621 55.1342 177.367 55.1342 175.112 55.1342C175.111 57.559 175.114 59.9839 175.11 62.4078C175.1 62.908 175.131 63.4399 175.272 63.9229C175.412 64.3887 175.684 64.8073 176.127 65.0275C176.51 65.2305 176.958 65.2115 177.378 65.1852C177.917 65.139 178.385 64.7856 178.623 64.2999C178.837 63.8613 178.913 63.3466 178.93 62.8627C178.932 61.557 178.927 60.2512 178.932 58.9463C179.913 58.9463 180.894 58.9463 181.875 58.9463C181.877 60.1914 181.876 61.4355 181.877 62.6797C181.844 63.6529 181.741 64.5753 181.289 65.4498C180.904 66.2155 180.254 66.8117 179.478 67.1533C178.501 67.5702 177.434 67.6608 176.386 67.5874C175.452 67.4986 174.53 67.2693 173.773 66.6812C173.075 66.1493 172.634 65.3836 172.405 64.54C172.185 63.8006 172.207 63.0802 172.154 62.3172C172.16 56.9102 172.142 51.4978 172.163 46.0917C172.226 45.6423 172.191 45.1964 172.29 44.7497C172.476 43.7339 172.915 42.7915 173.732 42.1427C174.688 41.3897 175.834 41.2058 177.014 41.1768Z" fill="#495A67"/>
<path d="M192.983 41.167C193.001 42.1601 192.988 43.1533 192.991 44.1455C192.443 44.1464 191.901 44.1836 191.365 44.3095C190.727 44.4708 190.109 44.8006 189.747 45.3742C189.268 46.1046 189.208 46.9663 189.173 47.819C189.171 53.014 189.174 58.2089 189.171 63.4039C189.162 63.972 189.388 64.5021 189.83 64.8564C190.184 65.1564 190.607 65.2407 191.056 65.2651C191.049 65.952 191.059 66.6388 191.048 67.3248C188.866 67.3239 186.684 67.3239 184.501 67.3248C184.493 66.6407 184.501 65.9565 184.496 65.2733C184.95 65.2071 185.37 65.0966 185.707 64.7622C186.111 64.3825 186.265 63.8606 186.265 63.3151C186.265 57.2403 186.263 51.1645 186.266 45.0906C186.175 44.6738 186.037 44.2968 185.716 44.0041C185.379 43.6643 184.956 43.5556 184.497 43.5003C184.499 42.8271 184.498 42.1529 184.498 41.4796C185.993 41.4796 187.488 41.4796 188.983 41.4796C188.988 42.094 188.966 42.7102 189 43.3227C189.508 42.6458 190.011 42.0251 190.788 41.65C191.482 41.283 192.215 41.2159 192.983 41.167Z" fill="#495A67"/>
<path d="M195.934 41.2376C196.508 41.3554 196.903 41.8511 196.999 42.4211V42.8524C196.901 43.4187 196.483 43.889 195.929 44.0258C195.322 44.1862 194.647 43.9017 194.34 43.348C193.978 42.7065 194.162 41.8139 194.794 41.4198C195.129 41.1796 195.544 41.1914 195.934 41.2376Z" fill="#495A67"/>
<path d="M99.3308 41.4795C100.904 41.4795 102.477 41.4795 104.05 41.4795C104.05 48.7885 104.05 56.0975 104.05 63.4056C104.047 63.9212 104.214 64.4141 104.594 64.7675C104.947 65.1119 105.396 65.236 105.875 65.2686C105.872 65.9537 105.876 66.6396 105.872 67.3247C103.694 67.3247 101.515 67.3229 99.3371 67.3247C99.3236 66.6396 99.3353 65.9528 99.3281 65.2677C99.726 65.2378 100.105 65.1526 100.428 64.9016C100.837 64.589 101.113 64.1133 101.13 63.5895C101.135 57.5509 101.128 51.5006 101.134 45.4629C101.157 45.0198 101.054 44.5957 100.793 44.236C100.439 43.7403 99.9178 43.5446 99.3308 43.502C99.3308 42.8278 99.3308 42.1537 99.3308 41.4795Z" fill="#495A67"/>
<path d="M128.031 41.4794C130.216 41.4794 132.402 41.4785 134.588 41.4803C134.587 42.3683 134.589 43.2554 134.587 44.1434C134.238 44.1498 133.926 44.1298 133.61 44.3084C133.135 44.553 132.847 45.1121 132.877 45.6422C133.473 51.5503 134.035 57.4901 134.641 63.3937C134.765 62.9796 134.753 62.5627 134.798 62.1396C135.397 55.2773 135.982 48.3425 136.58 41.4794C137.903 41.4803 139.228 41.4766 140.552 41.4821C140.625 42.4888 140.726 43.4946 140.798 44.5023C141.254 49.6347 141.7 55.0372 142.152 60.1669C142.252 61.247 142.313 62.3344 142.44 63.4109C142.608 62.6923 142.613 61.9357 142.709 61.2044C142.854 59.4583 143.072 57.7175 143.215 55.9714C143.572 52.5317 143.88 49.1644 144.241 45.7301C144.302 45.1764 144.014 44.5748 143.521 44.3129C143.208 44.1308 142.897 44.1507 142.548 44.1434C142.547 43.2554 142.548 42.3674 142.548 41.4794C144.733 41.4803 146.919 41.4775 149.105 41.4812C149.103 42.3701 149.106 43.2599 149.103 44.1489C148.697 44.1561 148.252 44.1027 147.876 44.2621C147.266 44.5014 146.857 45.0876 146.802 45.7428C146.639 47.5533 146.414 49.3565 146.237 51.1652C146.098 52.7464 145.864 54.3222 145.758 55.9062L145.716 55.9632C145.703 56.2206 145.689 56.477 145.657 56.7335C145.404 58.9191 145.201 61.1065 144.958 63.2931C144.802 64.636 144.694 65.9843 144.529 67.3254C143.194 67.3227 141.859 67.3245 140.525 67.3245C140.3 64.8825 140.123 62.454 139.888 60.0074C139.677 57.2645 139.411 54.5433 139.193 51.8031C139.053 50.1077 138.886 48.4096 138.755 46.7151C138.685 46.098 138.684 45.4564 138.565 44.8357C138.431 45.577 138.403 46.3418 138.335 47.092C137.815 53.1451 137.298 59.2018 136.772 65.2549C136.709 65.9436 136.685 66.644 136.575 67.3273C135.25 67.32 133.925 67.3245 132.599 67.3254C132.475 66.3876 132.389 65.4452 132.285 64.5055C132.135 62.8763 131.93 61.2524 131.774 59.625C131.297 55.1441 130.828 50.6632 130.352 46.1823C130.302 45.7854 130.295 45.3251 130.077 44.9834C129.877 44.6608 129.572 44.3836 129.215 44.2513C128.855 44.1054 128.418 44.157 128.033 44.1498C128.03 43.259 128.032 42.3692 128.031 41.4794Z" fill="#495A67"/>
<path d="M195.226 41.4958C195.846 41.2819 196.548 41.6797 196.718 42.3122C196.937 42.9945 196.369 43.8019 195.656 43.8037C195.009 43.8672 194.409 43.3135 194.412 42.6565C194.385 42.1391 194.749 41.6571 195.226 41.4958Z" fill="white"/>
<path d="M195.023 41.7745C195.331 41.7736 195.637 41.7773 195.944 41.7954C196.059 41.9585 196.186 42.0727 196.167 42.292C196.183 42.5158 196.035 42.6173 195.916 42.7804C196.056 43.0205 196.197 43.2597 196.342 43.4971C196.195 43.4953 196.048 43.4935 195.901 43.4917C195.766 43.2289 195.66 42.9707 195.426 42.7776C195.406 43.016 195.402 43.2543 195.401 43.4935C195.274 43.4935 195.149 43.4935 195.023 43.4935C195.023 42.9199 195.023 42.3472 195.023 41.7745Z" fill="#495A67"/>
<path d="M195.417 42.041C195.542 42.0637 195.663 42.0999 195.784 42.1362C195.784 42.2413 195.784 42.3464 195.784 42.4515C195.661 42.4959 195.535 42.5312 195.408 42.563C195.406 42.3881 195.403 42.2159 195.417 42.041Z" fill="white"/>
<path d="M121.053 43.6289C121.691 43.5083 122.431 43.5881 122.887 44.1028C123.356 44.6111 123.444 45.4339 123.469 46.0981C123.474 48.2212 123.47 50.3452 123.47 52.4683C122.192 52.4683 120.913 52.4683 119.634 52.4683C119.633 50.3434 119.635 48.2194 119.633 46.0945C119.647 45.5218 119.718 44.8603 120.021 44.3628C120.243 43.9759 120.621 43.7168 121.053 43.6289Z" fill="white"/>
<path d="M176.651 43.6067C177.241 43.5297 177.884 43.6067 178.319 44.0553C178.775 44.521 178.909 45.2831 178.931 45.9138C178.934 48.0967 178.931 50.2841 178.932 52.4679C177.659 52.4679 176.387 52.4679 175.114 52.4679C175.113 50.314 175.115 48.1601 175.113 46.0071C175.134 45.4127 175.214 44.7639 175.558 44.2646C175.8 43.8913 176.222 43.6683 176.651 43.6067Z" fill="white"/>
<path d="M47.4924 48.9043C47.4135 49.5005 47.2925 50.0859 47.2666 50.6894C47.15 51.726 47.2128 52.7591 47.3445 53.7903C47.6725 56.0275 48.5894 58.1407 49.9857 59.9059C50.7045 60.8193 51.5469 61.6683 52.4521 62.3923C54.2222 63.7724 56.4036 64.4167 58.6226 64.4547C60.2215 64.4792 61.8697 64.2046 63.3422 63.5603C64.371 63.1009 65.3264 62.4349 65.9296 61.4545C66.3284 60.8274 66.4817 60.1424 66.5901 59.4147C66.928 60.6697 67.1843 61.9193 67.1574 63.2278C67.057 65.0102 66.5982 66.8433 65.693 68.3874C64.7089 70.0774 63.1172 71.4076 61.3391 72.1715C60.1328 72.6934 58.8485 73.0577 57.5454 73.2172C57.0991 73.2407 56.6509 73.296 56.2037 73.3014C55.5638 73.2489 54.9311 73.2444 54.3019 73.0967C52.4441 72.7161 50.7269 71.7383 49.4309 70.342C46.7396 67.3843 45.1739 63.4743 45 59.4637V57.8317C45.0484 56.9101 45.1389 55.9877 45.2904 55.0779C45.6659 52.9013 46.4483 50.8389 47.4924 48.9043Z" fill="#7CAFD2"/>
<path d="M157.466 53.1318C157.499 56.2227 157.469 59.3163 157.481 62.4081C157.495 63.1094 157.397 63.9422 156.963 64.5149C156.64 64.9471 156.122 65.2108 155.585 65.2008C155.035 65.2226 154.514 65.1519 154.133 64.7079C153.76 64.2458 153.689 63.529 153.668 62.9527C153.662 61.1105 153.669 59.2674 153.665 57.4243C153.666 57.1307 153.65 56.8597 153.735 56.5743C153.859 56.1131 154.133 55.7107 154.47 55.38C155.356 54.5083 156.627 54.0298 157.466 53.1318Z" fill="white"/>
</svg>
