<svg width="242" height="96" viewBox="0 0 242 96" fill="none" xmlns="http://www.w3.org/2000/svg">
<path d="M56 16H185V80H56V16ZM60.7085 19.1325C60.7085 23.0947 60.7149 27.0601 60.702 31.0223C61.2277 31.0287 61.7534 31.032 62.2791 31.0352C62.2823 29.4657 62.292 27.8963 62.2855 26.3236C62.8918 26.3268 63.5013 26.3268 64.1076 26.33C65.3654 27.9124 66.6199 29.4979 67.8938 31.0673C68.5872 31.0448 69.2773 31.0255 69.9707 31.003C68.5485 29.3628 67.194 27.6583 65.8169 25.9795C66.7296 25.272 67.8777 24.5869 68.0615 23.3391C68.1873 22.4386 68.2324 21.2261 67.6164 20.48C67.0972 19.8754 66.4683 19.3833 65.6589 19.2643C64.0431 19.0103 62.3436 19.1518 60.7085 19.1325ZM153.369 38.8792C152.434 38.9853 151.499 39.0882 150.563 39.1751C150.647 37.5542 151.492 35.3544 150.615 33.9007C149.66 31.9614 148.051 30.5431 147.084 28.6006C147.219 28.3112 147.355 28.0217 147.49 27.7323C148.287 27.6486 149.086 27.5618 149.883 27.4589C149.999 26.7128 150.128 25.9731 150.28 25.2366C149.967 24.1753 150.102 23.4838 150.451 22.474C150.276 22.1041 150.102 21.7375 149.928 21.3709C149.18 20.8691 148.509 20.1102 147.574 20.0362C146.497 19.8979 145.291 19.8207 144.236 20.123C143.159 20.8016 142.646 21.8758 142.44 23.0947C142.214 24.3489 141.198 25.0661 140.798 26.2947C140.634 27.0826 140.747 27.922 140.598 28.7099C140.26 29.2985 139.721 29.7745 139.334 30.3373C139.386 30.7489 139.563 31.1542 139.689 31.5465C140.337 31.6494 140.982 31.762 141.63 31.8714C141.866 34.8302 142.591 37.8115 142.653 40.767C142.701 42.5584 142.324 44.2629 142.008 46.0125C141.633 48.0708 142.207 50.3027 142.266 52.3417C142.32 54.0687 141.679 55.7154 141.462 57.4939C141.172 59.2338 141.256 60.8129 140.198 62.3212C138.486 64.7686 137.464 67.4991 136.141 70.1491C135.796 71.3745 135.296 72.4165 134.687 73.526C136.754 75.1694 139.537 76.8257 142.269 76.7035C142.146 76.279 142.024 75.8577 141.901 75.4332C140.75 74.6677 139.557 73.9763 139.053 72.6062C138.979 71.9791 139.35 71.2973 139.634 70.7538C141.159 68.049 142.946 65.5373 144.61 62.9097C144.549 64.4567 144.371 65.9232 144.629 67.4637C145.052 69.969 145.058 72.5258 144.529 75.0119C145.661 75.4525 146.777 76.0539 147.942 76.3208C150.38 76.7839 152.202 77.9642 154.769 77.2245C154.598 76.8096 154.45 76.3498 154.195 75.9767C153.479 75.3817 152.44 75.1855 151.705 74.6291C151.183 74.1435 150.712 73.5582 150.38 72.9246C150.238 72.2332 150.338 71.4742 150.373 70.7731C151.824 69.969 152.047 68.6054 152.976 67.364C154.121 65.8074 155.336 64.3699 156.298 62.6685C156.955 61.6008 156.784 60.0571 156.93 58.8253C157.162 59.7966 157.41 60.7646 157.597 61.7423C157.849 62.8808 157.42 64 157.371 65.206C157.207 67.1164 158.181 68.9817 158.778 70.7538C159.255 72.0563 159.052 73.3298 159.932 74.4876C160.129 75.4267 160.151 76.681 160.738 77.4689C161.461 78.318 162.412 77.9481 163.392 77.9642C165.36 77.7777 167.204 78.1604 169.146 77.7005C169.259 77.3564 169.368 77.0155 169.478 76.6746C167.572 75.6036 165.663 75.7773 163.999 74.285C163.834 73.2205 163.557 72.2396 163.151 71.2394C162.483 69.6925 162.364 67.84 162.215 66.1709C162.09 64.7236 162.315 63.3889 162.76 62.0189C163.041 61.2213 162.767 60.5524 162.622 59.7644C162.348 58.5166 162.541 57.2527 162.36 55.9662C162.09 53.9851 161.651 52.0587 161.599 50.0519C161.903 49.7367 162.206 49.4215 162.509 49.1063C162.841 49.5566 163.17 50.0068 163.499 50.4603C164.067 50.5761 164.657 50.6629 165.202 50.8559C165.924 51.6567 166.395 52.7083 166.946 53.6281C171.523 61.4432 176.186 69.2422 180.704 77.083C180.966 77.0412 181.227 77.0026 181.488 76.9608C176.402 68.0619 171.074 59.3013 165.963 50.4185C166.066 50.2416 166.172 50.0647 166.276 49.8911C166.118 49.2961 165.966 48.6979 165.824 48.0997C164.699 46.9869 163.254 45.8677 162.477 44.4913C162.18 43.9928 162.306 43.2498 162.277 42.687C162.328 41.1819 162.148 39.6929 162.241 38.1877C162.283 36.9463 162.444 35.6245 162.254 34.3928C161.87 32.4438 160.793 30.9001 159.477 29.4561C159.642 29.1152 159.819 28.7839 160.009 28.4591C160.509 28.2565 161.048 28.1407 161.57 27.9992C161.799 27.0344 162.102 26.3075 162.744 25.5421C162.602 24.9471 162.425 24.3393 162.36 23.7282C162.348 22.9081 162.751 22.043 162.86 21.2326C162.693 20.8981 162.506 20.5797 162.315 20.2581C160.78 19.8529 159.19 18.7369 157.571 19.1067C156.12 19.7114 155.465 21.2583 155.33 22.7409C155.14 23.9502 155.662 24.8442 155.862 25.9924C155.93 26.6806 155.417 27.3881 155.069 27.9542C154.117 29.2921 153.821 31.1027 153.495 32.6882C153.05 34.7787 153.198 36.7727 153.369 38.8792ZM77.7204 30.5431C77.7236 29.9996 77.7236 29.4593 77.7268 28.9158C76.9722 29.2695 76.1724 29.6973 75.3629 29.8935C74.2503 30.1347 73.0957 29.7906 72.312 28.9672C71.8767 28.3562 71.7477 27.475 71.5542 26.7642C73.6569 26.7288 75.766 26.7546 77.8687 26.7353C77.8268 25.3652 77.9526 24.1656 77.0173 23.0336C76.1433 21.8597 74.7501 21.7922 73.4086 21.9497C71.9831 22.0913 70.9608 23.3102 70.4286 24.5419C70.0642 25.6096 70.0384 26.8092 70.2126 27.9124C70.4544 29.5172 71.8122 30.9065 73.4279 31.1477C74.9275 31.4275 76.3272 31.0834 77.7204 30.5431ZM83.6189 27.7869C83.6318 28.4205 83.9414 29.2342 83.2738 29.6394C81.8032 30.5528 80.1746 29.5301 78.8265 28.8836C78.8298 29.4464 78.833 30.0092 78.833 30.5753C80.7325 31.3375 83.4318 31.8231 84.8734 29.9771C85.4765 29.0444 85.4797 27.1727 84.4477 26.523C83.3286 25.9634 82.0032 25.7801 80.8099 25.4038C80.6358 25.0179 80.4648 24.632 80.2907 24.246C80.7712 23.7861 81.0453 23.1976 81.7774 23.1686C83.0352 22.995 83.9317 23.5771 84.9895 24.127C84.9734 23.5321 84.9573 22.9371 84.9379 22.3389C83.4512 21.9819 81.5259 21.5767 80.1165 22.3614C78.7911 23.0786 78.4783 25.0018 79.3393 26.166C80.3101 27.2466 82.287 27.2788 83.6189 27.7869ZM89.0111 21.9819C87.0954 22.3839 86.0247 24.4486 86.0699 26.2818C85.9602 28.1407 86.5762 30.1315 88.3758 30.9741C89.8367 31.4951 91.7136 31.4147 92.8263 30.2086C94.055 29.0316 94.0615 27.2241 93.9647 25.645C93.8937 24.2428 93.1971 22.9371 91.9459 22.2553C91.059 21.8436 89.9592 21.834 89.0111 21.9819ZM116.807 30.6332C116.801 30.0671 116.798 29.4979 116.798 28.9286C116.059 29.3146 115.237 29.8677 114.402 29.9578C113.241 30.1025 112.096 29.2856 111.805 28.1664C111.522 27.1727 111.538 26.0567 111.786 25.0533C112.034 24.0852 112.983 23.159 114.034 23.2008C115.053 23.1429 115.943 23.7829 116.804 24.2492C116.798 23.6318 116.788 23.0143 116.778 22.3936C114.908 21.8758 112.889 21.4802 111.318 22.9307C109.616 24.7188 109.522 28.0346 111.031 29.961C112.554 31.6816 114.869 31.405 116.807 30.6332ZM125.189 30.5688C125.186 30.0157 125.186 29.4625 125.186 28.9061C124.341 29.3081 123.399 29.8356 122.464 29.9449C121.393 30.0607 120.274 29.6362 119.629 28.7614C119.31 28.1664 119.255 27.4139 119.11 26.7578C121.229 26.7417 123.344 26.7449 125.463 26.7353C125.344 25.3781 125.341 23.8472 124.335 22.7988C123.444 21.8115 122.064 21.8082 120.839 21.9465C119.091 22.2392 117.81 23.918 117.665 25.6289C117.559 26.8736 117.552 28.3755 118.288 29.4496C118.962 30.5431 120.181 31.122 121.438 31.2121C122.764 31.3536 123.957 30.9934 125.189 30.5688ZM131.494 28.9544C131.043 29.3114 130.507 29.9385 129.894 29.9578C128.54 30.1347 127.511 29.4561 126.36 28.8901C126.376 29.4625 126.392 30.035 126.405 30.6074C127.956 31.1895 129.901 31.6141 131.436 30.7908C132.916 29.9771 133.287 27.8673 132.123 26.6356C131.081 25.9666 129.633 25.9506 128.527 25.3749C127.808 25.1401 128.088 24.2074 127.985 23.6157C128.614 23.3938 129.166 23.1365 129.849 23.1493C130.82 23.1365 131.668 23.7025 132.507 24.1206C132.471 23.5224 132.432 22.9242 132.381 22.326C130.897 21.9658 128.695 21.4802 127.401 22.5447C126.234 23.3262 126.134 25.0661 126.837 26.1789C127.769 27.1855 129.204 27.1373 130.414 27.5522C130.984 27.7387 131.197 28.488 131.494 28.9544ZM95.574 22.1266C95.6127 24.2814 95.4772 26.4523 95.6223 28.6006C95.7707 29.9192 96.4576 31.0931 97.8927 31.2346C99.1924 31.4597 100.063 30.8551 101.082 30.1829C101.073 30.4659 101.066 30.7457 101.056 31.0255C101.585 31.0255 102.114 31.0255 102.643 31.0223C102.633 28.0474 102.64 25.0726 102.633 22.1009C102.111 22.0848 101.592 22.072 101.073 22.0591C101.073 24.3425 101.06 26.6291 101.069 28.9126C99.9858 29.4818 99.0957 30.0896 97.8153 29.6555C97.1349 29.1055 97.1381 28.3883 97.0962 27.5875C97.0575 25.7737 97.0994 23.9566 97.0897 22.1427C96.5834 22.1363 96.0771 22.1298 95.574 22.1266ZM104.759 22.0816C104.714 25.0629 104.756 28.0442 104.743 31.0255C105.23 31.0352 105.717 31.0416 106.207 31.048C106.229 28.9351 106.236 26.8253 106.191 24.7124C107.174 23.8505 108.239 23.6961 109.503 23.5867C109.474 23.0561 109.445 22.5222 109.412 21.9883C108.055 22.117 107.281 22.5286 106.233 23.3487C106.226 22.9307 106.216 22.5093 106.21 22.088C105.726 22.0848 105.243 22.0848 104.759 22.0816ZM88.0533 38.0076C87.7469 38.0109 87.4437 38.0109 87.1406 38.0141C87.147 38.4161 87.1503 38.8181 87.1535 39.2233C87.4889 39.2201 87.8211 39.2169 88.1565 39.2169C88.1565 41.7865 88.1468 44.3594 88.1565 46.929C88.6789 46.9323 89.1981 46.9355 89.7206 46.9355C89.7303 44.3626 89.7238 41.7897 89.7238 39.2169C90.5397 39.2201 91.3557 39.2201 92.1684 39.2201C92.1748 38.8149 92.1781 38.4096 92.1813 38.0044C91.3234 37.998 90.4623 37.9948 89.6045 37.9787C89.7561 37.3419 89.6593 36.0587 90.4494 35.8593C91.1654 35.6374 92.02 35.7789 92.765 35.7821C92.7392 35.3286 92.7102 34.8752 92.6844 34.4217C91.5846 34.4346 90.0689 34.1612 89.2014 34.9749C88.3371 35.7178 88.2468 36.9624 88.0533 38.0076ZM118.668 46.9451C119.187 46.9387 119.71 46.9323 120.232 46.9226C120.252 44.6263 120.203 42.3301 120.265 40.0338C121.506 39.2973 122.177 39.1075 123.641 39.2297C123.909 39.9437 124.186 40.6223 124.196 41.4006C124.244 43.2434 124.206 45.0927 124.225 46.9355C124.725 46.9387 125.228 46.9419 125.728 46.9419C125.692 44.7743 125.802 42.5938 125.689 40.4293C125.634 39.2233 124.983 38.1331 123.777 37.7889C122.387 37.432 121.377 38.1106 120.232 38.757C120.252 37.3033 120.245 35.8464 120.139 34.3928C119.665 34.4185 119.184 34.4346 118.713 34.4925C118.597 38.6316 118.688 42.7996 118.668 46.9451ZM113.257 38.0012C112.921 38.0044 112.586 38.0076 112.254 38.0109C112.257 38.4064 112.26 38.802 112.26 39.1976C112.599 39.2105 112.934 39.2265 113.273 39.2394C113.286 40.9343 113.237 42.6324 113.273 44.3305C113.282 45.0894 113.521 45.9964 114.089 46.5335C115.059 47.3246 116.378 47.003 117.52 46.9548C117.523 46.4852 117.527 46.0157 117.53 45.5461C116.662 45.6458 115.379 46.1218 114.924 45.0509C114.618 43.1534 114.847 41.1465 114.766 39.2233C115.688 39.2233 116.611 39.2233 117.533 39.2137C117.527 38.8052 117.523 38.3936 117.517 37.9851C116.607 37.9883 115.698 37.9948 114.789 38.0044C114.782 37.1168 114.776 36.2259 114.776 35.3383C114.289 35.364 113.792 35.3801 113.308 35.4476C113.228 36.2903 113.26 37.1522 113.257 38.0012ZM134.748 46.3566C134.748 45.8259 134.745 45.2953 134.748 44.7646C133.355 45.485 131.794 46.1958 130.233 45.5043C129.008 44.9737 128.846 43.729 128.562 42.5745C130.675 42.5359 132.787 42.5648 134.903 42.5616C134.854 41.4328 134.925 40.1656 134.313 39.1686C132.903 37.0911 129.414 37.2969 128.037 39.3037C126.808 41.153 126.753 44.1889 128.298 45.8806C130.036 47.5948 132.697 47.2989 134.748 46.3566ZM94.8419 38.0913C93.6003 38.6573 92.7779 40.0499 92.6876 41.3877C92.565 42.7932 92.5909 44.3851 93.4455 45.5815C94.8709 47.7684 98.6861 47.6687 99.9471 45.3564C100.953 43.594 100.898 40.9343 99.7794 39.2265C98.8022 37.6892 96.406 37.3323 94.8419 38.0913ZM102.166 46.9323C102.656 46.9355 103.143 46.9355 103.633 46.9355C103.64 44.7518 103.64 42.5713 103.633 40.3908C104.746 39.77 105.549 39.5321 106.836 39.4999C106.826 38.9628 106.816 38.4289 106.803 37.8919C105.471 38.0173 104.717 38.3646 103.646 39.1461C103.633 38.7538 103.62 38.3614 103.607 37.9723C103.137 37.9883 102.669 38.0012 102.205 38.0494C102.021 39.1397 102.072 40.3007 102.066 41.407C102.085 43.2563 102.008 45.0862 102.166 46.9323ZM80.3165 74.761C81.313 74.7707 82.3063 74.7707 83.2996 74.7642C83.2932 66.4828 83.3222 58.1982 83.2835 49.9168C82.316 49.9168 81.3292 49.8685 80.3649 49.9682C80.3101 50.4314 80.3068 50.9041 80.3004 51.3705C80.3262 59.1662 80.3004 66.9652 80.3165 74.761ZM124.264 49.9168C124.27 52.4575 124.26 54.9982 124.26 57.5357C122.206 56.6094 120.174 55.9759 117.926 56.7124C115.279 57.4681 113.553 59.6969 112.783 62.2408C112.015 64.9648 112.131 67.9461 112.947 70.6444C113.479 72.1817 114.334 73.5936 115.769 74.4394C117.149 75.3367 118.858 75.4428 120.439 75.1662C121.932 74.8639 123.077 73.9827 124.257 73.0854C124.26 73.645 124.264 74.2046 124.267 74.7642C125.292 74.7707 126.318 74.7707 127.343 74.761C127.343 66.4892 127.35 58.2143 127.34 49.9425C126.315 49.9264 125.289 49.9168 124.264 49.9168ZM87.5276 50.872C87.5469 51.9236 87.6018 52.9721 87.6792 54.0237C88.7821 54.0173 89.8819 54.0205 90.9848 54.0302C90.9912 52.9785 91.0106 51.9236 90.9687 50.872C89.827 50.8109 88.6725 50.8462 87.5276 50.872ZM61.1987 50.962C61.189 58.8993 61.2052 66.8366 61.1955 74.7771C63.769 74.7578 66.3426 74.7932 68.9129 74.7674C71.022 74.7288 73.0538 74.3172 74.7372 72.9825C77.4043 71.0786 78.0848 67.0874 76.5852 64.2701C75.7499 62.7972 74.4147 62.1186 72.928 61.4529C74.476 60.5813 75.8144 59.3463 76.1111 57.5196C76.2949 56.1431 76.2594 54.4643 75.379 53.313C74.2922 51.721 72.0411 51.0617 70.1997 51.0167C67.2036 50.9073 64.198 50.9845 61.1987 50.962ZM98.3507 58.8253C98.3023 58.2014 98.2443 57.5807 98.1798 56.9568C97.1929 56.96 96.2061 56.9664 95.2192 56.9793C95.2289 62.9097 95.2257 68.8402 95.2192 74.7674C96.2512 74.7739 97.2864 74.7674 98.3185 74.7481C98.2926 70.2874 98.283 65.8235 98.3217 61.3628C99.7536 60.353 101.24 59.2595 103.082 59.2627C104.123 59.2691 105.442 59.7676 105.784 60.8482C106.239 61.9835 106.216 63.3407 106.242 64.5532C106.245 67.9526 106.252 71.352 106.242 74.7514C107.268 74.7739 108.293 74.7739 109.319 74.7642C109.335 70.9339 109.319 67.1067 109.332 63.2764C109.293 61.6137 109.09 59.7226 108 58.3879C106.62 56.5001 103.836 55.9437 101.711 56.7445C100.411 57.169 99.3859 57.9698 98.3507 58.8253ZM87.7856 56.9664C87.7888 62.8969 87.7856 68.8241 87.7888 74.7546C88.7821 74.7674 89.7754 74.7739 90.7687 74.7707C90.801 68.837 90.7881 62.9001 90.7816 56.9664C89.7819 56.9632 88.7853 56.9632 87.7856 56.9664Z" fill="black" stroke="#FFFBF7" stroke-width="10"/>
<path d="M60.7096 19.1325C62.3447 19.1518 64.0442 19.0103 65.66 19.2644C66.4694 19.3834 67.0983 19.8754 67.6175 20.48C68.2335 21.2262 68.1884 22.4386 68.0626 23.3391C67.8788 24.587 66.7306 25.272 65.818 25.9795C67.195 27.6583 68.5495 29.3629 69.9718 31.0031C69.2784 31.0256 68.5883 31.0449 67.8949 31.0674C66.621 29.4979 65.3665 27.9124 64.1087 26.3301C63.5024 26.3269 62.8929 26.3269 62.2866 26.3237C62.293 27.8963 62.2834 29.4658 62.2801 31.0352C61.7545 31.032 61.2288 31.0288 60.7031 31.0223C60.716 27.0601 60.7096 23.0947 60.7096 19.1325ZM62.2995 20.4061C62.2866 21.9273 62.2866 23.4517 62.2866 24.9729C63.2218 24.9504 64.228 25.0244 65.1439 24.8121C66.4533 24.3136 66.8887 22.3743 66.1598 21.2744C65.3632 20.2774 63.4379 20.4993 62.2995 20.4061Z" fill="black" stroke="#157344" stroke-width="10"/>
<path d="M157.572 19.1067C159.191 18.7369 160.781 19.8528 162.316 20.2581C162.506 20.5797 162.693 20.8981 162.861 21.2325C162.751 22.043 162.348 22.9081 162.361 23.7282C162.426 24.3393 162.603 24.9471 162.745 25.5421C162.103 26.3075 161.8 27.0344 161.571 27.9992C161.049 28.1407 160.51 28.2565 160.01 28.4591C159.82 28.7839 159.643 29.1152 159.478 29.4561C160.794 30.9001 161.871 32.4438 162.255 34.3927C162.445 35.6245 162.284 36.9463 162.242 38.1877C162.148 39.6928 162.329 41.1819 162.277 42.687C162.306 43.2498 162.181 43.9927 162.477 44.4912C163.255 45.8677 164.699 46.9869 165.825 48.0997C165.967 48.6979 166.118 49.2961 166.276 49.891C166.173 50.0647 166.067 50.2416 165.964 50.4185C171.075 59.3013 176.403 68.0619 181.489 76.9608C181.227 77.0026 180.966 77.0412 180.705 77.083C176.187 69.2422 171.523 61.4432 166.947 53.6281C166.396 52.7083 165.925 51.6567 165.202 50.8559C164.657 50.6629 164.067 50.5761 163.5 50.4603C163.171 50.0068 162.842 49.5566 162.51 49.1063C162.206 49.4215 161.903 49.7367 161.6 50.0518C161.652 52.0587 162.09 53.9851 162.361 55.9662C162.542 57.2526 162.348 58.5166 162.622 59.7644C162.768 60.5523 163.042 61.2213 162.761 62.0189C162.316 63.3889 162.09 64.7236 162.216 66.1708C162.364 67.84 162.484 69.6924 163.151 71.2394C163.558 72.2396 163.835 73.2205 164 74.285C165.664 75.7773 167.573 75.6036 169.479 76.6746C169.369 77.0155 169.26 77.3564 169.147 77.7005C167.205 78.1604 165.36 77.7777 163.393 77.9642C162.413 77.9481 161.461 78.318 160.739 77.4689C160.152 76.681 160.13 75.4267 159.933 74.4876C159.052 73.3298 159.256 72.0563 158.778 70.7537C158.182 68.9817 157.208 67.1164 157.372 65.206C157.421 64 157.849 62.8808 157.598 61.7423C157.411 60.7646 157.163 59.7966 156.93 58.8253C156.785 60.0571 156.956 61.6008 156.298 62.6685C155.337 64.3698 154.121 65.8074 152.976 67.364C152.048 68.6054 151.825 69.969 150.374 70.773C150.338 71.4742 150.238 72.2331 150.38 72.9246C150.713 73.5582 151.183 74.1435 151.706 74.6291C152.441 75.1855 153.48 75.3817 154.196 75.9767C154.45 76.3497 154.599 76.8096 154.77 77.2245C152.202 77.9642 150.38 76.7839 147.942 76.3208C146.778 76.0539 145.662 75.4524 144.53 75.0118C145.059 72.5258 145.053 69.969 144.63 67.4637C144.372 65.9232 144.55 64.4567 144.611 62.9097C142.947 65.5373 141.16 68.049 139.635 70.7537C139.351 71.2973 138.98 71.9791 139.054 72.6062C139.557 73.9763 140.75 74.6677 141.902 75.4331C142.024 75.8577 142.147 76.279 142.269 76.7035C139.538 76.8257 136.755 75.1694 134.688 73.526C135.297 72.4165 135.797 71.3745 136.142 70.1491C137.464 67.4991 138.487 64.7686 140.199 62.3212C141.257 60.8128 141.173 59.2338 141.463 57.4939C141.679 55.7154 142.321 54.0687 142.266 52.3417C142.208 50.3027 141.634 48.0707 142.008 46.0124C142.324 44.2629 142.702 42.5584 142.653 40.767C142.592 37.8114 141.866 34.8301 141.631 31.8713C140.983 31.762 140.338 31.6494 139.689 31.5465C139.564 31.1542 139.386 30.7489 139.335 30.3373C139.722 29.7745 140.26 29.2985 140.599 28.7099C140.747 27.922 140.634 27.0826 140.799 26.2947C141.199 25.0661 142.215 24.3489 142.44 23.0947C142.647 21.8758 143.16 20.8016 144.237 20.123C145.291 19.8207 146.497 19.8979 147.575 20.0362C148.51 20.1101 149.181 20.8691 149.929 21.3708C150.103 21.7375 150.277 22.1041 150.451 22.474C150.103 23.4838 149.968 24.1753 150.28 25.2366C150.129 25.973 150 26.7127 149.884 27.4589C149.087 27.5618 148.287 27.6486 147.491 27.7322C147.355 28.0217 147.22 28.3111 147.084 28.6006C148.052 30.5431 149.661 31.9614 150.616 33.9007C151.493 35.3544 150.648 37.5542 150.564 39.1751C151.499 39.0882 152.435 38.9853 153.37 38.8792C153.199 36.7726 153.051 34.7787 153.496 32.6882C153.821 31.1027 154.118 29.292 155.07 27.9542C155.418 27.3881 155.931 26.6806 155.863 25.9923C155.663 24.8442 155.14 23.9501 155.331 22.7409C155.466 21.2583 156.121 19.7113 157.572 19.1067ZM152.638 41.5646C151.996 41.7865 151.354 41.9956 150.709 42.2078C150.209 46.3051 150.5 50.0776 149.319 53.8532C148.442 56.6898 149.877 59.1405 149.197 61.9224C148.865 63.2346 148.616 64.5178 148.561 65.875C149.197 64.7815 149.922 63.8424 150.78 62.9129C151.464 62.2151 151.428 61.3757 151.69 60.4591C152.354 59.0762 152.299 57.7158 152.677 56.1978C152.915 55.0271 153.37 53.85 153.467 52.6601C153.454 51.3704 152.899 50.1097 152.841 48.804C152.722 47.3728 153.373 46.2762 153.686 44.9158C153.983 43.7001 153.78 42.4297 153.618 41.2108C153.289 41.3298 152.964 41.4456 152.638 41.5646Z" fill="black" stroke="#2C45C3" stroke-width="10"/>
<path d="M62.2981 20.4058C63.4365 20.499 65.3618 20.2771 66.1584 21.2741C66.8872 22.374 66.4519 24.3133 65.1425 24.8118C64.2266 25.0241 63.2204 24.9501 62.2852 24.9726C62.2852 23.4514 62.2852 21.927 62.2981 20.4058Z" fill="black" stroke="#FFFBF7" stroke-width="10"/>
<path d="M73.4097 21.9496C74.7513 21.792 76.1445 21.8595 77.0184 23.0334C77.9537 24.1655 77.8279 25.3651 77.8698 26.7351C75.7671 26.7544 73.658 26.7287 71.5553 26.7641C71.7488 27.4748 71.8778 28.356 72.3132 28.9671C73.0968 29.7904 74.2514 30.1345 75.364 29.8933C76.1735 29.6971 76.9733 29.2694 77.7279 28.9156C77.7247 29.4591 77.7247 29.9994 77.7215 30.543C76.3283 31.0833 74.9286 31.4274 73.429 31.1476C71.8133 30.9064 70.4556 29.517 70.2137 27.9122C70.0395 26.8091 70.0653 25.6095 70.4298 24.5418C70.9619 23.31 71.9842 22.0911 73.4097 21.9496ZM71.5392 25.5066C73.1936 25.558 74.8512 25.558 76.5089 25.5194C76.1864 24.6961 76.1025 23.622 75.1479 23.2746C74.3707 23.0109 73.2936 23.0173 72.6421 23.5898C72.0777 24.0207 71.8326 24.8794 71.5392 25.5066Z" fill="black" stroke="#157344" stroke-width="10"/>
<path d="M84.9356 22.3389C84.9549 22.9371 84.9711 23.5321 84.9872 24.1271C83.9294 23.5771 83.0328 22.995 81.7751 23.1687C81.043 23.1976 80.7689 23.7861 80.2884 24.246C80.4625 24.632 80.6334 25.0179 80.8076 25.4038C82.0008 25.7801 83.3263 25.9634 84.4454 26.523C85.4774 27.1727 85.4742 29.0444 84.8711 29.9771C83.4295 31.8231 80.7302 31.3375 78.8307 30.5753C78.8307 30.0093 78.8274 29.4464 78.8242 28.8836C80.1723 29.5301 81.8009 30.5528 83.2715 29.6394C83.9391 29.2342 83.6295 28.4205 83.6166 27.787C82.2846 27.2788 80.3077 27.2466 79.337 26.166C78.4759 25.0018 78.7887 23.0786 80.1142 22.3614C81.5235 21.5767 83.4489 21.9819 84.9356 22.3389Z" fill="black" stroke="#157344" stroke-width="10"/>
<path d="M89.012 21.9821C89.9602 21.8342 91.0599 21.8439 91.9468 22.2555C93.1981 22.9373 93.8947 24.243 93.9656 25.6453C94.0624 27.2244 94.0559 29.0318 92.8272 30.2089C91.7146 31.4149 89.8376 31.4953 88.3767 30.9743C86.5772 30.1317 85.9612 28.1409 86.0708 26.282C86.0257 24.4489 87.0964 22.3842 89.012 21.9821ZM89.3442 23.2332C88.5089 23.5066 87.8994 24.2752 87.793 25.1468C87.6446 26.2595 87.5898 27.5106 87.9542 28.588C88.6283 30.241 90.9406 30.5048 91.9403 29.0061C92.7401 27.517 92.7659 25.4587 91.85 24.0115C91.2663 23.1721 90.2827 23.0531 89.3442 23.2332Z" fill="black" stroke="#157344" stroke-width="10"/>
<path d="M116.777 22.3934C116.787 23.0141 116.796 23.6316 116.803 24.249C115.942 23.7827 115.052 23.1427 114.033 23.2006C112.981 23.1588 112.033 24.085 111.785 25.0531C111.536 26.0565 111.52 27.1725 111.804 28.1662C112.094 29.2854 113.239 30.1023 114.4 29.9576C115.235 29.8675 116.058 29.3144 116.796 28.9284C116.796 29.4977 116.8 30.0669 116.806 30.633C114.868 31.4048 112.552 31.6814 111.03 29.9608C109.521 28.0344 109.614 24.7186 111.317 22.9304C112.888 21.48 114.907 21.8756 116.777 22.3934Z" fill="black" stroke="#157344" stroke-width="10"/>
<path d="M120.838 21.9463C122.064 21.808 123.444 21.8112 124.334 22.7986C125.341 23.847 125.344 25.3779 125.463 26.7351C123.344 26.7447 121.229 26.7415 119.11 26.7576C119.255 27.4137 119.31 28.1662 119.629 28.7612C120.274 29.636 121.393 30.0605 122.464 29.9447C123.399 29.8354 124.341 29.3079 125.186 28.9059C125.186 29.4623 125.186 30.0155 125.189 30.5686C123.957 30.9932 122.764 31.3534 121.438 31.2118C120.181 31.1218 118.962 30.5429 118.287 29.4494C117.552 28.3753 117.559 26.8734 117.665 25.6287C117.81 23.9178 119.091 22.239 120.838 21.9463ZM119.023 25.5033C120.671 25.558 122.322 25.5644 123.973 25.4937C123.709 24.68 123.657 23.7505 122.812 23.3164C121.99 22.998 120.784 22.998 120.103 23.6348C119.568 24.0754 119.31 24.8826 119.023 25.5033Z" fill="black" stroke="#157344" stroke-width="10"/>
<path d="M132.38 22.3259C132.432 22.9241 132.471 23.5223 132.506 24.1205C131.668 23.7024 130.82 23.1364 129.849 23.1493C129.165 23.1364 128.614 23.3937 127.985 23.6156C128.088 24.2073 127.807 25.14 128.527 25.3748C129.633 25.9505 131.081 25.9665 132.122 26.6355C133.287 27.8672 132.916 29.977 131.436 30.7907C129.9 31.614 127.956 31.1895 126.405 30.6073C126.392 30.0349 126.375 29.4624 126.359 28.89C127.511 29.456 128.539 30.1346 129.894 29.9577C130.507 29.9384 131.042 29.3113 131.494 28.9543C131.197 28.4879 130.984 27.7386 130.413 27.5521C129.204 27.1372 127.769 27.1854 126.837 26.1788C126.134 25.066 126.234 23.3261 127.401 22.5446C128.694 21.4801 130.897 21.9657 132.38 22.3259Z" fill="black" stroke="#157344" stroke-width="10"/>
<path d="M95.5752 22.1266C96.0783 22.1298 96.5846 22.1363 97.091 22.1427C97.1006 23.9566 97.0587 25.7737 97.0974 27.5875C97.1393 28.3883 97.1361 29.1055 97.8166 29.6555C99.0969 30.0896 99.987 29.4818 101.071 28.9126C101.061 26.6291 101.074 24.3425 101.074 22.0591C101.593 22.0719 102.112 22.0848 102.635 22.1009C102.641 25.0725 102.635 28.0474 102.644 31.0223C102.116 31.0255 101.587 31.0255 101.058 31.0255C101.067 30.7457 101.074 30.4659 101.084 30.1829C100.064 30.8551 99.1937 31.4597 97.894 31.2346C96.4589 31.0931 95.7719 29.9192 95.6236 28.6006C95.4785 26.4522 95.6139 24.2814 95.5752 22.1266Z" fill="black" stroke="#157344" stroke-width="10"/>
<path d="M104.76 22.0815C105.244 22.0848 105.727 22.0848 106.211 22.088C106.218 22.5093 106.227 22.9306 106.234 23.3487C107.282 22.5286 108.056 22.1169 109.413 21.9883C109.446 22.5222 109.475 23.056 109.504 23.5867C108.24 23.696 107.175 23.8504 106.192 24.7123C106.237 26.8253 106.23 28.935 106.208 31.048C105.718 31.0415 105.231 31.0351 104.744 31.0255C104.757 28.0442 104.715 25.0629 104.76 22.0815Z" fill="black" stroke="#157344" stroke-width="10"/>
<path d="M75.1478 23.2748C76.1024 23.6221 76.1863 24.6963 76.5088 25.5196C74.8511 25.5582 73.1935 25.5582 71.5391 25.5067C71.8325 24.8796 72.0776 24.0209 72.642 23.59C73.2935 23.0175 74.3706 23.0111 75.1478 23.2748Z" fill="black" stroke="#FFFBF7" stroke-width="10"/>
<path d="M89.3447 23.2331C90.2832 23.053 91.2668 23.172 91.8505 24.0114C92.7664 25.4586 92.7406 27.5169 91.9408 29.006C90.9411 30.5046 88.6287 30.2409 87.9547 28.5879C87.5903 27.5105 87.6451 26.2594 87.7935 25.1467C87.8999 24.2751 88.5094 23.5065 89.3447 23.2331Z" fill="black" stroke="#FFFBF7" stroke-width="10"/>
<path d="M122.813 23.3166C123.658 23.7507 123.709 24.6802 123.974 25.4938C122.323 25.5646 120.671 25.5582 119.023 25.5035C119.31 24.8828 119.568 24.0756 120.104 23.635C120.784 22.9982 121.99 22.9982 122.813 23.3166Z" fill="black" stroke="#FFFBF7" stroke-width="10"/>
<path d="M92.6844 34.4218C92.7102 34.8753 92.7392 35.3287 92.765 35.7822C92.0201 35.779 91.1654 35.6375 90.4495 35.8594C89.6594 36.0588 89.7561 37.342 89.6045 37.9788C90.4624 37.9949 91.3235 37.9981 92.1813 38.0045C92.1781 38.4097 92.1749 38.815 92.1684 39.2202C91.3557 39.2202 90.5398 39.2202 89.7239 39.217C89.7239 41.7898 89.7303 44.3627 89.7206 46.9356C89.1982 46.9356 88.679 46.9324 88.1565 46.9291C88.1468 44.3595 88.1565 41.7866 88.1565 39.217C87.8211 39.217 87.4889 39.2202 87.1535 39.2234C87.1503 38.8182 87.1471 38.4162 87.1406 38.0142C87.4438 38.0109 87.7469 38.0109 88.0533 38.0077C88.2468 36.9625 88.3371 35.7179 89.2014 34.975C90.0689 34.1613 91.5847 34.4347 92.6844 34.4218Z" fill="black" stroke="#157344" stroke-width="10"/>
<path d="M118.713 34.4923C119.184 34.4344 119.664 34.4183 120.138 34.3926C120.245 35.8462 120.251 37.3031 120.232 38.7568C121.377 38.1104 122.386 37.4318 123.776 37.7888C124.982 38.1329 125.634 39.2231 125.689 40.4292C125.801 42.5936 125.692 44.7741 125.727 46.9417C125.227 46.9417 124.724 46.9385 124.224 46.9353C124.205 45.0925 124.244 43.2432 124.195 41.4004C124.186 40.6221 123.908 39.9435 123.641 39.2296C122.176 39.1074 121.506 39.2971 120.264 40.0336C120.203 42.3299 120.251 44.6261 120.232 46.9224C119.709 46.9321 119.187 46.9385 118.668 46.9449C118.687 42.7994 118.597 38.6314 118.713 34.4923Z" fill="black" stroke="#157344" stroke-width="10"/>
<path d="M113.308 35.4477C113.792 35.3802 114.289 35.3641 114.776 35.3384C114.776 36.226 114.782 37.1169 114.789 38.0045C115.698 37.9949 116.608 37.9884 117.517 37.9852C117.524 38.3937 117.527 38.8053 117.533 39.2138C116.611 39.2234 115.689 39.2234 114.766 39.2234C114.847 41.1466 114.618 43.1535 114.924 45.0509C115.379 46.1219 116.662 45.6459 117.53 45.5462C117.527 46.0158 117.524 46.4853 117.52 46.9549C116.379 47.0031 115.06 47.3247 114.089 46.5336C113.521 45.9965 113.283 45.0895 113.273 44.3305C113.238 42.6324 113.286 40.9344 113.273 39.2395C112.934 39.2266 112.599 39.2105 112.26 39.1977C112.26 38.8021 112.257 38.4065 112.254 38.0109C112.586 38.0077 112.921 38.0045 113.257 38.0013C113.26 37.1522 113.228 36.2903 113.308 35.4477Z" fill="black" stroke="#157344" stroke-width="10"/>
<path d="M134.312 39.1689C134.924 40.1659 134.854 41.4331 134.902 42.5619C132.786 42.5651 130.674 42.5362 128.562 42.5748C128.845 43.7293 129.007 44.974 130.232 45.5046C131.793 46.1961 133.354 45.4853 134.747 44.7649C134.744 45.2956 134.747 45.8262 134.747 46.3569C132.696 47.2992 130.035 47.5951 128.297 45.8809C126.752 44.1892 126.807 41.1533 128.036 39.304C129.413 37.2972 132.902 37.0913 134.312 39.1689ZM128.555 41.3173C130.203 41.3912 131.841 41.3623 133.493 41.343C133.302 40.7127 133.18 39.7317 132.59 39.3394C131.767 38.8602 130.458 38.8698 129.668 39.4198C129.139 39.8893 128.855 40.6869 128.555 41.3173Z" fill="black" stroke="#157344" stroke-width="10"/>
<path d="M94.8407 38.0912C96.4048 37.3322 98.801 37.6892 99.7781 39.2265C100.897 40.9342 100.952 43.5939 99.9458 45.3563C98.6849 47.6687 94.8697 47.7684 93.4442 45.5815C92.5896 44.3851 92.5638 42.7931 92.6864 41.3877C92.7767 40.0498 93.599 38.6572 94.8407 38.0912ZM95.4921 39.2812C94.7117 39.6671 94.3988 40.5804 94.2569 41.3813C94.1021 42.6323 94.1408 44.0184 94.8955 45.0894C95.7243 46.0124 97.5174 46.0896 98.3333 45.1023C98.9493 44.3304 99.0203 43.3141 99.0428 42.3654C99.0364 41.4391 98.9654 40.4808 98.3269 39.7507C97.7238 38.921 96.3467 38.892 95.4921 39.2812Z" fill="black" stroke="#157344" stroke-width="10"/>
<path d="M102.204 38.0497C102.668 38.0014 103.136 37.9886 103.606 37.9725C103.619 38.3616 103.632 38.754 103.645 39.1464C104.716 38.3649 105.47 38.0175 106.802 37.8921C106.815 38.4292 106.825 38.963 106.835 39.5001C105.548 39.5323 104.745 39.7703 103.632 40.391C103.639 42.5715 103.639 44.752 103.632 46.9357C103.142 46.9357 102.655 46.9357 102.165 46.9325C102.007 45.0865 102.084 43.2565 102.065 41.4073C102.071 40.3009 102.02 39.1399 102.204 38.0497Z" fill="black" stroke="#157344" stroke-width="10"/>
<path d="M95.4919 39.2809C96.3465 38.8918 97.7236 38.9207 98.3267 39.7505C98.9652 40.4805 99.0362 41.4389 99.0426 42.3651C99.02 43.3139 98.9491 44.3302 98.3331 45.102C97.5172 46.0894 95.7241 46.0122 94.8953 45.0892C94.1406 44.0182 94.1019 42.6321 94.2567 41.381C94.3986 40.5802 94.7114 39.6668 95.4919 39.2809Z" fill="black" stroke="#FFFBF7" stroke-width="10"/>
<path d="M129.667 39.4195C130.457 38.8696 131.767 38.8599 132.589 39.3391C133.179 39.7315 133.302 40.7124 133.492 41.3428C131.841 41.3621 130.203 41.391 128.555 41.317C128.855 40.6867 129.138 39.8891 129.667 39.4195Z" fill="black" stroke="#FFFBF7" stroke-width="10"/>
<path d="M153.615 41.2109C153.777 42.4298 153.98 43.7002 153.683 44.9159C153.37 46.2763 152.719 47.3729 152.838 48.8041C152.896 50.1098 153.451 51.3705 153.464 52.6602C153.367 53.8501 152.912 55.0272 152.674 56.1979C152.296 57.7159 152.351 59.0763 151.687 60.4592C151.426 61.3758 151.461 62.2152 150.777 62.913C149.92 63.8425 149.194 64.7816 148.559 65.8751C148.613 64.5179 148.862 63.2347 149.194 61.9225C149.874 59.1406 148.439 56.6899 149.316 53.8533C150.497 50.0777 150.207 46.3052 150.706 42.2079C151.351 41.9957 151.993 41.7866 152.635 41.5647C152.961 41.4457 153.286 41.3299 153.615 41.2109Z" fill="black" stroke="#FFFBF7" stroke-width="10"/>
<path d="M80.3653 49.9684C81.3296 49.8687 82.3164 49.9169 83.2839 49.9169C83.3226 58.1983 83.2936 66.483 83.3 74.7644C82.3067 74.7708 81.3134 74.7708 80.3169 74.7612C80.3008 66.9654 80.3266 59.1664 80.3008 51.3706C80.3072 50.9043 80.3105 50.4315 80.3653 49.9684Z" fill="black" stroke="#157344" stroke-width="10"/>
<path d="M127.339 49.9427C127.349 58.2145 127.343 66.4895 127.343 74.7612C126.317 74.7709 125.292 74.7709 124.266 74.7644C124.263 74.2048 124.26 73.6452 124.256 73.0856C123.076 73.9829 121.931 74.8641 120.438 75.1664C118.858 75.443 117.148 75.3369 115.768 74.4396C114.333 73.5938 113.478 72.1819 112.946 70.6446C112.13 67.9463 112.014 64.965 112.782 62.241C113.553 59.6971 115.278 57.4683 117.926 56.7126C120.174 55.9761 122.205 56.6097 124.26 57.5359C124.26 54.9984 124.269 52.4577 124.263 49.917C125.288 49.917 126.314 49.9266 127.339 49.9427ZM124.256 70.5192C124.263 67.0523 124.266 63.5853 124.26 60.1216C122.508 59.3144 120.715 58.8738 118.803 59.3916C116.874 60.038 115.807 61.9902 115.571 63.9069C115.362 65.753 115.362 67.718 115.858 69.519C116.326 71.0563 117.465 72.3974 119.193 72.4038C121.196 72.5711 122.718 71.6545 124.256 70.5192Z" fill="black" stroke="#157344" stroke-width="10"/>
<path d="M90.9684 50.8722C91.0103 51.9239 90.991 52.9787 90.9845 54.0304C89.8816 54.0207 88.7819 54.0175 87.6789 54.024C87.6015 52.9723 87.5467 51.9239 87.5273 50.8722C88.6722 50.8465 89.8268 50.8111 90.9684 50.8722Z" fill="black" stroke="#157344" stroke-width="10"/>
<path d="M61.1985 50.9618C64.1978 50.9843 67.2035 50.9071 70.1995 51.0164C72.041 51.0615 74.292 51.7208 75.3789 53.3127C76.2593 54.4641 76.2948 56.1429 76.1109 57.5194C75.8142 59.3461 74.4759 60.5811 72.9279 61.4526C74.4146 62.1184 75.7497 62.7969 76.585 64.2699C78.0846 67.0872 77.4042 71.0784 74.7371 72.9823C73.0536 74.3169 71.0219 74.7286 68.9127 74.7672C66.3424 74.7929 63.7689 74.7576 61.1953 74.7768C61.205 66.8363 61.1889 58.8991 61.1985 50.9618ZM64.2978 53.7179C64.3074 56.0142 64.3074 58.3073 64.301 60.6036C66.0522 60.5843 67.8195 60.6775 69.5674 60.5521C70.8477 60.417 72.1152 59.8928 72.6183 58.6128C73.2955 56.9887 73.0762 54.5992 71.0961 54.046C68.945 53.4735 66.5166 53.7951 64.2978 53.7179ZM64.2849 63.3437C64.3074 66.2703 64.3139 69.1937 64.301 72.1204C66.4198 72.0914 68.6934 72.2812 70.7671 71.7891C72.3538 71.4 73.8244 70.1264 73.9921 68.4347C74.0824 67.1869 74.1147 65.7461 73.2213 64.7491C72.3345 63.8679 71.1251 63.3823 69.877 63.363C68.0162 63.2858 66.1457 63.3115 64.2849 63.3437Z" fill="black" stroke="#157344" stroke-width="10"/>
<path d="M64.2969 53.718C66.5157 53.7952 68.9441 53.4736 71.0952 54.046C73.0753 54.5992 73.2946 56.9888 72.6174 58.6129C72.1143 59.8929 70.8469 60.4171 69.5665 60.5522C67.8186 60.6776 66.0513 60.5843 64.3001 60.6036C64.3066 58.3074 64.3066 56.0143 64.2969 53.718Z" fill="black" stroke="#FFFBF7" stroke-width="10"/>
<path d="M107.999 58.3881C109.089 59.7228 109.293 61.6138 109.331 63.2766C109.318 67.1069 109.335 70.934 109.318 74.7644C108.293 74.774 107.267 74.774 106.242 74.7515C106.251 71.3521 106.245 67.9527 106.242 64.5533C106.216 63.3409 106.239 61.9837 105.784 60.8484C105.442 59.7678 104.123 59.2693 103.081 59.2629C101.24 59.2597 99.7531 60.3531 98.3212 61.363C98.2825 65.8237 98.2922 70.2876 98.318 74.7483C97.286 74.7676 96.2507 74.774 95.2188 74.7676C95.2252 68.8404 95.2284 62.9099 95.2188 56.9795C96.2056 56.9666 97.1924 56.9602 98.1793 56.957C98.2438 57.5809 98.3019 58.2016 98.3502 58.8255C99.3855 57.97 100.411 57.1692 101.711 56.7447C103.836 55.9439 106.619 56.5003 107.999 58.3881Z" fill="black" stroke="#157344" stroke-width="10"/>
<path d="M90.7812 56.9663C90.7876 62.8999 90.8005 68.8368 90.7683 74.7705C89.775 74.7737 88.7817 74.7673 87.7884 74.7544C87.7852 68.824 87.7884 62.8967 87.7852 56.9663C88.7849 56.9631 89.7814 56.9631 90.7812 56.9663Z" fill="black" stroke="#157344" stroke-width="10"/>
<path d="M118.802 59.3912C120.714 58.8734 122.507 59.314 124.258 60.1213C124.265 63.585 124.261 67.0519 124.255 70.5188C122.717 71.6541 121.194 72.5707 119.192 72.4035C117.463 72.397 116.325 71.0559 115.857 69.5186C115.36 67.7176 115.36 65.7526 115.57 63.9066C115.806 61.9898 116.873 60.0376 118.802 59.3912Z" fill="black" stroke="#FFFBF7" stroke-width="10"/>
<path d="M69.8773 63.3632C71.1254 63.3825 72.3348 63.8681 73.2216 64.7493C74.115 65.7463 74.0827 67.1871 73.9924 68.4349C73.8247 70.1266 72.3541 71.4002 70.7674 71.7893C68.6937 72.2814 66.4201 72.0916 64.3013 72.1206C64.3142 69.1939 64.3077 66.2705 64.2852 63.3439C66.146 63.3117 68.0165 63.286 69.8773 63.3632Z" fill="black" stroke="#FFFBF7" stroke-width="10"/>
<path d="M56 16H185V80H56V16ZM60.7085 19.1325C60.7085 23.0947 60.7149 27.0601 60.702 31.0223C61.2277 31.0287 61.7534 31.032 62.2791 31.0352C62.2823 29.4657 62.292 27.8963 62.2855 26.3236C62.8918 26.3268 63.5013 26.3268 64.1076 26.33C65.3654 27.9124 66.6199 29.4979 67.8938 31.0673C68.5872 31.0448 69.2773 31.0255 69.9707 31.003C68.5485 29.3628 67.194 27.6583 65.8169 25.9795C66.7296 25.272 67.8777 24.5869 68.0615 23.3391C68.1873 22.4386 68.2324 21.2261 67.6164 20.48C67.0972 19.8754 66.4683 19.3833 65.6589 19.2643C64.0431 19.0103 62.3436 19.1518 60.7085 19.1325ZM153.369 38.8792C152.434 38.9853 151.499 39.0882 150.563 39.1751C150.647 37.5542 151.492 35.3544 150.615 33.9007C149.66 31.9614 148.051 30.5431 147.084 28.6006C147.219 28.3112 147.355 28.0217 147.49 27.7323C148.287 27.6486 149.086 27.5618 149.883 27.4589C149.999 26.7128 150.128 25.9731 150.28 25.2366C149.967 24.1753 150.102 23.4838 150.451 22.474C150.276 22.1041 150.102 21.7375 149.928 21.3709C149.18 20.8691 148.509 20.1102 147.574 20.0362C146.497 19.8979 145.291 19.8207 144.236 20.123C143.159 20.8016 142.646 21.8758 142.44 23.0947C142.214 24.3489 141.198 25.0661 140.798 26.2947C140.634 27.0826 140.747 27.922 140.598 28.7099C140.26 29.2985 139.721 29.7745 139.334 30.3373C139.386 30.7489 139.563 31.1542 139.689 31.5465C140.337 31.6494 140.982 31.762 141.63 31.8714C141.866 34.8302 142.591 37.8115 142.653 40.767C142.701 42.5584 142.324 44.2629 142.008 46.0125C141.633 48.0708 142.207 50.3027 142.266 52.3417C142.32 54.0687 141.679 55.7154 141.462 57.4939C141.172 59.2338 141.256 60.8129 140.198 62.3212C138.486 64.7686 137.464 67.4991 136.141 70.1491C135.796 71.3745 135.296 72.4165 134.687 73.526C136.754 75.1694 139.537 76.8257 142.269 76.7035C142.146 76.279 142.024 75.8577 141.901 75.4332C140.75 74.6677 139.557 73.9763 139.053 72.6062C138.979 71.9791 139.35 71.2973 139.634 70.7538C141.159 68.049 142.946 65.5373 144.61 62.9097C144.549 64.4567 144.371 65.9232 144.629 67.4637C145.052 69.969 145.058 72.5258 144.529 75.0119C145.661 75.4525 146.777 76.0539 147.942 76.3208C150.38 76.7839 152.202 77.9642 154.769 77.2245C154.598 76.8096 154.45 76.3498 154.195 75.9767C153.479 75.3817 152.44 75.1855 151.705 74.6291C151.183 74.1435 150.712 73.5582 150.38 72.9246C150.238 72.2332 150.338 71.4742 150.373 70.7731C151.824 69.969 152.047 68.6054 152.976 67.364C154.121 65.8074 155.336 64.3699 156.298 62.6685C156.955 61.6008 156.784 60.0571 156.93 58.8253C157.162 59.7966 157.41 60.7646 157.597 61.7423C157.849 62.8808 157.42 64 157.371 65.206C157.207 67.1164 158.181 68.9817 158.778 70.7538C159.255 72.0563 159.052 73.3298 159.932 74.4876C160.129 75.4267 160.151 76.681 160.738 77.4689C161.461 78.318 162.412 77.9481 163.392 77.9642C165.36 77.7777 167.204 78.1604 169.146 77.7005C169.259 77.3564 169.368 77.0155 169.478 76.6746C167.572 75.6036 165.663 75.7773 163.999 74.285C163.834 73.2205 163.557 72.2396 163.151 71.2394C162.483 69.6925 162.364 67.84 162.215 66.1709C162.09 64.7236 162.315 63.3889 162.76 62.0189C163.041 61.2213 162.767 60.5524 162.622 59.7644C162.348 58.5166 162.541 57.2527 162.36 55.9662C162.09 53.9851 161.651 52.0587 161.599 50.0519C161.903 49.7367 162.206 49.4215 162.509 49.1063C162.841 49.5566 163.17 50.0068 163.499 50.4603C164.067 50.5761 164.657 50.6629 165.202 50.8559C165.924 51.6567 166.395 52.7083 166.946 53.6281C171.523 61.4432 176.186 69.2422 180.704 77.083C180.966 77.0412 181.227 77.0026 181.488 76.9608C176.402 68.0619 171.074 59.3013 165.963 50.4185C166.066 50.2416 166.172 50.0647 166.276 49.8911C166.118 49.2961 165.966 48.6979 165.824 48.0997C164.699 46.9869 163.254 45.8677 162.477 44.4913C162.18 43.9928 162.306 43.2498 162.277 42.687C162.328 41.1819 162.148 39.6929 162.241 38.1877C162.283 36.9463 162.444 35.6245 162.254 34.3928C161.87 32.4438 160.793 30.9001 159.477 29.4561C159.642 29.1152 159.819 28.7839 160.009 28.4591C160.509 28.2565 161.048 28.1407 161.57 27.9992C161.799 27.0344 162.102 26.3075 162.744 25.5421C162.602 24.9471 162.425 24.3393 162.36 23.7282C162.348 22.9081 162.751 22.043 162.86 21.2326C162.693 20.8981 162.506 20.5797 162.315 20.2581C160.78 19.8529 159.19 18.7369 157.571 19.1067C156.12 19.7114 155.465 21.2583 155.33 22.7409C155.14 23.9502 155.662 24.8442 155.862 25.9924C155.93 26.6806 155.417 27.3881 155.069 27.9542C154.117 29.2921 153.821 31.1027 153.495 32.6882C153.05 34.7787 153.198 36.7727 153.369 38.8792ZM77.7204 30.5431C77.7236 29.9996 77.7236 29.4593 77.7268 28.9158C76.9722 29.2695 76.1724 29.6973 75.3629 29.8935C74.2503 30.1347 73.0957 29.7906 72.312 28.9672C71.8767 28.3562 71.7477 27.475 71.5542 26.7642C73.6569 26.7288 75.766 26.7546 77.8687 26.7353C77.8268 25.3652 77.9526 24.1656 77.0173 23.0336C76.1433 21.8597 74.7501 21.7922 73.4086 21.9497C71.9831 22.0913 70.9608 23.3102 70.4286 24.5419C70.0642 25.6096 70.0384 26.8092 70.2126 27.9124C70.4544 29.5172 71.8122 30.9065 73.4279 31.1477C74.9275 31.4275 76.3272 31.0834 77.7204 30.5431ZM83.6189 27.7869C83.6318 28.4205 83.9414 29.2342 83.2738 29.6394C81.8032 30.5528 80.1746 29.5301 78.8265 28.8836C78.8298 29.4464 78.833 30.0092 78.833 30.5753C80.7325 31.3375 83.4318 31.8231 84.8734 29.9771C85.4765 29.0444 85.4797 27.1727 84.4477 26.523C83.3286 25.9634 82.0032 25.7801 80.8099 25.4038C80.6358 25.0179 80.4648 24.632 80.2907 24.246C80.7712 23.7861 81.0453 23.1976 81.7774 23.1686C83.0352 22.995 83.9317 23.5771 84.9895 24.127C84.9734 23.5321 84.9573 22.9371 84.9379 22.3389C83.4512 21.9819 81.5259 21.5767 80.1165 22.3614C78.7911 23.0786 78.4783 25.0018 79.3393 26.166C80.3101 27.2466 82.287 27.2788 83.6189 27.7869ZM89.0111 21.9819C87.0954 22.3839 86.0247 24.4486 86.0699 26.2818C85.9602 28.1407 86.5762 30.1315 88.3758 30.9741C89.8367 31.4951 91.7136 31.4147 92.8263 30.2086C94.055 29.0316 94.0615 27.2241 93.9647 25.645C93.8937 24.2428 93.1971 22.9371 91.9459 22.2553C91.059 21.8436 89.9592 21.834 89.0111 21.9819ZM116.807 30.6332C116.801 30.0671 116.798 29.4979 116.798 28.9286C116.059 29.3146 115.237 29.8677 114.402 29.9578C113.241 30.1025 112.096 29.2856 111.805 28.1664C111.522 27.1727 111.538 26.0567 111.786 25.0533C112.034 24.0852 112.983 23.159 114.034 23.2008C115.053 23.1429 115.943 23.7829 116.804 24.2492C116.798 23.6318 116.788 23.0143 116.778 22.3936C114.908 21.8758 112.889 21.4802 111.318 22.9307C109.616 24.7188 109.522 28.0346 111.031 29.961C112.554 31.6816 114.869 31.405 116.807 30.6332ZM125.189 30.5688C125.186 30.0157 125.186 29.4625 125.186 28.9061C124.341 29.3081 123.399 29.8356 122.464 29.9449C121.393 30.0607 120.274 29.6362 119.629 28.7614C119.31 28.1664 119.255 27.4139 119.11 26.7578C121.229 26.7417 123.344 26.7449 125.463 26.7353C125.344 25.3781 125.341 23.8472 124.335 22.7988C123.444 21.8115 122.064 21.8082 120.839 21.9465C119.091 22.2392 117.81 23.918 117.665 25.6289C117.559 26.8736 117.552 28.3755 118.288 29.4496C118.962 30.5431 120.181 31.122 121.438 31.2121C122.764 31.3536 123.957 30.9934 125.189 30.5688ZM131.494 28.9544C131.043 29.3114 130.507 29.9385 129.894 29.9578C128.54 30.1347 127.511 29.4561 126.36 28.8901C126.376 29.4625 126.392 30.035 126.405 30.6074C127.956 31.1895 129.901 31.6141 131.436 30.7908C132.916 29.9771 133.287 27.8673 132.123 26.6356C131.081 25.9666 129.633 25.9506 128.527 25.3749C127.808 25.1401 128.088 24.2074 127.985 23.6157C128.614 23.3938 129.166 23.1365 129.849 23.1493C130.82 23.1365 131.668 23.7025 132.507 24.1206C132.471 23.5224 132.432 22.9242 132.381 22.326C130.897 21.9658 128.695 21.4802 127.401 22.5447C126.234 23.3262 126.134 25.0661 126.837 26.1789C127.769 27.1855 129.204 27.1373 130.414 27.5522C130.984 27.7387 131.197 28.488 131.494 28.9544ZM95.574 22.1266C95.6127 24.2814 95.4772 26.4523 95.6223 28.6006C95.7707 29.9192 96.4576 31.0931 97.8927 31.2346C99.1924 31.4597 100.063 30.8551 101.082 30.1829C101.073 30.4659 101.066 30.7457 101.056 31.0255C101.585 31.0255 102.114 31.0255 102.643 31.0223C102.633 28.0474 102.64 25.0726 102.633 22.1009C102.111 22.0848 101.592 22.072 101.073 22.0591C101.073 24.3425 101.06 26.6291 101.069 28.9126C99.9858 29.4818 99.0957 30.0896 97.8153 29.6555C97.1349 29.1055 97.1381 28.3883 97.0962 27.5875C97.0575 25.7737 97.0994 23.9566 97.0897 22.1427C96.5834 22.1363 96.0771 22.1298 95.574 22.1266ZM104.759 22.0816C104.714 25.0629 104.756 28.0442 104.743 31.0255C105.23 31.0352 105.717 31.0416 106.207 31.048C106.229 28.9351 106.236 26.8253 106.191 24.7124C107.174 23.8505 108.239 23.6961 109.503 23.5867C109.474 23.0561 109.445 22.5222 109.412 21.9883C108.055 22.117 107.281 22.5286 106.233 23.3487C106.226 22.9307 106.216 22.5093 106.21 22.088C105.726 22.0848 105.243 22.0848 104.759 22.0816ZM88.0533 38.0076C87.7469 38.0109 87.4437 38.0109 87.1406 38.0141C87.147 38.4161 87.1503 38.8181 87.1535 39.2233C87.4889 39.2201 87.8211 39.2169 88.1565 39.2169C88.1565 41.7865 88.1468 44.3594 88.1565 46.929C88.6789 46.9323 89.1981 46.9355 89.7206 46.9355C89.7303 44.3626 89.7238 41.7897 89.7238 39.2169C90.5397 39.2201 91.3557 39.2201 92.1684 39.2201C92.1748 38.8149 92.1781 38.4096 92.1813 38.0044C91.3234 37.998 90.4623 37.9948 89.6045 37.9787C89.7561 37.3419 89.6593 36.0587 90.4494 35.8593C91.1654 35.6374 92.02 35.7789 92.765 35.7821C92.7392 35.3286 92.7102 34.8752 92.6844 34.4217C91.5846 34.4346 90.0689 34.1612 89.2014 34.9749C88.3371 35.7178 88.2468 36.9624 88.0533 38.0076ZM118.668 46.9451C119.187 46.9387 119.71 46.9323 120.232 46.9226C120.252 44.6263 120.203 42.3301 120.265 40.0338C121.506 39.2973 122.177 39.1075 123.641 39.2297C123.909 39.9437 124.186 40.6223 124.196 41.4006C124.244 43.2434 124.206 45.0927 124.225 46.9355C124.725 46.9387 125.228 46.9419 125.728 46.9419C125.692 44.7743 125.802 42.5938 125.689 40.4293C125.634 39.2233 124.983 38.1331 123.777 37.7889C122.387 37.432 121.377 38.1106 120.232 38.757C120.252 37.3033 120.245 35.8464 120.139 34.3928C119.665 34.4185 119.184 34.4346 118.713 34.4925C118.597 38.6316 118.688 42.7996 118.668 46.9451ZM113.257 38.0012C112.921 38.0044 112.586 38.0076 112.254 38.0109C112.257 38.4064 112.26 38.802 112.26 39.1976C112.599 39.2105 112.934 39.2265 113.273 39.2394C113.286 40.9343 113.237 42.6324 113.273 44.3305C113.282 45.0894 113.521 45.9964 114.089 46.5335C115.059 47.3246 116.378 47.003 117.52 46.9548C117.523 46.4852 117.527 46.0157 117.53 45.5461C116.662 45.6458 115.379 46.1218 114.924 45.0509C114.618 43.1534 114.847 41.1465 114.766 39.2233C115.688 39.2233 116.611 39.2233 117.533 39.2137C117.527 38.8052 117.523 38.3936 117.517 37.9851C116.607 37.9883 115.698 37.9948 114.789 38.0044C114.782 37.1168 114.776 36.2259 114.776 35.3383C114.289 35.364 113.792 35.3801 113.308 35.4476C113.228 36.2903 113.26 37.1522 113.257 38.0012ZM134.748 46.3566C134.748 45.8259 134.745 45.2953 134.748 44.7646C133.355 45.485 131.794 46.1958 130.233 45.5043C129.008 44.9737 128.846 43.729 128.562 42.5745C130.675 42.5359 132.787 42.5648 134.903 42.5616C134.854 41.4328 134.925 40.1656 134.313 39.1686C132.903 37.0911 129.414 37.2969 128.037 39.3037C126.808 41.153 126.753 44.1889 128.298 45.8806C130.036 47.5948 132.697 47.2989 134.748 46.3566ZM94.8419 38.0913C93.6003 38.6573 92.7779 40.0499 92.6876 41.3877C92.565 42.7932 92.5909 44.3851 93.4455 45.5815C94.8709 47.7684 98.6861 47.6687 99.9471 45.3564C100.953 43.594 100.898 40.9343 99.7794 39.2265C98.8022 37.6892 96.406 37.3323 94.8419 38.0913ZM102.166 46.9323C102.656 46.9355 103.143 46.9355 103.633 46.9355C103.64 44.7518 103.64 42.5713 103.633 40.3908C104.746 39.77 105.549 39.5321 106.836 39.4999C106.826 38.9628 106.816 38.4289 106.803 37.8919C105.471 38.0173 104.717 38.3646 103.646 39.1461C103.633 38.7538 103.62 38.3614 103.607 37.9723C103.137 37.9883 102.669 38.0012 102.205 38.0494C102.021 39.1397 102.072 40.3007 102.066 41.407C102.085 43.2563 102.008 45.0862 102.166 46.9323ZM80.3165 74.761C81.313 74.7707 82.3063 74.7707 83.2996 74.7642C83.2932 66.4828 83.3222 58.1982 83.2835 49.9168C82.316 49.9168 81.3292 49.8685 80.3649 49.9682C80.3101 50.4314 80.3068 50.9041 80.3004 51.3705C80.3262 59.1662 80.3004 66.9652 80.3165 74.761ZM124.264 49.9168C124.27 52.4575 124.26 54.9982 124.26 57.5357C122.206 56.6094 120.174 55.9759 117.926 56.7124C115.279 57.4681 113.553 59.6969 112.783 62.2408C112.015 64.9648 112.131 67.9461 112.947 70.6444C113.479 72.1817 114.334 73.5936 115.769 74.4394C117.149 75.3367 118.858 75.4428 120.439 75.1662C121.932 74.8639 123.077 73.9827 124.257 73.0854C124.26 73.645 124.264 74.2046 124.267 74.7642C125.292 74.7707 126.318 74.7707 127.343 74.761C127.343 66.4892 127.35 58.2143 127.34 49.9425C126.315 49.9264 125.289 49.9168 124.264 49.9168ZM87.5276 50.872C87.5469 51.9236 87.6018 52.9721 87.6792 54.0237C88.7821 54.0173 89.8819 54.0205 90.9848 54.0302C90.9912 52.9785 91.0106 51.9236 90.9687 50.872C89.827 50.8109 88.6725 50.8462 87.5276 50.872ZM61.1987 50.962C61.189 58.8993 61.2052 66.8366 61.1955 74.7771C63.769 74.7578 66.3426 74.7932 68.9129 74.7674C71.022 74.7288 73.0538 74.3172 74.7372 72.9825C77.4043 71.0786 78.0848 67.0874 76.5852 64.2701C75.7499 62.7972 74.4147 62.1186 72.928 61.4529C74.476 60.5813 75.8144 59.3463 76.1111 57.5196C76.2949 56.1431 76.2594 54.4643 75.379 53.313C74.2922 51.721 72.0411 51.0617 70.1997 51.0167C67.2036 50.9073 64.198 50.9845 61.1987 50.962ZM98.3507 58.8253C98.3023 58.2014 98.2443 57.5807 98.1798 56.9568C97.1929 56.96 96.2061 56.9664 95.2192 56.9793C95.2289 62.9097 95.2257 68.8402 95.2192 74.7674C96.2512 74.7739 97.2864 74.7674 98.3185 74.7481C98.2926 70.2874 98.283 65.8235 98.3217 61.3628C99.7536 60.353 101.24 59.2595 103.082 59.2627C104.123 59.2691 105.442 59.7676 105.784 60.8482C106.239 61.9835 106.216 63.3407 106.242 64.5532C106.245 67.9526 106.252 71.352 106.242 74.7514C107.268 74.7739 108.293 74.7739 109.319 74.7642C109.335 70.9339 109.319 67.1067 109.332 63.2764C109.293 61.6137 109.09 59.7226 108 58.3879C106.62 56.5001 103.836 55.9437 101.711 56.7445C100.411 57.169 99.3859 57.9698 98.3507 58.8253ZM87.7856 56.9664C87.7888 62.8969 87.7856 68.8241 87.7888 74.7546C88.7821 74.7674 89.7754 74.7739 90.7687 74.7707C90.801 68.837 90.7881 62.9001 90.7816 56.9664C89.7819 56.9632 88.7853 56.9632 87.7856 56.9664Z" fill="#FFFBF7"/>
<path d="M60.7096 19.1325C62.3447 19.1518 64.0442 19.0103 65.66 19.2644C66.4694 19.3834 67.0983 19.8754 67.6175 20.48C68.2335 21.2262 68.1884 22.4386 68.0626 23.3391C67.8788 24.587 66.7306 25.272 65.818 25.9795C67.195 27.6583 68.5495 29.3629 69.9718 31.0031C69.2784 31.0256 68.5883 31.0449 67.8949 31.0674C66.621 29.4979 65.3665 27.9124 64.1087 26.3301C63.5024 26.3269 62.8929 26.3269 62.2866 26.3237C62.293 27.8963 62.2834 29.4658 62.2801 31.0352C61.7545 31.032 61.2288 31.0288 60.7031 31.0223C60.716 27.0601 60.7096 23.0947 60.7096 19.1325ZM62.2995 20.4061C62.2866 21.9273 62.2866 23.4517 62.2866 24.9729C63.2218 24.9504 64.228 25.0244 65.1439 24.8121C66.4533 24.3136 66.8887 22.3743 66.1598 21.2744C65.3632 20.2774 63.4379 20.4993 62.2995 20.4061Z" fill="#157344"/>
<path d="M157.572 19.1067C159.191 18.7369 160.781 19.8528 162.316 20.2581C162.506 20.5797 162.693 20.8981 162.861 21.2325C162.751 22.043 162.348 22.9081 162.361 23.7282C162.426 24.3393 162.603 24.9471 162.745 25.5421C162.103 26.3075 161.8 27.0344 161.571 27.9992C161.049 28.1407 160.51 28.2565 160.01 28.4591C159.82 28.7839 159.643 29.1152 159.478 29.4561C160.794 30.9001 161.871 32.4438 162.255 34.3927C162.445 35.6245 162.284 36.9463 162.242 38.1877C162.148 39.6928 162.329 41.1819 162.277 42.687C162.306 43.2498 162.181 43.9927 162.477 44.4912C163.255 45.8677 164.699 46.9869 165.825 48.0997C165.967 48.6979 166.118 49.2961 166.276 49.891C166.173 50.0647 166.067 50.2416 165.964 50.4185C171.075 59.3013 176.403 68.0619 181.489 76.9608C181.227 77.0026 180.966 77.0412 180.705 77.083C176.187 69.2422 171.523 61.4432 166.947 53.6281C166.396 52.7083 165.925 51.6567 165.202 50.8559C164.657 50.6629 164.067 50.5761 163.5 50.4603C163.171 50.0068 162.842 49.5566 162.51 49.1063C162.206 49.4215 161.903 49.7367 161.6 50.0518C161.652 52.0587 162.09 53.9851 162.361 55.9662C162.542 57.2526 162.348 58.5166 162.622 59.7644C162.768 60.5523 163.042 61.2213 162.761 62.0189C162.316 63.3889 162.09 64.7236 162.216 66.1708C162.364 67.84 162.484 69.6924 163.151 71.2394C163.558 72.2396 163.835 73.2205 164 74.285C165.664 75.7773 167.573 75.6036 169.479 76.6746C169.369 77.0155 169.26 77.3564 169.147 77.7005C167.205 78.1604 165.36 77.7777 163.393 77.9642C162.413 77.9481 161.461 78.318 160.739 77.4689C160.152 76.681 160.13 75.4267 159.933 74.4876C159.052 73.3298 159.256 72.0563 158.778 70.7537C158.182 68.9817 157.208 67.1164 157.372 65.206C157.421 64 157.849 62.8808 157.598 61.7423C157.411 60.7646 157.163 59.7966 156.93 58.8253C156.785 60.0571 156.956 61.6008 156.298 62.6685C155.337 64.3698 154.121 65.8074 152.976 67.364C152.048 68.6054 151.825 69.969 150.374 70.773C150.338 71.4742 150.238 72.2331 150.38 72.9246C150.713 73.5582 151.183 74.1435 151.706 74.6291C152.441 75.1855 153.48 75.3817 154.196 75.9767C154.45 76.3497 154.599 76.8096 154.77 77.2245C152.202 77.9642 150.38 76.7839 147.942 76.3208C146.778 76.0539 145.662 75.4524 144.53 75.0118C145.059 72.5258 145.053 69.969 144.63 67.4637C144.372 65.9232 144.55 64.4567 144.611 62.9097C142.947 65.5373 141.16 68.049 139.635 70.7537C139.351 71.2973 138.98 71.9791 139.054 72.6062C139.557 73.9763 140.75 74.6677 141.902 75.4331C142.024 75.8577 142.147 76.279 142.269 76.7035C139.538 76.8257 136.755 75.1694 134.688 73.526C135.297 72.4165 135.797 71.3745 136.142 70.1491C137.464 67.4991 138.487 64.7686 140.199 62.3212C141.257 60.8128 141.173 59.2338 141.463 57.4939C141.679 55.7154 142.321 54.0687 142.266 52.3417C142.208 50.3027 141.634 48.0707 142.008 46.0124C142.324 44.2629 142.702 42.5584 142.653 40.767C142.592 37.8114 141.866 34.8301 141.631 31.8713C140.983 31.762 140.338 31.6494 139.689 31.5465C139.564 31.1542 139.386 30.7489 139.335 30.3373C139.722 29.7745 140.26 29.2985 140.599 28.7099C140.747 27.922 140.634 27.0826 140.799 26.2947C141.199 25.0661 142.215 24.3489 142.44 23.0947C142.647 21.8758 143.16 20.8016 144.237 20.123C145.291 19.8207 146.497 19.8979 147.575 20.0362C148.51 20.1101 149.181 20.8691 149.929 21.3708C150.103 21.7375 150.277 22.1041 150.451 22.474C150.103 23.4838 149.968 24.1753 150.28 25.2366C150.129 25.973 150 26.7127 149.884 27.4589C149.087 27.5618 148.287 27.6486 147.491 27.7322C147.355 28.0217 147.22 28.3111 147.084 28.6006C148.052 30.5431 149.661 31.9614 150.616 33.9007C151.493 35.3544 150.648 37.5542 150.564 39.1751C151.499 39.0882 152.435 38.9853 153.37 38.8792C153.199 36.7726 153.051 34.7787 153.496 32.6882C153.821 31.1027 154.118 29.292 155.07 27.9542C155.418 27.3881 155.931 26.6806 155.863 25.9923C155.663 24.8442 155.14 23.9501 155.331 22.7409C155.466 21.2583 156.121 19.7113 157.572 19.1067ZM152.638 41.5646C151.996 41.7865 151.354 41.9956 150.709 42.2078C150.209 46.3051 150.5 50.0776 149.319 53.8532C148.442 56.6898 149.877 59.1405 149.197 61.9224C148.865 63.2346 148.616 64.5178 148.561 65.875C149.197 64.7815 149.922 63.8424 150.78 62.9129C151.464 62.2151 151.428 61.3757 151.69 60.4591C152.354 59.0762 152.299 57.7158 152.677 56.1978C152.915 55.0271 153.37 53.85 153.467 52.6601C153.454 51.3704 152.899 50.1097 152.841 48.804C152.722 47.3728 153.373 46.2762 153.686 44.9158C153.983 43.7001 153.78 42.4297 153.618 41.2108C153.289 41.3298 152.964 41.4456 152.638 41.5646Z" fill="#2C45C3"/>
<path d="M62.2981 20.4058C63.4365 20.499 65.3618 20.2771 66.1584 21.2741C66.8872 22.374 66.4519 24.3133 65.1425 24.8118C64.2266 25.0241 63.2204 24.9501 62.2852 24.9726C62.2852 23.4514 62.2852 21.927 62.2981 20.4058Z" fill="#FFFBF7"/>
<path d="M73.4097 21.9496C74.7513 21.792 76.1445 21.8595 77.0184 23.0334C77.9537 24.1655 77.8279 25.3651 77.8698 26.7351C75.7671 26.7544 73.658 26.7287 71.5553 26.7641C71.7488 27.4748 71.8778 28.356 72.3132 28.9671C73.0968 29.7904 74.2514 30.1345 75.364 29.8933C76.1735 29.6971 76.9733 29.2694 77.7279 28.9156C77.7247 29.4591 77.7247 29.9994 77.7215 30.543C76.3283 31.0833 74.9286 31.4274 73.429 31.1476C71.8133 30.9064 70.4556 29.517 70.2137 27.9122C70.0395 26.8091 70.0653 25.6095 70.4298 24.5418C70.9619 23.31 71.9842 22.0911 73.4097 21.9496ZM71.5392 25.5066C73.1936 25.558 74.8512 25.558 76.5089 25.5194C76.1864 24.6961 76.1025 23.622 75.1479 23.2746C74.3707 23.0109 73.2936 23.0173 72.6421 23.5898C72.0777 24.0207 71.8326 24.8794 71.5392 25.5066Z" fill="#157344"/>
<path d="M84.9356 22.3389C84.9549 22.9371 84.9711 23.5321 84.9872 24.1271C83.9294 23.5771 83.0328 22.995 81.7751 23.1687C81.043 23.1976 80.7689 23.7861 80.2884 24.246C80.4625 24.632 80.6334 25.0179 80.8076 25.4038C82.0008 25.7801 83.3263 25.9634 84.4454 26.523C85.4774 27.1727 85.4742 29.0444 84.8711 29.9771C83.4295 31.8231 80.7302 31.3375 78.8307 30.5753C78.8307 30.0093 78.8274 29.4464 78.8242 28.8836C80.1723 29.5301 81.8009 30.5528 83.2715 29.6394C83.9391 29.2342 83.6295 28.4205 83.6166 27.787C82.2846 27.2788 80.3077 27.2466 79.337 26.166C78.4759 25.0018 78.7887 23.0786 80.1142 22.3614C81.5235 21.5767 83.4489 21.9819 84.9356 22.3389Z" fill="#157344"/>
<path d="M89.012 21.9821C89.9602 21.8342 91.0599 21.8439 91.9468 22.2555C93.1981 22.9373 93.8947 24.243 93.9656 25.6453C94.0624 27.2244 94.0559 29.0318 92.8272 30.2089C91.7146 31.4149 89.8376 31.4953 88.3767 30.9743C86.5772 30.1317 85.9612 28.1409 86.0708 26.282C86.0257 24.4489 87.0964 22.3842 89.012 21.9821ZM89.3442 23.2332C88.5089 23.5066 87.8994 24.2752 87.793 25.1468C87.6446 26.2595 87.5898 27.5106 87.9542 28.588C88.6283 30.241 90.9406 30.5048 91.9403 29.0061C92.7401 27.517 92.7659 25.4587 91.85 24.0115C91.2663 23.1721 90.2827 23.0531 89.3442 23.2332Z" fill="#157344"/>
<path d="M116.777 22.3934C116.787 23.0141 116.796 23.6316 116.803 24.249C115.942 23.7827 115.052 23.1427 114.033 23.2006C112.981 23.1588 112.033 24.085 111.785 25.0531C111.536 26.0565 111.52 27.1725 111.804 28.1662C112.094 29.2854 113.239 30.1023 114.4 29.9576C115.235 29.8675 116.058 29.3144 116.796 28.9284C116.796 29.4977 116.8 30.0669 116.806 30.633C114.868 31.4048 112.552 31.6814 111.03 29.9608C109.521 28.0344 109.614 24.7186 111.317 22.9304C112.888 21.48 114.907 21.8756 116.777 22.3934Z" fill="#157344"/>
<path d="M120.838 21.9463C122.064 21.808 123.444 21.8112 124.334 22.7986C125.341 23.847 125.344 25.3779 125.463 26.7351C123.344 26.7447 121.229 26.7415 119.11 26.7576C119.255 27.4137 119.31 28.1662 119.629 28.7612C120.274 29.636 121.393 30.0605 122.464 29.9447C123.399 29.8354 124.341 29.3079 125.186 28.9059C125.186 29.4623 125.186 30.0155 125.189 30.5686C123.957 30.9932 122.764 31.3534 121.438 31.2118C120.181 31.1218 118.962 30.5429 118.287 29.4494C117.552 28.3753 117.559 26.8734 117.665 25.6287C117.81 23.9178 119.091 22.239 120.838 21.9463ZM119.023 25.5033C120.671 25.558 122.322 25.5644 123.973 25.4937C123.709 24.68 123.657 23.7505 122.812 23.3164C121.99 22.998 120.784 22.998 120.103 23.6348C119.568 24.0754 119.31 24.8826 119.023 25.5033Z" fill="#157344"/>
<path d="M132.38 22.3259C132.432 22.9241 132.471 23.5223 132.506 24.1205C131.668 23.7024 130.82 23.1364 129.849 23.1493C129.165 23.1364 128.614 23.3937 127.985 23.6156C128.088 24.2073 127.807 25.14 128.527 25.3748C129.633 25.9505 131.081 25.9665 132.122 26.6355C133.287 27.8672 132.916 29.977 131.436 30.7907C129.9 31.614 127.956 31.1895 126.405 30.6073C126.392 30.0349 126.375 29.4624 126.359 28.89C127.511 29.456 128.539 30.1346 129.894 29.9577C130.507 29.9384 131.042 29.3113 131.494 28.9543C131.197 28.4879 130.984 27.7386 130.413 27.5521C129.204 27.1372 127.769 27.1854 126.837 26.1788C126.134 25.066 126.234 23.3261 127.401 22.5446C128.694 21.4801 130.897 21.9657 132.38 22.3259Z" fill="#157344"/>
<path d="M95.5752 22.1266C96.0783 22.1298 96.5846 22.1363 97.091 22.1427C97.1006 23.9566 97.0587 25.7737 97.0974 27.5875C97.1393 28.3883 97.1361 29.1055 97.8166 29.6555C99.0969 30.0896 99.987 29.4818 101.071 28.9126C101.061 26.6291 101.074 24.3425 101.074 22.0591C101.593 22.0719 102.112 22.0848 102.635 22.1009C102.641 25.0725 102.635 28.0474 102.644 31.0223C102.116 31.0255 101.587 31.0255 101.058 31.0255C101.067 30.7457 101.074 30.4659 101.084 30.1829C100.064 30.8551 99.1937 31.4597 97.894 31.2346C96.4589 31.0931 95.7719 29.9192 95.6236 28.6006C95.4785 26.4522 95.6139 24.2814 95.5752 22.1266Z" fill="#157344"/>
<path d="M104.76 22.0815C105.244 22.0848 105.727 22.0848 106.211 22.088C106.218 22.5093 106.227 22.9306 106.234 23.3487C107.282 22.5286 108.056 22.1169 109.413 21.9883C109.446 22.5222 109.475 23.056 109.504 23.5867C108.24 23.696 107.175 23.8504 106.192 24.7123C106.237 26.8253 106.23 28.935 106.208 31.048C105.718 31.0415 105.231 31.0351 104.744 31.0255C104.757 28.0442 104.715 25.0629 104.76 22.0815Z" fill="#157344"/>
<path d="M75.1478 23.2748C76.1024 23.6221 76.1863 24.6963 76.5088 25.5196C74.8511 25.5582 73.1935 25.5582 71.5391 25.5067C71.8325 24.8796 72.0776 24.0209 72.642 23.59C73.2935 23.0175 74.3706 23.0111 75.1478 23.2748Z" fill="#FFFBF7"/>
<path d="M89.3447 23.2331C90.2832 23.053 91.2668 23.172 91.8505 24.0114C92.7664 25.4586 92.7406 27.5169 91.9408 29.006C90.9411 30.5046 88.6287 30.2409 87.9547 28.5879C87.5903 27.5105 87.6451 26.2594 87.7935 25.1467C87.8999 24.2751 88.5094 23.5065 89.3447 23.2331Z" fill="#FFFBF7"/>
<path d="M122.813 23.3166C123.658 23.7507 123.709 24.6802 123.974 25.4938C122.323 25.5646 120.671 25.5582 119.023 25.5035C119.31 24.8828 119.568 24.0756 120.104 23.635C120.784 22.9982 121.99 22.9982 122.813 23.3166Z" fill="#FFFBF7"/>
<path d="M92.6844 34.4218C92.7102 34.8753 92.7392 35.3287 92.765 35.7822C92.0201 35.779 91.1654 35.6375 90.4495 35.8594C89.6594 36.0588 89.7561 37.342 89.6045 37.9788C90.4624 37.9949 91.3235 37.9981 92.1813 38.0045C92.1781 38.4097 92.1749 38.815 92.1684 39.2202C91.3557 39.2202 90.5398 39.2202 89.7239 39.217C89.7239 41.7898 89.7303 44.3627 89.7206 46.9356C89.1982 46.9356 88.679 46.9324 88.1565 46.9291C88.1468 44.3595 88.1565 41.7866 88.1565 39.217C87.8211 39.217 87.4889 39.2202 87.1535 39.2234C87.1503 38.8182 87.1471 38.4162 87.1406 38.0142C87.4438 38.0109 87.7469 38.0109 88.0533 38.0077C88.2468 36.9625 88.3371 35.7179 89.2014 34.975C90.0689 34.1613 91.5847 34.4347 92.6844 34.4218Z" fill="#157344"/>
<path d="M118.713 34.4923C119.184 34.4344 119.664 34.4183 120.138 34.3926C120.245 35.8462 120.251 37.3031 120.232 38.7568C121.377 38.1104 122.386 37.4318 123.776 37.7888C124.982 38.1329 125.634 39.2231 125.689 40.4292C125.801 42.5936 125.692 44.7741 125.727 46.9417C125.227 46.9417 124.724 46.9385 124.224 46.9353C124.205 45.0925 124.244 43.2432 124.195 41.4004C124.186 40.6221 123.908 39.9435 123.641 39.2296C122.176 39.1074 121.506 39.2971 120.264 40.0336C120.203 42.3299 120.251 44.6261 120.232 46.9224C119.709 46.9321 119.187 46.9385 118.668 46.9449C118.687 42.7994 118.597 38.6314 118.713 34.4923Z" fill="#157344"/>
<path d="M113.308 35.4477C113.792 35.3802 114.289 35.3641 114.776 35.3384C114.776 36.226 114.782 37.1169 114.789 38.0045C115.698 37.9949 116.608 37.9884 117.517 37.9852C117.524 38.3937 117.527 38.8053 117.533 39.2138C116.611 39.2234 115.689 39.2234 114.766 39.2234C114.847 41.1466 114.618 43.1535 114.924 45.0509C115.379 46.1219 116.662 45.6459 117.53 45.5462C117.527 46.0158 117.524 46.4853 117.52 46.9549C116.379 47.0031 115.06 47.3247 114.089 46.5336C113.521 45.9965 113.283 45.0895 113.273 44.3305C113.238 42.6324 113.286 40.9344 113.273 39.2395C112.934 39.2266 112.599 39.2105 112.26 39.1977C112.26 38.8021 112.257 38.4065 112.254 38.0109C112.586 38.0077 112.921 38.0045 113.257 38.0013C113.26 37.1522 113.228 36.2903 113.308 35.4477Z" fill="#157344"/>
<path d="M134.312 39.1689C134.924 40.1659 134.854 41.4331 134.902 42.5619C132.786 42.5651 130.674 42.5362 128.562 42.5748C128.845 43.7293 129.007 44.974 130.232 45.5046C131.793 46.1961 133.354 45.4853 134.747 44.7649C134.744 45.2956 134.747 45.8262 134.747 46.3569C132.696 47.2992 130.035 47.5951 128.297 45.8809C126.752 44.1892 126.807 41.1533 128.036 39.304C129.413 37.2972 132.902 37.0913 134.312 39.1689ZM128.555 41.3173C130.203 41.3912 131.841 41.3623 133.493 41.343C133.302 40.7127 133.18 39.7317 132.59 39.3394C131.767 38.8602 130.458 38.8698 129.668 39.4198C129.139 39.8893 128.855 40.6869 128.555 41.3173Z" fill="#157344"/>
<path d="M94.8407 38.0912C96.4048 37.3322 98.801 37.6892 99.7781 39.2265C100.897 40.9342 100.952 43.5939 99.9458 45.3563C98.6849 47.6687 94.8697 47.7684 93.4442 45.5815C92.5896 44.3851 92.5638 42.7931 92.6864 41.3877C92.7767 40.0498 93.599 38.6572 94.8407 38.0912ZM95.4921 39.2812C94.7117 39.6671 94.3988 40.5804 94.2569 41.3813C94.1021 42.6323 94.1408 44.0184 94.8955 45.0894C95.7243 46.0124 97.5174 46.0896 98.3333 45.1023C98.9493 44.3304 99.0203 43.3141 99.0428 42.3654C99.0364 41.4391 98.9654 40.4808 98.3269 39.7507C97.7238 38.921 96.3467 38.892 95.4921 39.2812Z" fill="#157344"/>
<path d="M102.204 38.0497C102.668 38.0014 103.136 37.9886 103.606 37.9725C103.619 38.3616 103.632 38.754 103.645 39.1464C104.716 38.3649 105.47 38.0175 106.802 37.8921C106.815 38.4292 106.825 38.963 106.835 39.5001C105.548 39.5323 104.745 39.7703 103.632 40.391C103.639 42.5715 103.639 44.752 103.632 46.9357C103.142 46.9357 102.655 46.9357 102.165 46.9325C102.007 45.0865 102.084 43.2565 102.065 41.4073C102.071 40.3009 102.02 39.1399 102.204 38.0497Z" fill="#157344"/>
<path d="M95.4919 39.2809C96.3465 38.8918 97.7236 38.9207 98.3267 39.7505C98.9652 40.4805 99.0362 41.4389 99.0426 42.3651C99.02 43.3139 98.9491 44.3302 98.3331 45.102C97.5172 46.0894 95.7241 46.0122 94.8953 45.0892C94.1406 44.0182 94.1019 42.6321 94.2567 41.381C94.3986 40.5802 94.7114 39.6668 95.4919 39.2809Z" fill="#FFFBF7"/>
<path d="M129.667 39.4195C130.457 38.8696 131.767 38.8599 132.589 39.3391C133.179 39.7315 133.302 40.7124 133.492 41.3428C131.841 41.3621 130.203 41.391 128.555 41.317C128.855 40.6867 129.138 39.8891 129.667 39.4195Z" fill="#FFFBF7"/>
<path d="M153.615 41.2109C153.777 42.4298 153.98 43.7002 153.683 44.9159C153.37 46.2763 152.719 47.3729 152.838 48.8041C152.896 50.1098 153.451 51.3705 153.464 52.6602C153.367 53.8501 152.912 55.0272 152.674 56.1979C152.296 57.7159 152.351 59.0763 151.687 60.4592C151.426 61.3758 151.461 62.2152 150.777 62.913C149.92 63.8425 149.194 64.7816 148.559 65.8751C148.613 64.5179 148.862 63.2347 149.194 61.9225C149.874 59.1406 148.439 56.6899 149.316 53.8533C150.497 50.0777 150.207 46.3052 150.706 42.2079C151.351 41.9957 151.993 41.7866 152.635 41.5647C152.961 41.4457 153.286 41.3299 153.615 41.2109Z" fill="#FFFBF7"/>
<path d="M80.3653 49.9684C81.3296 49.8687 82.3164 49.9169 83.2839 49.9169C83.3226 58.1983 83.2936 66.483 83.3 74.7644C82.3067 74.7708 81.3134 74.7708 80.3169 74.7612C80.3008 66.9654 80.3266 59.1664 80.3008 51.3706C80.3072 50.9043 80.3105 50.4315 80.3653 49.9684Z" fill="#157344"/>
<path d="M127.339 49.9427C127.349 58.2145 127.343 66.4895 127.343 74.7612C126.317 74.7709 125.292 74.7709 124.266 74.7644C124.263 74.2048 124.26 73.6452 124.256 73.0856C123.076 73.9829 121.931 74.8641 120.438 75.1664C118.858 75.443 117.148 75.3369 115.768 74.4396C114.333 73.5938 113.478 72.1819 112.946 70.6446C112.13 67.9463 112.014 64.965 112.782 62.241C113.553 59.6971 115.278 57.4683 117.926 56.7126C120.174 55.9761 122.205 56.6097 124.26 57.5359C124.26 54.9984 124.269 52.4577 124.263 49.917C125.288 49.917 126.314 49.9266 127.339 49.9427ZM124.256 70.5192C124.263 67.0523 124.266 63.5853 124.26 60.1216C122.508 59.3144 120.715 58.8738 118.803 59.3916C116.874 60.038 115.807 61.9902 115.571 63.9069C115.362 65.753 115.362 67.718 115.858 69.519C116.326 71.0563 117.465 72.3974 119.193 72.4038C121.196 72.5711 122.718 71.6545 124.256 70.5192Z" fill="#157344"/>
<path d="M90.9684 50.8722C91.0103 51.9239 90.991 52.9787 90.9845 54.0304C89.8816 54.0207 88.7819 54.0175 87.6789 54.024C87.6015 52.9723 87.5467 51.9239 87.5273 50.8722C88.6722 50.8465 89.8268 50.8111 90.9684 50.8722Z" fill="#157344"/>
<path d="M61.1985 50.9618C64.1978 50.9843 67.2035 50.9071 70.1995 51.0164C72.041 51.0615 74.292 51.7208 75.3789 53.3127C76.2593 54.4641 76.2948 56.1429 76.1109 57.5194C75.8142 59.3461 74.4759 60.5811 72.9279 61.4526C74.4146 62.1184 75.7497 62.7969 76.585 64.2699C78.0846 67.0872 77.4042 71.0784 74.7371 72.9823C73.0536 74.3169 71.0219 74.7286 68.9127 74.7672C66.3424 74.7929 63.7689 74.7576 61.1953 74.7768C61.205 66.8363 61.1889 58.8991 61.1985 50.9618ZM64.2978 53.7179C64.3074 56.0142 64.3074 58.3073 64.301 60.6036C66.0522 60.5843 67.8195 60.6775 69.5674 60.5521C70.8477 60.417 72.1152 59.8928 72.6183 58.6128C73.2955 56.9887 73.0762 54.5992 71.0961 54.046C68.945 53.4735 66.5166 53.7951 64.2978 53.7179ZM64.2849 63.3437C64.3074 66.2703 64.3139 69.1937 64.301 72.1204C66.4198 72.0914 68.6934 72.2812 70.7671 71.7891C72.3538 71.4 73.8244 70.1264 73.9921 68.4347C74.0824 67.1869 74.1147 65.7461 73.2213 64.7491C72.3345 63.8679 71.1251 63.3823 69.877 63.363C68.0162 63.2858 66.1457 63.3115 64.2849 63.3437Z" fill="#157344"/>
<path d="M64.2969 53.718C66.5157 53.7952 68.9441 53.4736 71.0952 54.046C73.0753 54.5992 73.2946 56.9888 72.6174 58.6129C72.1143 59.8929 70.8469 60.4171 69.5665 60.5522C67.8186 60.6776 66.0513 60.5843 64.3001 60.6036C64.3066 58.3074 64.3066 56.0143 64.2969 53.718Z" fill="#FFFBF7"/>
<path d="M107.999 58.3881C109.089 59.7228 109.293 61.6138 109.331 63.2766C109.318 67.1069 109.335 70.934 109.318 74.7644C108.293 74.774 107.267 74.774 106.242 74.7515C106.251 71.3521 106.245 67.9527 106.242 64.5533C106.216 63.3409 106.239 61.9837 105.784 60.8484C105.442 59.7678 104.123 59.2693 103.081 59.2629C101.24 59.2597 99.7531 60.3531 98.3212 61.363C98.2825 65.8237 98.2922 70.2876 98.318 74.7483C97.286 74.7676 96.2507 74.774 95.2188 74.7676C95.2252 68.8404 95.2284 62.9099 95.2188 56.9795C96.2056 56.9666 97.1924 56.9602 98.1793 56.957C98.2438 57.5809 98.3019 58.2016 98.3502 58.8255C99.3855 57.97 100.411 57.1692 101.711 56.7447C103.836 55.9439 106.619 56.5003 107.999 58.3881Z" fill="#157344"/>
<path d="M90.7812 56.9663C90.7876 62.8999 90.8005 68.8368 90.7683 74.7705C89.775 74.7737 88.7817 74.7673 87.7884 74.7544C87.7852 68.824 87.7884 62.8967 87.7852 56.9663C88.7849 56.9631 89.7814 56.9631 90.7812 56.9663Z" fill="#157344"/>
<path d="M118.802 59.3912C120.714 58.8734 122.507 59.314 124.258 60.1213C124.265 63.585 124.261 67.0519 124.255 70.5188C122.717 71.6541 121.194 72.5707 119.192 72.4035C117.463 72.397 116.325 71.0559 115.857 69.5186C115.36 67.7176 115.36 65.7526 115.57 63.9066C115.806 61.9898 116.873 60.0376 118.802 59.3912Z" fill="#FFFBF7"/>
<path d="M69.8773 63.3632C71.1254 63.3825 72.3348 63.8681 73.2216 64.7493C74.115 65.7463 74.0827 67.1871 73.9924 68.4349C73.8247 70.1266 72.3541 71.4002 70.7674 71.7893C68.6937 72.2814 66.4201 72.0916 64.3013 72.1206C64.3142 69.1939 64.3077 66.2705 64.2852 63.3439C66.146 63.3117 68.0165 63.286 69.8773 63.3632Z" fill="#FFFBF7"/>
</svg>
