<svg width="242" height="96" viewBox="0 0 242 96" fill="none" xmlns="http://www.w3.org/2000/svg">
<path d="M85.5542 12.7481C85.1388 13.5429 85.0465 13.5429 79.3235 12.6546C77.385 12.3741 76.9696 12.4676 75.9081 13.4494C75.2619 14.0572 74.4773 15.1793 74.1542 15.9274C73.6465 17.1429 73.7388 17.517 75.0311 19.8546C76.4158 22.3793 76.5542 22.4728 79.2311 23.0806C83.0158 23.9689 86.385 26.4468 86.385 28.4105C86.385 33.1326 78.6773 33.3196 77.1542 28.6442C76.0927 25.278 74.385 27.4287 74.385 32.104C74.385 33.6468 74.5696 34.9092 74.8004 34.9092C74.985 34.9092 75.7235 34.4884 76.3696 33.9741C77.7542 32.852 78.8619 32.8053 80.8004 33.7871C81.6311 34.2079 83.0619 34.6287 84.0311 34.7689C85.4619 34.9559 85.9696 34.8157 86.8004 33.9274C87.3081 33.3663 87.7696 32.3845 87.7696 31.7767C87.7696 31.1689 88.0927 29.9066 88.4619 28.9715C89.4773 26.5403 89.3388 25.7923 87.585 24.4365C85.6465 22.9871 83.985 22.2858 81.7235 22.052C78.6773 21.7715 76.6927 19.9949 76.6927 17.6105C76.6927 15.3663 78.1696 14.7118 80.5696 15.9741C81.2619 16.3481 82.4158 16.6754 83.1081 16.6754C83.8927 16.6754 84.7696 17.1429 85.3696 17.8442C86.6619 19.3403 87.5388 19.3403 88.5081 17.8442C89.0619 17.0027 89.2004 16.1144 89.0158 14.8988C88.6004 12.3741 86.4773 11.065 85.5542 12.7481Z" fill="black"/>
<path d="M123.311 12.7013C122.665 13.4961 123.034 14.8519 124.234 15.974C124.972 16.6285 125.295 16.6753 125.803 16.2545C126.172 15.9272 126.957 15.7402 127.557 15.8337C128.572 15.974 128.618 16.2078 128.757 19.8545C128.849 21.9584 128.711 24.8103 128.434 26.1662C128.111 28.0363 128.157 28.8779 128.711 29.9065C129.772 32.0103 129.265 32.5714 126.403 32.5714C123.449 32.5714 122.48 33.3194 123.311 34.9558C123.818 35.8909 124.049 35.9376 126.957 35.5636C128.618 35.3766 131.341 35.1896 133.003 35.1428H136.003L136.141 36.6857C136.28 37.948 136.465 38.2285 137.295 38.0883C137.849 37.9948 138.911 37.0597 139.695 35.9376C140.988 34.0207 141.08 33.6467 141.08 29.3922C141.08 25.0441 141.034 24.8571 140.065 24.7168C139.049 24.5766 139.003 24.7168 139.003 27.6155C139.003 30.3272 138.865 30.748 137.803 31.5896C136.88 32.3376 135.911 32.5714 133.926 32.5714H131.295L130.741 27.8961C130.049 21.5844 130.049 21.4909 131.388 20.322C132.034 19.761 132.541 19.1065 132.541 18.8727C132.541 18.6389 133.28 17.6103 134.157 16.6285C136.972 13.4493 136.049 12 131.849 12.9818C129.911 13.4026 129.126 13.3558 127.326 12.748C124.603 11.8129 124.049 11.8129 123.311 12.7013ZM132.08 16.2078C132.08 16.4415 131.895 16.6753 131.618 16.6753C131.388 16.6753 131.157 16.4415 131.157 16.2078C131.157 15.9272 131.388 15.7402 131.618 15.7402C131.895 15.7402 132.08 15.9272 132.08 16.2078Z" fill="black"/>
<path d="M104.154 13.1689C103.139 13.543 102.262 13.8702 102.17 13.8702C102.077 13.8702 101.523 14.9923 100.923 16.3014C99.9541 18.4053 99.7695 19.4806 99.7695 23.4079C99.7695 27.6624 99.8618 28.1767 101.246 30.7949C102.954 34.0676 103.97 34.6287 107.754 34.3014C110.754 34.0209 111.631 33.4598 112.508 31.3092C113.293 29.4391 113.846 22.6131 113.431 19.8079C113.016 17.1897 110.57 13.8702 108.446 13.0754C106.508 12.3741 106.37 12.3741 104.154 13.1689ZM108.677 17.2365C110.708 18.8261 111.585 26.3066 110.062 29.4858C108.723 32.3845 105.17 32.665 103.277 30.0469C102.077 28.4572 101.662 22.1456 102.585 19.8546C103.6 17.3767 106.923 15.9274 108.677 17.2365Z" fill="black"/>
<path d="M149.385 12.9351C148.97 13.6364 150.216 15.039 151.924 15.7403C153.447 16.3949 153.539 16.9559 153.539 26.026V32.3377L152.062 32.478C150.4 32.665 149.477 33.5065 150.031 34.3949C150.354 34.9091 150.77 34.9091 152.154 34.4416C153.4 34.0208 154.877 33.9741 156.954 34.2078C158.616 34.4416 161.339 34.6286 163 34.6286L165.954 34.6754L166.324 32.9455C166.785 30.7013 166.185 27.6624 165.308 27.6624C164.847 27.6624 164.57 28.2702 164.477 29.6728C164.339 31.3091 164.108 31.7767 163.185 32.1039C161.662 32.7117 157.831 32.7117 156.262 32.1039C155.062 31.6364 155.016 31.5429 155.247 28.6442C155.431 26.7273 155.293 25.4182 154.97 25.091C154.37 24.4832 155.754 23.2208 157.047 23.2208C158.985 23.2208 160.185 24.1091 160.324 25.652C160.416 26.6338 160.693 27.1949 161.154 27.1949C161.708 27.1949 161.939 26.2598 162.216 23.2208C162.4 21.0702 162.447 19.013 162.308 18.6858C161.893 17.5169 160.739 18.078 160.324 19.5741C160 20.8364 159.631 21.2104 158.293 21.5377C155.662 22.1923 155.154 21.7715 155.154 18.7793C155.154 17.0962 155.339 16.1143 155.754 16.0208C159.677 14.852 161.8 14.665 162.954 15.3195C163.785 15.7871 164.2 16.4416 164.293 17.4702C164.477 19.2468 165.631 20.4624 166.231 19.4806C166.739 18.639 166.231 13.7767 165.585 13.0286C165.124 12.5611 164.524 12.5611 162.539 12.9819C160.185 13.4962 153.493 13.3091 150.954 12.7013C150.216 12.5143 149.616 12.6078 149.385 12.9351Z" fill="black"/>
<path d="M99.264 38.3224C97.9717 39.3042 97.4179 40.9406 97.1409 44.2601C96.9102 47.1588 96.9563 47.5328 97.7409 47.8133C98.2025 48.0004 99.0794 48.5614 99.6333 49.0757L100.695 50.0107L101.433 48.1874C101.849 47.2055 102.541 46.1302 102.956 45.8029C103.418 45.5224 104.064 44.4004 104.387 43.325C104.987 41.5484 104.941 41.1744 104.11 39.6315C103.372 38.2289 102.956 37.9484 101.618 37.8549C100.741 37.7614 99.6794 37.9952 99.264 38.3224Z" fill="black"/>
<path d="M106.326 40.1453C105.541 40.9401 105.633 44.0258 106.418 44.6804C107.664 45.709 109.556 45.1012 110.203 43.4648C110.756 42.1557 110.71 41.8752 109.879 40.7999C108.864 39.4908 107.249 39.2103 106.326 40.1453Z" fill="black"/>
<path d="M73.5538 41.0807C73.1385 41.5015 73 46.2236 73 61.0444C73 71.7509 73.1846 80.7742 73.4154 81.1015C73.6 81.4755 74.2923 81.6625 74.8923 81.569L76 81.4288L76.2308 71.7041C76.4154 63.756 76.6 61.9327 77.1538 61.5586C78.0769 60.9509 89.6154 60.9509 90.5385 61.5586C91.0923 61.9327 91.2769 63.756 91.4615 71.7041C91.6923 80.5872 91.7846 81.4288 92.5231 81.569C94.6923 81.9898 94.6923 81.8496 94.6923 61.0911C94.6923 40.3327 94.6923 40.1924 92.5231 40.6132C91.7846 40.7535 91.6923 41.5483 91.4615 48.8418C91.2308 56.182 91.1385 57.0236 90.3538 57.6314C89.6615 58.0989 87.9077 58.2859 83.6154 58.2859C78.5385 58.2859 77.6615 58.1924 77.0154 57.4444C76.3692 56.7431 76.2308 55.2002 76.1385 48.6548C76 41.1275 75.9538 40.7535 75.0769 40.6132C74.5692 40.5664 73.8769 40.7535 73.5538 41.0807Z" fill="black"/>
<path d="M126.632 41.0806C126.217 41.5014 126.078 46.5975 126.078 61.1378C126.078 81.8495 126.078 81.9897 128.247 81.569C128.986 81.4287 129.078 80.6806 129.217 73.2936C129.263 68.8053 129.54 64.878 129.77 64.5975C130.047 64.2703 132.17 63.943 134.755 63.756C137.201 63.6157 139.97 63.1949 140.847 62.8209C142.924 61.8858 144.77 59.969 145.694 57.6313C146.709 55.1534 146.709 48.8417 145.694 46.2235C144.724 43.8391 142.37 41.6884 140.063 41.0339C137.57 40.3326 127.324 40.3793 126.632 41.0806ZM138.632 43.9793C141.54 44.6339 143.155 47.5326 143.155 52.1612C143.155 55.8079 142.14 57.8183 139.555 59.3612C137.663 60.4832 131.063 61.0443 130.001 60.156C129.078 59.3612 128.986 45.1482 129.909 44.3534C130.232 44.0728 131.847 43.7923 133.463 43.6988C136.601 43.5586 136.647 43.5586 138.632 43.9793Z" fill="black"/>
<path d="M150.308 41.0804C150.17 41.4076 150.123 50.618 150.17 61.5583L150.308 81.4284L159.262 81.5687C164.339 81.6154 168.447 81.4752 168.677 81.2414C168.908 81.0076 168.954 80.3998 168.77 79.8388C168.493 78.9037 168.17 78.857 161.939 78.857C158.339 78.857 154.923 78.7167 154.323 78.5765C153.308 78.296 153.308 78.2492 153.4 70.2544L153.539 62.2596L159.77 62.0258C166.508 61.7921 168.216 61.2778 167.339 59.8284C166.877 59.1271 165.954 58.9401 160.554 58.7531C157 58.6128 154.047 58.2856 153.77 58.005C153.447 57.6778 153.308 55.1063 153.4 50.7583L153.539 44.0258L160.554 43.7921C167.985 43.5583 169.231 43.1843 168.262 41.5479C167.8 40.8466 166.693 40.7531 159.123 40.6128C152.477 40.5193 150.447 40.6128 150.308 41.0804Z" fill="black"/>
<path d="M111.262 42.4834C111.262 42.8107 111.124 43.6522 111.031 44.3535C110.847 45.3354 111.078 45.8029 112.001 46.4107C113.431 47.3458 114.308 46.7847 114.816 44.6341C115.047 43.512 114.908 42.9977 114.262 42.5302C113.201 41.7354 111.308 41.7354 111.262 42.4834Z" fill="black"/>
<path d="M115.921 45.6624C114.952 46.6443 115.09 47.8131 116.29 48.7949C117.26 49.5897 118.921 49.543 119.567 48.7482C120.49 47.6261 118.644 44.7274 117.029 44.7274C116.937 44.7274 116.429 45.1482 115.921 45.6624Z" fill="black"/>
<path d="M103.415 49.0286C98.9379 53.8442 97.8302 58.987 100.369 63.5221C101.43 65.5325 102.399 66 104.569 65.5792C106.322 65.2519 106.646 65.5325 107.753 68.5714C108.63 70.9558 108.769 73.5273 108.076 73.9481C107.292 74.4156 107.522 77.0338 108.63 80.2597C109.784 83.5792 110.107 84 111.63 84C112.876 84 117.722 78.6701 118.092 76.8935C118.23 76.1922 118.738 75.2571 119.199 74.8364C119.892 74.2286 120.076 73.387 120.076 71.2831C120.076 68.9455 120.353 68.0104 121.692 65.5792C122.846 63.4753 123.307 62.0727 123.307 60.6234C123.307 58.7065 123.261 58.6597 122.015 58.8935C120.953 59.1273 120.584 58.8935 119.661 57.5844C119.107 56.6961 118.276 54.7792 117.815 53.3299C117.169 51.039 116.846 50.5714 115.692 50.2442C114.907 50.0104 113.522 49.9636 112.553 50.1039C111.03 50.3377 110.799 50.1974 110.384 49.1688C109.969 48.0935 109.692 48 107.199 48C104.938 48 104.246 48.187 103.415 49.0286Z" fill="black"/>
<path d="M119.616 51.2262C118.923 52.582 119.062 53.8444 119.985 54.6859C121.185 55.808 122.339 55.6678 122.616 54.4054C123.031 52.9093 122.754 52.1145 121.6 51.1794C120.354 50.1041 120.216 50.1509 119.616 51.2262Z" fill="black"/>
<path d="M121.37 75.9117C120.308 77.0806 120.216 80.2598 121.232 80.2598C122.016 80.2598 122.524 78.6234 122.293 76.5195C122.155 75.0234 122.155 75.0234 121.37 75.9117Z" fill="black"/>
</svg>
