<svg width="242" height="96" viewBox="0 0 242 96" fill="none" xmlns="http://www.w3.org/2000/svg">
<path d="M113.8 8H113.919L113.956 8.03623C114.261 8.34717 114.56 8.66415 114.857 8.98415C113.278 10.5419 111.703 12.1026 110.124 13.6634C109.794 13.3343 109.462 13.0083 109.129 12.6823C110.662 11.1306 112.264 9.64528 113.754 8.05434L113.8 8Z" fill="#92278F"/>
<path d="M130.206 8.27783C131.753 9.69066 133.194 11.2212 134.703 12.6793C134.373 13.0024 134.04 13.3284 133.71 13.6544C132.19 12.1722 130.688 10.6748 129.18 9.18349C129.519 8.87557 129.854 8.57066 130.206 8.27783Z" fill="#92278F"/>
<path d="M115.231 9.40674C115.579 9.70259 115.915 10.0075 116.254 10.3154C114.672 11.8882 113.085 13.452 111.497 15.0218C111.167 14.6928 110.838 14.3667 110.508 14.0377C112.089 12.5011 113.61 10.9011 115.231 9.40674Z" fill="#92278F"/>
<path d="M128.791 9.56689C130.317 11.0431 131.817 12.5465 133.325 14.0378C132.995 14.3669 132.665 14.6929 132.336 15.022C130.855 13.5397 129.331 12.0967 127.875 10.5933C128.171 10.2431 128.483 9.90501 128.791 9.56689Z" fill="#92278F"/>
<path d="M116.601 10.7686C116.961 11.0735 117.306 11.3904 117.655 11.7074C116.088 13.2893 114.492 14.844 112.91 16.4138C112.565 16.0757 112.22 15.7376 111.875 15.3995C113.457 13.8629 114.977 12.2599 116.601 10.7686Z" fill="#92278F"/>
<path d="M127.459 10.9946C129.007 12.4075 130.445 13.938 131.954 15.3931C131.624 15.7222 131.294 16.0512 130.964 16.3803C129.453 14.889 127.942 13.3946 126.434 11.9003C126.772 11.5924 127.108 11.2875 127.459 10.9946Z" fill="#92278F"/>
<path d="M106.444 11.3511C106.816 11.5956 107.158 11.8915 107.503 12.1662C105.915 13.7511 104.322 15.3299 102.719 16.8967C102.386 16.5737 102.056 16.2537 101.727 15.9307C103.314 14.4273 104.78 12.7669 106.444 11.3511Z" fill="#F6A31C"/>
<path d="M137.388 11.2241C138.92 12.6279 140.349 14.1403 141.842 15.5864C141.5 15.9215 141.155 16.2596 140.813 16.5947C139.308 15.1275 137.818 13.6513 136.328 12.169C136.679 11.849 137.024 11.529 137.388 11.2241Z" fill="#F6A31C"/>
<path d="M118.009 12.1631C118.363 12.4559 118.702 12.7608 119.044 13.0627C117.463 14.6386 115.872 16.2053 114.284 17.7721C113.952 17.4461 113.622 17.1201 113.289 16.794C114.871 15.2604 116.394 13.6604 118.009 12.1631Z" fill="#92278F"/>
<path d="M126.077 12.3081C127.582 13.7843 129.081 15.2696 130.577 16.7549C130.235 17.096 129.893 17.4341 129.548 17.7723C128.046 16.293 126.544 14.8107 125.051 13.3224C125.393 12.9843 125.735 12.6462 126.077 12.3081Z" fill="#92278F"/>
<path d="M107.832 12.6069C108.161 12.933 108.494 13.256 108.827 13.579C107.252 15.1458 105.67 16.7066 104.089 18.2673C103.762 17.9383 103.432 17.6122 103.105 17.2832C104.678 15.7224 106.256 14.1677 107.832 12.6069Z" fill="#F6A31C"/>
<path d="M135.96 12.5674C137.45 14.0376 138.936 15.5078 140.423 16.981C140.097 17.31 139.767 17.6361 139.44 17.9651C137.95 16.4949 136.46 15.0247 134.977 13.5485C135.306 13.2225 135.633 12.8964 135.96 12.5674Z" fill="#F6A31C"/>
<path d="M119.383 13.5156C119.734 13.8115 120.076 14.1194 120.418 14.4273C118.833 15.9971 117.246 17.5639 115.658 19.1337C115.331 18.8077 115.002 18.4786 114.672 18.1526C116.241 16.61 117.774 15.019 119.383 13.5156Z" fill="#92278F"/>
<path d="M124.675 13.7388C126.217 15.1637 127.664 16.6912 129.172 18.1493C128.84 18.4754 128.51 18.8044 128.18 19.1335C126.669 17.6422 125.154 16.1539 123.652 14.6535C123.991 14.3425 124.324 14.0346 124.675 13.7388Z" fill="#92278F"/>
<path d="M109.187 14.0708C109.562 14.3123 109.904 14.6082 110.252 14.8829C108.668 16.4708 107.062 18.0406 105.468 19.6225C105.138 19.2965 104.805 18.9704 104.473 18.6474C106.06 17.144 107.523 15.4836 109.187 14.0708Z" fill="#F6A31C"/>
<path d="M134.598 13.9805C136.125 15.3903 137.56 16.8967 139.05 18.3458C138.717 18.6688 138.384 18.9948 138.054 19.3208C136.558 17.8386 135.056 16.3624 133.566 14.8741C133.908 14.5722 134.247 14.2673 134.598 13.9805Z" fill="#F6A31C"/>
<path d="M120.753 14.8799C121.107 15.1727 121.446 15.4776 121.788 15.7795C120.207 17.3554 118.616 18.9221 117.025 20.492C116.699 20.1629 116.369 19.8338 116.039 19.5048C117.618 17.9712 119.138 16.3772 120.753 14.8799Z" fill="#92278F"/>
<path d="M123.279 15.0522C124.79 16.5315 126.289 18.0228 127.794 19.5111C127.461 19.8372 127.132 20.1632 126.799 20.4892C125.297 19.01 123.798 17.5307 122.305 16.0455C122.631 15.7134 122.955 15.3843 123.279 15.0522Z" fill="#92278F"/>
<path d="M110.575 15.3779C110.932 15.6828 111.28 15.9968 111.625 16.3138C110.047 17.8896 108.459 19.4534 106.871 21.0202C106.532 20.6791 106.19 20.341 105.852 19.9998C107.433 18.4693 108.947 16.8632 110.575 15.3779Z" fill="#F6A31C"/>
<path d="M133.211 15.2876C134.698 16.7548 136.185 18.225 137.672 19.6982C137.345 20.0272 137.015 20.3533 136.688 20.6823C135.199 19.2121 133.709 17.7389 132.219 16.2657C132.552 15.9397 132.881 15.6136 133.211 15.2876Z" fill="#F6A31C"/>
<path d="M111.987 16.7642C112.332 17.057 112.665 17.3619 113.004 17.6668C111.431 19.2457 109.838 20.8064 108.253 22.3732C107.92 22.0502 107.591 21.7242 107.258 21.4011C108.842 19.8645 110.363 18.2585 111.987 16.7642Z" fill="#F6A31C"/>
<path d="M131.852 16.6943C133.378 18.1041 134.813 19.6136 136.306 21.0626C135.961 21.3977 135.619 21.7358 135.274 22.0709C133.778 20.5947 132.282 19.1155 130.789 17.6362C131.14 17.3192 131.488 16.9962 131.852 16.6943Z" fill="#F6A31C"/>
<path d="M113.357 18.1313C113.708 18.4212 114.047 18.723 114.386 19.028C112.801 20.6008 111.214 22.1676 109.623 23.7374C109.296 23.4083 108.966 23.0793 108.637 22.7532C110.221 21.2227 111.736 19.6196 113.357 18.1313Z" fill="#F6A31C"/>
<path d="M130.421 18.0347C131.914 19.5049 133.401 20.9781 134.891 22.4513C134.561 22.7773 134.232 23.1064 133.905 23.4354C132.415 21.9652 130.928 20.495 129.441 19.0249C129.768 18.6958 130.095 18.3667 130.421 18.0347Z" fill="#F6A31C"/>
<path d="M103.165 18.6172C103.516 18.91 103.851 19.2179 104.19 19.5228C102.609 21.0957 101.018 22.6595 99.4367 24.2293C99.107 23.9002 98.7742 23.5742 98.4414 23.2481C100.023 21.7115 101.543 20.1085 103.165 18.6172Z" fill="#008ECD"/>
<path d="M114.737 19.481C115.085 19.7768 115.421 20.0817 115.76 20.3896C114.175 21.9564 112.591 23.5232 111.003 25.09C110.67 24.767 110.341 24.441 110.008 24.1179C111.592 22.5813 113.113 20.9753 114.737 19.481Z" fill="#F6A31C"/>
<path d="M129.078 19.5049C130.657 20.8241 132.021 22.406 133.523 23.8158C133.194 24.1388 132.861 24.4649 132.528 24.7879C131.023 23.2996 129.512 21.8173 128.016 20.32C128.364 20.0422 128.709 19.7554 129.078 19.5049Z" fill="#F6A31C"/>
<path d="M138.933 19.583C140.435 21.0623 141.934 22.5445 143.43 24.0298C143.104 24.3619 142.777 24.6909 142.45 25.02C140.948 23.5407 139.449 22.0615 137.953 20.5732C138.28 20.2441 138.606 19.9121 138.933 19.583Z" fill="#008ECD"/>
<path d="M104.534 19.9849C104.885 20.2717 105.227 20.5735 105.569 20.8754C103.988 22.4543 102.397 24.0181 100.81 25.5879C100.48 25.2588 100.15 24.9328 99.8203 24.6037C101.399 23.0701 102.913 21.4732 104.534 19.9849Z" fill="#008ECD"/>
<path d="M116.102 20.8481C116.45 21.138 116.792 21.4398 117.13 21.7447C115.546 23.3176 113.958 24.8844 112.368 26.4542C112.041 26.1281 111.717 25.8021 111.391 25.4731C112.96 23.9334 114.483 22.3364 116.102 20.8481Z" fill="#F6A31C"/>
<path d="M127.698 20.8184C129.228 22.2161 130.651 23.7285 132.144 25.1685C131.814 25.4946 131.484 25.8236 131.157 26.1527C129.655 24.6674 128.15 23.1912 126.66 21.6969C127.005 21.401 127.347 21.1052 127.698 20.8184Z" fill="#F6A31C"/>
<path d="M137.588 21.0386C139.163 22.388 140.558 23.9639 142.06 25.3978C141.731 25.7239 141.401 26.0499 141.071 26.379C139.557 24.8756 138.03 23.3873 136.531 21.8718C136.876 21.588 137.218 21.2922 137.588 21.0386Z" fill="#008ECD"/>
<path d="M105.918 21.3311C106.278 21.639 106.62 21.956 106.968 22.2729C105.402 23.8578 103.808 25.4095 102.226 26.9794C101.881 26.6412 101.536 26.3031 101.191 25.965C102.773 24.4284 104.293 22.8254 105.918 21.3311Z" fill="#008ECD"/>
<path d="M136.197 22.3486C137.736 23.7675 139.183 25.289 140.685 26.7501C140.343 27.0913 140.001 27.4294 139.656 27.7675C138.148 26.2822 136.64 24.7939 135.141 23.2966C135.489 22.9766 135.837 22.6566 136.197 22.3486Z" fill="#008ECD"/>
<path d="M107.328 22.7231C107.673 23.022 108.009 23.333 108.341 23.6409C106.766 25.2137 105.181 26.7745 103.597 28.3382C103.264 28.0122 102.934 27.6862 102.602 27.3601C104.183 25.8235 105.71 24.2265 107.328 22.7231Z" fill="#008ECD"/>
<path d="M108.7 24.0815C109.045 24.3744 109.381 24.6853 109.719 24.9902C108.15 26.5721 106.556 28.1268 104.975 29.6966C104.642 29.3706 104.309 29.0446 103.977 28.7185C105.558 27.1819 107.088 25.5849 108.7 24.0815Z" fill="#008ECD"/>
<path d="M134.77 23.7041C136.285 25.1743 137.778 26.6656 139.28 28.1509C138.95 28.4739 138.617 28.7999 138.288 29.123C136.776 27.6528 135.283 26.1615 133.781 24.6822C134.114 24.3562 134.444 24.0301 134.77 23.7041Z" fill="#008ECD"/>
<path d="M133.423 25.1108C134.958 26.5327 136.405 28.0482 137.905 29.5063C137.575 29.8354 137.245 30.1644 136.915 30.4935C135.404 28.9991 133.89 27.5108 132.391 26.0074C132.73 25.7056 133.068 25.4007 133.423 25.1108Z" fill="#008ECD"/>
<path d="M110.072 25.4463C110.426 25.7391 110.762 26.044 111.104 26.3489C109.525 27.9218 107.934 29.4886 106.347 31.0553C106.014 30.7293 105.684 30.4033 105.352 30.0772C106.933 28.5406 108.457 26.9467 110.072 25.4463Z" fill="#008ECD"/>
<path d="M137.36 31.2847C137.708 31.5835 138.044 31.8945 138.383 32.2054C136.804 33.7783 135.214 35.339 133.632 36.9088C133.302 36.5798 132.97 36.2537 132.637 35.9277C134.218 34.3881 135.748 32.7911 137.36 31.2847Z" fill="#008ECD"/>
<path d="M106.698 31.52C108.246 32.9359 109.687 34.4664 111.195 35.9245C110.865 36.2476 110.532 36.5736 110.203 36.8996C108.685 35.4174 107.18 33.92 105.672 32.4287C106.011 32.1238 106.347 31.8159 106.698 31.52Z" fill="#008ECD"/>
<path d="M138.739 32.6519C139.087 32.9477 139.423 33.2526 139.759 33.5605C138.18 35.1334 136.589 36.7002 135.005 38.267C134.675 37.9379 134.345 37.6119 134.016 37.2828C135.597 35.7462 137.118 34.1462 138.739 32.6519Z" fill="#008ECD"/>
<path d="M105.325 32.8394C106.827 34.3156 108.323 35.7978 109.819 37.2831C109.489 37.6122 109.159 37.9382 108.83 38.2673C107.325 36.779 105.816 35.2967 104.32 33.8024C104.656 33.4824 104.989 33.1624 105.325 32.8394Z" fill="#008ECD"/>
<path d="M140.146 34.0439C140.497 34.3398 140.839 34.6507 141.178 34.9556C139.596 36.5255 138.009 38.0923 136.424 39.659C136.091 39.333 135.759 39.007 135.426 38.6809C137.007 37.1443 138.534 35.5504 140.146 34.0439Z" fill="#008ECD"/>
<path d="M103.948 34.2368C105.493 35.6527 106.937 37.1832 108.442 38.6383C108.112 38.9674 107.782 39.2964 107.453 39.6255C105.941 38.1342 104.43 36.6398 102.922 35.1455C103.261 34.8376 103.597 34.5327 103.948 34.2368Z" fill="#008ECD"/>
<path d="M141.517 35.4082C141.871 35.701 142.207 36.0059 142.549 36.3108C140.97 37.8837 139.38 39.4505 137.792 41.0173C137.459 40.6912 137.13 40.3652 136.797 40.0391C138.378 38.5025 139.902 36.9086 141.517 35.4082Z" fill="#008ECD"/>
<path d="M102.517 35.5806C104.028 37.0598 105.527 38.5511 107.032 40.0394C106.7 40.3655 106.37 40.6915 106.037 41.0176C104.535 39.5383 103.036 38.0591 101.543 36.5738C101.87 36.2417 102.193 35.9096 102.517 35.5806Z" fill="#008ECD"/>
<path d="M112.448 35.813C113.938 37.2832 115.425 38.7534 116.912 40.2266C116.585 40.5556 116.255 40.8817 115.928 41.2107C114.439 39.7405 112.949 38.2703 111.465 36.7941C111.795 36.4681 112.121 36.142 112.448 35.813Z" fill="#F6A31C"/>
<path d="M131.339 35.8521C131.669 36.1751 132.002 36.5011 132.335 36.8241C130.759 38.3909 129.178 39.9517 127.596 41.5124C127.27 41.1834 126.94 40.8573 126.613 40.5283C128.186 38.9675 129.764 37.4128 131.339 35.8521Z" fill="#F6A31C"/>
<path d="M142.891 36.7607C143.242 37.0566 143.584 37.3675 143.923 37.6724C142.341 39.2453 140.753 40.809 139.166 42.3789C138.836 42.0528 138.509 41.7238 138.18 41.3977C139.749 39.8521 141.285 38.2672 142.891 36.7607Z" fill="#008ECD"/>
<path d="M101.164 36.9844C102.703 38.4123 104.153 39.9338 105.661 41.3949C105.329 41.721 104.999 42.05 104.669 42.3791C103.158 40.8878 101.644 39.3995 100.145 37.8991C100.48 37.5881 100.813 37.2802 101.164 36.9844Z" fill="#008ECD"/>
<path d="M111.091 37.2256C112.617 38.6354 114.052 40.1418 115.542 41.5909C115.209 41.9139 114.876 42.2399 114.547 42.566C113.051 41.0837 111.549 39.6075 110.059 38.1192C110.401 37.8173 110.739 37.5124 111.091 37.2256Z" fill="#F6A31C"/>
<path d="M132.694 37.3164C133.07 37.5579 133.412 37.8538 133.76 38.1285C132.175 39.7164 130.569 41.2862 128.976 42.8681C128.646 42.5421 128.313 42.216 127.98 41.893C129.568 40.3896 131.031 38.7292 132.694 37.3164Z" fill="#F6A31C"/>
<path d="M144.265 38.1255C144.619 38.4183 144.955 38.7232 145.297 39.0281C143.715 40.604 142.128 42.1708 140.537 43.7376C140.21 43.4085 139.881 43.0795 139.551 42.7504C141.126 41.2168 142.653 39.6228 144.265 38.1255Z" fill="#008ECD"/>
<path d="M99.7708 38.2974C101.279 39.7766 102.778 41.2619 104.28 42.7502C103.951 43.0793 103.621 43.4083 103.294 43.7374C101.792 42.2581 100.293 40.7759 98.7969 39.2906C99.1236 38.9585 99.4472 38.6264 99.7708 38.2974Z" fill="#008ECD"/>
<path d="M109.703 38.5327C111.19 39.9999 112.677 41.4701 114.164 42.9433C113.837 43.2723 113.507 43.5984 113.181 43.9274C111.691 42.4572 110.201 40.984 108.711 39.5108C109.044 39.1848 109.373 38.8588 109.703 38.5327Z" fill="#F6A31C"/>
<path d="M134.086 38.6235C134.444 38.9284 134.792 39.2424 135.137 39.5594C133.558 41.1352 131.971 42.699 130.383 44.2658C130.044 43.9247 129.702 43.5866 129.363 43.2454C130.945 41.7149 132.459 40.1088 134.086 38.6235Z" fill="#F6A31C"/>
<path d="M108.344 39.9971C109.925 41.3133 111.293 42.8952 112.795 44.308C112.45 44.6431 112.108 44.9812 111.763 45.3163C110.261 43.831 108.75 42.3488 107.254 40.8544C107.608 40.5616 107.968 40.2597 108.344 39.9971Z" fill="#F6A31C"/>
<path d="M135.499 40.0093C135.844 40.3021 136.177 40.607 136.515 40.9119C134.943 42.4908 133.349 44.0515 131.765 45.6183C131.432 45.2953 131.102 44.9693 130.77 44.6463C132.354 43.1097 133.875 41.5036 135.499 40.0093Z" fill="#F6A31C"/>
<path d="M106.914 41.2798C108.407 42.75 109.893 44.2232 111.383 45.6964C111.054 46.0224 110.724 46.3515 110.397 46.6805C108.907 45.2104 107.42 43.7402 105.934 42.27C106.26 41.9409 106.587 41.6119 106.914 41.2798Z" fill="#F6A31C"/>
<path d="M116.825 41.5728C118.407 42.9162 119.793 44.5011 121.307 45.9229C120.974 46.252 120.641 46.578 120.309 46.9041C118.794 45.4037 117.265 43.9124 115.766 42.3969C116.114 42.1162 116.456 41.8233 116.825 41.5728Z" fill="#92278F"/>
<path d="M136.865 41.3765C137.216 41.6663 137.555 41.9682 137.894 42.2731C136.309 43.8459 134.721 45.4127 133.131 46.9825C132.804 46.6534 132.474 46.3244 132.145 45.9984C133.729 44.4678 135.243 42.8648 136.865 41.3765Z" fill="#F6A31C"/>
<path d="M126.676 41.8628C127.027 42.1586 127.363 42.4635 127.702 42.7685C126.121 44.3413 124.533 45.9051 122.948 47.4749C122.616 47.1458 122.286 46.8198 121.953 46.4937C123.535 44.9571 125.052 43.3541 126.676 41.8628Z" fill="#92278F"/>
<path d="M105.566 42.7505C107.145 44.0697 108.51 45.6516 110.012 47.0614C109.682 47.3844 109.349 47.7105 109.016 48.0335C107.511 46.5452 106 45.0629 104.504 43.5656C104.852 43.2878 105.197 43.0011 105.566 42.7505Z" fill="#F6A31C"/>
<path d="M138.245 42.7261C138.593 43.0219 138.929 43.3298 139.268 43.6348C137.683 45.2015 136.099 46.7683 134.511 48.3351C134.178 48.0121 133.848 47.6861 133.516 47.3631C135.1 45.8265 136.621 44.2204 138.245 42.7261Z" fill="#F6A31C"/>
<path d="M115.432 42.877C116.974 44.2928 118.418 45.8143 119.92 47.2754C119.594 47.6075 119.267 47.9366 118.94 48.2656C117.432 46.7773 115.918 45.292 114.422 43.7917C114.758 43.4837 115.091 43.1728 115.432 42.877Z" fill="#92278F"/>
<path d="M128.043 43.23C128.397 43.5168 128.739 43.8187 129.081 44.1205C127.503 45.6964 125.909 47.2632 124.321 48.833C123.991 48.504 123.662 48.1779 123.332 47.8489C124.91 46.3183 126.425 44.7153 128.043 43.23Z" fill="#92278F"/>
<path d="M104.19 44.0635C105.72 45.4612 107.143 46.9737 108.636 48.4137C108.306 48.7397 107.976 49.0688 107.65 49.3978C106.147 47.9125 104.642 46.4363 103.152 44.942C103.497 44.6461 103.839 44.3503 104.19 44.0635Z" fill="#F6A31C"/>
<path d="M114.079 44.2896C115.657 45.633 117.05 47.2118 118.552 48.6428C118.222 48.9688 117.892 49.2979 117.566 49.6239C116.048 48.1205 114.519 46.6292 113.02 45.1137C113.368 44.8329 113.71 44.5401 114.079 44.2896Z" fill="#92278F"/>
<path d="M139.615 44.0908C139.976 44.3957 140.327 44.7127 140.678 45.0297C139.1 46.6025 137.512 48.1693 135.924 49.7331C135.582 49.395 135.24 49.0599 134.898 48.7218C136.471 47.1791 137.994 45.5821 139.615 44.0908Z" fill="#F6A31C"/>
<path d="M129.461 44.6099C129.806 44.9027 130.145 45.2106 130.481 45.5185C128.915 47.1004 127.318 48.6551 125.737 50.2249C125.404 49.8989 125.071 49.5729 124.738 49.2468C126.32 47.7102 127.846 46.1133 129.461 44.6099Z" fill="#92278F"/>
<path d="M102.815 45.4673C104.396 46.7835 105.761 48.3714 107.266 49.7782C106.921 50.1133 106.573 50.4484 106.228 50.7835C104.717 49.3043 103.209 47.819 101.719 46.3186C102.079 46.0288 102.433 45.7269 102.815 45.4673Z" fill="#F6A31C"/>
<path d="M112.645 45.585C114.147 47.0702 115.652 48.5525 117.148 50.0408C116.815 50.3638 116.482 50.6868 116.147 51.0099C114.644 49.5336 113.148 48.0514 111.652 46.5691C111.985 46.2401 112.315 45.911 112.645 45.585Z" fill="#92278F"/>
<path d="M130.839 45.9717C131.188 46.2675 131.52 46.5755 131.856 46.8864C130.281 48.4592 128.693 50.02 127.109 51.5838C126.776 51.2577 126.446 50.9317 126.113 50.6056C127.695 49.069 129.221 47.469 130.839 45.9717Z" fill="#92278F"/>
<path d="M111.263 46.9497C112.777 48.4229 114.27 49.9112 115.772 51.3965C115.442 51.7195 115.11 52.0456 114.78 52.3686C113.269 50.8984 111.779 49.4071 110.273 47.9278C110.606 47.6018 110.936 47.2757 111.263 46.9497Z" fill="#92278F"/>
<path d="M132.208 47.3267C132.559 47.6225 132.901 47.9304 133.243 48.2384C131.659 49.8082 130.071 51.375 128.487 52.9417C128.154 52.6157 127.821 52.2897 127.488 51.9636C129.07 50.427 130.596 48.8301 132.208 47.3267Z" fill="#92278F"/>
<path d="M109.914 48.3594C111.453 49.7752 112.897 51.2937 114.396 52.7518C114.066 53.0809 113.736 53.4099 113.407 53.739C111.895 52.2446 110.381 50.7563 108.879 49.253C109.221 48.9511 109.56 48.6462 109.914 48.3594Z" fill="#92278F"/>
<path d="M133.579 48.6914C133.934 48.9842 134.273 49.2891 134.614 49.591C133.033 51.1669 131.442 52.7337 129.855 54.3005C129.522 53.9744 129.192 53.6484 128.859 53.3224C130.441 51.7888 131.964 50.1888 133.579 48.6914Z" fill="#92278F"/>
<path d="M78.4882 67.7225C78.4852 68.2146 78.4821 68.7066 78.4821 69.1987C78.1341 69.2078 77.786 69.2168 77.438 69.2259C77.4196 68.9119 77.4044 68.601 77.3861 68.287C76.6777 68.1693 75.7404 67.7527 75.142 68.3172C74.6627 68.6372 74.7299 69.2983 75.0657 69.6908C75.9877 70.3881 77.4318 70.5783 78.2348 71.4085C79.1202 72.3957 78.7416 74.047 77.5723 74.6447C76.577 75.1459 75.1237 75.0825 74.1559 74.53C73.3804 74.1255 73.4995 73.2138 73.3438 72.4742C73.6704 72.4651 73.9971 72.4561 74.3238 72.447C74.4764 72.8304 74.6138 73.2319 74.8123 73.5972C75.4504 74.038 76.5037 74.0923 77.1296 73.6063C77.6547 73.244 77.6303 72.29 77.0624 71.9731C76.1953 71.3964 75.0535 71.173 74.2261 70.5451C73.1758 69.721 73.4262 67.7889 74.6902 67.2606C76.0244 66.6629 77.2884 67.013 78.4882 67.7225Z" fill="#92278F"/>
<path d="M109.208 67.3543C109.855 67.5898 109.81 68.6192 109.993 69.1687C109.654 69.1807 109.315 69.1898 108.976 69.1989C108.784 68.8517 108.573 68.5166 108.347 68.1936C107.621 67.8645 106.439 67.8977 106.143 68.7853C105.963 69.0721 106.25 69.543 106.476 69.7392C107.419 70.4517 109.08 70.6539 109.773 71.6321C110.301 72.6072 110.048 74.0773 108.982 74.6117C107.978 75.1611 106.332 75.1068 105.383 74.4547C104.757 74.0894 104.787 73.0962 104.613 72.4713C104.934 72.4683 105.251 72.4653 105.569 72.4622C105.883 72.9392 106.021 73.709 106.662 73.8388C107.382 74.0743 108.482 73.9596 108.793 73.1596C109.019 72.8245 108.747 72.2539 108.454 72.0275C107.556 71.3845 106.311 71.1551 105.456 70.4607C104.497 69.5641 104.836 67.6864 106.094 67.2215C107.013 66.8351 108.326 66.8955 109.208 67.3543Z" fill="#92278F"/>
<path d="M157.355 67.1671C157.972 67.0645 158.619 67.0856 159.245 67.0645C160.588 69.0207 161.965 70.9588 163.293 72.9211C163.278 71.2848 163.284 69.6486 163.284 68.0124C162.951 68.0033 162.616 67.9943 162.283 67.9882L162.298 67.0946C163.336 67.0946 164.377 67.0946 165.415 67.0946C165.421 67.3935 165.424 67.6894 165.431 67.9882C165.098 67.9943 164.762 68.0033 164.429 68.0124C164.429 70.2946 164.429 72.5799 164.429 74.8652C164.054 74.8682 163.675 74.8713 163.3 74.8743C161.956 72.9211 160.54 71.0071 159.279 69.0026C159.337 70.6569 159.315 72.2992 159.315 73.9565C159.648 73.9596 159.978 73.9626 160.311 73.9686C160.311 74.2675 160.311 74.5663 160.311 74.8652C159.266 74.8682 158.225 74.8682 157.181 74.8682L157.172 73.9777C157.48 73.9656 157.789 73.9565 158.097 73.9475C158.091 71.9762 158.094 70.0018 158.094 68.0305C157.722 67.9943 157.349 67.955 156.977 67.9188C157.093 67.6622 157.218 67.4116 157.355 67.1671Z" fill="#92278F"/>
<path d="M80.3967 67.0942C81.4378 67.0942 82.4789 67.0942 83.5201 67.0942C83.5231 67.3931 83.5262 67.692 83.5292 67.9908C83.1964 67.9969 82.8667 68.0029 82.5339 68.0059C82.5736 69.5697 82.3751 71.2391 82.7049 72.7697C83.1659 74.3908 85.9167 74.3154 86.3106 72.6791C86.564 71.1607 86.3778 69.5486 86.4205 68.012C86.0877 68.0029 85.7549 67.9939 85.4221 67.9878C85.4282 67.689 85.4313 67.3931 85.4374 67.0942C86.4755 67.0942 87.5166 67.0942 88.5546 67.0942L88.5699 67.9878C88.2371 67.9939 87.9013 68.0029 87.5654 68.012C87.5318 69.6361 87.6875 71.2995 87.4769 72.9116C87.0159 75.6708 82.0485 75.6829 81.5111 72.981C81.2394 71.3629 81.4348 69.6482 81.389 68.0059C81.0562 68.0029 80.7234 67.9999 80.3906 67.9969C80.3937 67.695 80.3937 67.3961 80.3967 67.0942Z" fill="#92278F"/>
<path d="M90.3252 67.1002C91.7846 67.1213 93.2898 66.9885 94.7369 67.1847C95.5491 67.3176 96.1505 67.876 96.3062 68.6821C96.4894 69.3945 96.0162 70.0889 95.7231 70.7168C95.9765 71.061 96.2574 71.4111 96.4619 71.7855C97.0176 72.9477 96.3307 74.4511 95.0422 74.741C93.5065 75.0036 91.8762 74.8285 90.3191 74.8647L90.313 73.9772C90.6183 73.9651 90.9267 73.9561 91.235 73.947C91.2289 71.9696 91.232 69.9923 91.232 68.0149C90.9206 68.0059 90.6122 67.9938 90.3008 67.9817C90.3099 67.6859 90.316 67.393 90.3252 67.1002Z" fill="#92278F"/>
<path d="M114.712 67.0791C115.149 67.0882 115.586 67.0942 116.025 67.1033C116.831 69.3855 117.674 71.6557 118.486 73.935C118.74 73.9531 118.993 73.9712 119.246 73.9893V74.8648C118.33 74.8678 117.418 74.8678 116.502 74.8678C116.499 74.5719 116.495 74.2731 116.489 73.9742L117.274 73.9531C117.079 73.4036 116.88 72.8512 116.685 72.3017C115.796 72.3017 114.908 72.3017 114.019 72.3017C113.821 72.8512 113.626 73.4006 113.43 73.9531L114.218 73.9742C114.212 74.2731 114.209 74.5719 114.206 74.8678C113.29 74.8678 112.377 74.8678 111.461 74.8648V73.9893C111.714 73.9712 111.971 73.9531 112.224 73.9319C113.049 71.6467 113.876 69.3614 114.712 67.0791Z" fill="#92278F"/>
<path d="M120.782 67.0942C121.796 67.0942 122.809 67.0942 123.823 67.0942L123.829 67.9908C123.524 67.9969 123.216 68.0029 122.91 68.009C122.91 68.8361 122.91 69.6633 122.91 70.4905C124.208 70.4905 125.505 70.4905 126.803 70.4905C126.803 69.6633 126.803 68.8331 126.803 68.0059C126.498 68.0029 126.192 67.9999 125.887 67.9969C125.887 67.695 125.887 67.3961 125.887 67.0942C126.904 67.0942 127.923 67.0942 128.94 67.0942C128.94 67.3961 128.94 67.695 128.94 67.9969C128.635 67.9999 128.329 68.0029 128.024 68.0059C128.024 69.9893 128.024 71.9727 128.024 73.9561C128.329 73.9591 128.635 73.9622 128.94 73.9652C128.94 74.2671 128.94 74.5659 128.94 74.8678C127.923 74.8678 126.904 74.8678 125.887 74.8678C125.887 74.5659 125.887 74.2671 125.887 73.9652C126.192 73.9622 126.498 73.9591 126.803 73.9561C126.803 73.129 126.803 72.2988 126.803 71.4716C125.505 71.4716 124.208 71.4716 122.91 71.4716C122.91 72.2988 122.91 73.1259 122.907 73.9531C123.213 73.9591 123.518 73.9652 123.826 73.9712V74.8678C122.809 74.8678 121.793 74.8678 120.776 74.8678C120.773 74.569 120.767 74.2731 120.764 73.9742C121.072 73.9652 121.381 73.9591 121.689 73.9501C121.689 71.9727 121.686 69.9954 121.689 68.015C121.378 68.0059 121.069 67.9939 120.758 67.9818L120.782 67.0942Z" fill="#92278F"/>
<path d="M134.964 66.9888C135.654 68.8212 136.307 70.6658 136.955 72.5133C137.22 73.3284 137.474 73.751 138.194 74.2582L138.27 74.865C137.348 74.868 136.426 74.868 135.504 74.868L135.498 73.9744L136.277 73.9593C136.081 73.4069 135.886 72.8544 135.691 72.302C134.793 72.302 133.898 72.302 133.004 72.308C132.815 72.8544 132.625 73.4039 132.436 73.9533L133.211 73.9684C133.211 74.2673 133.211 74.5661 133.211 74.868C132.289 74.868 131.367 74.868 130.445 74.868C130.464 74.6567 130.482 74.4454 130.5 74.231C130.867 73.911 131.264 73.751 131.444 73.2922C132.237 71.4024 132.76 69.3948 133.584 67.5171C133.703 67.0099 134.546 67.1337 134.964 66.9888Z" fill="#92278F"/>
<path d="M139.786 67.0974C141.328 67.1306 142.952 66.9585 144.473 67.2362C145.572 67.5019 146.082 68.5072 145.959 69.5698C145.911 70.56 145.221 70.9827 144.555 71.5925C144.979 72.2898 145.395 72.9962 145.804 73.7057C146.06 73.8053 146.32 73.9049 146.576 74.0076C146.567 74.3306 146.555 74.6536 146.543 74.9766C146.079 74.8951 145.593 74.8438 145.144 74.6929C144.372 73.9593 144.048 72.7668 143.322 71.9789C142.934 71.7555 142.372 71.7615 141.929 71.6649C141.92 72.4257 141.914 73.1864 141.908 73.9502C142.216 73.9563 142.525 73.9653 142.833 73.9744L142.827 74.8679C141.81 74.8679 140.797 74.8679 139.78 74.8679L139.771 73.9774C140.079 73.9653 140.388 73.9562 140.696 73.9472C140.69 71.9698 140.693 69.9925 140.693 68.0151C140.381 68.0061 140.073 67.994 139.762 67.9819C139.771 67.6861 139.777 67.3932 139.786 67.0974Z" fill="#92278F"/>
<path d="M151.096 67.0943C151.536 67.0943 151.972 67.0913 152.409 67.0913C152.955 68.6007 153.508 70.1072 154.039 71.6226C154.436 72.6551 154.564 73.6302 155.596 74.2551L155.67 74.8649C154.751 74.8679 153.829 74.8679 152.907 74.8679L152.901 73.9713L153.676 73.9623C153.478 73.4098 153.285 72.8543 153.093 72.3019C152.192 72.3019 151.295 72.3019 150.397 72.3019C150.214 72.8513 150.028 73.4038 149.844 73.9532L150.614 73.9683C150.614 74.2672 150.614 74.566 150.614 74.8679C149.692 74.8679 148.77 74.8679 147.848 74.8679C147.866 74.6566 147.884 74.4453 147.903 74.234C148.358 73.8807 148.761 73.6423 148.938 73.0717C149.676 71.0853 150.366 69.0807 151.096 67.0943Z" fill="#92278F"/>
<path d="M92.4531 68.0215C93.2103 68.0819 94.0957 68.0215 94.8071 68.3083C95.2284 68.906 95.2803 69.6698 94.6666 70.1588C93.9736 70.3822 93.1798 70.34 92.4592 70.3943C92.4562 69.6034 92.4531 68.8124 92.4531 68.0215Z" fill="white"/>
<path d="M141.916 68.0215C142.625 68.0698 143.388 68.0426 144.075 68.2328C144.994 68.589 144.948 70.0079 144.249 70.5453C143.571 70.8773 142.655 70.7747 141.916 70.8441C141.913 69.9053 141.913 68.9634 141.916 68.0215Z" fill="white"/>
<path d="M115.352 68.4346C115.691 69.3946 116.027 70.3546 116.362 71.3176C115.685 71.3206 115.01 71.3236 114.332 71.3266C114.674 70.3636 115.016 69.4006 115.352 68.4346Z" fill="white"/>
<path d="M134.356 68.4438C134.692 69.4008 135.03 70.3578 135.366 71.3178C134.688 71.3208 134.011 71.3239 133.336 71.3269C133.678 70.3639 134.017 69.4038 134.356 68.4438Z" fill="white"/>
<path d="M151.762 68.4438C152.092 69.4038 152.431 70.3608 152.77 71.3178C152.089 71.3208 151.411 71.3208 150.73 71.3208C151.075 70.3638 151.417 69.4038 151.762 68.4438Z" fill="white"/>
<path d="M92.4554 71.2847C93.1943 71.3149 93.9759 71.2756 94.7025 71.4386C95.6917 71.7647 95.6642 73.413 94.7056 73.745C93.982 73.9111 93.1973 73.893 92.4554 73.9322C92.4524 73.0507 92.4524 72.1662 92.4554 71.2847Z" fill="white"/>
<path d="M99.0938 71.2451C100.19 71.2451 101.283 71.2451 102.379 71.2451C102.379 71.5742 102.379 71.9002 102.379 72.2293C101.286 72.2262 100.19 72.2262 99.0968 72.2262C99.0968 71.9002 99.0938 71.5742 99.0938 71.2451Z" fill="#92278F"/>
<path d="M85.2989 80.4288C86.1171 80.8363 85.9584 81.6846 86.1599 82.4544C85.8118 82.4695 85.4638 82.4816 85.1188 82.4937C84.9692 82.1072 84.8043 81.7299 84.6211 81.3646C83.5159 80.6612 81.7726 80.8574 80.9238 81.8839C79.9132 83.0733 80.0353 84.9812 81.1009 86.0952C82.0107 87.0129 83.5953 87.1669 84.7066 86.5329C84.9234 86.1857 85.076 85.7963 85.2561 85.431C85.5737 85.437 85.8942 85.4461 86.2148 85.4552C86.0469 86.2491 86.2362 87.0733 85.3538 87.4657C83.7968 88.1812 81.5772 88.1601 80.2918 86.9012C78.6584 85.4159 78.5638 82.6506 80.1208 81.0808C81.4215 79.7254 83.6807 79.6288 85.2989 80.4288Z" fill="#008ECD"/>
<path d="M112.581 80.0212C114.248 79.6559 116.035 80.2899 116.947 81.745C118.196 83.6921 117.485 86.5329 115.335 87.5321C113.183 88.5766 110.453 87.5653 109.712 85.274C108.921 83.031 110.188 80.5223 112.581 80.0212Z" fill="#008ECD"/>
<path d="M152.584 80.0513C154.162 79.6498 155.912 80.172 156.898 81.4792C158.29 83.2845 157.774 86.2037 155.778 87.366C153.814 88.5373 151.103 87.8822 150.074 85.8143C148.902 83.5321 150.022 80.6853 152.584 80.0513Z" fill="#008ECD"/>
<path d="M180.586 80.4015C181.447 80.8272 181.309 81.6453 181.486 82.4483C181.129 82.4725 180.775 82.4966 180.418 82.5208C180.265 82.1374 180.177 81.6815 179.938 81.3404C178.876 80.6974 177.243 80.8544 176.366 81.76C175.221 82.9585 175.325 85.0929 176.553 86.1978C177.481 87.0189 178.922 87.1396 180.006 86.557C180.256 86.2249 180.424 85.8144 180.616 85.4491C180.931 85.4461 181.245 85.443 181.56 85.437C181.392 86.1223 181.563 87.0219 180.821 87.3902C179.242 88.2114 176.907 88.1751 175.591 86.8619C173.887 85.3102 173.936 82.2974 175.728 80.8302C177.032 79.7253 179.09 79.6861 180.586 80.4015Z" fill="#008ECD"/>
<path d="M52.2327 80.0757C54.1378 80.0757 56.046 80.0757 57.9542 80.0757C57.9542 80.6764 57.9542 81.2802 57.9572 81.881C57.6305 81.887 57.3039 81.893 56.9772 81.8991C56.968 81.6183 56.9589 81.3376 56.9528 81.0568C56.1162 81.0568 55.2797 81.0568 54.4431 81.0568C54.4431 81.8357 54.4431 82.6176 54.4431 83.3964C55.359 83.3964 56.275 83.3964 57.1909 83.3964C57.1909 83.7225 57.1909 84.0515 57.1909 84.3776C56.275 84.3776 55.359 84.3776 54.4431 84.3776C54.4431 85.2078 54.4431 86.038 54.4431 86.8681C55.3316 86.8681 56.22 86.8681 57.1085 86.8681C57.1115 86.5421 57.1146 86.213 57.1176 85.887C57.4474 85.887 57.7771 85.887 58.1068 85.887C58.1068 86.5149 58.1068 87.1459 58.1068 87.7738C56.1498 87.7738 54.1897 87.7738 52.2327 87.7738C52.2296 87.4719 52.2296 87.1731 52.2296 86.8712C52.5594 86.8681 52.8921 86.8651 53.2219 86.8621C53.2219 84.9029 53.2219 82.9436 53.2219 80.9844C52.8921 80.9813 52.5594 80.9813 52.2266 80.9783L52.2327 80.0757Z" fill="#008ECD"/>
<path d="M60.0973 80.0785C61.4773 80.0875 62.8695 80.0211 64.2465 80.1026C65.138 80.154 65.9684 80.48 66.5729 81.1411C67.5957 82.1917 67.7636 83.8641 67.4186 85.2226C67.0675 86.5509 65.9104 87.5834 64.5182 87.7222C63.0527 87.8521 61.5658 87.7524 60.0973 87.7705C60.0912 87.4717 60.0881 87.1758 60.082 86.88C60.4148 86.8709 60.7507 86.8649 61.0834 86.8589C61.0834 84.9026 61.0834 82.9464 61.0834 80.9902C60.7507 80.9842 60.4148 80.9781 60.082 80.9691C60.0881 80.6732 60.0912 80.3774 60.0973 80.0785Z" fill="#008ECD"/>
<path d="M69.2575 80.0757C70.2955 80.0757 71.3366 80.0757 72.3747 80.0757L72.3899 80.9693C72.0571 80.9783 71.7244 80.9844 71.3916 80.9934C71.4252 82.5119 71.2725 84.0787 71.4862 85.5851C71.8098 87.3421 74.869 87.324 75.156 85.5519C75.4064 84.0636 75.2446 82.4938 75.2751 80.9874C74.9454 80.9844 74.6156 80.9813 74.2859 80.9783C74.289 80.6764 74.289 80.3776 74.292 80.0757C75.3331 80.0757 76.3742 80.0757 77.4153 80.0757C77.4184 80.3746 77.4214 80.6734 77.4214 80.9753C77.0886 80.9783 76.7559 80.9844 76.4231 80.9874C76.3986 82.5119 76.5147 84.0576 76.3651 85.5731C76.2399 86.5663 75.5682 87.4417 74.5912 87.7436C73.0708 88.2387 70.9092 87.8402 70.3932 86.1315C70.0726 84.4712 70.3047 82.681 70.2467 80.9904C69.9108 80.9844 69.578 80.9783 69.2422 80.9693C69.2483 80.6734 69.2513 80.3746 69.2575 80.0757Z" fill="#008ECD"/>
<path d="M92.1675 79.9849C92.9888 82.2732 93.8284 84.5524 94.6466 86.8407C94.9092 86.8588 95.1718 86.8739 95.4343 86.889L95.4221 87.7735C94.5123 87.7735 93.5994 87.7735 92.6865 87.7735L92.6682 86.886L93.4315 86.8588C93.2453 86.3335 93.059 85.8082 92.8697 85.283C91.9782 85.283 91.0837 85.283 90.1891 85.283C89.9998 85.8052 89.8075 86.3305 89.6151 86.8528L90.4028 86.886L90.3845 87.7735C89.4716 87.7735 88.5588 87.7735 87.6489 87.7735L87.6367 86.889C87.8993 86.8739 88.1619 86.8588 88.4244 86.8407C89.1358 84.8603 89.8502 82.88 90.5555 80.8966C90.8547 79.9154 91.3188 80.1509 92.1675 79.9849Z" fill="#008ECD"/>
<path d="M96.1172 80.0757C98.3551 80.0757 100.596 80.0757 102.834 80.0757C102.834 80.7791 102.834 81.4825 102.834 82.1859C102.507 82.1889 102.178 82.1919 101.848 82.1949C101.845 81.8146 101.842 81.4372 101.839 81.0568C101.253 81.0568 100.669 81.0568 100.086 81.0568C100.086 82.9889 100.089 84.924 100.086 86.8561C100.419 86.8651 100.755 86.8712 101.088 86.8802L101.072 87.7738C100.034 87.7738 98.9963 87.7738 97.9552 87.7738C97.949 87.478 97.9429 87.1821 97.9368 86.8832C98.2452 86.8742 98.5536 86.8651 98.865 86.8531C98.865 84.921 98.865 82.9889 98.865 81.0568C98.2818 81.0568 97.6987 81.0568 97.1125 81.0568C97.1094 81.4372 97.1064 81.8146 97.1033 82.1949C96.7736 82.1919 96.4439 82.1889 96.1172 82.1859C96.1172 81.4825 96.1172 80.7791 96.1172 80.0757Z" fill="#008ECD"/>
<path d="M104.518 80.0757C105.559 80.0757 106.6 80.0757 107.641 80.0757C107.644 80.3746 107.647 80.6734 107.65 80.9723C107.342 80.9783 107.037 80.9844 106.728 80.9904C106.728 82.9466 106.728 84.9029 106.728 86.8561C107.037 86.8651 107.342 86.8712 107.65 86.8772C107.647 87.1761 107.644 87.4749 107.641 87.7738C106.6 87.7738 105.559 87.7738 104.518 87.7738C104.515 87.4719 104.515 87.1731 104.512 86.8712C104.845 86.8681 105.174 86.8651 105.507 86.8621C105.507 84.9029 105.507 82.9466 105.507 80.9874C105.174 80.9844 104.845 80.9813 104.512 80.9783C104.515 80.6764 104.515 80.3776 104.518 80.0757Z" fill="#008ECD"/>
<path d="M119.401 80.0757C120.112 80.0757 120.823 80.0757 121.532 80.0787C122.857 81.9927 124.194 83.8976 125.507 85.8236C125.501 84.2115 125.504 82.6025 125.504 80.9904C125.171 80.9844 124.835 80.9783 124.502 80.9693C124.508 80.6734 124.512 80.3746 124.518 80.0757C125.556 80.0757 126.597 80.0757 127.635 80.0757L127.65 80.9693C127.317 80.9783 126.981 80.9844 126.649 80.9934C126.652 83.2515 126.649 85.5127 126.649 87.7738C126.267 87.7738 125.885 87.7768 125.504 87.7768C124.176 85.8689 122.845 83.964 121.532 82.044C121.538 83.65 121.535 85.2561 121.535 86.8621C121.868 86.8651 122.197 86.8681 122.53 86.8712C122.527 87.173 122.527 87.4719 122.524 87.7738C121.483 87.7738 120.442 87.7738 119.401 87.7738C119.398 87.4749 119.395 87.1761 119.395 86.8742C119.724 86.8712 120.057 86.8651 120.39 86.8621C120.39 84.9029 120.39 82.9466 120.39 80.9874C120.057 80.9844 119.724 80.9783 119.395 80.9753C119.395 80.6734 119.398 80.3746 119.401 80.0757Z" fill="#008ECD"/>
<path d="M133.138 80.0784C134.494 80.0874 135.852 80.024 137.205 80.0935C137.87 80.1237 138.493 80.3259 138.924 80.8482C139.834 81.9923 139.577 84.0904 138.139 84.6972C137.26 85.0082 136.197 84.8904 135.272 84.9297C135.272 85.5727 135.272 86.2127 135.272 86.8557C135.584 86.8648 135.892 86.8738 136.2 86.8829C136.194 87.1787 136.188 87.4776 136.182 87.7735C135.168 87.7735 134.155 87.7735 133.138 87.7735C133.135 87.4746 133.132 87.1757 133.129 86.8769C133.437 86.8708 133.743 86.8648 134.051 86.8587C134.051 84.9025 134.051 82.9463 134.051 80.9931C133.743 80.984 133.437 80.978 133.129 80.972C133.132 80.6731 133.135 80.3772 133.138 80.0784Z" fill="#008ECD"/>
<path d="M141.151 80.0786C142.672 80.1057 144.223 79.9759 145.731 80.154C146.91 80.3533 147.539 81.431 147.377 82.5631C147.291 83.5442 146.613 83.9699 145.954 84.5918C146.635 85.7088 147.453 86.7261 148.183 87.8129C147.63 87.7616 147.001 87.8038 146.473 87.6167C145.771 86.7805 145.417 85.6544 144.681 84.8544C144.235 84.7155 143.762 84.6552 143.301 84.5706C143.292 85.3344 143.289 86.0982 143.286 86.862C143.618 86.865 143.951 86.871 144.284 86.874C144.284 87.1759 144.281 87.4748 144.278 87.7737C143.237 87.7737 142.196 87.7737 141.155 87.7737C141.151 87.4718 141.151 87.1729 141.148 86.871C141.481 86.868 141.811 86.865 142.144 86.862C142.144 84.9027 142.144 82.9465 142.144 80.9872C141.811 80.9842 141.481 80.9812 141.151 80.9782C141.151 80.6793 141.151 80.3804 141.151 80.0786Z" fill="#008ECD"/>
<path d="M161.606 80.0757C162.647 80.0757 163.691 80.0757 164.732 80.0757C164.735 80.3715 164.738 80.6704 164.741 80.9662C164.457 80.9783 164.177 80.9874 163.893 80.9995C163.886 82.4304 163.926 83.8613 163.899 85.2923C163.862 86.0108 163.835 86.7172 163.313 87.2727C162.503 88.1089 160.919 88.1632 160.015 87.4538C159.371 86.9648 159.316 85.8991 159.133 85.1685C159.496 85.1474 159.856 85.1263 160.22 85.1051C160.43 85.6455 160.571 86.4093 161.035 86.7927C161.441 86.8953 162.045 86.9678 162.336 86.5964C162.708 86.201 162.72 85.5097 162.751 85.0025C162.781 83.6621 162.742 82.3247 162.748 80.9844C162.366 80.9844 161.987 80.9813 161.606 80.9813C161.606 80.6795 161.606 80.3776 161.606 80.0757Z" fill="#008ECD"/>
<path d="M166.571 80.0757C168.479 80.0757 170.387 80.0757 172.292 80.0757C172.292 80.6795 172.292 81.2832 172.289 81.89C171.938 81.89 171.584 81.89 171.23 81.89C171.227 81.6123 171.221 81.3346 171.218 81.0568C170.378 81.0568 169.541 81.0568 168.705 81.0568C168.705 81.8357 168.705 82.6176 168.705 83.3964C169.621 83.3964 170.537 83.3964 171.453 83.3964C171.453 83.7225 171.453 84.0515 171.453 84.3776C170.537 84.3776 169.621 84.3776 168.705 84.3776C168.705 85.2078 168.705 86.038 168.705 86.8681C169.618 86.8681 170.534 86.8681 171.447 86.8681C171.45 86.5391 171.453 86.213 171.456 85.884C171.785 85.887 172.118 85.887 172.448 85.89C172.445 86.518 172.445 87.1459 172.445 87.7738C170.488 87.7738 168.528 87.7738 166.571 87.7738C166.568 87.4749 166.562 87.1761 166.559 86.8772C166.891 86.8712 167.224 86.8651 167.56 86.8591C167.56 84.9029 167.56 82.9466 167.56 80.9904C167.224 80.9844 166.891 80.9783 166.559 80.9723C166.562 80.6734 166.568 80.3746 166.571 80.0757Z" fill="#008ECD"/>
<path d="M183.207 80.0757C185.445 80.0757 187.686 80.0757 189.924 80.0757C189.924 80.7791 189.924 81.4855 189.924 82.1889H188.932C188.932 81.8115 188.932 81.4342 188.929 81.0568C188.345 81.0568 187.762 81.0568 187.176 81.0568C187.176 82.9919 187.176 84.924 187.176 86.8561C187.487 86.8651 187.796 86.8742 188.104 86.8832C188.098 87.1791 188.092 87.478 188.086 87.7738C187.048 87.7738 186.007 87.7738 184.966 87.7738L184.96 86.8742C185.289 86.8712 185.622 86.8651 185.955 86.8621C185.955 84.927 185.955 82.9919 185.955 81.0568C185.372 81.0568 184.785 81.0568 184.202 81.0568C184.199 81.4342 184.199 81.8146 184.196 82.1919C183.866 82.1919 183.537 82.1889 183.207 82.1859C183.207 81.4825 183.207 80.7791 183.207 80.0757Z" fill="#008ECD"/>
<path d="M62.2266 81.0234C63.3684 81.1019 64.7484 80.8453 65.5972 81.7902C66.6383 82.9676 66.6413 85.1291 65.4445 86.2038C64.6232 86.9283 63.2616 86.8287 62.2327 86.9223C62.2235 84.957 62.2296 82.9887 62.2266 81.0234Z" fill="white"/>
<path d="M112.3 81.2498C113.325 80.7517 114.614 80.9268 115.423 81.7419C116.73 82.9373 116.586 85.129 115.255 86.252C114.095 87.2634 112.226 87.0128 111.335 85.7751C110.214 84.2898 110.614 82.1253 112.3 81.2498Z" fill="white"/>
<path d="M135.273 81.0205C135.979 81.0477 136.718 81.0145 137.408 81.1594C138.543 81.5035 138.528 83.3964 137.459 83.813C136.754 83.9639 135.997 83.9307 135.276 83.9609C135.273 82.9798 135.273 82.0016 135.273 81.0205Z" fill="white"/>
<path d="M143.289 81.0205C144.04 81.0567 144.858 81.0054 145.585 81.2107C146.449 81.6907 146.373 83.1156 145.533 83.5745C144.84 83.819 144.019 83.7677 143.292 83.819C143.289 82.8862 143.289 81.9533 143.289 81.0205Z" fill="white"/>
<path d="M152.571 81.1836C153.719 80.7066 155.001 81.0448 155.78 81.9897C156.903 83.3149 156.583 85.4734 155.139 86.4364C154.049 87.1549 152.574 87.001 151.695 86.0319C150.263 84.607 150.666 81.9836 152.571 81.1836Z" fill="white"/>
<path d="M91.5359 81.3916C91.8717 82.3667 92.2137 83.3357 92.5526 84.3078C91.8687 84.3048 91.1878 84.3018 90.5039 84.2988C90.8489 83.3297 91.1939 82.3637 91.5359 81.3916Z" fill="white"/>
</svg>
