<svg width="242" height="96" viewBox="0 0 242 96" fill="none" xmlns="http://www.w3.org/2000/svg">
<path fill-rule="evenodd" clip-rule="evenodd" d="M161.643 21.2045C161.586 21.3796 161.416 22.1575 161.267 22.9332C161.117 23.7089 160.958 24.4045 160.915 24.479C160.871 24.5535 159.914 24.2975 158.787 23.9099C157.058 23.3149 156.282 23.1889 153.809 23.1015C151.387 23.0157 150.552 23.081 148.997 23.4778C147.963 23.742 146.531 24.2376 145.816 24.5791C145.101 24.9204 143.922 25.7476 143.196 26.4173C142.47 27.0868 141.542 28.1634 141.135 28.8098C140.727 29.4562 140.162 30.6151 139.879 31.3854C139.59 32.1696 139.305 33.6235 139.23 34.6909C139.155 35.7729 139.217 37.2898 139.374 38.2013C139.526 39.084 139.945 40.4526 140.305 41.2424C140.664 42.0324 141.314 43.1234 141.747 43.6671C142.181 44.2108 143.104 45.0824 143.798 45.6042C144.492 46.1261 145.641 46.7727 146.351 47.0409C147.061 47.3094 148.426 47.6925 149.385 47.8926C150.637 48.154 151.915 48.2238 153.933 48.1403C155.704 48.0672 157.404 47.8442 158.543 47.5355C159.535 47.2666 161.101 46.6646 162.022 46.1978C162.944 45.7309 164.094 45.0321 164.578 44.6447L165.459 43.9404L164.39 41.7816C163.802 40.5943 163.297 39.5957 163.268 39.5628C163.24 39.5297 162.387 40.0621 161.374 40.7457C160.361 41.4295 158.799 42.2395 157.903 42.546C156.809 42.9203 155.546 43.1375 154.061 43.2068C152.183 43.2947 151.643 43.232 150.48 42.7898C149.727 42.5035 148.7 41.8942 148.197 41.4358C147.694 40.9774 147.034 40.1705 146.729 39.6425C146.424 39.1146 146.045 37.9721 145.888 37.1038C145.659 35.8382 145.661 35.255 145.901 34.1655C146.065 33.4178 146.402 32.4049 146.648 31.9148C146.894 31.4244 147.521 30.5939 148.041 30.0688C148.561 29.5439 149.558 28.8502 150.257 28.5273C150.956 28.2043 152.124 27.8865 152.852 27.8209C153.581 27.7555 154.754 27.8105 155.458 27.9431C156.162 28.0759 157.315 28.405 158.019 28.6746C158.723 28.944 159.446 29.2595 159.626 29.3754C159.901 29.554 159.88 29.8972 159.485 31.6148C159.228 32.7304 159.108 33.6991 159.218 33.7675C159.327 33.836 160.169 34.15 161.087 34.4655C162.006 34.7809 162.931 35.039 163.144 35.039C163.446 35.039 163.944 33.7255 165.397 29.1036C166.759 24.7707 167.194 23.0973 167.007 22.9054C166.865 22.7609 165.807 22.3197 164.655 21.925C163.502 21.5303 162.377 21.1352 162.154 21.047C161.903 20.9478 161.708 21.008 161.643 21.2045ZM106.38 22.8168C103.397 23.043 100.916 23.2689 100.867 23.3187C100.817 23.3685 100.936 24.5716 101.131 25.9921C101.325 27.4126 101.53 28.6222 101.587 28.6803C101.644 28.7381 102.577 28.5994 103.661 28.3721C104.745 28.1446 105.723 28.0153 105.835 28.0846C105.946 28.1542 105.998 28.4516 105.952 28.7454C105.905 29.0395 105.709 31.9625 105.517 35.2412C105.325 38.5198 105.168 41.4158 105.168 41.677C105.168 42.1302 105.074 42.1441 103.064 41.9854L100.961 41.8192L101.027 44.3372L101.094 46.8555L107.438 46.8825L113.782 46.9098V44.3901V41.8707L111.944 42.0138L110.106 42.1568L110.196 40.6547C110.246 39.8287 110.351 37.16 110.431 34.7245C110.51 32.289 110.651 30.385 110.743 30.4933C110.836 30.6017 112.255 33.89 113.898 37.801L116.884 44.9117H118.215C119.006 44.9117 119.636 44.7925 119.768 44.6179C119.89 44.4564 121.072 41.7325 122.396 38.565C123.72 35.3975 125.048 32.2342 125.349 31.5356C125.649 30.837 125.934 30.3081 125.981 30.3603C126.028 30.4125 126.142 33.0899 126.235 36.3098L126.404 42.1641L124.633 42.0129L122.863 41.862V44.3859V46.9098H129.149H135.435L135.435 44.3706V41.8314L133.477 41.9918L131.518 42.1523L131.39 40.8874C131.319 40.1919 131.1 37.0406 130.902 33.8844C130.705 30.7284 130.586 28.1027 130.639 28.0501C130.691 27.9972 131.637 28.1352 132.741 28.3564C133.845 28.5778 134.806 28.7005 134.877 28.6293C134.947 28.558 135.167 27.375 135.365 26.0001C135.563 24.6252 135.664 23.4388 135.59 23.3636C135.515 23.2886 132.857 23.0324 129.682 22.7945C126.508 22.5566 123.848 22.3582 123.771 22.3537C123.694 22.3493 123.46 22.7423 123.25 23.227C123.04 23.712 121.924 26.6296 120.771 29.711C119.617 32.7923 118.575 35.4896 118.456 35.7052C118.272 36.038 118.199 35.9908 117.974 35.3916C117.829 35.0038 116.706 32.0419 115.479 28.8098C114.252 25.5777 113.146 22.8011 113.021 22.6394C112.896 22.4779 112.571 22.3589 112.299 22.3754C112.026 22.3918 109.363 22.5905 106.38 22.8168ZM84.4466 23.4261C83.2301 23.7199 81.868 24.0465 81.4198 24.1518L80.605 24.3436L80.4215 26.1066C80.3204 27.0762 80.1603 28.134 80.0657 28.4572C79.8976 29.0305 79.8394 29.0449 77.6881 29.0449H75.4828V31.6306V34.2163L76.1813 34.1871C76.5655 34.1712 77.456 34.1246 78.1603 34.0839L79.4408 34.0101L79.3649 36.6988C79.3144 38.4907 79.4066 39.9366 79.642 41.0332C79.8359 41.9382 80.15 43.0488 80.34 43.5013C80.5298 43.9538 81.0336 44.6564 81.4599 45.0626C81.886 45.4688 82.7062 46.0473 83.2824 46.3477C84.1795 46.8158 84.7555 46.9072 87.2887 46.9843C89.4267 47.0492 90.7757 46.966 92.1531 46.6841C93.2012 46.4697 94.7775 45.9289 95.6554 45.4825C96.5334 45.0361 97.2519 44.6339 97.2519 44.5887C97.2519 44.5436 96.9492 43.8309 96.5793 43.0049C96.2093 42.1791 95.7395 41.098 95.5355 40.603L95.1646 39.7025L94.5202 40.1618C94.1658 40.4142 93.1949 40.9716 92.3626 41.4001C91.0595 42.071 90.6055 42.1812 89.0933 42.1939C87.7892 42.2047 87.1757 42.1018 86.7101 41.7938C86.365 41.5658 85.9157 41.1218 85.7115 40.807C85.5073 40.4925 85.2254 39.5581 85.085 38.7307C84.9145 37.726 84.9015 36.6894 85.0456 35.6097L85.2614 33.9932L90.209 34.0677L95.1565 34.142V31.518V28.894L90.5338 29.0611C87.8812 29.157 85.8631 29.1389 85.7981 29.019C85.7357 28.9038 85.972 27.5405 86.3229 25.989C86.674 24.4376 86.8929 23.1062 86.8097 23.0303C86.7264 22.9543 85.6631 23.1325 84.4466 23.4261ZM67.5801 28.5096C67.3808 28.7969 67.2176 29.2284 67.2176 29.4687C67.2176 29.7087 66.9018 30.8083 66.5161 31.9119C66.1303 33.0156 65.7433 34.0348 65.6562 34.177C65.5692 34.3195 65.3629 33.9105 65.198 33.2683C65.0332 32.6261 64.8963 31.651 64.8937 31.1017C64.8907 30.4205 64.7412 29.9532 64.4237 29.6325C64.1676 29.374 63.7545 29.1624 63.5056 29.1624C63.2567 29.1624 62.89 29.3975 62.6908 29.6849C62.4915 29.9722 62.3282 30.4404 62.3282 30.7256C62.3282 31.0107 62.6025 31.4616 62.9378 31.7279C63.2728 31.994 63.6276 32.1616 63.7261 32.1C63.8246 32.0386 64.009 32.1195 64.1359 32.2796C64.2628 32.4397 64.5473 33.3087 64.7682 34.2104C65.1182 35.638 65.1326 36.0707 64.8805 37.5601C64.721 38.5006 64.5131 39.2702 64.4183 39.2702C64.3235 39.2702 63.9524 38.8816 63.5936 38.4065C63.2346 37.9315 62.9126 37.2702 62.8777 36.9374C62.843 36.6043 62.5885 36.1466 62.3126 35.9205C62.0367 35.6941 61.6654 35.5091 61.4875 35.5091C61.3096 35.5091 60.9546 35.7207 60.6985 35.9793C60.4424 36.2378 60.2328 36.6955 60.2328 36.9962C60.2328 37.2968 60.4817 37.7789 60.786 38.0674C61.1476 38.4105 61.5639 38.5669 61.989 38.5196C62.5222 38.4604 62.7818 38.6346 63.4323 39.4878L64.2255 40.528L64.108 43.0954C64.0432 44.5074 63.9424 45.7109 63.8842 45.7697C63.826 45.8287 63.5569 45.5925 63.2861 45.245C63.0153 44.8976 62.7939 44.3584 62.7939 44.0467C62.7939 43.735 62.5366 43.2204 62.2223 42.9031C61.908 42.5858 61.4889 42.326 61.291 42.326C61.0931 42.326 60.7218 42.5376 60.4656 42.7961C60.2095 43.0547 60 43.4825 60 43.747C60 44.0114 60.2673 44.4978 60.5937 44.8273C61.0251 45.2629 61.3383 45.3887 61.7387 45.2871C62.1806 45.1752 62.4253 45.3219 62.9746 46.0288C63.3513 46.5132 63.7701 47.28 63.9054 47.7325C64.0407 48.185 64.219 49.2428 64.3019 50.0831C64.3845 50.9235 64.5091 51.8755 64.5787 52.1987C64.7042 52.7824 64.7003 52.7815 64.0211 52.0772C63.6451 51.687 63.2672 51.0862 63.1815 50.742C63.0961 50.3977 62.8616 49.9499 62.6605 49.747C62.4596 49.5439 62.043 49.378 61.735 49.378C61.4011 49.378 61.0275 49.6053 60.8095 49.9407C60.5737 50.3043 60.4994 50.7251 60.6 51.1297C60.6857 51.4738 60.9907 51.911 61.2777 52.1009C61.6596 52.3536 61.9569 52.3861 62.3853 52.2215C62.8786 52.0321 63.0612 52.096 63.5434 52.6266C63.8584 52.973 64.3233 53.5739 64.5771 53.9617C64.8306 54.3496 65.2625 55.2969 65.5366 56.067C65.8108 56.837 65.9864 57.5161 65.927 57.5763C65.8674 57.6362 65.5834 57.4679 65.2958 57.2023C65.0083 56.9365 64.5426 56.6485 64.2609 56.5625C63.9794 56.4762 63.6833 56.1969 63.603 55.9414C63.5226 55.6861 63.1983 55.306 62.8821 55.0968C62.3932 54.7734 62.2216 54.7626 61.7357 55.0252C61.4214 55.1951 61.1518 55.554 61.1366 55.8232C61.1213 56.0923 61.1308 56.471 61.1576 56.665C61.1844 56.8589 61.3702 57.2026 61.5704 57.4289C61.7709 57.6551 62.1459 57.8403 62.4041 57.8403C62.6623 57.8403 63.064 57.6663 63.2966 57.4538C63.6921 57.0923 63.7822 57.1111 64.6835 57.7418C65.2136 58.1127 66.0793 58.9517 66.6071 59.6061C67.1349 60.2605 67.8285 61.2946 68.1484 61.9038C68.4683 62.5131 68.8613 63.0117 69.0215 63.0117C69.1819 63.0117 69.313 62.9043 69.313 62.7731C69.313 62.6419 69.0008 61.9758 68.6189 61.2929C67.9759 60.1423 67.9405 59.9577 68.1349 58.7695C68.2501 58.0645 68.4166 57.3027 68.5044 57.0763C68.5924 56.85 68.8627 56.665 69.1051 56.665C69.3474 56.665 69.7553 56.4534 70.0115 56.1948C70.2676 55.9363 70.4771 55.4786 70.4771 55.1779C70.4771 54.8773 70.221 54.3884 69.9078 54.0915C69.4902 53.6952 69.1814 53.5915 68.7474 53.7015C68.3766 53.7955 68.1014 54.0706 68.0099 54.4391C67.9295 54.7626 67.9232 55.2574 67.9964 55.539C68.0692 55.8204 67.9642 56.5592 67.7628 57.1807C67.5614 57.802 67.3256 58.3104 67.2387 58.3104C67.1519 58.3104 66.7917 57.4148 66.4388 56.3201C65.9864 54.918 65.8406 54.0924 65.9459 53.5271C66.0278 53.0854 66.2837 52.411 66.5142 52.0283C66.8669 51.4428 67.0485 51.3494 67.6597 51.4399C68.0592 51.4992 68.5421 51.4167 68.733 51.2566C68.9239 51.0968 69.0802 50.625 69.0802 50.2084C69.0802 49.7731 68.899 49.2853 68.6543 49.0618C68.4201 48.8479 68.0173 48.6728 67.7591 48.6728C67.5009 48.6728 67.1163 48.8662 66.9044 49.1027C66.6925 49.3392 66.5191 49.7562 66.5191 50.0296C66.5191 50.3027 66.2944 50.9108 66.0199 51.3805C65.6786 51.9646 65.4644 52.1426 65.3424 51.943C65.2441 51.7827 65.0914 50.8255 65.0029 49.8161C64.8444 48.0068 64.8544 47.9584 65.7014 46.4291C66.3736 45.2154 66.645 44.9141 66.9475 45.0455C67.16 45.1379 67.6129 45.2617 67.9535 45.3212C68.4285 45.404 68.6641 45.289 68.9623 44.8292C69.1938 44.4726 69.2904 44.0349 69.2005 43.7493C69.1176 43.4851 68.8918 43.1097 68.699 42.9151C68.5062 42.7205 68.103 42.5611 67.8031 42.5611C67.381 42.5611 66.9777 42.9837 66.0155 44.4357C65.3321 45.4667 64.7438 46.225 64.7084 46.1211C64.673 46.017 64.7363 44.9171 64.8493 43.6769C65.0344 41.6441 65.1291 41.327 65.8097 40.4596C66.2248 39.9302 66.7726 39.3849 67.0269 39.2474C67.381 39.056 67.5843 39.0845 67.8955 39.3689C68.1191 39.5732 68.584 39.7403 68.9288 39.7403C69.3665 39.7403 69.6336 39.5682 69.8131 39.17C69.9546 38.8562 70.0035 38.3304 69.9218 38.0015C69.8401 37.6724 69.5551 37.2853 69.2885 37.1414C69.0219 36.9973 68.5589 36.9416 68.2592 37.0176C67.9593 37.0935 67.655 37.3443 67.5824 37.5751C67.51 37.8057 66.9417 38.3781 66.3196 38.8471L65.1883 39.6996L65.4679 38.3468C65.6215 37.6029 65.8218 36.8728 65.9126 36.7247C66.0031 36.5763 66.5542 36.173 67.137 35.8281C68.1561 35.2252 68.2215 35.216 68.849 35.5902C69.2077 35.8041 69.7172 35.9793 69.981 35.9793C70.2447 35.9793 70.5691 35.7748 70.7018 35.5247C70.8343 35.2745 70.9427 34.815 70.9427 34.5033C70.9427 34.1916 70.7511 33.7614 70.5169 33.5475C70.2827 33.3336 69.8091 33.1585 69.4643 33.1585C69.0327 33.1585 68.7598 33.3301 68.5887 33.7095C68.452 34.0127 67.8778 34.4873 67.313 34.7642C66.7484 35.0414 66.2863 35.1822 66.2863 35.0771C66.2863 34.9723 66.5375 34.1406 66.8446 33.229C67.1517 32.3177 67.5128 31.3645 67.6471 31.1111C67.8287 30.7684 68.0678 30.6767 68.5814 30.7528C69.1221 30.833 69.353 30.7296 69.6478 30.2754C69.9484 29.8121 69.973 29.5608 69.7702 29.0225C69.6308 28.6523 69.3924 28.2694 69.2401 28.1718C69.0881 28.074 68.7339 27.9927 68.4532 27.9906C68.1721 27.9887 67.7794 28.2221 67.5801 28.5096ZM171.653 28.5096C171.453 28.7969 171.29 29.2654 171.29 29.5505C171.29 29.8356 171.465 30.246 171.68 30.4625C171.942 30.727 172.304 30.818 172.786 30.7397C173.479 30.6271 173.526 30.6772 174.241 32.3024C174.648 33.2257 175.055 34.2835 175.146 34.653L175.311 35.3249L174.301 34.7706C173.745 34.4657 173.094 33.9784 172.855 33.6874C172.616 33.3966 172.212 33.1585 171.956 33.1585C171.701 33.1585 171.302 33.2615 171.069 33.3874C170.836 33.5132 170.576 33.8947 170.491 34.2351C170.393 34.6314 170.469 35.0559 170.703 35.4165C170.918 35.7477 171.295 35.9793 171.619 35.9793C171.922 35.9793 172.415 35.7785 172.716 35.5331C173.254 35.0926 173.276 35.094 174.327 35.6323C174.914 35.9323 175.507 36.3182 175.646 36.4898C175.785 36.6614 176.066 37.3753 176.271 38.076C176.476 38.7768 176.608 39.3863 176.564 39.4307C176.52 39.4752 176.075 39.1947 175.575 38.8076C175.075 38.4204 174.403 37.8375 174.081 37.5117C173.76 37.1861 173.279 36.9195 173.012 36.9195C172.745 36.9195 172.353 37.113 172.141 37.3495C171.929 37.5859 171.756 38.0937 171.756 38.4778C171.756 38.8619 171.881 39.3031 172.035 39.4582C172.189 39.6134 172.595 39.7403 172.938 39.7403C173.281 39.7403 173.692 39.5816 173.851 39.3877C174.011 39.1938 174.275 39.0351 174.438 39.0351C174.602 39.0351 175.126 39.4288 175.603 39.9103C176.08 40.3917 176.607 40.9998 176.776 41.2619C176.944 41.524 177.153 42.6904 177.241 43.8539C177.339 45.1529 177.317 45.8788 177.185 45.7345C177.066 45.6052 176.513 44.8859 175.955 44.1358C175.397 43.3859 174.767 42.6786 174.556 42.5644C174.315 42.4344 173.959 42.4628 173.607 42.6401C173.297 42.7961 172.946 43.2042 172.827 43.5469C172.663 44.0164 172.707 44.3196 173.003 44.7761C173.245 45.1491 173.611 45.3819 173.956 45.3819C174.264 45.3819 174.692 45.2041 174.908 44.9867C175.274 44.6167 175.327 44.6278 175.747 45.163C175.994 45.4773 176.473 46.2633 176.812 46.9098C177.323 47.8829 177.42 48.3481 177.376 49.613C177.346 50.4534 177.265 51.336 177.194 51.5746C177.081 51.9538 176.981 51.9091 176.399 51.222C176.032 50.7895 175.728 50.1661 175.723 49.8363C175.718 49.5068 175.588 49.11 175.434 48.9548C175.281 48.7997 174.868 48.6728 174.516 48.6728C174.12 48.6728 173.74 48.8712 173.515 49.1953C173.316 49.4826 173.153 49.9421 173.153 50.2167C173.153 50.491 173.359 50.9042 173.612 51.1351C173.935 51.4303 174.277 51.5133 174.765 51.4148C175.328 51.301 175.55 51.3901 175.935 51.8849C176.197 52.2206 176.517 52.8959 176.648 53.3858C176.849 54.1394 176.784 54.5959 176.225 56.3523L175.565 58.4279L175.072 57.314C174.73 56.543 174.619 55.9443 174.712 55.3693C174.809 54.7614 174.733 54.4142 174.429 54.0738C174.199 53.8183 173.842 53.6091 173.634 53.6091C173.426 53.6091 173.023 53.7739 172.739 53.9751C172.385 54.2252 172.221 54.5821 172.221 55.1034C172.221 55.5228 172.347 55.9927 172.501 56.1478C172.654 56.303 173.025 56.4299 173.324 56.4299C173.742 56.4299 173.964 56.6598 174.288 57.4289C174.519 57.9785 174.771 58.7568 174.849 59.1588C174.953 59.6933 174.806 60.2826 174.304 61.3543C173.927 62.1598 173.618 62.8622 173.618 62.9153C173.618 62.9682 173.774 63.0117 173.965 63.0117C174.159 63.0117 174.663 62.307 175.114 61.4025C175.555 60.5174 176.208 59.4439 176.563 59.0168C176.919 58.5899 177.624 57.9378 178.13 57.5681C178.984 56.9435 179.087 56.9209 179.585 57.2505C179.88 57.4456 180.264 57.6052 180.438 57.6052C180.612 57.6052 180.983 57.3603 181.261 57.0613C181.539 56.762 181.767 56.3095 181.767 56.0557C181.767 55.8018 181.6 55.3531 181.395 55.0583C181.137 54.6859 180.838 54.5444 180.414 54.5947C180.028 54.6403 179.61 54.9582 179.278 55.4558C178.99 55.89 178.266 56.5573 177.669 56.9393C176.917 57.4212 176.628 57.5187 176.727 57.258C176.806 57.0516 177.029 56.3312 177.225 55.6572C177.419 54.9833 177.762 54.1575 177.985 53.8221C178.208 53.4867 178.662 52.8912 178.993 52.4989C179.483 51.9171 179.76 51.7911 180.492 51.8158C181.237 51.841 181.449 51.7396 181.745 51.2157C182.01 50.7465 182.044 50.4223 181.876 49.9487C181.752 49.5984 181.422 49.2268 181.142 49.1229C180.776 48.9873 180.465 49.0674 180.036 49.408C179.708 49.669 179.439 50.0427 179.439 50.239C179.439 50.4353 179.151 51.007 178.799 51.5098C178.447 52.0126 178.069 52.426 177.959 52.4289C177.849 52.4314 177.815 52.2885 177.882 52.1108C177.95 51.9331 178.074 50.9019 178.159 49.8189C178.243 48.736 178.418 47.5035 178.547 47.0802C178.675 46.6566 179.043 45.9956 179.363 45.611C179.75 45.1468 180.162 44.9117 180.588 44.9117C180.941 44.9117 181.403 44.7183 181.615 44.4818C181.827 44.2453 182 43.8154 182 43.5263C182 43.2369 181.892 42.7957 181.759 42.5456C181.608 42.2616 181.272 42.091 180.864 42.091C180.504 42.091 180.036 42.2844 179.824 42.5209C179.612 42.7574 179.435 43.2597 179.431 43.6374C179.426 44.015 179.178 44.6254 178.879 44.9938L178.337 45.6635L178.198 45.1035C178.121 44.7956 177.991 43.5422 177.909 42.3183C177.76 40.103 177.763 40.0884 178.473 39.1094C179.065 38.2942 179.315 38.1294 179.933 38.1473C180.445 38.1618 180.814 38.0013 181.107 37.6355C181.342 37.3424 181.534 36.9026 181.534 36.6584C181.534 36.4141 181.325 36.0028 181.069 35.7442C180.813 35.4856 180.401 35.2741 180.154 35.2741C179.907 35.2741 179.485 35.5578 179.214 35.9045C178.944 36.2512 178.777 36.6779 178.844 36.8528C178.91 37.0277 178.679 37.5695 178.329 38.057C177.979 38.5445 177.591 38.9693 177.467 39.0008C177.343 39.0325 177.112 38.4978 176.953 37.8125C176.795 37.1276 176.66 36.188 176.655 35.7247C176.649 35.2614 176.767 34.2715 176.915 33.525C177.149 32.3508 177.275 32.136 177.851 31.9331C178.218 31.8043 178.62 31.5053 178.745 31.2688C178.871 31.0323 178.973 30.5838 178.973 30.2721C178.973 29.9604 178.782 29.5303 178.547 29.3164C178.313 29.1025 177.907 28.9273 177.645 28.9273C177.382 28.9273 177.024 29.1022 176.848 29.3161C176.656 29.5498 176.518 30.3229 176.502 31.2554C176.488 32.1082 176.345 33.1232 176.186 33.5111L175.896 34.2163L175.656 33.6286C175.525 33.3054 175.065 32.2631 174.634 31.3123C174.203 30.3617 173.851 29.3514 173.851 29.0674C173.851 28.7835 173.725 28.4243 173.572 28.2692C173.418 28.114 173.005 27.9871 172.654 27.9871C172.257 27.9871 171.877 28.1855 171.653 28.5096ZM78.3931 58.4131V63.7169H79.0916H79.7901V58.663C79.7901 55.8834 79.8162 53.5297 79.8483 53.4328C79.8804 53.336 79.5659 53.2234 79.1498 53.1829L78.3931 53.1091V58.4131ZM86.2426 53.2845C86.1511 53.3769 86.0763 55.7687 86.0763 58.5995V63.7467L86.833 63.6729L87.5897 63.5994L87.7061 60.6611L87.8225 57.7228L88.5929 60.1909C89.0167 61.5484 89.4597 62.897 89.5775 63.188C89.7426 63.5963 89.9796 63.7169 90.6159 63.7169H91.4401L91.3775 58.4867L91.3149 53.2565H90.6164H89.9179L89.8015 56.4299L89.6851 59.6033L89.2556 58.1929C89.0192 57.4172 88.5929 55.9891 88.308 55.0195C87.8248 53.3762 87.7429 53.2518 87.0994 53.1867C86.7196 53.1482 86.3341 53.1924 86.2426 53.2845ZM97.7176 58.4023V63.7169H99.2158C100.04 63.7169 100.978 63.6156 101.3 63.4919C101.622 63.3683 102.048 62.9504 102.246 62.5634C102.525 62.0197 102.607 61.056 102.607 58.3257V54.792L101.933 54.0299C101.304 53.319 101.14 53.2622 99.488 53.1778L97.7176 53.0875V58.4023ZM109.341 53.8261L108.66 54.5132V58.4931C108.66 62.3643 108.675 62.4894 109.217 63.0794C109.523 63.413 110.142 63.7557 110.591 63.8408C111.142 63.9451 111.671 63.8699 112.214 63.6099C112.657 63.3977 113.139 62.9598 113.284 62.6368C113.448 62.2755 113.55 60.5983 113.55 58.2813V54.5132L112.869 53.8261C112.312 53.2636 111.992 53.139 111.105 53.139C110.218 53.139 109.898 53.2636 109.341 53.8261ZM119.836 58.4279V63.7169H120.528H121.219L121.284 60.6023C121.32 58.8894 121.422 57.6464 121.512 57.8403C121.601 58.0342 122.052 59.4357 122.514 60.9549L123.354 63.7169H124.156H124.958V58.4279V53.139H124.266H123.574L123.509 56.4887L123.445 59.8383L122.818 57.8403C122.473 56.7414 122.02 55.2339 121.812 54.4906C121.445 53.1825 121.407 53.139 120.634 53.139H119.836V58.4279ZM131.4 53.2958C131.314 53.3818 131.244 55.7658 131.244 58.5932V63.7338L133.508 63.6666C135.75 63.6001 135.772 63.5937 135.773 63.0117C135.773 62.4553 135.696 62.4203 134.324 62.354L132.874 62.2842V60.7802V59.2765L133.98 59.2048C135.038 59.1362 135.086 59.1026 135.086 58.4279C135.086 57.7533 135.038 57.7197 133.98 57.6511L132.874 57.5794V56.1819V54.7844H134.245C135.59 54.7844 135.617 54.7715 135.718 54.0778C135.774 53.6893 135.769 53.319 135.705 53.2551C135.642 53.1912 134.682 53.139 133.573 53.139C132.463 53.139 131.485 53.2095 131.4 53.2958ZM142.114 53.7983C141.613 54.3263 141.489 54.682 141.489 55.5837C141.489 56.3568 141.648 56.9423 141.996 57.4515C142.274 57.8593 143.014 58.7488 143.64 59.4286C144.59 60.4603 144.765 60.7899 144.705 61.4267C144.641 62.0973 144.54 62.1979 143.872 62.2628C143.189 62.3293 143.098 62.2647 142.97 61.6164C142.85 61.0111 142.719 60.8961 142.151 60.8961C141.747 60.8961 141.417 61.0468 141.332 61.2701C141.254 61.4758 141.36 62.0059 141.569 62.448C141.792 62.9191 142.277 63.4097 142.741 63.633C143.276 63.8908 143.8 63.9635 144.359 63.8575C144.866 63.7613 145.416 63.4247 145.782 62.9856C146.162 62.5291 146.378 61.9852 146.378 61.481C146.378 61.0468 146.285 60.4436 146.17 60.1406C146.056 59.8374 145.325 58.8788 144.545 58.01C143.765 57.1414 143.061 56.1645 142.98 55.8396C142.896 55.5005 142.956 55.0994 143.121 54.8989C143.279 54.7066 143.614 54.5494 143.865 54.5494C144.16 54.5494 144.417 54.8007 144.587 55.2546C144.792 55.8053 144.992 55.9598 145.498 55.9598C146.065 55.9598 146.145 55.8707 146.145 55.2365C146.145 54.7506 145.922 54.2878 145.464 53.8261C144.919 53.2753 144.581 53.139 143.762 53.139C142.946 53.139 142.614 53.272 142.114 53.7983ZM152.354 53.2958C152.268 53.3818 152.198 55.7618 152.198 58.5847V63.7169H153.013H153.828V58.4279V53.139H153.169C152.806 53.139 152.439 53.2095 152.354 53.2958ZM161.186 53.7854C161.114 54.1408 160.739 56.3295 160.352 58.6487C159.965 60.9678 159.649 63.0637 159.649 63.306C159.649 63.6617 159.795 63.7324 160.406 63.6729C161.016 63.6135 161.175 63.4861 161.227 63.0117C161.263 62.6885 161.344 62.1862 161.406 61.8951C161.498 61.4716 161.68 61.3663 162.32 61.3663C163.063 61.3663 163.13 61.4285 163.265 62.2477C163.345 62.7327 163.451 63.2616 163.501 63.4231C163.551 63.5848 163.91 63.7169 164.298 63.7169C164.815 63.7169 165.003 63.6071 165.002 63.3055C165.002 63.0792 164.635 60.7788 164.188 58.1933C163.74 55.6079 163.374 53.4131 163.374 53.3158C163.374 53.2184 162.911 53.139 162.345 53.139C161.409 53.139 161.304 53.1975 161.186 53.7854ZM111.926 55.1523C112.05 55.484 112.153 57.0246 112.153 58.5763C112.153 60.1277 112.044 61.6018 111.912 61.8519C111.779 62.102 111.433 62.3065 111.143 62.3065C110.853 62.3065 110.49 62.1796 110.337 62.0244C110.147 61.8331 110.057 60.7309 110.057 58.6005C110.057 56.8725 110.166 55.2541 110.298 55.004C110.437 54.7414 110.784 54.5494 111.119 54.5494C111.527 54.5494 111.766 54.728 111.926 55.1523ZM100.926 58.3085C100.983 61.3063 100.942 61.7508 100.59 62.0108C100.37 62.1735 100 62.3065 99.7685 62.3065C99.3797 62.3065 99.3473 62.0169 99.3473 58.5307V54.7546L100.104 54.8284L100.861 54.902L100.926 58.3085ZM162.71 58.4418C162.787 59.761 162.761 59.8428 162.239 59.9173C161.69 59.9958 161.687 59.985 161.854 58.4073C161.947 57.5333 162.083 56.661 162.156 56.4687C162.261 56.1911 162.323 56.2143 162.458 56.5825C162.551 56.837 162.665 57.6739 162.71 58.4418ZM81.2925 69.185C81.2243 69.3643 81.1989 70.5081 81.2359 71.7267C81.2748 73.0015 81.4024 73.9422 81.5363 73.9422C81.6643 73.9422 81.8019 73.4159 81.8422 72.7728C81.8825 72.1296 82.0261 71.4686 82.1616 71.3036C82.2974 71.1388 82.5937 71.0039 82.8203 71.0039C83.0471 71.0039 83.2962 71.1713 83.3739 71.3758C83.4517 71.5803 83.5153 72.2678 83.5153 72.9037C83.5153 73.5395 83.62 74.0597 83.7481 74.0597C83.8789 74.0597 83.9809 73.4032 83.9809 72.5605C83.9809 71.5138 83.8754 70.9731 83.6312 70.7684C83.4235 70.5944 82.9977 70.5326 82.5835 70.616C81.9169 70.7507 81.8855 70.7209 81.8855 69.9541C81.8855 69.5124 81.78 69.0853 81.651 69.0049C81.5221 68.9243 81.3607 69.0054 81.2925 69.185ZM94.5635 69.185C94.4953 69.3643 94.4699 70.5081 94.5069 71.7267C94.5458 73.0015 94.6734 73.9422 94.8073 73.9422C94.9353 73.9422 95.0729 73.4159 95.1132 72.7728C95.1535 72.1296 95.3013 71.4635 95.4419 71.2923C95.5828 71.1212 95.9164 71.0128 96.1837 71.0514C96.596 71.1109 96.6875 71.3274 96.7863 72.4775C96.8503 73.2234 97.0074 73.8581 97.1355 73.8879C97.2635 73.9178 97.4007 73.4307 97.44 72.8052C97.4885 72.0405 97.3856 71.4738 97.1262 71.0742C96.8021 70.5747 96.6142 70.5004 95.9486 70.6095C95.1786 70.7357 95.1565 70.7171 95.1565 69.9452C95.1565 69.5084 95.051 69.0853 94.922 69.0049C94.793 68.9243 94.6317 69.0054 94.5635 69.185ZM100.279 71.474C100.279 73.0412 100.37 74.0597 100.511 74.0597C100.653 74.0597 100.744 73.0412 100.744 71.474C100.744 69.9069 100.653 68.8883 100.511 68.8883C100.37 68.8883 100.279 69.9069 100.279 71.474ZM104.237 69.833C104.237 70.7159 104.2 70.7684 103.671 70.6346C103.361 70.5559 102.898 70.558 102.643 70.6398C102.388 70.7214 102.065 71.1212 101.924 71.5286C101.739 72.0647 101.739 72.4836 101.923 73.0468C102.063 73.4747 102.3 73.8414 102.45 73.8618C102.6 73.8823 103.168 73.9138 103.713 73.9316L104.702 73.9645V71.4263C104.702 69.8911 104.61 68.8883 104.469 68.8883C104.341 68.8883 104.237 69.3136 104.237 69.833ZM137.869 69.185C137.801 69.3643 137.775 70.5081 137.812 71.7267C137.851 73.0015 137.979 73.9422 138.113 73.9422C138.241 73.9422 138.398 73.3712 138.462 72.6733C138.538 71.8407 138.712 71.3198 138.966 71.159C139.246 70.9818 139.456 70.9994 139.723 71.2225C139.976 71.4345 140.092 71.9291 140.092 72.7956C140.092 73.4909 140.196 74.0597 140.324 74.0597C140.455 74.0597 140.557 73.4032 140.557 72.5605C140.557 71.5138 140.452 70.9731 140.208 70.7684C140 70.5944 139.574 70.5326 139.16 70.616C138.493 70.7507 138.462 70.7209 138.462 69.9541C138.462 69.5124 138.356 69.0853 138.227 69.0049C138.098 68.9243 137.937 69.0054 137.869 69.185ZM63.5506 69.4102C63.1629 69.5989 63.0267 69.8688 63.0267 70.4473C63.0267 71.1189 63.1543 71.2951 63.9294 71.6943C64.4258 71.95 64.8928 72.3193 64.9671 72.5149C65.0416 72.7107 64.9335 73.0412 64.7273 73.2495C64.4591 73.5203 64.1298 73.5863 63.5729 73.4808C63.1392 73.3987 62.7939 73.4309 62.7939 73.5539C62.7939 73.6752 62.9597 73.8385 63.1622 73.9171C63.3648 73.9956 63.82 74.0597 64.1738 74.0597C64.5277 74.0597 64.9983 73.8576 65.2199 73.6103C65.4581 73.3447 65.5917 72.8886 65.547 72.4942C65.4895 71.9867 65.2607 71.7277 64.5885 71.4092C64.1028 71.1793 63.6407 70.8198 63.5613 70.6109C63.4754 70.385 63.5836 70.1076 63.8279 69.9271C64.1114 69.7179 64.4123 69.6901 64.7969 69.8377C65.216 69.9988 65.355 69.9724 65.355 69.7327C65.355 69.5571 65.1193 69.3495 64.8311 69.2715C64.5429 69.1937 64.2549 69.1356 64.1908 69.1424C64.1268 69.1495 63.8388 69.2701 63.5506 69.4102ZM91.9598 69.3074C91.6741 69.3528 91.229 69.6614 90.9703 69.9936C90.6434 70.4129 90.5 70.9494 90.5 71.7514C90.5 72.6637 90.6199 73.0269 91.0716 73.4827C91.3864 73.8007 91.9158 74.0597 92.2508 74.0597C92.5852 74.0597 93.0615 73.9502 93.3093 73.8164C93.557 73.6825 93.7595 73.4765 93.7595 73.3585C93.7595 73.2363 93.4571 73.2504 93.0571 73.3912C92.506 73.5851 92.2369 73.5605 91.8087 73.2774C91.5086 73.0788 91.1996 72.5969 91.1223 72.2067C91.045 71.8165 91.0935 71.1741 91.2299 70.7789C91.3845 70.3311 91.6881 70.0075 92.0366 69.9193C92.344 69.8413 92.8676 69.8467 93.2003 69.9308C93.6278 70.0392 93.777 69.9988 93.709 69.7929C93.6562 69.6328 93.3577 69.4393 93.0459 69.3632C92.7342 69.287 92.2453 69.2618 91.9598 69.3074ZM98.5776 69.2736C98.4957 69.3563 98.4845 69.515 98.5525 69.6262C98.6207 69.7376 98.7748 69.8286 98.8954 69.8286C99.016 69.8286 99.1145 69.6699 99.1145 69.476C99.1145 69.2821 99.0272 69.1234 98.9206 69.1234C98.8137 69.1234 98.6596 69.1911 98.5776 69.2736ZM120.23 69.2879C119.999 69.3486 119.708 69.6678 119.584 69.9976C119.418 70.4383 119.447 70.735 119.695 71.1172C119.881 71.403 120.355 71.7719 120.749 71.9366C121.257 72.1489 121.466 72.3945 121.466 72.7796C121.466 73.1084 121.29 73.3792 121.02 73.4657C120.775 73.5442 120.303 73.54 119.972 73.4561C119.601 73.3621 119.37 73.4016 119.37 73.5598C119.37 73.7006 119.647 73.8858 119.985 73.9716C120.323 74.0572 120.862 74.0327 121.183 73.9173C121.504 73.8016 121.871 73.5384 122 73.3322C122.128 73.1258 122.168 72.6975 122.089 72.3802C122.002 72.0271 121.624 71.6482 121.116 71.404C120.66 71.1842 120.221 70.8304 120.14 70.6177C120.051 70.3838 120.156 70.1107 120.404 69.9271C120.688 69.7179 120.989 69.6901 121.373 69.8377C121.717 69.9696 121.931 69.967 121.931 69.8309C121.931 69.7094 121.729 69.5007 121.481 69.3667C121.233 69.2329 120.945 69.1356 120.841 69.1507C120.736 69.1657 120.461 69.2275 120.23 69.2879ZM148.24 69.5352C147.647 69.8342 147.336 70.2075 147.097 70.9061C146.798 71.778 146.809 71.9503 147.213 72.7866C147.566 73.517 147.84 73.7525 148.538 73.9265C149.088 74.0637 149.655 74.0621 150.051 73.922C150.604 73.7269 150.694 73.556 150.756 72.5861L150.827 71.474H149.883C149.364 71.474 148.939 71.5798 148.939 71.7091C148.939 71.8384 149.201 71.9442 149.521 71.9442C150.012 71.9442 150.103 72.0542 150.103 72.6449C150.103 73.1968 149.979 73.3771 149.519 73.4935C149.158 73.5851 148.721 73.4998 148.373 73.2692C148.063 73.0645 147.74 72.6733 147.654 72.4002C147.568 72.1268 147.565 71.5436 147.646 71.1038C147.733 70.6393 148 70.1934 148.285 70.0394C148.569 69.8864 149.204 69.8335 149.789 69.9144C150.346 69.9915 150.802 69.9612 150.802 69.8471C150.802 69.7329 150.472 69.5235 150.068 69.3815C149.665 69.2395 149.272 69.1236 149.195 69.1239C149.118 69.1239 148.689 69.3091 148.24 69.5352ZM171.678 69.2802C171.593 69.3662 171.523 69.5249 171.523 69.6328C171.523 69.7404 171.68 69.8286 171.872 69.8286C172.064 69.8286 172.221 69.6699 172.221 69.476C172.221 69.2821 172.134 69.1234 172.027 69.1234C171.921 69.1234 171.763 69.1939 171.678 69.2802ZM78.8588 70.0441C78.8588 70.2919 78.7279 70.5483 78.5677 70.6139C78.3447 70.7051 78.3414 70.7796 78.5538 70.9324C78.706 71.042 78.8632 71.7002 78.903 72.3953C78.9514 73.2427 79.0991 73.737 79.351 73.8966C79.5645 74.0318 79.9163 74.052 80.1659 73.9431C80.5884 73.7591 80.5875 73.7478 80.1393 73.6437C79.8832 73.584 79.5966 73.4152 79.5025 73.2685C79.4085 73.1218 79.33 72.5525 79.3279 72.0029C79.3249 71.1595 79.3968 71.0039 79.7901 71.0039C80.0462 71.0039 80.2557 70.8981 80.2557 70.7688C80.2557 70.6396 80.0888 70.5338 79.8846 70.5338C79.6806 70.5338 79.4588 70.3222 79.3919 70.0636C79.3249 69.8051 79.1775 69.5935 79.0644 69.5935C78.9514 69.5935 78.8588 69.7964 78.8588 70.0441ZM135.435 70.0441C135.435 70.2919 135.304 70.5483 135.144 70.6139C134.921 70.7051 134.918 70.7796 135.13 70.9324C135.282 71.042 135.44 71.7002 135.479 72.3953C135.528 73.2427 135.675 73.737 135.927 73.8966C136.141 74.0318 136.493 74.052 136.742 73.9431C137.165 73.7591 137.164 73.7478 136.716 73.6437C136.46 73.584 136.173 73.4152 136.079 73.2685C135.985 73.1218 135.906 72.5953 135.904 72.0984C135.901 71.3908 136.002 71.1682 136.366 71.0721C136.623 71.0044 136.832 70.8556 136.832 70.7413C136.832 70.6273 136.665 70.5338 136.461 70.5338C136.257 70.5338 136.035 70.3222 135.968 70.0636C135.901 69.8051 135.754 69.5935 135.641 69.5935C135.528 69.5935 135.435 69.7964 135.435 70.0441ZM169.427 69.9174C169.427 70.0954 169.269 70.3737 169.076 70.5359C168.767 70.7949 168.766 70.8629 169.066 71.0937C169.276 71.255 169.435 71.8558 169.476 72.6494C169.54 73.8653 169.582 73.9467 170.184 74.0165C170.536 74.0574 170.824 73.9904 170.824 73.8677C170.824 73.745 170.615 73.5891 170.359 73.5214C169.969 73.4187 169.893 73.2008 169.893 72.187V70.9755L170.766 71.0486L171.639 71.1214L171.709 72.5906C171.747 73.3987 171.878 74.0597 172 74.0597C172.121 74.0597 172.221 73.2664 172.221 72.2968V70.5338H171.057C170.048 70.5338 169.893 70.471 169.893 70.0636C169.893 69.8051 169.788 69.5935 169.66 69.5935C169.532 69.5935 169.427 69.7393 169.427 69.9174ZM66.8101 70.6894C66.6502 70.7547 66.5191 70.8906 66.5191 70.9914C66.5191 71.0925 66.9084 71.163 67.3845 71.1482C68.035 71.128 68.2704 71.2235 68.3328 71.5328C68.3931 71.8318 68.2662 71.9442 67.8685 71.9442C67.5675 71.9442 67.0883 72.1089 66.8038 72.3102C66.5191 72.5114 66.2863 72.8687 66.2863 73.104C66.2863 73.3395 66.4267 73.6496 66.598 73.7934C66.7696 73.937 67.3454 74.0294 67.8774 73.9984L68.845 73.9422L68.8462 72.3807C68.8471 71.1729 68.764 70.7867 68.479 70.6765C68.2764 70.5979 67.8837 70.5422 67.6059 70.5523C67.3284 70.5625 66.9703 70.6243 66.8101 70.6894ZM69.7786 70.8445C69.7786 71.0154 69.9493 71.6764 70.1577 72.3137C70.366 72.9507 70.6797 73.6263 70.8545 73.8146C71.0629 74.0393 71.251 74.0776 71.4014 73.9258C71.5274 73.7986 71.8426 73.0725 72.1015 72.3123C72.3606 71.5523 72.5725 70.841 72.5725 70.7319C72.5725 70.6231 72.4731 70.5338 72.3516 70.5338C72.23 70.5338 71.949 71.1156 71.7269 71.8266C71.505 72.5377 71.2568 73.1195 71.1756 73.1195C71.0943 73.1195 70.8461 72.5377 70.6242 71.8266C70.4021 71.1156 70.1211 70.5338 69.9996 70.5338C69.878 70.5338 69.7786 70.6736 69.7786 70.8445ZM73.6372 70.9028C73.4361 71.1057 73.2072 71.5309 73.1285 71.8475C73.0498 72.1644 73.1152 72.7401 73.274 73.127C73.4356 73.5205 73.796 73.8898 74.0917 73.9648C74.3825 74.0383 74.8589 74.0635 75.1499 74.0205C75.4409 73.9775 75.7219 73.811 75.7743 73.6505C75.8425 73.4411 75.6672 73.3997 75.1529 73.5033C74.7201 73.5908 74.2977 73.532 74.0863 73.355C73.894 73.1938 73.7366 72.9162 73.7366 72.7382C73.7366 72.5062 74.0673 72.4143 74.9008 72.4143C75.978 72.4143 76.0649 72.3717 76.0649 71.8433C76.0649 71.5295 75.9003 71.1064 75.6991 70.9031C75.4977 70.7 75.0337 70.5338 74.6679 70.5338C74.3022 70.5338 73.8382 70.6997 73.6372 70.9028ZM85.5113 70.9028C85.3101 71.1057 85.0812 71.5309 85.0026 71.8475C84.9239 72.1644 84.9893 72.7401 85.1481 73.127C85.3096 73.5205 85.6701 73.8898 85.9657 73.9648C86.2565 74.0383 86.7329 74.0635 87.0239 74.0205C87.315 73.9775 87.596 73.811 87.6484 73.6505C87.7166 73.4411 87.5413 73.3997 87.027 73.5033C86.5941 73.5908 86.1718 73.532 85.9604 73.355C85.7681 73.1938 85.6107 72.922 85.6107 72.7509C85.6107 72.5469 85.99 72.4155 86.7145 72.3685C87.5648 72.3132 87.837 72.1983 87.8991 71.868C87.9434 71.632 87.7971 71.2354 87.5741 70.9865C87.3508 70.7376 86.8777 70.5338 86.5224 70.5338C86.1674 70.5338 85.7122 70.6997 85.5113 70.9028ZM98.6489 72.3106C98.6489 73.4354 98.7343 74.0341 98.8817 73.9422C99.0097 73.8623 99.1145 73.0628 99.1145 72.1654C99.1145 71.2343 99.0146 70.5338 98.8817 70.5338C98.7471 70.5338 98.6489 71.2827 98.6489 72.3106ZM105.916 72.2883C105.956 73.292 106.074 73.8959 106.216 73.8247C106.344 73.76 106.46 73.2593 106.475 72.7121C106.489 72.1649 106.633 71.5565 106.794 71.3605C106.956 71.1645 107.232 71.0039 107.408 71.0039C107.585 71.0039 107.729 70.9038 107.729 70.7813C107.729 70.6588 107.306 70.5756 106.789 70.5965L105.848 70.6344L105.916 72.2883ZM108.66 71.0039C108.372 71.2949 108.195 71.7874 108.195 72.2968C108.195 72.8061 108.372 73.2986 108.66 73.5896C108.916 73.8482 109.379 74.0597 109.689 74.0597C109.999 74.0597 110.418 73.9956 110.62 73.9171C110.823 73.8385 110.989 73.678 110.989 73.56C110.989 73.442 110.734 73.41 110.423 73.4888C110.112 73.5675 109.641 73.5626 109.376 73.4775C109.107 73.3912 108.893 73.1216 108.893 72.8687C108.893 72.4865 109.061 72.4143 109.948 72.4143C110.674 72.4143 111.045 72.3036 111.138 72.0598C111.212 71.8649 111.101 71.4418 110.892 71.1196C110.628 70.7124 110.301 70.5338 109.819 70.5338C109.436 70.5338 108.917 70.7444 108.66 71.0039ZM112.153 72.3555C112.153 73.335 112.252 74.0597 112.385 74.0597C112.514 74.0597 112.618 73.5473 112.618 72.9209C112.618 72.0878 112.741 71.6698 113.075 71.3645C113.327 71.1348 113.688 71.0072 113.878 71.081C114.116 71.1729 114.246 71.6362 114.294 72.56C114.337 73.3729 114.48 73.9434 114.656 74.0019C114.868 74.0729 114.947 73.6902 114.947 72.5802C114.947 71.6386 114.834 70.9672 114.651 70.8135C114.488 70.6772 113.859 70.5848 113.254 70.6085L112.153 70.6513V72.3555ZM123.251 70.6906C123.165 70.7766 123.095 70.9209 123.095 71.0112C123.095 71.1012 123.485 71.163 123.961 71.1482C124.585 71.129 124.848 71.2274 124.903 71.5011C124.96 71.7827 124.738 71.9195 124.042 72.0321C123.295 72.1527 123.073 72.3036 122.957 72.7721C122.873 73.1087 122.934 73.5104 123.098 73.7102C123.289 73.9424 123.728 74.0402 124.403 74.001L125.421 73.9422L125.423 72.5201C125.423 71.7258 125.3 70.9733 125.144 70.8158C124.991 70.6607 124.537 70.5338 124.135 70.5338C123.734 70.5338 123.336 70.6043 123.251 70.6906ZM126.17 70.7956C126.237 70.9748 126.531 71.7871 126.824 72.6009C127.191 73.6202 127.465 74.059 127.706 74.0113C127.898 73.9732 128.296 73.3075 128.59 72.5318C128.884 71.7561 129.13 70.9804 129.137 70.8081C129.144 70.6356 129.025 70.5364 128.873 70.5874C128.721 70.6384 128.433 71.1687 128.233 71.7657C128.032 72.3628 127.804 72.9147 127.725 72.9925C127.647 73.0701 127.385 72.5835 127.143 71.9108C126.902 71.2383 126.557 70.6388 126.376 70.5787C126.17 70.51 126.093 70.5907 126.17 70.7956ZM130.08 71.0039C129.792 71.2949 129.615 71.7874 129.615 72.2968C129.615 72.8137 129.793 73.2993 130.093 73.603C130.438 73.9511 130.808 74.0663 131.414 74.0144C131.877 73.9747 132.299 73.811 132.351 73.6505C132.419 73.4411 132.244 73.3997 131.729 73.5033C131.296 73.5908 130.874 73.532 130.663 73.355C130.47 73.1938 130.313 72.9162 130.313 72.7382C130.313 72.5107 130.627 72.4143 131.368 72.4143C132.093 72.4143 132.465 72.3036 132.558 72.0598C132.632 71.8649 132.521 71.4418 132.312 71.1196C132.048 70.7124 131.721 70.5338 131.239 70.5338C130.856 70.5338 130.337 70.7444 130.08 71.0039ZM141.954 71.0039C141.666 71.2949 141.489 71.7874 141.489 72.2968C141.489 72.8137 141.667 73.2993 141.967 73.603C142.312 73.9511 142.682 74.0663 143.288 74.0144C143.751 73.9747 144.175 73.8054 144.229 73.638C144.3 73.4194 144.163 73.3759 143.74 73.4831C143.417 73.5649 142.935 73.5626 142.669 73.4775C142.401 73.3912 142.187 73.1216 142.187 72.8687C142.187 72.4865 142.354 72.4143 143.242 72.4143C143.967 72.4143 144.339 72.3036 144.432 72.0598C144.506 71.8649 144.395 71.4418 144.186 71.1196C143.922 70.7124 143.595 70.5338 143.113 70.5338C142.73 70.5338 142.211 70.7444 141.954 71.0039ZM152.118 70.9637C151.891 71.2171 151.733 71.7907 151.733 72.3607C151.733 73.0936 151.858 73.4166 152.25 73.6937C152.535 73.895 152.998 74.0597 153.279 74.0597C153.56 74.0597 153.956 73.9956 154.158 73.9171C154.361 73.8385 154.527 73.69 154.527 73.5868C154.527 73.4836 154.118 73.4547 153.618 73.5224C152.876 73.6228 152.665 73.56 152.463 73.1782C152.326 72.9213 152.281 72.6444 152.362 72.5626C152.443 72.481 152.963 72.4143 153.518 72.4143C154.431 72.4143 154.527 72.36 154.527 71.8433C154.527 71.5295 154.362 71.1064 154.161 70.9031C153.96 70.7 153.504 70.5338 153.149 70.5338C152.794 70.5338 152.33 70.7272 152.118 70.9637ZM155.534 70.9127C155.478 71.0566 155.465 71.7716 155.504 72.502C155.543 73.2325 155.679 73.8552 155.807 73.8863C155.935 73.9171 156.073 73.4159 156.113 72.7728C156.153 72.1296 156.297 71.4686 156.433 71.3036C156.568 71.1388 156.865 71.0039 157.091 71.0039C157.318 71.0039 157.567 71.1713 157.645 71.3758C157.723 71.5803 157.786 72.2678 157.786 72.9037C157.786 73.5395 157.891 74.0597 158.019 74.0597C158.15 74.0597 158.252 73.4032 158.252 72.5605C158.252 71.5949 158.141 70.9684 157.94 70.8001C157.769 70.6565 157.18 70.5641 156.631 70.5951C156.083 70.6259 155.589 70.7688 155.534 70.9127ZM159.801 70.9637C159.577 71.2133 159.416 71.789 159.416 72.3377C159.416 72.9538 159.564 73.4168 159.842 73.6707C160.076 73.8846 160.574 74.0581 160.948 74.0562C161.322 74.0541 161.785 73.95 161.977 73.8247C162.169 73.6994 162.222 73.584 162.094 73.5682C161.965 73.5527 161.567 73.5595 161.209 73.5837C160.85 73.6077 160.405 73.5003 160.219 73.3447C160.033 73.1893 159.882 72.9162 159.882 72.7382C159.882 72.5062 160.212 72.4143 161.046 72.4143C162.123 72.4143 162.21 72.3717 162.21 71.8433C162.21 71.5295 162.045 71.1064 161.844 70.9031C161.643 70.7 161.188 70.5338 160.833 70.5338C160.477 70.5338 160.013 70.7272 159.801 70.9637ZM163.217 70.9127C163.161 71.0566 163.148 71.7716 163.187 72.502C163.226 73.2325 163.362 73.8552 163.49 73.8863C163.619 73.9171 163.776 73.3604 163.84 72.6494C163.935 71.5956 164.053 71.3135 164.48 71.1245C164.768 70.9968 165.004 70.8191 165.004 70.7298C165.004 70.6403 164.624 70.5862 164.161 70.6092C163.697 70.6323 163.272 70.7688 163.217 70.9127ZM165.993 70.6894C165.833 70.7547 165.702 70.8906 165.702 70.9914C165.702 71.0925 166.092 71.163 166.568 71.1482C167.218 71.128 167.454 71.2235 167.516 71.5328C167.576 71.8318 167.449 71.9442 167.052 71.9442C166.751 71.9442 166.272 72.1089 165.987 72.3102C165.702 72.5114 165.469 72.8778 165.469 73.1247C165.469 73.3712 165.665 73.6787 165.904 73.808C166.143 73.9373 166.746 74.0064 167.243 73.962L168.147 73.8809L168.216 72.5875C168.267 71.639 168.185 71.1929 167.908 70.9141C167.701 70.7049 167.251 70.5422 166.908 70.5523C166.565 70.5625 166.154 70.6243 165.993 70.6894ZM173.618 71.0039C173.33 71.2949 173.153 71.7874 173.153 72.2968C173.153 72.8061 173.33 73.2986 173.618 73.5896C173.874 73.8482 174.38 74.0597 174.742 74.0597C175.128 74.0597 175.609 73.8355 175.906 73.5158C176.207 73.1921 176.412 72.6682 176.412 72.2229C176.412 71.7874 176.217 71.2773 175.947 71.0039C175.688 70.7427 175.171 70.5338 174.782 70.5338C174.394 70.5338 173.877 70.7427 173.618 71.0039ZM177.344 72.2241C177.344 73.0892 177.448 73.8623 177.576 73.9422C177.72 74.0315 177.809 73.6434 177.809 72.9347C177.809 72.1165 177.933 71.6691 178.235 71.3929C178.469 71.179 178.777 71.0039 178.92 71.0039C179.062 71.0039 179.257 71.132 179.353 71.2888C179.449 71.4456 179.504 71.9315 179.474 72.3687C179.445 72.8059 179.485 73.3668 179.563 73.615C179.641 73.8635 179.803 74.0059 179.921 73.9319C180.04 73.8576 180.137 73.1815 180.137 72.4291C180.137 71.6097 180.019 70.9621 179.841 70.8135C179.679 70.6772 179.05 70.5848 178.445 70.6085L177.344 70.6513V72.2241ZM75.3229 71.5328C75.385 71.8624 75.2353 71.9442 74.5685 71.9442C74.111 71.9442 73.7366 71.8595 73.7366 71.7561C73.7366 71.6527 73.8663 71.4371 74.0249 71.277C74.1834 71.117 74.5229 71.0164 74.7792 71.0537C75.0356 71.0909 75.2803 71.3064 75.3229 71.5328ZM87.1974 71.5328C87.2593 71.8624 87.1091 71.9442 86.4426 71.9442C85.9045 71.9442 85.6107 71.8334 85.6107 71.6308C85.6107 71.4583 85.6854 71.242 85.7767 71.1499C85.8677 71.0577 86.2074 71.0135 86.5313 71.0519C86.8712 71.092 87.1527 71.2954 87.1974 71.5328ZM103.786 71.2472C104.099 71.4164 104.237 71.7404 104.237 72.3102C104.237 72.9535 104.113 73.1865 103.662 73.394C103.222 73.5964 103.002 73.5884 102.73 73.3604C102.534 73.1961 102.374 72.7257 102.374 72.3151C102.374 71.9042 102.5 71.4411 102.653 71.286C102.807 71.1308 103.024 71.0039 103.134 71.0039C103.245 71.0039 103.539 71.1134 103.786 71.2472ZM110.48 71.5328C110.542 71.8624 110.392 71.9442 109.725 71.9442C109.187 71.9442 108.893 71.8334 108.893 71.6308C108.893 71.4583 108.968 71.242 109.059 71.1499C109.15 71.0577 109.49 71.0135 109.814 71.0519C110.154 71.092 110.435 71.2954 110.48 71.5328ZM131.9 71.5328C131.962 71.8624 131.811 71.9442 131.145 71.9442C130.607 71.9442 130.313 71.8334 130.313 71.6308C130.313 71.4583 130.388 71.242 130.479 71.1499C130.57 71.0577 130.91 71.0135 131.234 71.0519C131.573 71.092 131.855 71.2954 131.9 71.5328ZM143.774 71.5328C143.836 71.8624 143.685 71.9442 143.019 71.9442C142.481 71.9442 142.187 71.8334 142.187 71.6308C142.187 71.4583 142.262 71.242 142.353 71.1499C142.444 71.0577 142.784 71.0135 143.108 71.0519C143.448 71.092 143.729 71.2954 143.774 71.5328ZM153.782 71.286C153.935 71.4411 154.061 71.6527 154.061 71.7561C154.061 71.8595 153.712 71.9442 153.285 71.9442C152.858 71.9442 152.44 71.8746 152.356 71.7895C152.271 71.7044 152.319 71.4928 152.462 71.3194C152.605 71.1459 152.897 71.0039 153.112 71.0039C153.327 71.0039 153.628 71.1308 153.782 71.286ZM161.465 71.286C161.619 71.4411 161.744 71.6527 161.744 71.7561C161.744 71.8595 161.325 71.9442 160.813 71.9442C160.301 71.9442 159.882 71.8595 159.882 71.7561C159.882 71.6527 160.007 71.4411 160.161 71.286C160.315 71.1308 160.608 71.0039 160.813 71.0039C161.018 71.0039 161.311 71.1308 161.465 71.286ZM175.434 71.286C175.588 71.4411 175.714 71.896 175.714 72.2968C175.714 72.6975 175.588 73.1524 175.434 73.3075C175.281 73.4627 174.979 73.5896 174.764 73.5896C174.55 73.5896 174.243 73.4307 174.083 73.2363C173.924 73.0419 173.793 72.6193 173.793 72.2968C173.793 71.9742 173.924 71.5516 174.083 71.3572C174.243 71.1628 174.55 71.0039 174.764 71.0039C174.979 71.0039 175.281 71.1308 175.434 71.286ZM68.3817 72.8687C68.3817 73.1185 68.1731 73.3898 67.9181 73.4714C67.6632 73.5532 67.3489 73.5539 67.2197 73.4735C67.0904 73.3929 66.9847 73.1832 66.9847 73.0076C66.9847 72.8322 67.1158 72.6353 67.2758 72.5699C67.4359 72.5048 67.7503 72.443 67.9742 72.4329C68.228 72.4213 68.3817 72.5857 68.3817 72.8687ZM124.958 72.7199C124.958 72.8879 124.832 73.1524 124.679 73.3075C124.525 73.4627 124.211 73.5896 123.98 73.5896C123.729 73.5896 123.561 73.4168 123.561 73.1587C123.561 72.9216 123.631 72.6571 123.716 72.5711C123.802 72.4848 124.116 72.4143 124.415 72.4143C124.714 72.4143 124.958 72.5518 124.958 72.7199ZM167.565 72.7382C167.565 72.9162 167.409 73.1926 167.219 73.352C167.028 73.5116 166.714 73.5809 166.52 73.5057C166.326 73.4307 166.168 73.2161 166.168 73.029C166.168 72.8416 166.299 72.6353 166.459 72.5699C166.619 72.5048 166.933 72.443 167.157 72.4329C167.381 72.4227 167.565 72.56 167.565 72.7382ZM115.97 74.1773C115.829 74.6298 115.798 75 115.9 75C116.001 75 116.247 74.7649 116.447 74.4775C116.646 74.1902 116.809 73.82 116.809 73.6547C116.809 73.4897 116.678 73.3545 116.517 73.3545C116.356 73.3545 116.11 73.7248 115.97 74.1773Z" fill="black"/>
</svg>
