<svg width="242" height="96" viewBox="0 0 242 96" fill="none" xmlns="http://www.w3.org/2000/svg">
<path fill-rule="evenodd" clip-rule="evenodd" d="M119.046 12.0843C117.714 12.2629 117.096 12.3901 116.874 12.5312C116.777 12.5936 116.494 12.6977 116.246 12.7625C115.998 12.8273 115.677 12.9442 115.533 13.0222C115.388 13.1002 115.051 13.2823 114.783 13.4265C114.276 13.6998 113.792 14.0475 113.382 14.4339C112.688 15.0891 112.381 15.4218 112.337 15.5658C112.31 15.6539 112.225 15.7981 112.149 15.8862C111.646 16.4654 111.306 17.5339 111.231 18.7685C111.176 19.6703 110.873 19.9022 110.253 19.5172C109.458 19.0242 107.419 19.0078 106.323 19.4856C106.082 19.5907 105.714 19.7203 105.506 19.7734C105.298 19.8263 105.034 19.9508 104.919 20.0498C104.804 20.1487 104.573 20.2751 104.406 20.3306C104.239 20.386 103.989 20.5345 103.851 20.6607C103.714 20.7868 103.573 20.8901 103.538 20.8901C103.503 20.8901 103.346 21.0072 103.19 21.1504C103.034 21.2934 102.668 21.6065 102.376 21.8463C102.083 22.086 101.623 22.551 101.352 22.8798C101.081 23.2086 100.743 23.6115 100.6 23.7749C100.457 23.9382 100.341 24.1043 100.341 24.1438C100.341 24.1833 100.252 24.3465 100.144 24.5063C100.036 24.6662 99.8855 24.9539 99.8103 25.1454C99.735 25.337 99.5917 25.6197 99.4917 25.7738C99.3918 25.9279 99.2594 26.1983 99.1975 26.3744C99.1356 26.5506 99.0112 26.8568 98.9208 27.0549C97.9167 29.2607 97.6824 31.6327 98.3343 32.9973C98.4242 33.1858 98.5571 33.6039 98.6295 33.9265C98.7584 34.5016 98.7678 34.516 99.1057 34.6615C99.2951 34.743 99.5312 34.9197 99.6303 35.0541C99.9589 35.5002 101.119 36.0228 101.905 36.0784C102.695 36.1343 102.723 36.0872 102.155 35.658C100.747 34.5932 100.055 33.394 99.8705 31.6985C99.7691 30.7679 99.8754 29.394 100.079 28.9998C100.166 28.8329 100.283 28.552 100.34 28.3759C100.396 28.1998 100.563 27.8133 100.711 27.5172C100.858 27.2212 100.979 26.931 100.979 26.8724C100.979 26.814 101.082 26.6035 101.207 26.4047C101.333 26.2059 101.479 25.9107 101.532 25.7487C101.625 25.4656 101.838 25.1695 102.477 24.4308C103.103 23.7088 103.421 23.3934 103.671 23.2479C103.813 23.1652 103.93 23.0695 103.93 23.0356C103.93 23.0016 104.065 22.8835 104.229 22.7732C104.394 22.6631 104.618 22.5006 104.728 22.4123C104.838 22.3238 105.137 22.1971 105.393 22.1304C105.649 22.0637 106.008 21.9222 106.191 21.8158C106.373 21.7094 106.754 21.5808 107.037 21.53C107.32 21.4794 107.695 21.3642 107.87 21.2744C108.389 21.0088 109.634 21.1002 110.621 21.4765C111.397 21.7726 111.514 21.8516 112.201 22.551C112.428 22.7823 112.653 22.9718 112.699 22.9718C112.944 22.9718 112.562 21.7533 112.11 21.0903C111.383 20.0255 112.888 17.0195 114.775 15.766C114.94 15.6559 115.18 15.4977 115.306 15.4142C115.433 15.3308 115.718 15.1421 115.939 14.995C116.161 14.8479 116.466 14.7039 116.617 14.6746C116.768 14.6456 117.062 14.5366 117.27 14.4325C118.727 13.7022 123.178 13.665 124.255 14.3738C124.359 14.4415 124.645 14.55 124.892 14.6146C125.139 14.6792 125.45 14.8152 125.584 14.9168C125.717 15.0185 125.988 15.1796 126.185 15.2749C127.778 16.0432 129.57 18.2802 129.574 19.5028C129.575 20.124 129.57 20.1325 128.717 20.9644C128.596 21.0821 128.423 21.393 128.331 21.6549C128.239 21.9168 128.135 22.167 128.099 22.2111C127.96 22.3823 127.915 22.8917 128.04 22.8917C128.179 22.8917 128.557 22.6094 128.764 22.352C129.495 21.4399 131.923 20.8088 132.902 21.2761C133.09 21.366 133.478 21.4833 133.763 21.5368C134.048 21.5905 134.479 21.7345 134.72 21.857C134.961 21.9794 135.32 22.1214 135.518 22.1724C135.715 22.2234 135.967 22.3456 136.076 22.4442C136.186 22.5428 136.545 22.824 136.874 23.0693C137.752 23.7244 139.143 25.3191 139.305 25.8586C139.338 25.9662 139.467 26.2522 139.592 26.4944C139.717 26.7366 139.877 27.079 139.948 27.2551C140.02 27.4312 140.117 27.6473 140.165 27.7354C141.184 29.6201 141.217 32.259 140.239 33.8495C140.121 34.0417 139.988 34.2611 139.944 34.3368C139.752 34.6656 139.109 35.2995 138.648 35.6148C138.106 35.986 138.079 36.1022 138.534 36.1016C139.218 36.1004 139.744 35.9489 140.401 35.564C141.465 34.9403 141.845 34.8304 141.929 35.1212C142.19 36.0195 142.146 37.1732 141.821 37.915C141.741 38.0977 141.65 38.3679 141.618 38.5156C141.585 38.6633 141.438 38.974 141.29 39.2059C141.143 39.438 141.022 39.658 141.022 39.6946C141.022 39.7314 140.93 39.8658 140.818 39.9934C140.706 40.121 140.464 40.4094 140.28 40.6347C139.737 41.2987 138.264 42.5349 137.711 42.7905C137.536 42.8718 137.285 43.0154 137.153 43.1098C136.858 43.3214 135.04 43.902 134.281 44.0265C133.974 44.0769 133.633 44.179 133.524 44.2533C133.208 44.4675 131.172 44.4397 130.572 44.2131C130.331 44.122 129.972 44.022 129.775 43.9911C129.577 43.9603 129.266 43.83 129.084 43.7014C128.901 43.573 128.697 43.4679 128.631 43.4679C128.513 43.4679 127.68 42.76 127.477 42.487C127.36 42.3306 127.179 42.3033 127.1 42.4304C126.921 42.7216 127.938 44.3181 128.511 44.6446C128.689 44.7465 128.942 44.9197 129.072 45.0296C129.202 45.1393 129.358 45.2292 129.419 45.2292C129.481 45.2292 129.724 45.3152 129.961 45.4203C131.017 45.8886 133.098 45.974 134.281 45.5971C134.676 45.4714 135.251 45.3216 135.558 45.264C135.865 45.2065 136.313 45.0893 136.555 45.0037C136.796 44.9179 137.227 44.7666 137.512 44.6674C137.797 44.5683 138.102 44.424 138.19 44.3469C138.278 44.2697 138.55 44.1123 138.796 43.9973C139.041 43.8823 139.307 43.7162 139.386 43.6279C139.466 43.5399 139.572 43.4679 139.624 43.4679C139.674 43.4679 139.826 43.3506 139.96 43.2076C140.095 43.0644 140.392 42.8033 140.621 42.6273C140.851 42.4512 141.205 42.0942 141.409 41.8339C141.613 41.5736 141.855 41.2798 141.948 41.181C142.72 40.3555 143.446 38.1244 143.255 37.1635C143.058 36.1701 142.727 35.4701 142.309 35.1611C141.931 34.8816 141.834 34.4092 142.06 33.9432C142.567 32.8973 142.712 32.3388 142.756 31.2518C142.832 29.3568 142.564 28.3843 141.231 25.7339C141.01 25.2936 140.732 24.7384 140.614 24.5006C140.496 24.2625 140.305 23.9563 140.191 23.8199C139.038 22.4504 138.742 22.1144 138.592 22.0109C138.496 21.9448 138.33 21.8098 138.224 21.7107C137.966 21.4709 137.364 20.9868 136.955 20.6911C136.452 20.3269 135.204 19.6891 134.994 19.6891C134.928 19.6891 134.732 19.6166 134.558 19.5277C133.842 19.1609 132.218 19.0199 131.343 19.2487C130.422 19.4895 130.22 19.3668 130.13 18.5154C130.05 17.7565 129.684 16.6479 129.343 16.1314C129.185 15.8934 129.032 15.6327 129.001 15.5522C128.863 15.1849 126.836 13.4442 126.547 13.4442C126.497 13.4442 126.332 13.3516 126.181 13.2384C125.847 12.9884 125.527 12.8477 125.121 12.7714C124.953 12.7397 124.684 12.645 124.523 12.5609C123.58 12.0674 120.908 11.8351 119.046 12.0843ZM134.233 26.7985C134.273 26.8744 134.382 27.0049 134.473 27.0882C134.912 27.4868 134.478 28.2181 133.62 28.524C133.392 28.6055 133.205 28.7039 133.205 28.7426C133.205 28.7814 133.052 28.8907 132.865 28.9856C132.679 29.0804 132.409 29.2613 132.265 29.3874C132.121 29.5137 131.933 29.6168 131.848 29.6168C131.764 29.6168 131.572 29.7251 131.422 29.8572C131.272 29.9893 131.113 30.0973 131.068 30.0973C131.023 30.0973 130.511 30.3856 129.929 30.7378C129.348 31.0901 128.826 31.3784 128.771 31.3784C128.715 31.3784 128.563 31.4689 128.432 31.5794C128.301 31.6901 128.039 31.8354 127.85 31.9024C127.661 31.9693 127.433 32.0921 127.344 32.1753C127.255 32.2582 127.021 32.3886 126.823 32.465C126.626 32.5411 126.393 32.6674 126.305 32.7454C126.217 32.8236 125.948 32.965 125.706 33.0598C125.465 33.1547 125.214 33.2808 125.148 33.3401C125.082 33.3993 124.813 33.5271 124.55 33.6242C124.287 33.7214 124.017 33.8467 123.952 33.9026C123.786 34.0434 123.246 34.2605 123.062 34.2605C122.978 34.2605 122.738 34.3477 122.529 34.4541C122.319 34.5607 122.006 34.6705 121.833 34.6985C121.66 34.7263 121.366 34.7882 121.178 34.836C120.677 34.9637 119.281 34.7242 118.637 34.3998C118.511 34.336 118.233 34.2411 118.02 34.1886C117.807 34.1364 117.43 33.9921 117.182 33.8683C116.935 33.7444 116.625 33.617 116.494 33.5854C116.362 33.5535 116.128 33.4498 115.975 33.3545C115.821 33.2594 115.498 33.1152 115.257 33.0339C115.016 32.9526 114.747 32.8226 114.659 32.7448C114.571 32.6672 114.342 32.5428 114.151 32.4683C113.959 32.3938 113.69 32.2514 113.553 32.1518C113.415 32.0522 113.159 31.9232 112.984 31.8652C112.808 31.807 112.593 31.6977 112.505 31.6222C112.417 31.5469 112.166 31.4203 111.947 31.3411C111.728 31.2619 111.458 31.1166 111.348 31.0181C111.239 30.9197 110.972 30.7802 110.755 30.708C110.538 30.636 110.287 30.5109 110.197 30.4302C110.106 30.3493 109.907 30.2341 109.753 30.174C109.6 30.114 109.337 29.9664 109.17 29.8463C109.003 29.7259 108.761 29.6043 108.632 29.5759C108.503 29.5475 108.37 29.4738 108.336 29.4123C108.301 29.3506 108.059 29.1891 107.797 29.053C106.101 28.1734 105.909 27.9621 106.323 27.4333C106.659 27.0049 106.554 26.867 105.939 26.9279C105.64 26.9576 105.06 26.9991 104.652 27.0203C103.656 27.0722 103.517 27.2378 104 27.7928C104.126 27.9374 104.303 28.2179 104.393 28.416C104.484 28.6142 104.65 28.9004 104.762 29.052C104.875 29.2037 104.967 29.3658 104.967 29.4123C104.967 29.4588 105.053 29.5967 105.157 29.7187L105.348 29.9405L105.401 29.6543C105.521 29.0125 106.015 28.8775 106.563 29.3366C106.746 29.4909 106.948 29.6168 107.01 29.6168C107.072 29.6168 107.185 29.6897 107.261 29.7788C107.336 29.8677 107.578 30.0337 107.798 30.1477C108.018 30.2615 108.27 30.4187 108.357 30.4969C108.445 30.5751 108.627 30.6948 108.762 30.7631C108.897 30.8314 109.056 30.9467 109.116 31.0189C109.176 31.0913 109.397 31.2384 109.609 31.3458C109.82 31.4533 109.993 31.5759 109.993 31.6183C109.993 31.6607 110.134 31.7679 110.307 31.8565C110.481 31.9452 110.71 32.0991 110.817 32.1985C110.925 32.2977 111.254 32.5411 111.55 32.7393C111.845 32.9374 112.215 33.2168 112.372 33.3598C112.529 33.503 112.691 33.6201 112.731 33.6201C112.772 33.6201 112.935 33.731 113.094 33.8666C113.253 34.0022 113.634 34.2911 113.941 34.5086C114.248 34.7261 114.63 35.0205 114.79 35.1627C114.95 35.3051 115.13 35.4629 115.189 35.5137C115.248 35.5646 115.548 35.8831 115.855 36.2218C116.162 36.5605 116.491 36.9228 116.586 37.0269C116.681 37.131 116.841 37.3707 116.943 37.5598C117.044 37.7487 117.187 37.9755 117.261 38.0635C117.488 38.3329 118.022 39.63 118.168 40.2652C118.243 40.5954 118.372 41.0098 118.453 41.186C118.535 41.3621 118.64 41.8664 118.688 42.307C118.735 42.7473 118.808 43.3485 118.85 43.6434C118.959 44.4074 118.944 45.2788 118.801 46.43C118.733 46.9806 118.656 47.665 118.63 47.9512C118.604 48.2374 118.522 48.6158 118.448 48.7919C118.374 48.9681 118.248 49.3825 118.168 49.7127C118.005 50.3882 117.34 51.8489 117.094 52.0726C117.005 52.1535 116.932 52.2545 116.932 52.2973C116.932 52.4292 116.472 52.9335 114.983 54.4349C114.196 55.2284 113.606 55.8775 113.671 55.8775C113.736 55.8775 113.823 55.8461 113.865 55.8078C113.907 55.7695 114.21 55.6582 114.539 55.5605C114.868 55.4625 115.247 55.3152 115.381 55.2327C115.516 55.1504 115.833 55.0286 116.086 54.9623C116.339 54.8961 116.732 54.7553 116.959 54.6496C117.185 54.5438 117.617 54.3788 117.918 54.2829C118.219 54.1868 118.542 54.0584 118.636 53.9973C118.73 53.9364 118.986 53.8428 119.206 53.7893C119.425 53.736 119.751 53.6074 119.93 53.5039C120.361 53.2551 121.197 53.2362 121.492 53.4687C121.598 53.5528 121.9 53.6837 122.161 53.7592C122.422 53.8347 122.797 53.9769 122.995 54.0753C123.192 54.1736 123.551 54.3164 123.792 54.3926C124.033 54.4687 124.41 54.6156 124.63 54.7193C124.849 54.823 125.154 54.9308 125.308 54.9592C125.461 54.9874 125.784 55.1107 126.026 55.2331C127.264 55.8609 127.794 55.8156 127.082 55.1424C126.874 54.945 126.644 54.7144 126.572 54.63C126.5 54.5454 126.019 54.0621 125.505 53.5557C124.99 53.0493 124.522 52.524 124.464 52.3884C124.407 52.2528 124.301 52.0932 124.23 52.0339C124.022 51.8605 123.477 50.6911 123.26 49.9528C123.151 49.5786 122.992 49.0662 122.908 48.8146C122.824 48.5627 122.755 48.2384 122.755 48.094C122.755 47.9493 122.698 47.5611 122.629 47.2306C122.321 45.7689 122.546 41.716 122.983 40.8444C123.065 40.68 123.192 40.2734 123.265 39.9407C123.338 39.608 123.481 39.2117 123.583 39.06C123.686 38.9082 123.796 38.694 123.829 38.5839C123.861 38.4738 124.028 38.1652 124.199 37.8979C124.37 37.6306 124.51 37.3773 124.51 37.3351C124.51 37.293 124.609 37.1656 124.729 37.052C124.85 36.9384 125.074 36.6901 125.228 36.5006C125.565 36.0839 125.609 36.0401 126.348 35.3814C126.669 35.0952 127.068 34.7259 127.233 34.5609C127.399 34.3956 127.569 34.2605 127.611 34.2605C127.653 34.2605 127.843 34.1175 128.033 33.9423C128.223 33.7675 128.404 33.6234 128.436 33.6222C128.467 33.6209 128.778 33.3679 129.125 33.0596C129.473 32.7514 129.785 32.4991 129.817 32.4991C129.85 32.4991 130.042 32.3553 130.244 32.1796C130.937 31.5775 131.091 31.45 131.386 31.2341C131.548 31.1152 131.889 30.8555 132.143 30.657C132.398 30.4584 132.714 30.2275 132.846 30.144C132.977 30.0605 133.114 29.9434 133.149 29.8839C133.184 29.8244 133.356 29.7026 133.531 29.6129C133.706 29.5234 133.911 29.3886 133.987 29.3133C134.573 28.7308 135.164 28.7679 135.321 29.3967C135.414 29.7705 135.593 29.6498 135.884 29.0164C136.036 28.6862 136.191 28.416 136.228 28.416C136.266 28.416 136.343 28.302 136.4 28.1629C136.458 28.0236 136.624 27.7364 136.769 27.5242C137.01 27.173 137.121 26.7405 136.973 26.7306C135.622 26.6393 134.167 26.6755 134.233 26.7985ZM119.452 28.8483C118.823 29.1907 118.777 29.25 118.515 30.0405C118.096 31.3094 119.016 32.5269 120.38 32.507C121.069 32.4969 121.193 32.4524 121.692 32.0341C122.555 31.3111 122.463 29.4886 121.538 28.979C121.352 28.8763 121.146 28.7481 121.08 28.6938C120.772 28.4395 120.083 28.5047 119.452 28.8483ZM97.76 35.2189C97.6002 35.3965 97.4692 35.5753 97.4692 35.6158C97.4692 35.6561 97.382 35.7932 97.2756 35.9201C96.8359 36.4446 96.814 38.457 97.2381 39.3508C97.3652 39.6185 97.4692 39.8707 97.4692 39.9113C97.4694 40.0158 98.0243 40.9068 98.2922 41.2327C98.416 41.3831 98.6223 41.6461 98.7506 41.817C98.8791 41.988 99.1907 42.3047 99.4431 42.5205C99.6955 42.7364 100.028 43.022 100.181 43.1555C100.569 43.4923 100.938 43.7393 101.497 44.036C101.761 44.1755 102.062 44.357 102.166 44.4393C102.271 44.5214 102.409 44.5886 102.474 44.5886C102.538 44.5886 102.776 44.6819 103.001 44.7958C103.5 45.0475 103.995 45.2255 104.209 45.2306C104.297 45.2327 104.566 45.3059 104.808 45.3934C106.123 45.8701 108.74 45.9522 109.753 45.5485C109.994 45.4524 110.415 45.3041 110.687 45.2191C110.959 45.1341 111.205 45.0282 111.232 44.9835C111.26 44.9389 111.426 44.8113 111.602 44.6998C112.396 44.1967 113.31 42.6796 113.003 42.3724C112.922 42.2903 112.805 42.3693 112.396 42.7833C112.117 43.0652 111.776 43.3403 111.639 43.3946C111.501 43.4489 111.273 43.5784 111.133 43.6821C110.992 43.786 110.705 43.9059 110.494 43.9485C109.967 44.0557 109.59 44.1551 109.354 44.2491C108.869 44.443 107.43 44.4537 106.881 44.2677C106.596 44.171 106.13 44.0586 105.845 44.0181C105.202 43.9271 103.356 43.3405 103.113 43.1504C103.014 43.0732 102.808 42.9471 102.654 42.8701C102.299 42.6921 101.561 42.1954 101.341 41.9866C101.249 41.8985 100.945 41.6284 100.666 41.3862C99.9023 40.7236 99.0011 39.5559 98.7498 38.9043C98.6903 38.7502 98.5341 38.3718 98.4025 38.0635C98.1737 37.5277 98.063 35.9074 98.2008 35.1098C98.2473 34.8407 98.0583 34.8874 97.76 35.2189ZM89.7259 54.7629C89.5998 54.8985 89.4627 55.1236 89.4213 55.2633C89.3801 55.403 89.2753 55.7154 89.1888 55.9576C89.0693 56.2921 89.0182 56.715 88.9758 57.7189C88.9053 59.3899 88.7507 59.7205 86.8789 62.2024C85.8606 63.5526 85.3385 63.6701 82.81 63.1189C82.1081 62.9658 81.9341 63.0059 82.0269 63.2996C82.1286 63.6218 82.9219 63.787 84.4385 63.802C84.5322 63.8031 84.6938 63.873 84.7973 63.9578L84.9857 64.1121L84.7862 64.486C84.6765 64.6917 84.4342 64.9708 84.2479 65.1061C84.0613 65.2413 83.9088 65.3779 83.9088 65.4096C83.9088 65.4716 82.8123 66.3008 82.3777 66.5675C82.0331 66.779 82.0048 67.1135 82.3281 67.1512C82.7055 67.1948 83.0415 66.9323 84.5123 65.4446C86.2323 63.7045 85.9258 63.8286 88.6306 63.7775C90.7423 63.7378 90.6709 63.7236 91.3618 64.316C92.5057 65.2967 94.4848 66.1135 94.6527 65.6742C94.7406 65.4442 94.5608 65.2996 94.0586 65.1967C92.8995 64.9594 91.9604 64.3623 92.1236 63.9666C92.2734 63.6035 92.3864 63.5506 93.0998 63.5088C93.8087 63.4675 94.1129 63.3117 94.0102 63.0428C93.9499 62.8854 93.6406 62.9168 92.689 63.1773C91.3005 63.5578 90.8329 63.1633 90.001 60.9109C89.5592 59.7146 89.502 59.0835 89.7882 58.5596C89.8844 58.3835 90.0408 58.0411 90.1361 57.7989C90.2312 57.5568 90.4003 57.1605 90.5123 56.9183C91.156 55.5232 90.5541 53.873 89.7259 54.7629ZM90.2058 55.5117C90.4731 55.8349 90.3649 56.9183 90.0652 56.9183C89.9059 56.9183 89.7083 57.1084 89.6261 57.3405C89.5617 57.5224 89.3477 57.6055 89.2347 57.4924C89.0832 57.3403 89.1603 56.8409 89.4016 56.4115C89.5295 56.1839 89.6605 55.9076 89.6927 55.7975C89.8077 55.4049 90.0199 55.2868 90.2058 55.5117ZM141.115 55.6172C140.964 55.9115 140.865 56.5971 140.823 57.6389C140.679 61.2496 140.593 61.5337 139.597 61.681C139.437 61.7047 139.145 61.7648 138.948 61.8146C137.98 62.0588 137.525 62.1257 136.236 62.2123C133.795 62.3763 133.78 62.3485 134.329 58.4586C134.534 57.0037 134.518 56.7271 134.224 56.6932C133.982 56.665 133.985 56.658 133.848 57.5989C133.69 58.6882 133.583 59.9308 133.573 60.7749C133.557 62.2312 133.052 62.3909 131.547 61.416C130.925 61.0125 130.82 60.6819 131.131 60.1C131.406 59.5841 131.278 59.3664 130.814 59.5596C130.301 59.7726 130.184 60.8051 130.609 61.3644C130.961 61.8282 131.999 62.3345 132.893 62.479C133.51 62.5786 133.773 63.5333 133.66 65.2695C133.633 65.6751 133.653 65.8442 133.739 65.93C134.046 66.238 134.082 66.1006 134.115 64.5082C134.152 62.6646 134.189 62.6049 135.295 62.6004C136.56 62.595 137.799 62.4613 138.174 62.2897C138.376 62.1977 138.695 62.1216 138.883 62.1205C139.072 62.1195 139.368 62.0858 139.541 62.0454C140.216 61.8882 140.488 62.1588 140.583 63.0831C140.649 63.7199 140.649 63.7333 140.611 64.4938C140.583 65.038 140.686 65.2448 140.983 65.2448C141.259 65.2448 141.279 65.0745 141.175 63.6265C141.039 61.7247 141.364 61.3424 142.692 61.8395C143.167 62.0173 143.433 61.9496 143.4 61.6592C143.362 61.3286 142.958 61.1619 142.195 61.1617C141.632 61.1617 141.553 61.1419 141.366 60.9539L141.159 60.7461L141.214 59.693C141.351 57.0987 141.407 56.4598 141.529 56.1177C141.72 55.5829 141.702 55.4771 141.423 55.4771C141.279 55.4771 141.159 55.5317 141.115 55.6172ZM124.789 56.5479C123.923 56.9506 123.295 58.5578 122.663 61.9821C122.608 62.2808 122.495 62.5473 122.34 62.7426C122.208 62.9078 122.014 63.2142 121.908 63.4234C121.543 64.1442 121.127 63.8041 120.883 62.5852C120.6 61.1769 117.817 61.3566 116.895 62.8426C116.005 64.2777 117.248 66.2111 118.703 65.6553C118.804 65.6168 119.084 65.5205 119.325 65.4415C119.636 65.3397 119.931 65.1487 120.338 64.7847C121.573 63.6814 122.516 63.771 122.516 64.9915C122.516 66.9555 123.885 68.3714 125.037 67.5989C125.956 66.9833 126.288 66.3829 126.298 65.3214C126.305 64.5893 126.373 64.4121 126.785 64.0417C127.342 63.5409 127.472 63.3961 127.443 63.308C127.39 63.1483 127.244 63.1471 127.09 63.3051C126.871 63.5288 126.387 63.8037 126.212 63.8037C126.065 63.8037 125.138 63.1808 125.034 63.0129C125.008 62.9693 124.794 62.8775 124.559 62.809C123.994 62.6442 123.936 62.5617 124 62.0142C124.041 61.6693 124.095 61.5384 124.237 61.4452C124.498 61.2738 124.793 60.8323 125.472 59.6004C126.441 57.8415 126.023 55.9738 124.789 56.5479ZM125.449 57.123C125.837 57.3952 125.602 58.4341 124.825 59.8806C124.695 60.1228 124.472 60.564 124.33 60.8611C124.188 61.158 124.031 61.4012 123.983 61.4014C123.934 61.4016 123.759 61.494 123.594 61.6066C123.103 61.9405 122.708 61.4374 123.065 60.9341C123.155 60.808 123.267 60.5286 123.314 60.3129C123.808 58.0802 124.769 56.6444 125.449 57.123ZM89.1638 60.4312C89.246 60.514 89.3946 60.8292 89.4938 61.1319C89.5931 61.4345 89.7548 61.8442 89.8536 62.0424C90.4627 63.2662 90.3196 63.3493 87.524 63.3965C86.9061 63.4068 86.6312 62.9958 87.0197 62.6428C87.1074 62.5631 87.1794 62.4584 87.1798 62.4103C87.18 62.3621 87.3325 62.1601 87.5187 61.9613C87.705 61.7625 88.0547 61.3039 88.296 60.9422C88.756 60.252 88.9006 60.167 89.1638 60.4312ZM96.8675 60.5144C94.7445 61.5436 94.7246 64.9563 96.8394 65.4068C97.8447 65.621 99.4544 64.9893 100.113 64.1224C101.156 62.7494 101.936 62.7317 101.936 64.0812C101.936 65.6024 102.903 65.9228 104.199 64.8308C104.827 64.301 105.003 64.2654 105.325 64.6028C106.236 65.5576 108.3 64.8483 108.998 63.3409C109.386 62.5024 109.891 62.5456 110.707 63.4874C111.569 64.4819 111.141 65.2135 109.718 65.1794C108.815 65.1576 108.699 65.4934 109.514 65.7654C110.301 66.0277 110.68 65.8576 111.73 64.7687C112.714 63.7473 113.194 62.857 112.315 63.6823C111.823 64.1448 111.702 64.1234 111.277 63.4979C110.986 63.0683 110.825 62.8882 110.236 62.3267C109.923 62.0292 109.867 61.8033 109.981 61.3051C110.15 60.5693 110.032 60.2895 109.618 60.4465C109.338 60.5524 109.218 60.9024 109.177 61.7325C109.113 63.0199 108.094 64.3298 106.974 64.5644C105.718 64.8275 105.059 63.7271 106.155 63.1969C107.194 62.6936 107.681 61.5409 107.078 61.0098C106.726 60.6996 106.422 60.686 106.158 60.9685C106.051 61.0825 105.857 61.2218 105.725 61.2784C105.505 61.3726 105.413 61.5092 105.043 62.288C105.011 62.3572 104.925 62.6426 104.854 62.922C104.522 64.2224 103.631 65.1024 102.94 64.8125C102.373 64.5749 102.217 63.4533 102.616 62.4827C102.983 61.5872 102.785 61.4656 102.094 62.1629C101.407 62.8561 100.962 62.6 101.224 61.6617C101.415 60.9784 100.853 60.8738 100.539 61.5345C100.458 61.7051 100.369 62.1312 100.341 62.4907C100.17 64.6271 97.3162 65.8619 96.1367 64.3098C95.3019 63.2111 95.9786 61.0603 97.1963 60.9428C97.8119 60.8835 97.896 61.0068 97.8328 61.8753C97.734 63.2362 98.422 63.3862 98.5805 62.0382C98.7311 60.7553 97.8986 60.0146 96.8675 60.5144ZM149.712 60.6469C149.631 60.7438 149.63 60.8745 149.703 61.2749C149.954 62.6411 149.765 63.2572 148.965 63.6845C148.461 63.9533 148.325 63.8512 148.252 63.1506C148.019 60.9185 144.429 61.1901 143.813 63.4864C143.463 64.7901 144.835 66.171 145.917 65.6047C146.042 65.5389 146.232 65.485 146.338 65.485C146.633 65.485 147.073 65.2284 147.625 64.7337C148.481 63.9673 149.246 64.1378 148.989 65.0378C148.881 65.416 148.901 65.8053 149.028 65.8053C149.197 65.8053 149.305 65.6302 149.364 65.2623C149.446 64.7479 149.602 64.6707 149.895 65.0004C150.06 65.1858 150.167 65.2479 150.234 65.1977C150.747 64.8156 150.747 64.8156 151.163 64.9121C152.26 65.1662 153.717 64.9006 154.344 64.3323C154.813 63.9076 155.468 63.9981 155.739 64.5251C156.018 65.0656 157.146 65.2512 157.87 64.8755C158.622 64.4854 159.613 63.3234 159.193 63.3234C159.155 63.3234 158.898 63.5347 158.622 63.793C157.935 64.4343 157.805 64.507 157.254 64.5586C156.012 64.6755 155.496 63.7409 156.527 63.2417C157.769 62.6407 158.239 61.2559 157.331 60.8751C156.936 60.7092 156.81 60.7337 156.468 61.0434C156.298 61.1965 156.134 61.3218 156.102 61.3218C155.914 61.3218 155.3 62.515 155.3 62.8817C155.3 62.966 155.116 63.208 154.892 63.4193C154.24 64.0333 154.024 63.9306 154.024 63.0072C154.023 61.514 152.564 60.7596 151.318 61.609C150.716 62.0199 150.115 61.7399 150.115 61.0479C150.115 60.6333 149.9 60.4193 149.712 60.6469ZM157.234 61.4981C157.721 62.0617 156.773 63.0755 156.063 62.7508C155.733 62.5998 155.833 61.8742 156.255 61.3646C156.401 61.1876 157.041 61.2749 157.234 61.4981ZM106.837 61.4998C107.297 62.1588 106.208 63.1757 105.576 62.6771C105.315 62.471 105.315 62.4714 105.6 61.8405L105.835 61.3218H106.274C106.637 61.3218 106.735 61.3524 106.837 61.4998ZM152.887 62.0284C153.699 62.6086 153.712 63.8016 152.913 64.3421C152.335 64.7331 150.69 64.5232 150.424 64.0249C149.759 62.7777 151.716 61.1913 152.887 62.0284ZM119.029 62.1956C119.107 62.2707 119.193 62.474 119.22 62.6475C119.247 62.8212 119.363 63.0788 119.477 63.2203C120.2 64.1181 120.217 64.2594 119.657 64.7849C118.431 65.9362 116.913 65.2127 117.177 63.6022C117.212 63.3827 117.244 63.1611 117.247 63.1096C117.28 62.457 118.597 61.7812 119.029 62.1956ZM146.306 62.2903C146.383 62.3839 146.446 62.5298 146.446 62.6148C146.446 62.8415 146.747 63.3996 147.055 63.744C147.377 64.1039 147.381 64.1611 147.122 64.5446C146.394 65.6189 145.059 65.6409 144.523 64.5876C143.88 63.3226 145.471 61.2726 146.306 62.2903ZM147.616 62.7321C147.738 62.9197 147.74 62.9633 147.635 63.1518C147.413 63.5479 146.935 63.3697 147.045 62.9321C147.157 62.4837 147.399 62.3991 147.616 62.7321ZM120.24 62.7956C120.773 62.9821 120.666 63.1775 119.983 63.2648C119.62 63.3111 119.587 63.2652 119.694 62.8629C119.75 62.6537 119.811 62.6463 120.24 62.7956ZM124.701 63.2952C125.021 63.4487 125.15 63.7347 125.004 63.9695C124.93 64.0884 124.969 64.1572 125.251 64.3967C125.909 64.9555 125.946 65.0078 125.946 65.3767C125.946 67.3909 124.093 67.9275 123.245 66.1588C122.666 64.9496 122.865 64.365 123.858 64.3629C124.567 64.3615 124.832 64.2621 124.482 64.1286C124.36 64.0821 124.164 64.0438 124.046 64.0434C123.252 64.0417 122.914 63.6648 123.304 63.214C123.464 63.0286 124.238 63.0736 124.701 63.2952ZM150.035 66.0856C150.035 66.2397 150.071 66.3658 150.115 66.3658C150.159 66.3658 150.195 66.2397 150.195 66.0856C150.195 65.9314 150.159 65.8053 150.115 65.8053C150.071 65.8053 150.035 65.9314 150.035 66.0856ZM148.768 66.2496C148.763 66.3399 148.72 66.4533 148.672 66.5014C148.557 66.6166 148.625 68.072 148.778 68.7677C148.953 69.564 149.172 69.9839 149.592 70.3294C149.964 70.6356 150.434 71.4061 150.434 71.7105C150.434 72.0191 149.612 74.1125 149.285 74.638C149.225 74.7339 149.116 74.9987 149.043 75.2265C148.97 75.4543 148.862 75.6806 148.803 75.7294C148.745 75.7782 148.615 76.0422 148.516 76.316C148.416 76.5899 148.293 76.8679 148.241 76.9339C148.19 77 148.087 77.1983 148.012 77.3745C147.938 77.5506 147.826 77.7847 147.763 77.8948C147.701 78.0049 147.539 78.3275 147.404 78.6117C147.269 78.8959 147.113 79.1841 147.057 79.2522C147 79.3203 146.886 79.538 146.803 79.7362C146.72 79.9343 146.572 80.1954 146.475 80.3162C145.997 80.908 146.167 81.0973 147.178 81.0973C147.564 81.0973 148.043 81.1413 148.244 81.1952C148.696 81.3166 148.954 81.1979 149.203 80.7543C149.294 80.5901 149.519 80.2889 149.702 80.0847L150.034 79.7136L151.608 79.7718C152.474 79.8039 153.255 79.8677 153.344 79.9133C153.58 80.035 153.864 80.3105 153.864 80.4175C153.864 80.7712 154.457 81.2705 154.817 81.2205C155.017 81.193 155.593 81.1506 156.098 81.1267C157.336 81.0677 157.412 80.971 156.891 80.1187C156.764 79.9107 156.636 79.6405 156.607 79.5183C156.578 79.3959 156.437 79.0617 156.294 78.7755C156.151 78.4893 155.989 78.1109 155.935 77.9347C155.88 77.7586 155.768 77.5286 155.687 77.4234C155.606 77.3183 155.489 77.066 155.427 76.8629C155.366 76.6599 155.191 76.2234 155.038 75.8932C154.518 74.7687 154.401 74.4924 154.214 73.9413C154.11 73.6384 153.993 73.3504 153.953 73.301C153.912 73.2514 153.817 72.9948 153.741 72.7306C153.665 72.4664 153.519 72.0522 153.416 71.8101C153.314 71.5679 153.176 71.1012 153.109 70.773C152.974 70.1055 152.862 69.9452 152.534 69.9481C152.096 69.9516 151.42 70.0994 151.23 70.2333C150.631 70.6541 150.036 70.3242 150.034 69.5703C150.033 69.0911 149.991 68.9841 149.774 68.9039C149.697 68.8751 149.561 68.7284 149.473 68.5779C149.384 68.4275 149.242 68.2862 149.157 68.2638C149.072 68.2415 148.961 68.1205 148.912 67.995C148.862 67.8695 148.79 67.7043 148.751 67.6277C148.653 67.4378 148.661 66.9228 148.765 66.6216C148.813 66.4847 148.835 66.3082 148.815 66.2292C148.783 66.1065 148.776 66.1094 148.768 66.2496ZM150.042 67.0502C150.048 67.3629 150.049 67.364 150.13 67.1393C150.189 66.9782 150.187 66.8864 150.124 66.823C150.059 66.7578 150.037 66.8181 150.042 67.0502ZM88.7747 69.888C88.6211 69.9232 88.2245 69.9759 87.8934 70.0055C87.5621 70.0351 87.2479 70.0862 87.195 70.1189C87.0463 70.2113 87.0062 79.0526 87.1531 79.3522C87.2163 79.481 87.4041 79.6331 87.6169 79.7275C87.8134 79.8148 88.0949 79.9786 88.2423 80.0913C88.3899 80.2043 88.5683 80.2967 88.6388 80.2967C88.7962 80.2967 89.1712 80.4531 89.3329 80.5862C89.4846 80.7109 90.1199 80.9341 90.33 80.9368C90.4178 80.9378 90.6691 81.0271 90.8884 81.1356C91.1078 81.2438 91.3552 81.3335 91.4385 81.3349C91.6492 81.3384 92.4231 80.8086 92.4827 80.6199C92.5602 80.3753 93.1578 79.9763 93.4471 79.9763C93.7199 79.9763 93.7509 80.0234 93.9729 80.7769C94.0936 81.1868 93.9891 81.1691 95.2584 80.9936C96.3683 80.8403 96.2531 81.4804 96.2849 75.2928L96.3125 69.9286L95.9536 69.9389C93.7898 70.001 93.6029 70.1018 93.6779 71.1658C93.7783 72.5928 93.8091 77.4249 93.7201 77.8543C93.583 78.5175 93.4731 78.5761 92.3753 78.5714C90.9167 78.565 89.9774 78.0755 89.7204 77.1874C89.5174 76.487 89.6213 71.1794 89.8573 70.1901C89.9381 69.8508 89.4889 69.7253 88.7747 69.888ZM115.217 69.9866C114.998 70.0284 114.675 70.1177 114.499 70.1849C114.324 70.2522 113.929 70.3481 113.623 70.3981C112.955 70.507 112.888 70.6327 113.265 71.064C113.606 71.4541 113.595 72.2339 113.241 72.6994C113.122 72.857 113.024 73.0479 113.024 73.1234C113.024 73.1989 112.884 73.5557 112.714 73.9164C112.544 74.2771 112.378 74.6623 112.344 74.7724C112.311 74.8825 112.219 75.0557 112.14 75.1576C112.061 75.2594 111.955 75.4757 111.905 75.638C111.823 75.9006 111.277 77.1004 111.095 77.4144C111.057 77.4804 110.934 77.7327 110.823 77.9749C110.712 78.217 110.586 78.4693 110.544 78.5354C110.501 78.6014 110.344 78.9082 110.196 79.217C110.047 79.5261 109.857 79.8683 109.774 79.9778C109.116 80.8448 109.225 81.0422 110.4 81.1092C110.9 81.1378 111.408 81.187 111.528 81.2187C111.822 81.2954 112.253 80.967 112.472 80.5012C112.813 79.773 112.812 79.773 114.682 79.7996C116.591 79.8265 116.649 79.843 116.941 80.4465C117.226 81.0331 117.562 81.2907 117.953 81.2222C118.115 81.1936 118.679 81.1502 119.206 81.1255C120.404 81.0697 120.62 80.8841 120.126 80.3366C120.047 80.2485 119.956 80.0864 119.924 79.9763C119.892 79.8662 119.73 79.488 119.564 79.1358C118.805 77.5263 118.687 77.2605 118.687 77.1675C118.687 77.1129 118.602 76.921 118.498 76.7409C118.394 76.5609 118.282 76.3236 118.25 76.2136C118.217 76.1033 118.081 75.7792 117.946 75.493C117.812 75.2068 117.623 74.7563 117.526 74.4922C117.43 74.228 117.269 73.8135 117.17 73.5714C116.65 72.3016 116.529 71.9761 116.442 71.6098C116.275 70.908 115.967 70.0129 115.87 69.951C115.763 69.8829 115.76 69.8831 115.217 69.9866ZM104.878 70.0029C104.851 70.031 104.51 70.0584 104.12 70.0635C103.589 70.0708 103.286 70.1201 102.911 70.2609C102.636 70.3644 102.347 70.4489 102.268 70.4489C102.058 70.4489 99.875 72.3568 99.8652 72.5489C99.8636 72.581 99.7196 72.7963 99.5454 73.0273C99.3713 73.2582 99.208 73.5428 99.1823 73.6596C99.1567 73.7763 99.0493 73.9897 98.9435 74.1337C98.4007 74.8722 98.3802 77.1084 98.9089 77.8948C98.9831 78.0049 99.0677 78.1732 99.0973 78.2687C99.2041 78.6144 99.9503 79.528 100.279 79.7154C100.461 79.8189 100.695 79.9897 100.8 80.095C100.905 80.2004 101.092 80.3088 101.216 80.3362C101.34 80.3635 101.503 80.4541 101.578 80.5374C101.653 80.621 101.971 80.7673 102.284 80.8629C102.597 80.9586 102.964 81.1037 103.099 81.1854C103.472 81.4105 105.241 81.3833 106.509 81.1329C107.598 80.9177 107.707 80.8586 107.587 80.5506C107.398 80.0646 107.362 78.7747 107.517 77.9749C107.888 76.0481 107.823 75.7759 106.99 75.7839C104.999 75.8028 104.869 75.8909 105.039 77.0971C105.265 78.6992 104.733 79.4687 103.85 78.8154C103.702 78.7053 103.538 78.6154 103.487 78.6154C103.068 78.6154 101.998 77.6026 101.609 76.838C101.282 76.1954 101.393 74.886 101.801 74.5722C101.859 74.5282 101.983 74.33 102.078 74.1319C102.174 73.9337 102.377 73.6273 102.531 73.4512C102.685 73.2751 102.811 73.1092 102.812 73.0829C102.813 73.0564 103.037 72.8586 103.309 72.6438C104.122 72.0028 104.7 72.1066 105.821 73.095C106.219 73.4454 106.45 73.4076 106.882 72.9214C107.079 72.6987 107.371 72.3847 107.531 72.2234C108.033 71.7146 108.132 71.2481 107.761 71.13C107.674 71.1024 107.458 70.958 107.28 70.8092C107.103 70.6605 106.878 70.5133 106.781 70.4823C106.684 70.4514 106.469 70.3364 106.304 70.2267C106.01 70.0312 105.003 69.8732 104.878 70.0029ZM123.473 70.0489C123.232 70.0806 122.865 70.0887 122.658 70.0666C122.129 70.0107 122.095 70.1298 122.219 71.5886C122.33 72.8835 122.347 78.878 122.244 80.2592C122.154 81.4673 122.123 81.4485 123.752 81.1753C124.548 81.0419 124.67 80.9082 124.67 80.1658C124.67 79.6212 124.705 79.1833 124.914 77.1341C125.116 75.1588 125.517 75.1777 127.134 77.2387C127.415 77.5967 127.672 77.8996 127.706 77.9121C127.739 77.9247 127.924 78.1391 128.117 78.3886C128.571 78.9775 129.324 79.8259 130.179 80.7103L130.862 81.4175H131.673C132.663 81.4175 132.618 81.5045 132.486 79.8428C132.423 79.057 132.4 77.2158 132.419 74.3989C132.434 72.0578 132.417 70.1123 132.38 70.0755C132.343 70.0387 131.84 70.0179 131.263 70.0294C129.81 70.058 129.901 69.9055 129.967 72.2103C130.083 76.2535 130.065 76.4537 129.596 76.4537C129.414 76.4537 128.687 75.7366 128.549 75.421C128.444 75.18 128.017 74.5745 127.641 74.1352C127.498 73.9685 127.382 73.7961 127.382 73.752C127.382 73.7078 127.192 73.4399 126.961 73.1563C126.729 72.8728 126.408 72.4422 126.248 72.1994C126.087 71.9566 125.896 71.708 125.823 71.6471C125.75 71.5862 125.658 71.4512 125.618 71.3471C125.515 71.0745 124.742 70.1617 124.526 70.0572C124.328 69.9613 124.149 69.9598 123.473 70.0489ZM135.621 70.1076C135.358 70.1545 135.364 70.0352 135.338 75.6446C135.311 81.3193 135.295 81.0973 135.743 81.0973C135.86 81.0973 136.208 81.1475 136.515 81.2088C136.861 81.278 137.664 81.3245 138.629 81.3312L140.184 81.3421L140.743 81.0599C141.05 80.9045 141.345 80.7773 141.399 80.7773C141.453 80.7771 141.554 80.6893 141.624 80.5819C141.694 80.4747 141.849 80.3652 141.969 80.3389C142.267 80.2732 143.397 79.2125 143.776 78.6422C143.947 78.3852 144.145 78.1029 144.217 78.0148C144.287 77.9267 144.427 77.6566 144.527 77.4144C144.627 77.1722 144.753 76.9199 144.808 76.8539C145.126 76.4712 145.108 75.1897 144.777 74.5473C144.693 74.3847 144.559 74.1078 144.478 73.9317C144.398 73.7555 144.251 73.5 144.153 73.3638C144.054 73.2273 143.973 73.0928 143.973 73.0644C143.973 72.6594 142.204 70.9934 141.062 70.3228L140.663 70.0887L138.23 70.0825C136.892 70.079 135.718 70.0903 135.621 70.1076ZM139.343 72.1769C139.936 72.3841 140.713 73.1985 141.147 74.0685C141.264 74.3016 141.404 74.5461 141.459 74.6121C141.743 74.9516 141.809 76.2004 141.566 76.636C140.601 78.3664 138.838 79.8197 138.326 79.3064C138.16 79.1403 138.074 73.1903 138.229 72.6127C138.383 72.0382 138.649 71.9343 139.343 72.1769ZM115.193 75.6329C115.566 76.0675 115.871 77.0664 115.828 77.7158C115.796 78.1847 114.205 78.4475 113.73 78.0619C113.442 77.8269 113.474 77.2347 113.804 76.7356C113.941 76.5269 114.096 76.2251 114.147 76.0646C114.285 75.6343 114.441 75.493 114.779 75.493C114.96 75.493 115.119 75.5467 115.193 75.6329ZM152.06 75.5833C152.278 75.6829 152.353 75.8397 152.555 76.6138C152.905 77.9537 152.775 78.1609 151.562 78.2024C150.407 78.2419 149.951 77.6681 150.559 76.9421C150.672 76.8078 150.822 76.4944 150.892 76.2458C151.075 75.602 151.533 75.3421 152.06 75.5833Z" fill="#653102"/>
<path fill-rule="evenodd" clip-rule="evenodd" d="M119.043 12.0843C117.711 12.2629 117.093 12.3901 116.872 12.5312C116.774 12.5936 116.491 12.6977 116.243 12.7625C115.995 12.8273 115.674 12.9442 115.53 13.0222C115.386 13.1002 115.048 13.2823 114.78 13.4265C114.273 13.6998 113.789 14.0475 113.38 14.4339C112.685 15.0891 112.378 15.4218 112.334 15.5658C112.307 15.6539 112.222 15.7981 112.146 15.8862C111.643 16.4654 111.303 17.5339 111.228 18.7685C111.174 19.6703 110.871 19.9022 110.25 19.5172C109.455 19.0242 107.416 19.0078 106.32 19.4856C106.079 19.5907 105.711 19.7203 105.503 19.7734C105.295 19.8263 105.031 19.9508 104.916 20.0498C104.801 20.1487 104.571 20.2751 104.403 20.3306C104.236 20.386 103.986 20.5345 103.849 20.6607C103.711 20.7868 103.57 20.8901 103.535 20.8901C103.5 20.8901 103.343 21.0072 103.187 21.1504C103.032 21.2934 102.665 21.6065 102.373 21.8463C102.081 22.086 101.62 22.551 101.349 22.8798C101.078 23.2086 100.74 23.6115 100.597 23.7749C100.455 23.9382 100.338 24.1043 100.338 24.1438C100.338 24.1833 100.249 24.3465 100.141 24.5063C100.033 24.6662 99.8826 24.9539 99.8074 25.1454C99.7322 25.337 99.5889 25.6197 99.4888 25.7738C99.389 25.9279 99.2566 26.1983 99.1947 26.3744C99.1327 26.5506 99.0083 26.8567 98.9179 27.0549C97.9138 29.2607 97.6795 31.6327 98.3314 32.9973C98.4214 33.1858 98.5542 33.6039 98.6266 33.9265C98.7555 34.5016 98.765 34.516 99.1028 34.6615C99.2922 34.743 99.5284 34.9197 99.6274 35.0541C99.956 35.5002 101.116 36.0228 101.902 36.0784C102.692 36.1343 102.72 36.0872 102.153 35.658C100.744 34.5932 100.052 33.394 99.8677 31.6985C99.7662 30.7679 99.8726 29.394 100.077 28.9998C100.163 28.8329 100.28 28.552 100.337 28.3759C100.393 28.1998 100.56 27.8133 100.708 27.5172C100.855 27.2212 100.976 26.931 100.976 26.8724C100.976 26.8139 101.079 26.6035 101.204 26.4047C101.33 26.2059 101.476 25.9107 101.53 25.7487C101.622 25.4656 101.835 25.1695 102.474 24.4308C103.1 23.7088 103.418 23.3934 103.668 23.2479C103.811 23.1652 103.927 23.0695 103.927 23.0356C103.927 23.0016 104.062 22.8835 104.227 22.7732C104.391 22.6631 104.615 22.5006 104.725 22.4123C104.835 22.3238 105.134 22.1971 105.39 22.1304C105.647 22.0637 106.006 21.9222 106.188 21.8158C106.37 21.7094 106.751 21.5808 107.034 21.53C107.317 21.4794 107.692 21.3642 107.867 21.2744C108.386 21.0088 109.631 21.1002 110.618 21.4765C111.394 21.7726 111.511 21.8516 112.198 22.551C112.426 22.7823 112.65 22.9718 112.697 22.9718C112.941 22.9718 112.559 21.7532 112.107 21.0903C111.38 20.0255 112.885 17.0195 114.772 15.766C114.938 15.6559 115.177 15.4977 115.303 15.4142C115.43 15.3308 115.715 15.1421 115.936 14.995C116.158 14.8479 116.463 14.7039 116.614 14.6746C116.766 14.6456 117.06 14.5366 117.267 14.4325C118.725 13.7022 123.175 13.665 124.253 14.3738C124.356 14.4415 124.642 14.55 124.889 14.6146C125.136 14.6792 125.448 14.8152 125.581 14.9168C125.714 15.0185 125.985 15.1796 126.182 15.2749C127.775 16.0432 129.567 18.2802 129.571 19.5028C129.572 20.124 129.567 20.1325 128.714 20.9644C128.594 21.0821 128.42 21.393 128.328 21.6549C128.237 21.9168 128.132 22.167 128.096 22.2111C127.957 22.3823 127.912 22.8917 128.037 22.8917C128.176 22.8917 128.554 22.6094 128.761 22.352C129.492 21.4399 131.92 20.8088 132.899 21.2761C133.088 21.366 133.475 21.4833 133.76 21.5368C134.045 21.5905 134.476 21.7345 134.717 21.857C134.959 21.9794 135.318 22.1214 135.515 22.1724C135.712 22.2234 135.964 22.3456 136.073 22.4442C136.183 22.5428 136.542 22.824 136.871 23.0693C137.749 23.7244 139.14 25.3191 139.302 25.8586C139.335 25.9662 139.464 26.2522 139.589 26.4944C139.714 26.7366 139.874 27.079 139.946 27.2551C140.017 27.4312 140.114 27.6473 140.162 27.7353C141.182 29.6201 141.214 32.259 140.236 33.8495C140.118 34.0417 139.986 34.2611 139.941 34.3368C139.749 34.6656 139.106 35.2995 138.645 35.6148C138.103 35.986 138.076 36.1022 138.531 36.1016C139.215 36.1004 139.741 35.9489 140.398 35.5639C141.463 34.9403 141.842 34.8304 141.926 35.1212C142.187 36.0195 142.143 37.1732 141.818 37.915C141.739 38.0977 141.647 38.3679 141.615 38.5156C141.583 38.6633 141.435 38.974 141.288 39.2059C141.14 39.438 141.019 39.658 141.019 39.6946C141.019 39.7314 140.927 39.8658 140.815 39.9934C140.703 40.1209 140.461 40.4094 140.277 40.6347C139.734 41.2987 138.261 42.5349 137.709 42.7905C137.533 42.8718 137.282 43.0154 137.15 43.1098C136.855 43.3214 135.037 43.902 134.279 44.0265C133.971 44.0769 133.631 44.179 133.521 44.2533C133.205 44.4674 131.17 44.4397 130.569 44.2131C130.328 44.122 129.969 44.022 129.772 43.9911C129.574 43.9602 129.263 43.83 129.081 43.7014C128.898 43.573 128.695 43.4679 128.629 43.4679C128.51 43.4679 127.677 42.76 127.474 42.487C127.358 42.3306 127.176 42.3033 127.097 42.4304C126.918 42.7216 127.935 44.3181 128.508 44.6446C128.686 44.7465 128.939 44.9197 129.069 45.0296C129.199 45.1393 129.355 45.2292 129.417 45.2292C129.478 45.2292 129.722 45.3152 129.959 45.4203C131.014 45.8886 133.096 45.974 134.279 45.5971C134.673 45.4714 135.248 45.3216 135.555 45.264C135.862 45.2065 136.311 45.0893 136.552 45.0037C136.793 44.9179 137.224 44.7666 137.509 44.6674C137.794 44.5683 138.099 44.424 138.187 44.3469C138.275 44.2697 138.547 44.1123 138.793 43.9973C139.038 43.8823 139.304 43.7162 139.383 43.6279C139.463 43.5399 139.57 43.4679 139.621 43.4679C139.671 43.4679 139.823 43.3506 139.957 43.2076C140.092 43.0644 140.389 42.8033 140.619 42.6273C140.848 42.4512 141.202 42.0942 141.406 41.8339C141.61 41.5736 141.852 41.2798 141.945 41.181C142.717 40.3555 143.444 38.1244 143.252 37.1635C143.055 36.1701 142.724 35.4701 142.306 35.1611C141.928 34.8816 141.831 34.4092 142.057 33.9432C142.564 32.8973 142.709 32.3388 142.753 31.2518C142.83 29.3567 142.561 28.3843 141.228 25.7339C141.007 25.2936 140.729 24.7384 140.611 24.5006C140.493 24.2625 140.302 23.9563 140.188 23.8199C139.036 22.4504 138.739 22.1144 138.589 22.0109C138.493 21.9448 138.328 21.8098 138.221 21.7107C137.964 21.4709 137.361 20.9868 136.953 20.6911C136.449 20.3269 135.201 19.6891 134.991 19.6891C134.925 19.6891 134.729 19.6166 134.556 19.5277C133.839 19.1609 132.215 19.0199 131.34 19.2487C130.419 19.4895 130.217 19.3668 130.127 18.5154C130.048 17.7565 129.681 16.6479 129.34 16.1314C129.182 15.8934 129.029 15.6327 128.999 15.5522C128.86 15.1849 126.834 13.4442 126.544 13.4442C126.494 13.4442 126.329 13.3516 126.178 13.2384C125.844 12.9884 125.524 12.8477 125.118 12.7714C124.95 12.7397 124.681 12.645 124.52 12.5609C123.577 12.0674 120.905 11.8351 119.043 12.0843ZM97.7572 35.2189C97.5973 35.3965 97.4663 35.5753 97.4663 35.6158C97.4663 35.6561 97.3792 35.7932 97.2728 35.9201C96.8331 36.4446 96.8111 38.457 97.2353 39.3508C97.3624 39.6185 97.4663 39.8707 97.4663 39.9113C97.4665 40.0158 98.0214 40.9067 98.2894 41.2327C98.4132 41.3831 98.6194 41.646 98.7478 41.817C98.8763 41.988 99.1879 42.3047 99.4402 42.5205C99.6926 42.7364 100.025 43.022 100.178 43.1555C100.566 43.4923 100.935 43.7393 101.495 44.036C101.758 44.1755 102.059 44.357 102.163 44.4393C102.268 44.5214 102.406 44.5886 102.471 44.5886C102.535 44.5886 102.773 44.6819 102.998 44.7958C103.497 45.0475 103.992 45.2255 104.206 45.2306C104.294 45.2327 104.564 45.3059 104.805 45.3934C106.12 45.8701 108.737 45.9522 109.75 45.5485C109.992 45.4524 110.412 45.3041 110.684 45.2191C110.957 45.1341 111.202 45.0281 111.229 44.9835C111.257 44.9388 111.423 44.8113 111.599 44.6998C112.393 44.1967 113.307 42.6796 113.001 42.3724C112.919 42.2903 112.802 42.3693 112.393 42.7833C112.114 43.0652 111.773 43.3403 111.636 43.3946C111.498 43.4489 111.27 43.5784 111.13 43.6821C110.989 43.786 110.702 43.9059 110.492 43.9485C109.964 44.0557 109.587 44.1551 109.352 44.2491C108.866 44.443 107.427 44.4537 106.878 44.2677C106.594 44.1709 106.127 44.0586 105.842 44.0181C105.2 43.9271 103.353 43.3405 103.11 43.1504C103.011 43.0732 102.805 42.9471 102.651 42.8701C102.296 42.6921 101.558 42.1954 101.339 41.9866C101.246 41.8985 100.942 41.6284 100.663 41.3862C99.8994 40.7236 98.9983 39.5559 98.7469 38.9043C98.6875 38.7502 98.5313 38.3718 98.3997 38.0635C98.1709 37.5277 98.0602 35.9074 98.1979 35.1098C98.2445 34.8407 98.0555 34.8874 97.7572 35.2189Z" fill="#2A8640"/>
<path fill-rule="evenodd" clip-rule="evenodd" d="M133.698 26.4356C133.565 26.5961 133.64 26.7547 133.929 26.9261C134.517 27.2747 134.352 27.8885 133.563 28.2916C133.299 28.4259 132.994 28.6002 132.885 28.679C132.469 28.9774 131.573 29.5366 131.511 29.5366C131.476 29.5366 131.259 29.657 131.029 29.8039C130.511 30.135 129.757 30.5827 129.335 30.8095C129.16 30.9037 128.801 31.1068 128.537 31.2607C128.274 31.4144 127.862 31.642 127.62 31.7665C127.379 31.8907 126.823 32.1887 126.384 32.4286C123.819 33.8307 121.804 34.6045 120.717 34.6045C119.888 34.6047 117.76 33.9379 116.174 33.1817C115.12 32.6792 114.073 32.1609 113.821 32.0171C113.667 31.9294 113.129 31.6545 112.624 31.406C112.12 31.1574 111.456 30.8165 111.148 30.6486C110.841 30.4805 110.375 30.23 110.111 30.0922C109.411 29.7255 109.019 29.5097 108.584 29.2521C108.097 28.9634 107.687 28.7368 107.085 28.4218C106.348 28.0372 106.32 27.9012 106.841 27.2591C107.394 26.5782 107.384 26.5757 104.934 26.735C103.198 26.8479 103.147 26.9 103.79 27.9148C104.02 28.278 104.37 28.8656 104.568 29.221C105.328 30.5901 105.467 30.7058 105.601 30.0805C105.776 29.2586 105.965 29.2158 106.843 29.7977C107.193 30.0296 107.569 30.2638 107.678 30.3183C107.788 30.3728 108.147 30.6148 108.476 30.856C108.805 31.0973 109.181 31.3541 109.31 31.427C109.439 31.4996 109.6 31.6142 109.667 31.6817C109.735 31.7492 109.97 31.9237 110.19 32.0695C110.41 32.2154 110.734 32.4426 110.909 32.5743C111.085 32.7062 111.408 32.9403 111.627 33.0946C111.846 33.249 112.241 33.5372 112.504 33.7354C113.454 34.45 113.628 34.5774 114.043 34.8667C115.03 35.5543 116.425 37.113 117.084 38.2636C118.757 41.1833 119.098 46.3344 117.853 49.8726C117.737 50.2029 117.607 50.584 117.566 50.7195C117.475 51.0134 116.866 52.0041 116.396 52.6198C116.113 52.9909 114.828 54.2928 113.361 55.6942C112.75 56.2776 113.177 56.4158 114.201 55.9665C114.496 55.8368 114.935 55.6578 115.177 55.5685C115.418 55.4794 116.01 55.2568 116.493 55.0739C116.975 54.8912 117.693 54.6228 118.088 54.478C118.483 54.3329 119.147 54.0835 119.564 53.9239C120.589 53.5311 120.878 53.4957 121.339 53.7068C121.542 53.7998 121.756 53.8761 121.813 53.8765C121.87 53.877 122.114 53.9704 122.356 54.0842C122.812 54.2992 123.486 54.5603 124.908 55.0722C125.369 55.2379 126.123 55.5261 126.583 55.7126C128.122 56.335 128.31 56.3767 128.244 56.0815C128.23 56.0173 127.429 55.1615 126.464 54.1796C124.322 52.0014 123.825 51.2387 123.348 49.4053C123.242 48.9944 123.133 48.6237 123.107 48.5815C122.665 47.863 122.659 42.1881 123.1 41.3321C123.165 41.2056 123.291 40.7957 123.379 40.4214C123.702 39.0595 124.876 37.0348 125.856 36.1529C125.96 36.0586 126.194 35.8403 126.374 35.6675C126.75 35.3078 127.816 34.4144 129.172 33.3222C129.434 33.1115 129.707 32.8854 129.78 32.8193C129.853 32.7533 130.174 32.501 130.493 32.2588C130.811 32.0167 131.278 31.6479 131.53 31.4397C131.782 31.2313 132.449 30.7189 133.014 30.3012C133.579 29.8835 134.164 29.4504 134.314 29.3391C134.817 28.9642 135.118 29.1551 135.118 29.8492C135.118 30.5942 135.473 30.2638 136.315 28.7329C136.512 28.3743 136.75 27.985 136.842 27.8679C137.719 26.7615 137.546 26.5284 135.796 26.4588C135.138 26.4327 134.419 26.3901 134.198 26.3642C133.896 26.3288 133.771 26.3467 133.698 26.4356ZM136.973 26.7305C137.121 26.7403 137.009 27.1728 136.768 27.5241C136.623 27.7362 136.457 28.0235 136.4 28.1628C136.342 28.3018 136.265 28.4158 136.228 28.4158C136.19 28.4158 136.036 28.686 135.884 29.0163C135.592 29.6496 135.413 29.7704 135.32 29.3965C135.164 28.7677 134.572 28.7307 133.986 29.3132C133.91 29.3885 133.705 29.5232 133.531 29.6128C133.356 29.7025 133.184 29.8243 133.148 29.8837C133.113 29.9432 132.976 30.0603 132.845 30.1438C132.713 30.2274 132.397 30.4582 132.143 30.6568C131.888 30.8553 131.547 31.115 131.385 31.2339C131.09 31.4498 130.937 31.5774 130.244 32.1794C130.041 32.3551 129.849 32.499 129.817 32.499C129.784 32.499 129.473 32.7512 129.125 33.0595C128.777 33.3677 128.466 33.6208 128.435 33.622C128.404 33.6233 128.222 33.7673 128.032 33.9422C127.842 34.1173 127.652 34.2603 127.61 34.2603C127.568 34.2603 127.398 34.3955 127.233 34.5607C127.067 34.7257 126.668 35.0951 126.347 35.3813C125.608 36.0399 125.565 36.0837 125.227 36.5004C125.074 36.6899 124.849 36.9383 124.729 37.0518C124.608 37.1654 124.509 37.2928 124.509 37.335C124.509 37.3772 124.369 37.6305 124.198 37.8977C124.027 38.165 123.861 38.4737 123.828 38.5837C123.796 38.6938 123.685 38.908 123.583 39.0599C123.48 39.2115 123.337 39.6078 123.264 39.9405C123.191 40.2732 123.065 40.6798 122.982 40.8442C122.833 41.1424 122.753 41.5416 122.584 42.8272C122.448 43.8599 122.475 46.5025 122.628 47.2305C122.697 47.5609 122.754 47.9492 122.754 48.0938C122.754 48.2383 122.823 48.5625 122.907 48.8144C122.991 49.066 123.15 49.5784 123.26 49.9527C123.476 50.6909 124.021 51.8603 124.229 52.0337C124.301 52.093 124.406 52.2527 124.464 52.3883C124.521 52.5239 124.989 53.0492 125.504 53.5556C126.019 54.0619 126.499 54.5453 126.571 54.6298C126.644 54.7142 126.873 54.9449 127.082 55.1422C127.793 55.8154 127.264 55.8607 126.025 55.2329C125.784 55.1105 125.461 54.9872 125.307 54.9591C125.153 54.9307 124.848 54.8228 124.629 54.7191C124.41 54.6154 124.033 54.4685 123.791 54.3924C123.55 54.3163 123.191 54.1735 122.994 54.0751C122.796 53.9767 122.421 53.8346 122.16 53.7591C121.899 53.6835 121.598 53.5527 121.491 53.4685C121.197 53.236 120.36 53.2549 119.93 53.5037C119.75 53.6072 119.424 53.7358 119.205 53.7891C118.985 53.8426 118.729 53.9362 118.635 53.9971C118.541 54.0582 118.218 54.1866 117.917 54.2827C117.616 54.3786 117.185 54.5436 116.958 54.6494C116.731 54.7551 116.339 54.8959 116.085 54.9621C115.832 55.0284 115.515 55.1502 115.381 55.2325C115.246 55.315 114.868 55.4623 114.538 55.5603C114.209 55.658 113.906 55.7693 113.865 55.8076C113.823 55.8459 113.735 55.8774 113.67 55.8774C113.605 55.8774 114.196 55.2282 114.982 54.4348C116.472 52.9333 116.932 52.429 116.932 52.2971C116.932 52.2543 117.004 52.1533 117.093 52.0724C117.339 51.8488 118.004 50.3881 118.167 49.7126C118.247 49.3823 118.373 48.9679 118.448 48.7918C118.522 48.6156 118.604 48.2372 118.63 47.951C118.656 47.6648 118.732 46.9805 118.801 46.4298C118.943 45.2786 118.958 44.4072 118.849 43.6432C118.808 43.3484 118.734 42.7471 118.687 42.3068C118.64 41.8663 118.534 41.3619 118.453 41.1858C118.371 41.0097 118.243 40.5953 118.167 40.265C118.022 39.6298 117.488 38.3327 117.26 38.0634C117.186 37.9753 117.043 37.7486 116.942 37.5597C116.841 37.3706 116.68 37.1309 116.586 37.0267C116.491 36.9226 116.162 36.5603 115.855 36.2216C115.548 35.8829 115.248 35.5644 115.188 35.5136C115.129 35.4628 114.95 35.3049 114.79 35.1626C114.63 35.0204 114.247 34.7259 113.94 34.5084C113.633 34.2909 113.252 34.0021 113.093 33.8665C112.934 33.7309 112.771 33.62 112.731 33.62C112.69 33.62 112.529 33.5029 112.372 33.3597C112.215 33.2167 111.844 32.9372 111.549 32.7391C111.253 32.5409 110.924 32.2975 110.817 32.1984C110.709 32.099 110.48 31.9451 110.307 31.8564C110.134 31.7677 109.992 31.6605 109.992 31.6181C109.992 31.5757 109.819 31.4531 109.608 31.3457C109.397 31.2383 109.175 31.0912 109.115 31.0187C109.055 30.9465 108.896 30.8313 108.761 30.763C108.626 30.6946 108.444 30.5749 108.357 30.4967C108.269 30.4185 108.017 30.2613 107.797 30.1475C107.578 30.0335 107.336 29.8675 107.26 29.7786C107.184 29.6895 107.071 29.6167 107.009 29.6167C106.947 29.6167 106.746 29.4907 106.562 29.3364C106.014 28.8774 105.52 29.0123 105.401 29.6541L105.347 29.9403L105.157 29.7185C105.052 29.5965 104.967 29.4586 104.967 29.4121C104.967 29.3656 104.874 29.2035 104.762 29.0519C104.649 28.9002 104.483 28.614 104.392 28.4158C104.302 28.2177 104.125 27.9372 103.999 27.7926C103.516 27.2377 103.656 27.072 104.651 27.0202C105.06 26.999 105.639 26.9574 105.938 26.9278C106.554 26.8669 106.658 27.0047 106.323 27.4331C105.908 27.9619 106.1 28.1732 107.796 29.0529C108.058 29.1889 108.301 29.3504 108.335 29.4121C108.369 29.4737 108.503 29.5473 108.632 29.5757C108.76 29.6041 109.003 29.7257 109.17 29.8461C109.337 29.9663 109.599 30.1138 109.752 30.1739C109.906 30.2339 110.106 30.3492 110.196 30.43C110.286 30.5107 110.538 30.6358 110.754 30.7078C110.971 30.78 111.238 30.9195 111.348 31.0179C111.457 31.1165 111.727 31.2617 111.946 31.3409C112.166 31.4202 112.417 31.5467 112.504 31.622C112.592 31.6975 112.808 31.8068 112.983 31.865C113.159 31.923 113.415 32.0521 113.552 32.1516C113.689 32.2512 113.959 32.3936 114.15 32.4681C114.342 32.5426 114.57 32.6671 114.658 32.7446C114.746 32.8224 115.015 32.9525 115.256 33.0337C115.498 33.115 115.821 33.2593 115.974 33.3543C116.128 33.4496 116.361 33.5533 116.493 33.5852C116.624 33.6169 116.934 33.7442 117.182 33.8681C117.429 33.992 117.806 34.1362 118.019 34.1885C118.232 34.2409 118.51 34.3358 118.637 34.3996C119.28 34.7241 120.676 34.9636 121.178 34.8358C121.365 34.7881 121.66 34.7261 121.833 34.6984C122.006 34.6704 122.319 34.5605 122.528 34.4539C122.737 34.3475 122.977 34.2603 123.061 34.2603C123.246 34.2603 123.786 34.0432 123.951 33.9025C124.017 33.8465 124.286 33.7212 124.549 33.6241C124.812 33.527 125.082 33.3992 125.147 33.3399C125.213 33.2807 125.464 33.1545 125.706 33.0597C125.947 32.9648 126.216 32.8235 126.304 32.7453C126.392 32.6673 126.625 32.5409 126.823 32.4648C127.02 32.3885 127.254 32.258 127.343 32.1751C127.432 32.092 127.66 31.9691 127.849 31.9023C128.038 31.8352 128.3 31.6899 128.431 31.5792C128.562 31.4687 128.715 31.3782 128.77 31.3782C128.826 31.3782 129.347 31.0899 129.929 30.7377C130.51 30.3854 131.022 30.0971 131.067 30.0971C131.112 30.0971 131.271 29.9891 131.421 29.857C131.571 29.7249 131.763 29.6167 131.848 29.6167C131.932 29.6167 132.12 29.5136 132.264 29.3872C132.408 29.2611 132.678 29.0802 132.865 28.9854C133.051 28.8905 133.204 28.7813 133.204 28.7424C133.204 28.7037 133.391 28.6053 133.619 28.5239C134.477 28.2179 134.911 27.4866 134.473 27.0881C134.011 26.6685 134.04 26.6576 135.536 26.6934C136.293 26.7115 136.94 26.7282 136.973 26.7305ZM119.766 28.4214C119.592 28.4648 119.376 28.565 119.287 28.6436C119.198 28.7222 119.03 28.8459 118.913 28.9183C118.602 29.1121 118.221 29.8329 118.162 30.3428C117.874 32.807 121.376 33.7235 122.393 31.4498C122.765 30.6169 122.469 29.2774 121.823 28.8761C121.699 28.799 121.485 28.663 121.347 28.5737C121.051 28.3815 120.237 28.3031 119.766 28.4214ZM121.079 28.6936C121.145 28.7479 121.351 28.8761 121.537 28.9788C122.463 29.4885 122.554 31.3109 121.691 32.0339C120.648 32.9076 119.144 32.6183 118.626 31.4449C118.316 30.7401 118.346 30.271 118.761 29.3749C119.029 28.7973 120.633 28.3257 121.079 28.6936ZM89.7895 54.5907C89.6225 54.7379 89.407 55.0881 89.211 55.5315L88.8986 56.2377L88.8533 57.6788C88.8285 58.4714 88.768 59.2099 88.7188 59.32C88.3865 60.0628 86.3304 62.8292 85.8958 63.1177C85.5044 63.3778 84.2728 63.3451 82.9159 63.0385C82.0217 62.8366 81.9141 62.8496 81.9141 63.1593C81.9141 63.6058 82.3917 63.8006 83.6344 63.8615C84.7386 63.9154 84.8712 63.987 84.6752 64.4232C84.4774 64.8636 82.6633 66.4457 82.3562 66.4457C82.0188 66.4457 81.8618 67.1224 82.1726 67.2377C82.6553 67.4171 83.3177 66.8866 85.4421 64.6191C86.0276 63.9942 86.0588 63.9868 88.4794 63.8901C90.6784 63.8023 90.6292 63.7944 91.2465 64.328C92.5739 65.4753 94.4843 66.2356 94.7563 65.7251C94.8668 65.5179 94.7376 65.2615 94.4949 65.2062C94.3973 65.184 94.1452 65.129 93.9344 65.0837C93.531 64.9975 92.3336 64.4298 92.2422 64.2815C92.0251 63.929 92.4068 63.6924 93.3445 63.5984C93.9316 63.5393 94.1183 63.4226 94.1183 63.1148C94.1183 62.8218 93.9715 62.808 92.8875 62.9988C91.0972 63.314 90.8564 63.1298 90.0794 60.8512C89.5891 59.4136 89.5979 59.2673 90.2637 57.7671C90.7379 56.6984 90.8002 56.4994 90.832 55.9477C90.9103 54.5879 90.4593 54.0006 89.7895 54.5907ZM90.6145 54.7765C90.8535 55.1582 90.799 56.2953 90.5116 56.9181C90.3996 57.1603 90.2305 57.5566 90.1354 57.7988C90.0401 58.0409 89.8836 58.3833 89.7875 58.5595C89.5013 59.0833 89.5585 59.7144 90.0003 60.9107C90.8322 63.1632 91.2998 63.5576 92.6882 63.1772C93.6399 62.9167 93.9492 62.8852 94.0095 63.0426C94.1122 63.3115 93.808 63.4673 93.0991 63.5086C92.3857 63.5504 92.2727 63.6033 92.1229 63.9665C91.9597 64.3621 92.8988 64.9593 94.0579 65.1965C94.5601 65.2994 94.7399 65.444 94.6519 65.6741C94.484 66.1134 92.505 65.2965 91.3611 64.3158C90.6702 63.7235 90.7416 63.7377 88.6299 63.7774C85.9251 63.8284 86.2316 63.7043 84.5116 65.4444C83.0407 66.9321 82.7047 67.1947 82.3273 67.151C82.0041 67.1134 82.0323 66.7788 82.377 66.5673C82.8116 66.3006 83.9081 65.4714 83.9081 65.4095C83.9081 65.3778 84.0606 65.2412 84.2472 65.106C84.4335 64.9706 84.6758 64.6916 84.7855 64.4858L84.985 64.1119L84.7966 63.9576C84.693 63.8728 84.5315 63.8029 84.4378 63.8019C82.9212 63.7868 82.1279 63.6216 82.0262 63.2994C81.9333 63.0058 82.1074 62.9656 82.8093 63.1187C85.3378 63.67 85.8599 63.5525 86.8781 62.2023C88.75 59.7204 88.9046 59.3897 88.9751 57.7187C89.0175 56.7148 89.0686 56.292 89.1881 55.9574C89.2746 55.7152 89.3793 55.4029 89.4205 55.2632C89.6286 54.5611 90.3064 54.2848 90.6145 54.7765ZM141.155 55.4302C140.943 55.5944 140.789 56.2774 140.739 57.2784C140.509 61.7938 140.777 61.3377 138.03 61.8883C136.949 62.1049 134.93 62.2274 134.617 62.0953C134.215 61.9257 134.047 61.5473 134.159 61.0623C134.202 60.8747 134.238 60.523 134.24 60.2809C134.243 59.9031 134.436 58.2745 134.606 57.1877C134.69 56.6531 134.226 56.2959 133.97 56.6979C133.768 57.0152 133.495 59.092 133.504 60.2407C133.517 61.8533 133.37 62.0934 132.542 61.8076C131.164 61.3319 130.814 60.8465 131.266 60.0399C131.577 59.4844 131.194 59.1553 130.668 59.5255C129.537 60.3204 130.726 62.2554 132.486 62.4842C133.461 62.6111 133.523 62.7352 133.523 64.557C133.523 66.0233 133.57 66.2053 133.945 66.2053C134.19 66.2053 134.241 65.914 134.241 64.4951C134.241 62.7253 134.271 62.6827 135.529 62.6827C136.572 62.6827 138.076 62.5189 138.58 62.3502C140.147 61.8253 140.468 62.0726 140.494 63.8247C140.514 65.2101 140.552 65.3247 140.989 65.3247C141.39 65.3247 141.404 65.2294 141.258 63.4955C141.114 61.7733 141.293 61.5996 142.83 61.9714C143.321 62.0901 143.494 62.0006 143.494 61.6276C143.494 61.3047 142.951 61.0535 142.217 61.0368C141.504 61.0208 141.519 61.0249 141.376 60.8068C141.196 60.5302 141.348 57.3566 141.589 56.3827C141.825 55.4278 141.651 55.0459 141.155 55.4302ZM89.8303 55.4971C89.7865 55.5521 89.7244 55.6872 89.692 55.7973C89.6598 55.9074 89.5288 56.1837 89.4009 56.4113C89.1596 56.8407 89.0825 57.3401 89.234 57.4922C89.347 57.6054 89.561 57.5222 89.6253 57.3403C89.7075 57.1082 89.9052 56.9181 90.0645 56.9181C90.276 56.9181 90.3918 56.5564 90.342 56.0519C90.285 55.4757 90.0503 55.2212 89.8303 55.4971ZM141.658 55.6171C141.657 55.6942 141.599 55.9193 141.528 56.1175C141.406 56.4597 141.35 57.0986 141.214 59.6928L141.158 60.7459L141.365 60.9537C141.552 61.1418 141.631 61.1615 142.194 61.1615C142.957 61.1617 143.361 61.3284 143.399 61.6591C143.432 61.9494 143.167 62.0171 142.691 61.8393C141.363 61.3422 141.039 61.7245 141.175 63.6263C141.278 65.0743 141.258 65.2446 140.982 65.2446C140.685 65.2446 140.583 65.0379 140.61 64.4936C140.649 63.7331 140.648 63.7198 140.583 63.0829C140.487 62.1586 140.215 61.8881 139.54 62.0453C139.367 62.0856 139.072 62.1193 138.883 62.1204C138.694 62.1214 138.375 62.1975 138.174 62.2895C137.798 62.4611 136.559 62.5949 135.294 62.6002C134.188 62.6047 134.152 62.6644 134.114 64.508C134.082 66.1004 134.045 66.2379 133.738 65.9298C133.653 65.844 133.632 65.6749 133.659 65.2693C133.772 63.5331 133.51 62.5784 132.892 62.4788C131.998 62.3344 130.961 61.828 130.608 61.3642C130.183 60.8049 130.3 59.7724 130.813 59.5595C131.278 59.3663 131.405 59.584 131.13 60.0998C130.819 60.6817 130.924 61.0123 131.547 61.4158C133.052 62.3907 133.556 62.2311 133.572 60.7747C133.582 59.9307 133.69 58.6881 133.848 57.5988C133.984 56.6578 133.981 56.6648 134.224 56.693C134.517 56.727 134.534 57.0035 134.328 58.4584C133.78 62.3484 133.794 62.3761 136.235 62.2121C137.524 62.1255 137.979 62.0586 138.947 61.8144C139.145 61.7646 139.437 61.7045 139.596 61.6809C140.592 61.5335 140.678 61.2494 140.822 57.6387C140.888 55.9883 141.03 55.477 141.423 55.477C141.595 55.477 141.659 55.515 141.658 55.6171ZM90.1995 55.8372C90.2885 56.1605 90.1795 56.678 90.0224 56.678C89.7451 56.678 89.6532 56.2858 89.8187 55.8093C89.9343 55.4765 90.1038 55.4891 90.1995 55.8372ZM124.788 56.429C124.135 56.7113 123.436 58.0274 122.996 59.8004C122.903 60.1747 122.795 60.607 122.757 60.7611C122.718 60.9152 122.643 61.3296 122.589 61.6819C122.505 62.228 122.432 62.4132 122.094 62.9383C121.529 63.8152 121.33 63.82 121.111 62.9621C120.494 60.5479 116.667 61.2743 116.475 63.842C116.325 65.8562 118.685 66.4959 120.358 64.8944C120.921 64.3558 121.026 64.3021 121.649 64.2381C122.314 64.1698 122.365 64.2317 122.441 65.1891C122.498 65.9247 122.66 66.5486 122.892 66.9259C124.037 68.7951 126.345 67.7411 126.391 65.328L126.406 64.5706L126.973 64.0307C127.38 63.6432 127.541 63.4348 127.541 63.2918C127.541 63.0255 127.412 62.9603 127.198 63.1181C126.214 63.8436 126.193 63.8457 125.551 63.2874C125.275 63.0477 124.937 62.8274 124.799 62.7979C124.016 62.6298 123.868 62.1134 124.414 61.4502C125.201 60.4953 126.268 58.214 126.265 57.4955C126.262 56.792 125.395 56.1663 124.788 56.429ZM125.745 56.6776C126.194 57.1004 126.06 58.5327 125.471 59.6002C124.792 60.8321 124.497 61.2737 124.236 61.4451C124.094 61.5383 124.04 61.6691 124 62.014C123.936 62.5615 123.994 62.644 124.558 62.8088C124.793 62.8774 125.007 62.9691 125.034 63.0128C125.137 63.1807 126.064 63.8035 126.211 63.8035C126.387 63.8035 126.871 63.5286 127.089 63.3049C127.243 63.1469 127.389 63.1481 127.442 63.3078C127.471 63.3959 127.342 63.5407 126.784 64.0416C126.372 64.4119 126.305 64.5891 126.298 65.3212C126.287 66.3827 125.955 66.9831 125.037 67.5988C123.884 68.3712 122.515 66.9554 122.515 64.9914C122.515 63.7708 121.572 63.6813 120.337 64.7846C119.93 65.1486 119.636 65.3395 119.325 65.4414C119.083 65.5204 118.803 65.6167 118.703 65.6551C117.247 66.2109 116.004 64.2776 116.894 62.8424C117.816 61.3564 120.599 61.1768 120.882 62.585C121.126 63.8039 121.542 64.144 121.908 63.4233C122.014 63.214 122.208 62.9076 122.339 62.7424C122.494 62.5471 122.608 62.2807 122.663 61.9819C123.484 57.5259 124.603 55.6006 125.745 56.6776ZM124.59 57.2984C124.13 57.8512 123.56 59.1965 123.314 60.3128C123.266 60.5284 123.154 60.8078 123.065 60.934C122.707 61.4372 123.103 61.9403 123.593 61.6064C123.758 61.4938 123.933 61.4014 123.982 61.4012C124.031 61.401 124.187 61.1578 124.329 60.8609C124.471 60.5638 124.694 60.1226 124.824 59.8805C125.601 58.434 125.836 57.3951 125.449 57.1228C125.144 56.9088 124.867 56.9656 124.59 57.2984ZM125.387 57.2385C125.709 57.5615 125.476 58.4675 124.707 59.8805C124.6 60.0786 124.399 60.4648 124.262 60.7385C124.125 61.0123 123.954 61.2529 123.882 61.273C123.81 61.2932 123.63 61.3344 123.48 61.3646L123.209 61.4195L123.269 61.1504C123.301 61.0025 123.374 60.629 123.43 60.3208C123.618 59.299 124.405 57.5134 124.816 57.1784C124.994 57.0331 125.204 57.0554 125.387 57.2385ZM88.2953 60.942C88.054 61.3037 87.7043 61.7623 87.5179 61.9611C87.3318 62.1599 87.1793 62.3619 87.1791 62.4101C87.1787 62.4582 87.1067 62.563 87.019 62.6426C86.6305 62.9957 86.9054 63.4066 87.5233 63.3963C90.3189 63.3492 90.4619 63.266 89.8529 62.0422C89.7541 61.844 89.5923 61.4344 89.4931 61.1317C89.1471 60.0761 88.8988 60.0368 88.2953 60.942ZM96.7905 60.4465C95.3373 61.2111 94.6632 63.3685 95.5058 64.558C96.6767 66.2111 98.6925 65.8584 100.635 63.6607C101.288 62.9218 101.856 63.123 101.856 64.0934C101.856 65.6626 102.935 66.034 104.26 64.9202C104.92 64.3654 104.951 64.3595 105.345 64.7095C105.735 65.0551 106.319 65.2747 106.661 65.2037C107.735 64.9809 108.605 64.2877 109.211 63.1716C109.483 62.671 110.034 62.8126 110.65 63.5414C111.441 64.4774 111.118 65.008 109.713 65.0823C108.827 65.1292 108.662 65.2628 109.051 65.6169C109.917 66.4039 111.471 65.6235 112.75 63.7591C113.254 63.0245 112.947 62.8265 112.327 63.4864C111.853 63.9901 111.72 63.9788 111.34 63.4033C111.18 63.1611 110.831 62.7611 110.565 62.5146C110.028 62.0177 109.938 61.8084 110.065 61.351C110.317 60.4385 109.939 59.942 109.417 60.501C109.152 60.786 109.094 60.9916 109.074 61.7218C109.03 63.3593 107.213 64.9813 106.087 64.3887C105.502 64.0807 105.623 63.5442 106.356 63.1957C106.999 62.8901 107.629 61.8763 107.477 61.3936C107.257 60.7002 106.586 60.4482 106.033 60.8523C105.301 61.3883 104.884 62.0467 104.785 62.8247C104.653 63.8623 103.632 64.9342 102.974 64.7247C102.492 64.5712 102.333 63.4825 102.665 62.6027C103.065 61.5399 102.82 61.2938 102.066 62.0027C101.382 62.6457 101.237 62.5669 101.339 61.607C101.39 61.1323 101.381 61.0895 101.216 61.0006C100.802 60.7784 100.346 61.463 100.26 62.436C100.092 64.3395 97.6454 65.6214 96.4043 64.4566C95.4844 63.5934 95.7739 61.7111 96.918 61.1173C97.5795 60.7741 97.8096 61.0008 97.7468 61.9344C97.6314 63.6496 98.5018 63.478 98.7089 61.7447C98.8407 60.6434 97.7802 59.9257 96.7905 60.4465ZM98.1964 60.6383C98.5566 60.8774 98.6681 61.2852 98.5797 62.0381C98.4213 63.386 97.7333 63.236 97.8321 61.8751C97.8952 61.0066 97.8112 60.8833 97.1956 60.9426C95.9779 61.0601 95.3012 63.2109 96.1359 64.3097C97.3155 65.8617 100.169 64.627 100.34 62.4905C100.369 62.1311 100.457 61.7049 100.538 61.5344C100.852 60.8737 101.414 60.9782 101.223 61.6615C100.961 62.5998 101.406 62.856 102.093 62.1628C102.784 61.4654 102.982 61.587 102.615 62.4825C102.375 63.0681 102.336 64.0611 102.539 64.4543C103.064 65.473 104.434 64.566 104.853 62.9218C104.925 62.6424 105.01 62.357 105.043 62.2879C105.412 61.5091 105.505 61.3724 105.724 61.2782C105.856 61.2216 106.051 61.0823 106.157 60.9683C106.421 60.6858 106.726 60.6994 107.078 61.0097C107.68 61.5407 107.193 62.6934 106.154 63.1967C105.059 63.727 105.718 64.8274 106.973 64.5642C108.093 64.3296 109.112 63.0198 109.176 61.7323C109.218 60.9023 109.338 60.5523 109.617 60.4463C110.031 60.2893 110.15 60.5691 109.98 61.3049C109.866 61.8031 109.922 62.029 110.235 62.3265C110.825 62.8881 110.985 63.0681 111.277 63.4977C111.702 64.1233 111.822 64.1446 112.315 63.6821C113.194 62.8568 112.714 63.7471 111.729 64.7685C110.679 65.8574 110.301 66.0276 109.514 65.7652C108.698 65.4932 108.815 65.1574 109.718 65.1792C111.141 65.2134 111.568 64.4817 110.707 63.4872C109.891 62.5455 109.385 62.5023 108.997 63.3407C108.3 64.8481 106.235 65.5574 105.324 64.6027C105.002 64.2652 104.827 64.3008 104.198 64.8307C102.902 65.9226 101.935 65.6023 101.935 64.0811C101.935 62.7315 101.156 62.7492 100.113 64.1222C98.5326 66.2014 95.2007 65.6589 95.2063 63.3233C95.2108 61.4426 96.9951 59.8403 98.1964 60.6383ZM89.1897 60.621C89.2531 60.7202 89.3675 60.9994 89.4443 61.2416C89.521 61.4837 89.6721 61.865 89.7799 62.0889C90.2787 63.1235 90.2338 63.1687 88.6208 63.2586C86.6627 63.3677 86.5544 63.1905 87.7455 61.8245C87.9534 61.586 88.259 61.1772 88.4249 60.916C88.7574 60.3922 88.987 60.3037 89.1897 60.621ZM149.586 60.6516C149.557 60.7675 149.578 61.165 149.633 61.535C149.806 62.7014 149.628 63.3012 149.042 63.5257C148.564 63.7088 148.486 63.6611 148.366 63.1111C147.798 60.5086 143.653 61.285 143.653 63.9938C143.654 65.9115 145.899 66.4212 147.57 64.8823C148.458 64.0648 149.217 64.206 148.841 65.1187C148.238 66.5802 148.457 69.1249 149.276 70.1685C150.293 71.4658 150.324 71.6652 149.717 73.0508C149.486 73.5792 149.199 74.2457 149.079 74.5319C148.604 75.6652 146.763 79.3755 146.179 80.3765C145.67 81.2473 145.878 81.3932 147.675 81.4298L149.024 81.4574L149.44 80.858C150.084 79.929 149.986 79.9644 151.661 80.0611C153.257 80.1535 153.455 80.2132 153.701 80.6784C153.961 81.1706 154.291 81.5123 154.506 81.5132C155.317 81.5163 157.273 81.3912 157.389 81.3288C157.62 81.2047 157.56 80.9237 157.094 79.9467C156.853 79.4412 156.655 79.0021 156.655 78.9712C156.655 78.9403 156.535 78.6584 156.389 78.3449C155.752 76.9846 155.459 76.3261 155.459 76.2605C155.459 76.2218 155.336 75.9337 155.186 75.6204C155.036 75.307 154.861 74.907 154.797 74.7313C154.734 74.5556 154.503 73.9615 154.284 73.4111C153.958 72.5901 153.441 71.0451 153.16 70.0508C153.041 69.6319 152.789 69.5934 151.739 69.834C150.124 70.2039 150.151 70.2245 150.225 68.7056C150.254 68.101 150.3 67.0755 150.326 66.4263C150.388 64.9426 150.272 65.0446 151.901 65.044C153.326 65.0436 153.763 64.9374 154.386 64.4409C154.863 64.0605 155.214 64.1037 155.669 64.5992C156.613 65.6274 157.961 65.3428 159.19 63.856C159.854 63.0521 159.472 62.8216 158.714 63.5685C157.932 64.3379 157.721 64.4539 157.073 64.4702C155.989 64.4973 155.766 63.7342 156.718 63.2514C157.358 62.9268 157.789 62.3728 157.877 61.7619C157.921 61.4537 157.917 61.4568 157.787 61.8451C157.586 62.4477 157.136 62.9463 156.531 63.2393C155.496 63.7405 156.008 64.6755 157.253 64.5584C157.804 64.5068 157.934 64.4342 158.621 63.7928C158.898 63.5346 159.155 63.3233 159.193 63.3233C159.612 63.3233 158.622 64.4852 157.869 64.8753C157.145 65.251 156.017 65.0654 155.738 64.5249C155.467 63.9979 154.812 63.9074 154.344 64.3321C153.717 64.9004 152.26 65.166 151.162 64.9119C150.746 64.8154 150.746 64.8154 150.233 65.1975C150.166 65.2477 150.059 65.1856 149.895 65.0002C149.601 64.6706 149.445 64.7477 149.363 65.2621C149.304 65.63 149.196 65.8051 149.028 65.8051C148.9 65.8051 148.88 65.4158 148.988 65.0377C149.247 64.1305 148.483 63.9642 147.618 64.7393C147.071 65.2286 146.631 65.4848 146.338 65.4848C146.231 65.4848 146.042 65.5387 145.916 65.6045C144.834 66.1708 143.462 64.7899 143.812 63.4862C144.428 61.1899 148.019 60.9183 148.251 63.1504C148.324 63.851 148.46 63.9531 148.964 63.6844C149.764 63.257 149.953 62.6409 149.702 61.2747C149.595 60.6901 149.686 60.4566 149.963 60.6056C150.077 60.6669 150.114 60.7753 150.114 61.0477C150.114 61.7397 150.715 62.0198 151.318 61.6088C152.563 60.7595 154.022 61.5138 154.023 63.007C154.023 63.9305 154.24 64.0331 154.891 63.4191C155.116 63.2078 155.299 62.9658 155.299 62.8815C155.299 62.5148 155.913 61.3216 156.102 61.3216C156.133 61.3216 156.298 61.1963 156.467 61.0432C156.636 60.8901 156.832 60.764 156.902 60.763C157.189 60.7588 157.557 60.957 157.699 61.192C157.783 61.3292 157.851 61.3932 157.851 61.334C157.852 61.1138 157.518 60.7632 157.222 60.6743C156.534 60.4675 155.522 61.4827 155.259 62.6426C155.182 62.9825 155.109 63.0881 154.775 63.3428C154.277 63.7224 154.232 63.7025 154.177 63.0765C154.027 61.3947 152.579 60.6259 151.257 61.5265C150.742 61.8768 150.301 61.6537 150.218 61.0012C150.144 60.4175 149.705 60.1747 149.586 60.6516ZM156.254 61.3644C155.833 61.8741 155.732 62.5996 156.062 62.7506C156.772 63.0753 157.72 62.0615 157.234 61.4979C157.041 61.2747 156.4 61.1874 156.254 61.3644ZM105.6 61.8403C105.315 62.4712 105.315 62.4708 105.576 62.677C105.944 62.9675 106.26 62.9002 106.634 62.4514C107.181 61.7963 107.029 61.3216 106.273 61.3216H105.834L105.6 61.8403ZM106.778 61.6117C106.968 61.8718 106.433 62.7628 106.088 62.7628C105.509 62.7628 105.409 62.0889 105.905 61.5379C106.075 61.3496 106.621 61.3957 106.778 61.6117ZM157.134 61.5617C157.341 61.7702 157.336 61.8381 157.076 62.25C156.565 63.0605 155.734 62.8615 156.059 62.0066C156.299 61.378 156.76 61.1868 157.134 61.5617ZM151.485 61.9325C150.539 62.2803 150.029 63.2848 150.423 64.0247C150.689 64.523 152.335 64.7329 152.912 64.342C154.322 63.3885 153.107 61.3364 151.485 61.9325ZM152.619 61.9936C153.112 62.2006 153.541 63.0305 153.426 63.5558C153.152 64.8105 150.354 64.7444 150.354 63.4829C150.354 62.5027 151.709 61.6119 152.619 61.9936ZM118.27 62.0691C117.98 62.1601 117.257 62.8951 117.246 63.1095C117.243 63.1609 117.212 63.3825 117.176 63.6021C116.913 65.2126 118.43 65.936 119.656 64.7848C120.216 64.2593 120.199 64.1179 119.476 63.2202C119.362 63.0786 119.247 62.821 119.219 62.6473C119.136 62.115 118.792 61.9054 118.27 62.0691ZM145.568 62.0251C144.972 62.2165 144.373 63.1387 144.372 63.8669C144.369 65.4644 146.194 65.9142 147.121 64.5444C147.381 64.1609 147.376 64.1037 147.054 63.7438C146.746 63.3994 146.445 62.8414 146.445 62.6146C146.445 62.2821 145.903 61.9177 145.568 62.0251ZM118.939 62.2547C119.019 62.3276 119.085 62.4673 119.085 62.5652C119.085 62.8675 119.313 63.3117 119.645 63.6549C120.041 64.0638 120.048 64.2726 119.681 64.6409C118.621 65.7051 117.24 65.2644 117.255 63.8669C117.267 62.757 118.351 61.72 118.939 62.2547ZM146.124 62.2803C146.211 62.3673 146.305 62.5385 146.335 62.6607C146.419 63.0105 146.672 63.4716 146.928 63.7405C147.343 64.1761 147.129 64.6562 146.342 65.0564C144.747 65.8679 143.725 63.7706 145.091 62.4883C145.53 62.0761 145.855 62.0107 146.124 62.2803ZM147.179 62.623C147.011 62.8259 146.987 63.1348 147.127 63.2757C147.306 63.4549 147.49 63.4101 147.634 63.1516C147.831 62.7992 147.424 62.3263 147.179 62.623ZM119.694 62.8628C119.587 63.265 119.62 63.3109 119.983 63.2646C120.665 63.1774 120.772 62.9819 120.239 62.7955C119.811 62.6461 119.75 62.6535 119.694 62.8628ZM147.546 62.9932C147.529 63.1409 147.475 63.2031 147.364 63.2031C147.179 63.2031 147.107 62.9667 147.242 62.8037C147.384 62.6321 147.574 62.7506 147.546 62.9932ZM123.303 63.2138C122.913 63.6646 123.251 64.0416 124.045 64.0432C124.163 64.0436 124.36 64.0819 124.481 64.1284C124.831 64.2619 124.566 64.3613 123.857 64.3628C122.865 64.3648 122.665 64.9494 123.245 66.1586C124.092 67.9274 125.945 67.3907 125.945 65.3765C125.945 65.0076 125.908 64.9554 125.25 64.3965C124.969 64.157 124.929 64.0883 125.003 63.9693C125.338 63.4315 123.732 62.7177 123.303 63.2138ZM124.283 63.2455C124.445 63.2903 124.657 63.3926 124.755 63.4724L124.934 63.6177L124.761 63.7907C124.423 64.1307 123.242 63.9395 123.234 63.5434C123.228 63.2428 123.746 63.0957 124.283 63.2455ZM125.267 64.6636C125.883 64.971 125.963 65.2016 125.724 65.9722C125.222 67.5846 123.949 67.5883 123.278 65.9796C123.02 65.3609 122.971 64.7175 123.171 64.5708C123.361 64.4311 124.942 64.501 125.267 64.6636ZM149.845 65.4541C149.921 65.7601 149.829 67.2733 149.722 67.4745C149.609 67.6868 149.122 67.7196 149.046 67.52C148.949 67.2663 149.001 66.7387 149.147 66.4951C149.23 66.3578 149.36 66.0473 149.437 65.8051C149.644 65.1543 149.747 65.0654 149.845 65.4541ZM150.194 66.0854C150.194 66.2395 150.158 66.3656 150.114 66.3656C150.07 66.3656 150.035 66.2395 150.035 66.0854C150.035 65.9313 150.07 65.8051 150.114 65.8051C150.158 65.8051 150.194 65.9313 150.194 66.0854ZM148.765 66.6214C148.66 66.9226 148.652 67.4377 148.75 67.6276C148.789 67.7041 148.862 67.8693 148.911 67.9949C148.961 68.1204 149.071 68.2414 149.156 68.2636C149.241 68.286 149.383 68.4274 149.472 68.5778C149.56 68.7282 149.696 68.8749 149.774 68.9037C149.99 68.984 150.032 69.0909 150.033 69.5702C150.035 70.3241 150.63 70.6539 151.229 70.2331C151.419 70.0992 152.095 69.9514 152.533 69.9479C152.862 69.9451 152.973 70.1054 153.109 70.7728C153.175 71.101 153.313 71.5677 153.415 71.8099C153.518 72.0521 153.664 72.4663 153.74 72.7305C153.816 72.9947 153.912 73.2512 153.952 73.3008C153.992 73.3502 154.11 73.6383 154.213 73.9412C154.4 74.4922 154.517 74.7685 155.037 75.893C155.19 76.2233 155.365 76.6597 155.427 76.8628C155.488 77.0658 155.605 77.3181 155.686 77.4233C155.768 77.5284 155.879 77.7584 155.934 77.9346C155.989 78.1107 156.15 78.4891 156.293 78.7753C156.436 79.0615 156.577 79.3957 156.606 79.5181C156.635 79.6403 156.763 79.9105 156.891 80.1185C157.412 80.9708 157.336 81.0675 156.097 81.1265C155.592 81.1504 155.016 81.1928 154.817 81.2204C154.456 81.2704 153.863 80.771 153.863 80.4173C153.863 80.3103 153.579 80.0348 153.343 79.9132C153.254 79.8675 152.473 79.8037 151.608 79.7716L150.033 79.7134L149.701 80.0846C149.518 80.2887 149.293 80.5899 149.202 80.7541C148.954 81.1977 148.696 81.3165 148.243 81.1951C148.043 81.1412 147.563 81.0971 147.177 81.0971C146.166 81.0971 145.996 80.9078 146.474 80.3161C146.572 80.1953 146.719 79.9342 146.803 79.736C146.886 79.5379 147 79.3202 147.056 79.2521C147.112 79.184 147.269 78.8957 147.404 78.6115C147.539 78.3274 147.7 78.0047 147.763 77.8946C147.825 77.7846 147.937 77.5504 148.012 77.3743C148.086 77.1982 148.189 76.9998 148.24 76.9338C148.292 76.8677 148.415 76.5897 148.515 76.3158C148.615 76.042 148.744 75.778 148.803 75.7292C148.861 75.6805 148.969 75.4541 149.042 75.2263C149.115 74.9986 149.224 74.7337 149.284 74.6379C149.611 74.1123 150.433 72.0189 150.433 71.7103C150.433 71.406 149.964 70.6354 149.592 70.3292C149.171 69.9837 148.952 69.5638 148.777 68.7675C148.625 68.0718 148.556 66.6165 148.671 66.5012C148.719 66.4531 148.763 66.3397 148.768 66.2494C148.775 66.1093 148.782 66.1064 148.814 66.229C148.834 66.308 148.812 66.4846 148.765 66.6214ZM150.13 67.1391C150.048 67.3638 150.047 67.3628 150.041 67.05C150.036 66.8179 150.058 66.7576 150.123 66.8228C150.186 66.8862 150.188 66.978 150.13 67.1391ZM88.734 69.649C88.4708 69.6823 88.0136 69.7346 87.7182 69.7652C86.766 69.8636 86.8486 69.4704 86.8103 74.0949C86.7922 76.2949 86.7701 78.329 86.7613 78.6152C86.7365 79.4198 87.1735 79.8938 88.4466 80.4432C88.6844 80.5457 88.9542 80.678 89.0458 80.737C89.1376 80.7959 89.4818 80.9348 89.8109 81.0457C90.1399 81.1566 90.5528 81.3021 90.7282 81.3689C91.4539 81.6453 91.8463 81.5412 92.5327 80.8901C93.2461 80.2136 93.4853 80.2144 93.6823 80.8942C93.8654 81.527 93.9269 81.5564 94.7034 81.3833C95.0615 81.3037 95.5638 81.2012 95.8192 81.1558C96.54 81.0276 96.4863 81.463 96.5392 75.3226C96.5951 68.815 96.7932 69.5556 95.0529 69.7638C93.3317 69.9698 93.3043 70 93.408 71.5695C93.5134 73.1623 93.4921 77.8261 93.3783 78.0516C93.0691 78.665 90.6432 78.3282 90.1721 77.6066C89.8445 77.1047 89.7955 72.3885 90.0962 70.2782C90.1907 69.6144 89.9357 69.4967 88.734 69.649ZM114.897 69.8123C112.58 70.3284 112.591 70.321 113.005 71.1113C113.326 71.7228 113.327 71.8856 113.017 72.5815C112.883 72.8835 112.67 73.365 112.546 73.6512C111.422 76.2309 109.63 79.8788 109.149 80.5681C108.756 81.1317 109.074 81.4171 110.097 81.4179C110.456 81.4181 110.958 81.4525 111.212 81.4944C111.907 81.6086 112.184 81.4872 112.484 80.937C113.007 79.9796 113.069 79.9572 114.904 80.0656C116.527 80.1615 116.542 80.1673 116.894 80.837C117.229 81.4724 117.508 81.6089 118.256 81.5002C118.559 81.4564 119.173 81.4198 119.621 81.4189C120.768 81.4167 120.836 81.2451 120.209 79.9397C119.562 78.5932 119.245 77.9084 119.245 77.858C119.245 77.8056 119.195 77.6905 118.568 76.2934C117.444 73.7877 116.373 70.8673 116.373 70.3066C116.373 70.0549 115.96 69.6449 115.721 69.6593C115.619 69.6652 115.249 69.7342 114.897 69.8123ZM104.488 69.7761C104.334 69.7938 103.873 69.8451 103.462 69.8901C102.314 70.016 101.702 70.3749 100.33 71.7288C99.8471 72.2056 99.2232 72.9523 99.2232 73.0539C99.2232 73.077 99.0847 73.3412 98.9153 73.6412C98.5785 74.2379 98.1863 75.4854 98.1863 75.9603C98.1863 77.2183 99.1906 79.2901 100.076 79.8591C100.26 79.9772 100.472 80.142 100.547 80.2253C100.622 80.3084 100.72 80.3765 100.764 80.3765C100.808 80.3765 101.009 80.4821 101.211 80.6109C101.412 80.7399 101.774 80.9206 102.015 81.0123C102.256 81.1043 102.545 81.2307 102.657 81.2934C103.531 81.7831 107.711 81.5432 107.769 80.9998C107.776 80.9432 107.772 80.3025 107.762 79.5759C107.75 78.7352 107.791 77.836 107.876 77.1025C108.076 75.3749 108.152 75.4545 106.411 75.5757C104.631 75.6994 104.644 75.6866 104.808 77.1825C104.962 78.584 104.721 78.9383 103.878 78.5551C101.871 77.644 101.152 76.151 102.018 74.6912C103.396 72.3656 104.258 72.0146 105.623 73.2237C106.261 73.7897 106.508 73.7109 107.471 72.6313C108.524 71.4529 108.535 71.3807 107.745 70.8354C106.273 69.8193 105.707 69.6352 104.488 69.7761ZM122.996 69.8175C121.787 69.9251 121.836 69.8099 122.004 72.1142C122.129 73.8251 122.12 78.6278 121.988 80.5611C121.918 81.5844 121.934 81.5967 123.227 81.5305C124.892 81.4453 124.846 81.5128 125.019 78.8944C125.19 76.3025 125.19 76.3074 125.353 76.127C125.619 75.8315 125.682 75.8907 128.04 78.6551C128.792 79.5358 129.565 80.4261 129.76 80.6335C129.954 80.8409 130.165 81.0846 130.228 81.1751C130.464 81.5126 130.909 81.6576 131.71 81.6576C132.782 81.6576 132.852 81.5827 132.756 80.5432C132.717 80.1212 132.685 77.5665 132.685 74.8658C132.685 69.0249 132.873 69.6897 131.25 69.7683C129.518 69.8521 129.604 69.6218 129.762 73.7685C129.866 76.5076 129.637 76.6465 128.301 74.6521C127.526 73.4934 127.412 73.3305 127.1 72.9307C126.439 72.0848 125.725 71.1148 125.626 70.9292C125.425 70.5496 124.804 69.8953 124.565 69.8119C124.299 69.7189 124.095 69.7195 122.996 69.8175ZM89.695 69.8897C89.8769 69.9593 89.9009 70.0039 89.8566 70.1899C89.6206 71.1792 89.5167 76.4868 89.7196 77.1872C89.9767 78.0753 90.916 78.5648 92.3746 78.5712C93.4724 78.5759 93.5823 78.5173 93.7194 77.8541C93.8084 77.4247 93.7776 72.5926 93.6772 71.1656C93.6021 70.1016 93.7891 70.0008 95.9529 69.9387L96.3118 69.9284L96.2842 75.2926C96.2524 81.4802 96.3676 80.8401 95.2577 80.9934C93.9884 81.1689 94.0929 81.1866 93.9722 80.7768C93.7501 80.0233 93.7192 79.9761 93.4463 79.9761C93.1571 79.9761 92.5595 80.3751 92.482 80.6198C92.4224 80.8084 91.6485 81.3383 91.4377 81.3348C91.3545 81.3333 91.1071 81.2436 90.8877 81.1354C90.6684 81.027 90.4171 80.9377 90.3293 80.9366C90.1192 80.934 89.4839 80.7107 89.3322 80.586C89.1704 80.4529 88.7955 80.2965 88.6381 80.2965C88.5675 80.2965 88.3892 80.2041 88.2416 80.0912C88.0942 79.9784 87.8127 79.8146 87.6161 79.7274C87.4033 79.6329 87.2156 79.4809 87.1524 79.3521C87.0054 79.0525 87.0456 70.2111 87.1942 70.1187C87.2471 70.086 87.5614 70.035 87.8927 70.0053C88.2238 69.9757 88.6204 69.923 88.774 69.8879C89.1762 69.7963 89.4515 69.7969 89.695 69.8897ZM135.863 69.8675C135.05 69.9068 135.119 69.4292 135.076 75.2632C135.055 78.0975 135.031 80.5348 135.024 80.679C134.987 81.4167 135.272 81.4914 138.229 81.5183L140.343 81.5375L140.965 81.2259C141.307 81.0545 141.723 80.815 141.89 80.6938C142.057 80.5726 142.297 80.4189 142.425 80.3523C143.332 79.877 144.949 77.5623 145.244 76.315C145.686 74.4496 142.853 70.4811 140.674 69.9138C140.29 69.814 137.53 69.7874 135.863 69.8675ZM115.869 69.9508C115.966 70.0128 116.275 70.9078 116.441 71.6097C116.528 71.9759 116.649 72.3014 117.17 73.5712C117.269 73.8134 117.429 74.2278 117.526 74.492C117.622 74.7562 117.811 75.2066 117.945 75.4928C118.08 75.779 118.216 76.1031 118.249 76.2134C118.281 76.3235 118.393 76.5607 118.497 76.7407C118.601 76.9208 118.686 77.1128 118.686 77.1673C118.686 77.2603 118.805 77.5261 119.563 79.1356C119.729 79.4879 119.891 79.8661 119.923 79.9761C119.955 80.0862 120.046 80.2484 120.125 80.3364C120.619 80.884 120.403 81.0696 119.205 81.1253C118.678 81.15 118.114 81.1934 117.952 81.222C117.562 81.2905 117.226 81.0329 116.941 80.4463C116.648 79.8428 116.59 79.8263 114.681 79.7994C112.812 79.7728 112.812 79.7728 112.471 80.501C112.253 80.9669 111.821 81.2953 111.528 81.2185C111.407 81.1868 110.899 81.1377 110.399 81.1091C109.225 81.042 109.116 80.8447 109.774 79.9776C109.857 79.8681 110.046 79.5259 110.195 79.2169C110.344 78.908 110.5 78.6012 110.543 78.5352C110.585 78.4691 110.711 78.2169 110.823 77.9747C110.934 77.7325 111.056 77.4802 111.094 77.4142C111.276 77.1002 111.823 75.9004 111.904 75.6379C111.954 75.4755 112.06 75.2593 112.139 75.1574C112.218 75.0556 112.31 74.8823 112.343 74.7722C112.377 74.6621 112.543 74.277 112.713 73.9163C112.884 73.5556 113.023 73.1988 113.023 73.1233C113.023 73.0477 113.121 72.8568 113.241 72.6992C113.594 72.2337 113.606 71.4539 113.264 71.0638C112.887 70.6325 112.955 70.5068 113.622 70.3979C113.929 70.3479 114.323 70.2521 114.499 70.1848C114.763 70.0833 115.358 69.942 115.695 69.9006C115.739 69.8953 115.817 69.9177 115.869 69.9508ZM106.304 70.2265C106.469 70.3362 106.683 70.4512 106.78 70.4821C106.878 70.5132 107.102 70.6603 107.28 70.8091C107.457 70.9578 107.673 71.1023 107.76 71.1298C108.131 71.2479 108.033 71.7144 107.53 72.2233C107.37 72.3846 107.078 72.6986 106.881 72.9212C106.45 73.4074 106.218 73.4453 105.821 73.0949C104.699 72.1064 104.121 72.0027 103.308 72.6436C103.036 72.8584 102.812 73.0562 102.811 73.0827C102.81 73.1091 102.684 73.2749 102.53 73.451C102.377 73.6272 102.173 73.9335 102.078 74.1317C101.983 74.3298 101.858 74.528 101.801 74.572C101.393 74.8858 101.282 76.1953 101.608 76.8379C101.997 77.6025 103.067 78.6152 103.486 78.6152C103.538 78.6152 103.701 78.7051 103.85 78.8152C104.732 79.4685 105.264 78.699 105.038 77.0969C104.868 75.8907 104.999 75.8027 106.989 75.7837C107.822 75.7757 107.888 76.0479 107.516 77.9747C107.362 78.7745 107.397 80.0644 107.586 80.5504C107.707 80.8584 107.597 80.9175 106.508 81.1327C105.24 81.3831 103.471 81.4103 103.099 81.1852C102.963 81.1035 102.597 80.9584 102.283 80.8628C101.97 80.7671 101.652 80.6208 101.577 80.5372C101.502 80.4539 101.339 80.3634 101.215 80.336C101.091 80.3086 100.904 80.2002 100.799 80.0949C100.694 79.9895 100.46 79.8187 100.278 79.7152C99.9496 79.5278 99.2034 78.6142 99.0965 78.2685C99.067 78.173 98.9824 78.0047 98.9082 77.8946C98.3795 77.1082 98.4 74.872 98.9428 74.1335C99.0486 73.9895 99.156 73.7761 99.1816 73.6595C99.2072 73.5426 99.3706 73.258 99.5447 73.0272C99.7189 72.7961 99.8628 72.5809 99.8645 72.5488C99.8743 72.3566 102.058 70.4488 102.268 70.4488C102.346 70.4488 102.635 70.3642 102.911 70.2607C103.286 70.12 103.589 70.0706 104.119 70.0634C104.509 70.0582 104.85 70.0309 104.877 70.0027C105.002 69.8731 106.009 70.0311 106.304 70.2265ZM124.526 70.057C124.741 70.1615 125.514 71.0743 125.617 71.3469C125.657 71.451 125.749 71.586 125.822 71.6469C125.895 71.7078 126.086 71.9564 126.247 72.1992C126.407 72.442 126.728 72.8726 126.96 73.1562C127.191 73.4397 127.381 73.7076 127.381 73.7519C127.381 73.7959 127.497 73.9683 127.64 74.135C128.016 74.5743 128.444 75.1798 128.549 75.4208C128.686 75.7364 129.413 76.4535 129.595 76.4535C130.064 76.4535 130.082 76.2533 129.966 72.2101C129.9 69.9054 129.81 70.0578 131.262 70.0292C131.84 70.0177 132.342 70.0385 132.379 70.0753C132.416 70.1121 132.433 72.0576 132.418 74.3988C132.4 77.2156 132.422 79.0568 132.485 79.8426C132.618 81.5043 132.662 81.4173 131.672 81.4173H130.861L130.178 80.7101C129.324 79.8257 128.57 78.9774 128.116 78.3885C127.923 78.1389 127.739 77.9245 127.705 77.9119C127.672 77.8994 127.414 77.5965 127.134 77.2385C125.517 75.1776 125.116 75.1586 124.914 77.134C124.704 79.1831 124.669 79.621 124.669 80.1656C124.669 80.908 124.548 81.0418 123.751 81.1751C122.123 81.4484 122.154 81.4671 122.243 80.2591C122.346 78.8778 122.329 72.8833 122.218 71.5885C122.094 70.1296 122.129 70.0105 122.657 70.0665C122.864 70.0885 123.231 70.0805 123.472 70.0488C124.148 69.9597 124.327 69.9611 124.526 70.057ZM141.061 70.3226C142.203 70.9932 143.972 72.6593 143.972 73.0642C143.972 73.0926 144.053 73.2272 144.152 73.3636C144.25 73.4998 144.397 73.7554 144.478 73.9315C144.558 74.1076 144.693 74.3846 144.776 74.5471C145.108 75.1895 145.125 76.471 144.807 76.8537C144.753 76.9198 144.626 77.172 144.526 77.4142C144.427 77.6564 144.287 77.9265 144.216 78.0146C144.145 78.1027 143.947 78.385 143.776 78.642C143.396 79.2123 142.266 80.273 141.968 80.3387C141.848 80.365 141.693 80.4745 141.623 80.5817C141.553 80.6891 141.452 80.777 141.398 80.7772C141.344 80.7772 141.049 80.9043 140.742 81.0597L140.183 81.342L138.628 81.3311C137.664 81.3243 136.86 81.2778 136.514 81.2086C136.207 81.1473 135.86 81.0971 135.742 81.0971C135.294 81.0971 135.31 81.3191 135.337 75.6444C135.35 72.7648 135.38 70.3479 135.403 70.2737C135.463 70.0805 135.54 70.0753 138.229 70.0823L140.662 70.0885L141.061 70.3226ZM138.436 72.1737C138.105 72.506 138.004 78.9846 138.325 79.3062C138.669 79.6516 139.217 79.3681 140.314 78.2761C140.903 77.6899 141.181 77.3261 141.566 76.6358C141.809 76.2002 141.742 74.9514 141.459 74.6119C141.403 74.5459 141.263 74.3014 141.147 74.0683C140.45 72.672 138.97 71.6379 138.436 72.1737ZM139.328 72.414C140.206 72.7807 141.5 74.7947 141.5 75.794C141.5 76.9895 139.098 79.556 138.521 78.977C138.42 78.8757 138.405 78.3977 138.416 75.7274L138.428 72.5963L138.617 72.4432C138.845 72.2578 138.945 72.2539 139.328 72.414ZM114.361 75.6327C114.294 75.7099 114.198 75.9041 114.146 76.0644C114.095 76.2249 113.941 76.5267 113.803 76.7354C113.473 77.2346 113.441 77.8268 113.73 78.0617C114.204 78.4473 115.796 78.1846 115.827 77.7156C115.896 76.6704 115.34 75.4928 114.778 75.4928C114.597 75.4928 114.436 75.5467 114.361 75.6327ZM151.265 75.6434C151.077 75.7586 150.99 75.8992 150.891 76.2457C150.821 76.4942 150.671 76.8076 150.559 76.942C149.95 77.6679 150.406 78.2418 151.561 78.2023C152.848 78.1582 153.018 77.6512 152.338 75.8833C152.19 75.4984 151.686 75.3858 151.265 75.6434ZM115.076 76.0331C115.158 76.1543 115.328 76.5156 115.454 76.8362L115.683 77.4193L115.523 77.6333C114.912 78.4558 113.359 77.8412 113.927 77.0014C114.029 76.8502 114.155 76.6037 114.208 76.4535C114.44 75.7831 114.791 75.6134 115.076 76.0331ZM152.137 76.156C152.749 77.1593 152.506 77.9747 151.597 77.9747C150.688 77.9747 150.541 77.7191 150.913 76.784C151.303 75.8012 151.774 75.5601 152.137 76.156Z" fill="#672E00"/>
<path fill-rule="evenodd" clip-rule="evenodd" d="M119.165 11.7255C118.661 11.7882 118.104 11.879 117.929 11.9275C117.753 11.9759 117.359 12.0829 117.052 12.165C114.982 12.7193 112.99 14.0411 111.987 15.5251C111.301 16.5415 111.055 17.2248 110.958 18.3911C110.875 19.3783 110.887 19.3709 109.895 19.0611C107.775 18.3993 105.202 19.1411 102.762 21.1172C101.114 22.4526 100.313 23.4518 99.3854 25.3335C97.8736 28.3991 97.6722 29.1039 97.7268 31.138C97.7575 32.2823 97.7799 32.4349 98.0134 33.0967C98.3617 34.0839 98.3508 34.2183 97.885 34.6693C96.0903 36.4074 96.212 39.2685 98.1802 41.6053C98.3375 41.7917 98.5917 42.0948 98.7452 42.2785C99.0771 42.6761 100.52 43.843 100.953 44.0637C101.121 44.1493 101.366 44.2965 101.497 44.3907C101.823 44.6244 102.966 45.1905 103.256 45.2617C103.385 45.2934 103.877 45.4613 104.348 45.6345C104.834 45.8131 105.353 45.9506 105.545 45.9516C105.732 45.9526 106.028 45.9903 106.203 46.0351C107.396 46.3399 109.844 46.0351 110.949 45.444C112.607 44.5574 113.897 42.6637 113.272 42.0355C113.013 41.7763 112.907 41.8209 112.284 42.4499C110.808 43.9427 108.527 44.4092 106.004 43.7347C105.763 43.6701 105.16 43.5133 104.665 43.3864C103.802 43.165 103.597 43.0707 102.225 42.2668C101.844 42.0438 100.288 40.694 100.101 40.4255C100.035 40.3306 99.8487 40.0746 99.6866 39.8563C98.1329 37.7668 97.9861 33.9004 99.5154 35.3481C100.013 35.8189 100.426 36.0582 101.058 36.2409C102.908 36.7755 103.921 36.3716 102.654 35.6047C100.271 34.1635 99.4937 31.1847 100.744 28.2884C101.109 27.4421 101.27 27.0862 101.863 25.8139C102.176 25.1432 103.326 23.8508 104.09 23.3106C104.375 23.109 104.701 22.8592 104.814 22.7553C105.015 22.5718 105.749 22.2942 107.559 21.7172C109.24 21.1816 110.596 21.486 111.88 22.6872C113.498 24.201 113.68 23.6053 112.418 20.9224C112.079 20.2028 112.285 19.3304 113.118 17.9489C113.441 17.4129 114.71 16.095 115.094 15.8965C115.336 15.7716 116.093 15.315 116.374 15.1253C116.483 15.051 116.77 14.9421 117.012 14.8831C117.253 14.824 117.558 14.7228 117.69 14.658C118.493 14.2627 120.971 14.0567 122.396 14.2668C125.465 14.7197 127.949 16.389 129.074 18.7555C129.439 19.5244 129.395 19.7864 128.789 20.453C128.231 21.0666 127.876 21.7685 127.668 22.6693C127.41 23.7886 127.863 23.8135 128.836 22.7335C129.943 21.5063 131.657 21.1699 133.538 21.8113C133.99 21.9658 134.632 22.1812 134.963 22.2901C135.297 22.3999 135.759 22.6306 136 22.8078C136.239 22.9835 136.562 23.2139 136.717 23.3199C137.979 24.1816 138.716 25.286 140.065 28.336C140.556 29.444 140.766 30.8392 140.579 31.7374C140.514 32.0462 140.425 32.4761 140.381 32.6923C140.155 33.7946 138.977 35.2364 137.948 35.6676C137.493 35.8584 137.382 36.3446 137.765 36.4666C138.272 36.6283 140.234 36.1837 140.623 35.8191C141.262 35.2185 141.74 35.4166 141.739 36.282C141.738 37.2002 141.515 38.0788 141.042 39.0242C140.621 39.8656 139.213 41.4304 138.382 41.9792C138.189 42.1072 137.926 42.2831 137.8 42.3701C136.882 43.0002 136.631 43.0936 133.962 43.8018C131.679 44.4076 129.426 43.9347 127.946 42.5397C127.095 41.737 126.743 41.6997 126.743 42.4127C126.745 44.5816 130.858 46.782 133.594 46.0783C133.869 46.0076 134.197 45.9497 134.323 45.9497C134.448 45.9497 134.867 45.844 135.254 45.715C135.64 45.5858 136.257 45.4037 136.624 45.3102C137.448 45.101 139.362 44.124 139.947 43.6141C140.077 43.5008 140.442 43.1874 140.757 42.9179C141.073 42.6485 141.45 42.28 141.595 42.0993C141.74 41.9187 142.01 41.5946 142.195 41.3794C142.619 40.8849 143.376 39.3162 143.447 38.7841C143.477 38.5639 143.54 38.1979 143.588 37.9705C143.756 37.1792 143.39 36.0109 142.705 35.151C142.233 34.5596 142.195 34.3189 142.484 33.7722C143.157 32.5002 143.283 29.78 142.737 28.336C141.478 25.0104 140.07 22.8179 138.225 21.3102C136.958 20.2746 134.981 19.1288 134.461 19.1288C134.368 19.1288 134.024 19.0534 133.699 18.9617C133.026 18.7722 131.696 18.7792 131.07 18.9757C130.57 19.1323 130.415 18.9518 130.331 18.1158C130.127 16.0876 128.589 14.1183 126.319 12.9796C125.395 12.516 125.063 12.3909 123.74 12.0084C122.601 11.6788 120.559 11.5524 119.165 11.7255ZM121.97 12.0446C123.321 12.1987 124.151 12.3668 124.523 12.5609C124.683 12.645 124.953 12.7397 125.121 12.7713C125.527 12.8477 125.847 12.9884 126.18 13.2384C126.331 13.3516 126.496 13.4442 126.547 13.4442C126.836 13.4442 128.863 15.1849 129.001 15.5522C129.031 15.6327 129.185 15.8934 129.342 16.1314C129.684 16.6479 130.05 17.7565 130.13 18.5154C130.219 19.3668 130.422 19.4895 131.343 19.2487C132.218 19.0199 133.841 19.1609 134.558 19.5277C134.731 19.6166 134.927 19.689 134.993 19.689C135.203 19.689 136.452 20.3269 136.955 20.6911C137.364 20.9868 137.966 21.4709 138.224 21.7106C138.33 21.8098 138.496 21.9448 138.591 22.0109C138.741 22.1144 139.038 22.4504 140.19 23.8199C140.305 23.9563 140.495 24.2625 140.613 24.5006C140.732 24.7384 141.009 25.2936 141.231 25.7339C142.564 28.3843 142.832 29.3567 142.755 31.2518C142.711 32.3388 142.567 32.8973 142.06 33.9432C141.834 34.4092 141.93 34.8816 142.309 35.1611C142.727 35.4701 143.058 36.1701 143.255 37.1635C143.441 38.1006 142.672 40.4927 141.975 41.1458C141.904 41.2121 141.691 41.4746 141.501 41.7298C141.312 41.9849 140.937 42.3703 140.67 42.5862C140.403 42.8022 140.076 43.0888 139.944 43.2234C139.813 43.3578 139.666 43.4678 139.619 43.4678C139.572 43.4678 139.452 43.5549 139.352 43.6615C139.253 43.7681 138.986 43.9339 138.76 44.0302C138.534 44.1265 138.277 44.2691 138.19 44.3469C138.102 44.4248 137.797 44.5705 137.512 44.6707C137.227 44.7709 136.796 44.922 136.554 45.0061C136.313 45.0905 135.865 45.2065 135.557 45.2639C135.25 45.3216 134.676 45.4713 134.281 45.5971C133.098 45.974 131.016 45.8886 129.961 45.4203C129.724 45.3152 129.48 45.2292 129.419 45.2292C129.358 45.2292 129.207 45.1452 129.083 45.0425C128.959 44.9399 128.706 44.7668 128.522 44.658C128.328 44.544 128.013 44.2251 127.777 43.9041C126.834 42.6234 126.839 41.8736 127.784 42.7981C128.048 43.0563 128.422 43.3444 128.616 43.4384C128.809 43.5323 129.059 43.6812 129.17 43.7693C129.282 43.8576 129.543 43.9551 129.75 43.9864C129.957 44.0176 130.326 44.1187 130.569 44.2109C131.171 44.4397 133.205 44.4689 133.523 44.2532C133.633 44.179 133.974 44.0769 134.281 44.0265C135.076 43.8958 136.866 43.3164 137.173 43.0903C137.315 42.9851 137.565 42.8432 137.729 42.7748C138.359 42.5102 140.543 40.5794 140.543 40.2862C140.543 40.2452 140.65 40.1154 140.782 39.9977C140.914 39.88 141.021 39.7485 141.021 39.7057C141.021 39.6629 141.142 39.438 141.29 39.2059C141.438 38.974 141.585 38.6633 141.617 38.5156C141.649 38.3678 141.74 38.0977 141.818 37.915C142.145 37.1516 142.19 36.0193 141.929 35.1211C141.844 34.8286 141.295 35.0045 140.226 35.667C139.78 35.9432 139.167 36.1006 138.533 36.1016C138.079 36.1022 138.106 35.986 138.648 35.6148C139.108 35.2995 139.751 34.6656 139.944 34.3368C139.988 34.2611 140.121 34.0417 140.239 33.8495C141.216 32.259 141.184 29.6201 140.164 27.7353C140.117 27.6473 140.019 27.4312 139.948 27.2551C139.877 27.079 139.716 26.7366 139.591 26.4944C139.466 26.2522 139.337 25.9662 139.305 25.8586C139.142 25.3191 137.752 23.7244 136.874 23.0693C136.545 22.824 136.186 22.5436 136.076 22.446C135.966 22.3485 135.671 22.21 135.419 22.138C135.168 22.0662 134.836 21.9329 134.683 21.8419C134.529 21.7508 134.143 21.6232 133.824 21.5582C133.505 21.4932 133.09 21.3664 132.902 21.2765C131.91 20.8024 129.394 21.4783 128.717 22.4006C128.232 23.0615 127.71 22.9738 128.066 22.2911C128.135 22.159 128.26 21.8547 128.344 21.6148C128.428 21.3748 128.596 21.082 128.717 20.9644C129.572 20.13 129.576 20.1248 129.567 19.5026C129.549 18.2304 127.772 16.0349 126.121 15.2458C125.888 15.1347 125.625 14.9761 125.537 14.8934C125.448 14.8106 125.208 14.701 125.003 14.6497C124.797 14.5985 124.496 14.4864 124.334 14.4004C122.936 13.6615 118.758 13.6816 117.27 14.4343C117.062 14.5395 116.766 14.6514 116.613 14.6833C116.331 14.7417 116.061 14.9018 114.738 15.7956C114.359 16.052 113.849 16.5427 113.229 17.2473C112.237 18.3759 111.65 20.4084 112.117 21.0991C112.565 21.7606 112.941 22.9718 112.699 22.9718C112.652 22.9718 112.428 22.7823 112.201 22.551C111.513 21.8516 111.397 21.7726 110.62 21.4765C109.634 21.1002 108.389 21.0088 107.87 21.2744C107.694 21.3641 107.319 21.4794 107.036 21.53C106.754 21.5808 106.373 21.7094 106.191 21.8158C106.008 21.9222 105.649 22.0637 105.393 22.1304C105.137 22.1971 104.837 22.3238 104.728 22.4123C104.618 22.5006 104.394 22.6631 104.229 22.7732C104.065 22.8835 103.93 23.0016 103.93 23.0355C103.93 23.0695 103.814 23.1658 103.673 23.2493C103.421 23.3989 103.065 23.7512 102.477 24.4304C101.836 25.1722 101.625 25.4658 101.532 25.7487C101.479 25.9106 101.333 26.2059 101.207 26.4047C101.081 26.6034 100.979 26.8102 100.979 26.8644C100.979 26.9187 100.835 27.2609 100.66 27.6251C100.484 27.9895 100.341 28.3349 100.341 28.3932C100.341 28.4514 100.246 28.6796 100.131 28.9006C99.6974 29.7335 99.7286 31.7765 100.195 33.0907C100.571 34.1504 101.131 34.8837 102.155 35.658C102.723 36.0872 102.695 36.1343 101.905 36.0783C101.119 36.0228 99.9586 35.5002 99.63 35.0541C99.531 34.9197 99.2948 34.743 99.1054 34.6615C98.7676 34.516 98.7581 34.5016 98.6292 33.9265C98.5568 33.6039 98.424 33.1857 98.334 32.9973C97.6821 31.6327 97.9164 29.2606 98.9205 27.0549C99.0109 26.8567 99.1353 26.5506 99.1972 26.3744C99.2591 26.1983 99.3912 25.9279 99.4908 25.7738C99.5902 25.6197 99.7198 25.3676 99.7786 25.2135C99.8705 24.9728 100.03 24.6742 100.382 24.081C100.637 23.6516 101.789 22.3475 102.278 21.9337C102.594 21.6662 102.943 21.3648 103.052 21.2637C103.162 21.1625 103.36 21.0117 103.491 20.9281C103.623 20.8446 103.81 20.7002 103.907 20.6067C104.004 20.5135 104.225 20.3905 104.397 20.3335C104.569 20.2765 104.804 20.1487 104.919 20.0497C105.034 19.9508 105.298 19.8263 105.506 19.7734C105.714 19.7203 106.082 19.5907 106.323 19.4855C107.417 19.0086 109.662 19.0335 110.29 19.5296C110.811 19.9409 111.178 19.644 111.231 18.7685C111.306 17.5339 111.646 16.4654 112.148 15.8862C112.225 15.7981 112.309 15.6539 112.336 15.5658C112.381 15.4218 112.688 15.089 113.382 14.4339C113.792 14.0475 114.275 13.6997 114.783 13.4265C115.051 13.2823 115.388 13.1002 115.532 13.0222C115.677 12.9442 115.998 12.8273 116.246 12.7625C116.494 12.6977 116.777 12.5936 116.874 12.5312C117.507 12.1271 120.33 11.8574 121.97 12.0446ZM98.2026 35.1493C98.0773 36.1438 98.1722 37.5234 98.4031 38.0648C98.5343 38.3724 98.6901 38.7502 98.7495 38.9043C99 39.5537 99.8998 40.7205 100.663 41.3862C100.941 41.6283 101.26 41.9074 101.373 42.0061C101.686 42.2812 102.095 42.559 102.534 42.795C102.753 42.9127 103.014 43.0724 103.113 43.1499C103.355 43.3403 105.201 43.9269 105.844 44.0181C106.13 44.0586 106.596 44.1709 106.881 44.2676C107.429 44.4537 108.869 44.443 109.354 44.2491C109.59 44.1551 109.966 44.0557 110.494 43.9485C110.705 43.9059 110.992 43.786 111.132 43.682C111.273 43.5783 111.501 43.4489 111.638 43.3946C111.775 43.3403 111.961 43.2174 112.051 43.1216C112.698 42.4308 112.917 42.2584 113.009 42.3695C113.291 42.7106 112.392 44.1987 111.602 44.6997C111.426 44.8113 111.259 44.9388 111.232 44.9835C111.204 45.0281 110.959 45.1341 110.687 45.2191C110.414 45.3041 109.994 45.4524 109.753 45.5487C108.749 45.9495 106.274 45.8855 104.914 45.4234C104.599 45.3166 104.276 45.2285 104.196 45.2279C103.996 45.2263 103.494 45.045 103.001 44.7958C102.775 44.6818 102.538 44.5886 102.473 44.5886C102.409 44.5886 102.271 44.5213 102.166 44.4393C102.061 44.3569 101.76 44.1755 101.497 44.036C100.938 43.7392 100.569 43.4923 100.181 43.1555C100.027 43.022 99.6896 42.7312 99.4301 42.5094C98.7622 41.9378 97.7534 40.6022 97.4933 39.945C97.4322 39.7909 97.2973 39.4847 97.1936 39.2646C96.8123 38.4559 96.8623 36.4129 97.2754 35.9201C97.3818 35.7932 97.4689 35.6561 97.4689 35.6158C97.4689 35.4884 98.0464 34.894 98.1386 34.9265C98.187 34.9434 98.2157 35.0438 98.2026 35.1493Z" fill="#1C8936"/>
</svg>
